<svg width="512" height="512" viewBox="0 0 512 512" fill="none" xmlns="http://www.w3.org/2000/svg">
<g clip-path="url(#clip0_4440_10800)">
<path d="M256 6.43066C158.722 6.43066 98.7971 61.3018 98.6328 61.394C98.6328 61.394 96.1409 64.5031 95.676 66.5711C91.8906 83.3719 88.3547 105.89 88.3547 122.321C88.3547 261.931 206.087 375.078 345.695 375.078C399.455 375.078 459.268 349.311 499.298 318.332C500.194 317.638 503.035 312.982 503.035 312.982C503.211 311.905 508.785 289.71 508.785 259.215C508.785 119.606 395.61 6.43066 256 6.43066Z" fill="#AFE6FF"/>
<path d="M345.673 367.941C206.063 367.941 92.8885 254.765 92.8885 115.157C92.8885 96.7035 94.8784 78.7234 98.6327 61.3936C40.4972 107.708 3.21533 179.108 3.21533 259.215C3.21533 320.03 24.6913 375.829 60.4722 419.443L451.528 419.447C476.382 389.165 494.382 352.922 503.035 312.982C459.854 347.376 405.168 367.941 345.673 367.941Z" fill="#73C8F0"/>
<path d="M359.626 207.829H358.625L351.776 174.157L358.625 146.378H359.626C373.014 146.378 383.867 157.231 383.867 170.618V183.59C383.867 196.976 373.015 207.829 359.626 207.829Z" fill="#FF965A"/>
<path d="M258.151 447.376C327.582 447.376 383.867 401.851 383.867 345.692C383.867 289.534 327.582 244.009 258.151 244.009C188.721 244.009 132.436 289.534 132.436 345.692C132.436 401.851 188.721 447.376 258.151 447.376Z" fill="#FF3C3C"/>
<path d="M393.238 336.113L390.893 335.594L310.42 331.782C233.102 328.119 168.412 389.817 168.412 467.223V496.389C195.704 506.471 225.204 512 256 512C334.319 512 404.957 476.186 451.528 419.446V408.714C451.528 373.839 427.29 343.649 393.238 336.113Z" fill="#FF3C3C"/>
<path d="M258.347 431.311C334.07 431.311 395.455 421.002 395.455 359.754C395.455 351.563 394.347 343.583 392.264 335.897L255.705 305.679L118.719 336.083C84.4169 343.697 60.4722 374.111 60.4722 408.675V419.442C88.9839 454.195 126.58 481.21 169.631 496.86C180.652 458.914 215.751 431.256 257.281 431.31C257.635 431.311 257.991 431.311 258.347 431.311Z" fill="#DC1428"/>
<path d="M383.867 345.692C383.867 401.85 327.582 411.303 258.151 411.303C188.721 411.303 132.436 401.85 132.436 345.692C132.436 289.535 188.721 244.009 258.151 244.009C327.582 244.009 383.867 289.534 383.867 345.692Z" fill="#FF3C3C"/>
<path d="M344.581 331.938C344.581 370.547 305.885 401.846 258.151 401.846C210.417 401.846 171.721 370.548 171.721 331.938C171.721 293.329 210.417 302.675 258.151 302.675C305.885 302.675 344.581 293.33 344.581 331.938Z" fill="#DC1428"/>
<path d="M256.242 381.978C276.354 381.978 292.657 365.674 292.657 345.562V263.996H219.825V345.561C219.825 365.674 236.129 381.978 256.242 381.978Z" fill="#FF965A"/>
<path d="M244.268 338.988C244.27 338.988 244.271 338.987 244.273 338.986C235.811 338.534 227.627 337.048 219.826 334.68V263.996H286.615L292.658 318.526C283.689 332.962 258.622 339.756 244.268 338.988Z" fill="#EF6A30"/>
<path d="M355.029 136.229C355.029 102.996 333.709 72.6074 300.477 72.6074H212.006C202.524 72.6074 193.839 75.0893 186.262 79.3977V255.05C186.262 293.389 217.098 324.763 255.435 325.053C255.704 325.055 255.973 325.056 256.242 325.056C313.34 325.056 359.627 278.769 359.627 221.672V189.033L355.029 136.229Z" fill="#FFBE82"/>
<path d="M359.626 188.754V165.452C364.702 165.452 368.818 169.567 368.818 174.644V179.563C368.818 184.639 364.703 188.754 359.626 188.754Z" fill="#EF6A30"/>
<path d="M127.592 183.589C127.592 196.976 138.446 207.829 151.833 207.829H153.389L165.798 181.686L153.596 146.378H151.832C138.445 146.378 127.591 157.231 127.591 170.618L127.592 183.589Z" fill="#FF965A"/>
<path d="M141.972 179.741C141.972 185.187 146.387 189.601 151.833 189.601V164.604C146.387 164.604 141.972 169.018 141.972 174.464V179.741Z" fill="#EF6A30"/>
<path d="M135.354 190.863C135.354 199.964 142.732 207.342 151.833 207.342V174.584C142.732 174.584 135.354 181.962 135.354 191.063V190.863Z" fill="white"/>
<path d="M211.572 183.037V190.327C211.572 195.083 215.428 198.938 220.183 198.938C224.938 198.938 228.794 195.083 228.794 190.327V183.037H211.572Z" fill="#FF965A"/>
<path d="M281.732 183.037V190.327C281.732 195.083 285.588 198.938 290.343 198.938C295.099 198.938 298.954 195.083 298.954 190.327V183.037H281.732Z" fill="#FF965A"/>
<path d="M220.183 192.042C215.428 192.042 211.572 188.187 211.572 183.431V172.355L214.746 167.548L211.572 162.742V159.881C211.572 155.126 215.428 151.271 220.183 151.271C224.938 151.271 228.794 155.126 228.794 159.881V183.431C228.794 188.187 224.938 192.042 220.183 192.042Z" fill="#373C41"/>
<path d="M290.343 192.042C285.588 192.042 281.732 188.187 281.732 183.431V172.355L284.907 167.548L281.732 162.742V159.881C281.732 155.126 285.588 151.271 290.343 151.271C295.099 151.271 298.954 155.126 298.954 159.881V183.431C298.954 188.187 295.099 192.042 290.343 192.042Z" fill="#373C41"/>
<path d="M231.527 146.965H206.416C201.661 146.965 197.805 143.109 197.805 138.354C197.805 133.599 201.661 129.743 206.416 129.743H231.527C236.283 129.743 240.138 133.599 240.138 138.354C240.138 143.109 236.283 146.965 231.527 146.965Z" fill="#373C41"/>
<path d="M303.283 146.965H278.172C273.417 146.965 269.562 143.109 269.562 138.354C269.562 133.599 273.417 129.743 278.172 129.743H303.283C308.039 129.743 311.894 133.599 311.894 138.354C311.894 143.109 308.039 146.965 303.283 146.965Z" fill="#373C41"/>
<path d="M287.947 239.679H279.081L255.731 244.526L232.38 239.679H224.537C221.905 239.679 219.803 241.975 220.154 244.583C220.825 249.572 222.508 254.24 224.986 258.376L272.268 272.388C282.946 267.146 290.682 256.829 292.33 244.583C292.681 241.975 290.579 239.679 287.947 239.679Z" fill="#BE1423"/>
<path d="M342.83 100.261C343.817 100.262 344.793 100.214 345.763 100.142C336.481 83.8574 320.688 72.6064 300.477 72.6064H212.006C202.523 72.6064 193.839 75.0883 186.262 79.3967V81.597C166.811 90.6727 154.112 110.104 154.112 133.949L151.833 189.031V220.647C151.833 280.319 201.831 328.083 261.845 324.904C218.379 312.282 186.607 272.169 186.607 224.631C186.866 218.757 186.607 161.835 186.607 140.212C186.607 140.058 186.608 139.905 186.609 139.751C186.775 117.76 204.894 100.124 226.885 100.146L342.83 100.261Z" fill="#FF965A"/>
<path d="M242.289 204.265C240.149 212.813 244.039 222.124 251.478 224.93C252.975 225.495 254.576 225.801 256.241 225.801C257.906 225.801 259.508 225.495 261.005 224.93C268.444 222.124 272.335 212.813 270.194 204.265L263.098 175.928C261.311 168.794 251.173 168.794 249.386 175.928L242.289 204.265Z" fill="#FF965A"/>
<path d="M359.626 78.8691V136.774V136.777V189.032C351.979 189.032 345.778 182.832 345.778 175.184V114.039C345.778 100.533 338.178 88.0851 326.033 82.1776C325.735 82.0323 325.438 81.891 325.141 81.7538V78.8701H359.626V78.8691Z" fill="#262A2D"/>
<path d="M214.746 175.529C212.993 175.529 211.572 174.108 211.572 172.354V162.742C211.572 160.988 212.993 159.567 214.746 159.567C216.5 159.567 217.921 160.988 217.921 162.742V172.354C217.921 174.108 216.499 175.529 214.746 175.529Z" fill="white"/>
<path d="M284.907 175.529C283.153 175.529 281.732 174.108 281.732 172.354V162.742C281.732 160.988 283.153 159.567 284.907 159.567C286.66 159.567 288.081 160.988 288.081 162.742V172.354C288.081 174.108 286.66 175.529 284.907 175.529Z" fill="white"/>
<path d="M224.99 258.374C231.353 268.987 242.966 276.094 256.241 276.094C261.992 276.094 267.428 274.757 272.264 272.383C270.185 259.342 258.891 249.375 245.265 249.375C237.223 249.374 229.993 252.847 224.99 258.374Z" fill="#FF3C3C"/>
<path d="M273.944 249.374H237.516C234.679 249.374 232.379 247.074 232.379 244.237V239.678H279.081V244.237C279.08 247.074 276.781 249.374 273.944 249.374Z" fill="white"/>
<path d="M271.333 0.1022C241.744 0.129252 217.958 24.4197 218.484 54.0045C218.708 66.6101 219.049 79.2137 219.568 91.8123C219.572 91.9165 219.577 92.0207 219.581 92.1249L342.83 92.2462C364.276 92.2672 381.672 74.8883 381.672 53.4424V0L271.333 0.1022Z" fill="#373C41"/>
<path d="M219.97 59.1305C219.97 26.5819 246.339 0.188368 278.888 0.158309L381.67 0.0631233V0L210.751 0.158309C178.202 0.188368 151.833 26.5829 151.833 59.1305V136.775V136.778V189.033C159.48 189.033 165.681 182.833 165.681 175.185V114.04C165.681 113.959 165.681 113.877 165.682 113.797C165.764 101.727 175.804 92.0828 187.876 92.0949L219.971 92.1259V59.1305H219.97Z" fill="#262A2D"/>
<path d="M208.556 492.365C205.237 492.365 202.545 489.673 202.545 486.354V416.876C202.545 413.557 205.237 410.864 208.556 410.864C211.876 410.864 214.568 413.557 214.568 416.876V486.354C214.568 489.673 211.877 492.365 208.556 492.365Z" fill="#DC1428"/>
<path d="M208.556 477.335C205.237 477.335 202.545 474.643 202.545 471.323V401.846C202.545 398.526 205.237 395.834 208.556 395.834C211.876 395.834 214.568 398.526 214.568 401.846V471.323C214.568 474.644 211.877 477.335 208.556 477.335Z" fill="white"/>
<path d="M306.754 492.365C303.435 492.365 300.742 489.673 300.742 486.354V416.876C300.742 413.557 303.435 410.864 306.754 410.864C310.074 410.864 312.766 413.557 312.766 416.876V486.354C312.766 489.673 310.075 492.365 306.754 492.365Z" fill="#DC1428"/>
<path d="M306.754 477.335C303.435 477.335 300.742 474.643 300.742 471.323V401.846C300.742 398.526 303.435 395.834 306.754 395.834C310.074 395.834 312.766 398.526 312.766 401.846V471.323C312.766 474.644 310.075 477.335 306.754 477.335Z" fill="white"/>
<path d="M147.267 230.31C144.777 230.31 142.758 228.291 142.758 225.801V192.041C142.758 189.551 144.777 187.532 147.267 187.532C149.756 187.532 151.775 189.551 151.775 192.041V225.801C151.775 228.292 149.756 230.31 147.267 230.31Z" fill="white"/>
<path d="M376.106 193.369C376.106 202.469 368.727 209.848 359.626 209.848V177.09C368.727 177.09 376.106 184.468 376.106 193.569V193.369Z" fill="white"/>
<path d="M364.192 232.817C361.703 232.817 359.684 230.798 359.684 228.308V194.548C359.684 192.058 361.703 190.039 364.192 190.039C366.682 190.039 368.701 192.058 368.701 194.548V228.308C368.701 230.798 366.683 232.817 364.192 232.817Z" fill="white"/>
</g>
<defs>
<clipPath id="clip0_4440_10800">
<rect width="512" height="512" fill="white"/>
</clipPath>
</defs>
</svg>
