<svg width="283" height="178" viewBox="0 0 283 178" fill="none" xmlns="http://www.w3.org/2000/svg">
<rect width="283" height="178" fill="#DADADA"/>
<path d="M141.033 128.033C170.322 128.033 194.066 104.289 194.066 74.9998C194.066 45.7105 170.322 21.9668 141.033 21.9668C111.744 21.9668 88 45.7105 88 74.9998C88 104.289 111.744 128.033 141.033 128.033Z" fill="#E6E6E6"/>
<path fill-rule="evenodd" clip-rule="evenodd" d="M193.94 71.3949C194.02 72.5863 194.065 73.7876 194.065 74.9997C194.065 100.659 175.84 122.061 151.63 126.972L110.584 95.3436L112.623 77.2894C112.623 77.2894 111.827 67.4627 111.589 67.3434C111.35 67.2242 109.242 65.4733 109.242 65.4733L109.855 54.4714L112.754 56.7047L112.932 54.466L115.79 56.6679L115.984 54.4486L137.294 70.8691L153.81 56.8229L170.282 69.5161L172.115 54.5777L193.94 71.3949Z" fill="#CCCCCC"/>
<path fill-rule="evenodd" clip-rule="evenodd" d="M108.95 55.3706C109.093 53.9829 110.183 54.114 110.178 55.3706V64.2974C110.178 64.7462 110.546 65.1127 110.994 65.1127C111.442 65.1127 111.795 64.7451 111.809 64.2974L112.085 55.3706C112.119 54.693 112.397 54.3666 112.675 54.3731C112.954 54.3677 113.231 54.6941 113.265 55.3706L113.541 64.2974C113.555 64.7451 113.909 65.1127 114.357 65.1127C114.805 65.1127 115.172 64.7462 115.172 64.2974V55.3706C115.167 54.114 116.258 53.9829 116.4 55.3706L117.235 66.5849C117.385 68.5971 115.809 70.2548 114.068 70.2548H111.279C109.538 70.2548 107.962 68.5971 108.112 66.5849L108.947 55.3706H108.95Z" fill="#D9D9D9"/>
<path fill-rule="evenodd" clip-rule="evenodd" d="M111.204 69.0568H114.148L115.254 94.3217C115.285 95.0394 114.666 95.627 113.949 95.627H111.403C110.685 95.627 110.066 95.0394 110.098 94.3217L111.204 69.0568Z" fill="#D9D9D9"/>
<path fill-rule="evenodd" clip-rule="evenodd" d="M168.468 79.8987L166.319 79.9085L167.154 59.442C167.268 56.6623 168.597 54.4571 171.378 54.3834C172.194 54.3617 172.368 54.7943 172.368 55.2897V94.3221C172.369 95.0398 171.78 95.6274 171.062 95.6274H168.517C167.799 95.6274 167.149 95.0377 167.212 94.3221L168.468 79.8987ZM169.835 56.3555C169.562 56.3945 168.792 56.7208 168.479 58.3893C168.166 60.0578 168.171 62.096 168.171 62.096C168.352 60.0958 168.708 57.5556 169.834 56.3555H169.835Z" fill="#D9D9D9"/>
<path d="M156.742 90.7091C165.418 82.0331 165.418 67.9665 156.742 59.2905C148.066 50.6146 134 50.6146 125.324 59.2905C116.648 67.9665 116.648 82.0331 125.324 90.7091C134 99.3851 148.066 99.3851 156.742 90.7091Z" fill="#D9D9D9"/>
<path fill-rule="evenodd" clip-rule="evenodd" d="M141.033 58.1307C145.692 58.1307 149.909 60.0192 152.962 63.0711C156.015 66.1241 157.902 70.3414 157.902 74.9999C157.902 79.6585 156.014 83.8758 152.962 86.9288C149.909 89.9817 145.692 91.8692 141.033 91.8692C136.374 91.8692 132.157 89.9806 129.104 86.9288C126.051 83.8758 124.164 79.6585 124.164 74.9999C124.164 70.3414 126.052 66.1241 129.104 63.0711C132.157 60.0182 136.374 58.1307 141.033 58.1307ZM152.421 63.611C149.507 60.6968 145.48 58.8939 141.033 58.8939C136.586 58.8939 132.559 60.6968 129.645 63.611C126.731 66.5252 124.928 70.5517 124.928 74.9988C124.928 79.446 126.731 83.4725 129.645 86.3867C132.559 89.3009 136.586 91.1038 141.033 91.1038C145.48 91.1038 149.507 89.3009 152.421 86.3867C155.335 83.4725 157.138 79.446 157.138 74.9988C157.138 70.5517 155.335 66.5252 152.421 63.611Z" fill="#E6E6E6"/>
<path d="M78.888 135.432H81.224V147H79.12L73.624 139.04V147H71.296V135.432H73.608L78.888 143.088V135.432ZM86.8489 147.16C86.0382 147.16 85.3315 146.987 84.7289 146.64C84.1315 146.293 83.6675 145.803 83.3369 145.168C83.0115 144.533 82.8489 143.781 82.8489 142.912C82.8489 142.043 83.0115 141.283 83.3369 140.632C83.6675 139.981 84.1315 139.475 84.7289 139.112C85.3315 138.749 86.0409 138.568 86.8569 138.568C87.6729 138.568 88.3795 138.747 88.9769 139.104C89.5742 139.456 90.0355 139.957 90.3609 140.608C90.6862 141.259 90.8489 142.027 90.8489 142.912C90.8489 143.744 90.6889 144.48 90.3689 145.12C90.0542 145.755 89.5982 146.253 89.0009 146.616C88.4089 146.979 87.6915 147.16 86.8489 147.16ZM86.8569 145.424C87.2675 145.424 87.5982 145.304 87.8489 145.064C88.0995 144.824 88.2809 144.509 88.3929 144.12C88.5102 143.725 88.5689 143.296 88.5689 142.832C88.5689 142.395 88.5155 141.981 88.4089 141.592C88.3075 141.203 88.1315 140.888 87.8809 140.648C87.6302 140.408 87.2889 140.288 86.8569 140.288C86.4462 140.288 86.1129 140.403 85.8569 140.632C85.6062 140.856 85.4222 141.163 85.3049 141.552C85.1875 141.936 85.1289 142.363 85.1289 142.832C85.1289 143.264 85.1822 143.68 85.2889 144.08C85.3955 144.475 85.5742 144.797 85.8249 145.048C86.0755 145.299 86.4195 145.424 86.8569 145.424ZM96.046 147V135.432H100.302C101.145 135.432 101.899 135.579 102.566 135.872C103.233 136.16 103.758 136.587 104.142 137.152C104.531 137.717 104.726 138.408 104.726 139.224C104.726 139.992 104.555 140.648 104.214 141.192C103.873 141.736 103.393 142.152 102.774 142.44C102.161 142.728 101.438 142.872 100.606 142.872H98.398V147H96.046ZM98.374 141.064H100.542C101.129 141.064 101.609 140.877 101.982 140.504C102.355 140.125 102.542 139.659 102.542 139.104C102.542 138.528 102.345 138.072 101.95 137.736C101.555 137.395 101.075 137.224 100.51 137.224H98.374V141.064ZM106.188 147V135.112H108.508V139.92C108.641 139.728 108.809 139.539 109.012 139.352C109.214 139.16 109.468 139 109.772 138.872C110.076 138.744 110.446 138.68 110.884 138.68C111.412 138.68 111.892 138.784 112.324 138.992C112.761 139.195 113.11 139.491 113.372 139.88C113.638 140.269 113.772 140.744 113.772 141.304V147H111.428V141.648C111.428 141.275 111.292 140.989 111.02 140.792C110.753 140.589 110.428 140.488 110.044 140.488C109.793 140.488 109.55 140.533 109.316 140.624C109.081 140.715 108.889 140.853 108.74 141.04C108.596 141.221 108.524 141.448 108.524 141.72V147H106.188ZM119.224 147.16C118.413 147.16 117.707 146.987 117.104 146.64C116.507 146.293 116.043 145.803 115.712 145.168C115.387 144.533 115.224 143.781 115.224 142.912C115.224 142.043 115.387 141.283 115.712 140.632C116.043 139.981 116.507 139.475 117.104 139.112C117.707 138.749 118.416 138.568 119.232 138.568C120.048 138.568 120.755 138.747 121.352 139.104C121.949 139.456 122.411 139.957 122.736 140.608C123.061 141.259 123.224 142.027 123.224 142.912C123.224 143.744 123.064 144.48 122.744 145.12C122.429 145.755 121.973 146.253 121.376 146.616C120.784 146.979 120.067 147.16 119.224 147.16ZM119.232 145.424C119.643 145.424 119.973 145.304 120.224 145.064C120.475 144.824 120.656 144.509 120.768 144.12C120.885 143.725 120.944 143.296 120.944 142.832C120.944 142.395 120.891 141.981 120.784 141.592C120.683 141.203 120.507 140.888 120.256 140.648C120.005 140.408 119.664 140.288 119.232 140.288C118.821 140.288 118.488 140.403 118.232 140.632C117.981 140.856 117.797 141.163 117.68 141.552C117.563 141.936 117.504 142.363 117.504 142.832C117.504 143.264 117.557 143.68 117.664 144.08C117.771 144.475 117.949 144.797 118.2 145.048C118.451 145.299 118.795 145.424 119.232 145.424ZM129.556 140.352H127.716L127.732 144.76C127.732 144.963 127.756 145.115 127.804 145.216C127.857 145.312 127.937 145.376 128.044 145.408C128.156 145.435 128.297 145.448 128.468 145.448H129.58V146.888C129.473 146.936 129.305 146.981 129.076 147.024C128.852 147.067 128.537 147.088 128.132 147.088C127.406 147.088 126.844 146.995 126.444 146.808C126.049 146.621 125.774 146.36 125.62 146.024C125.465 145.688 125.388 145.299 125.388 144.856V140.352H124.044V138.728H125.468L126.052 136.232H127.716V138.72H129.556V140.352ZM134.568 147.16C133.757 147.16 133.05 146.987 132.448 146.64C131.85 146.293 131.386 145.803 131.056 145.168C130.73 144.533 130.568 143.781 130.568 142.912C130.568 142.043 130.73 141.283 131.056 140.632C131.386 139.981 131.85 139.475 132.448 139.112C133.05 138.749 133.76 138.568 134.576 138.568C135.392 138.568 136.098 138.747 136.696 139.104C137.293 139.456 137.754 139.957 138.08 140.608C138.405 141.259 138.568 142.027 138.568 142.912C138.568 143.744 138.408 144.48 138.088 145.12C137.773 145.755 137.317 146.253 136.72 146.616C136.128 146.979 135.41 147.16 134.568 147.16ZM134.576 145.424C134.986 145.424 135.317 145.304 135.568 145.064C135.818 144.824 136 144.509 136.112 144.12C136.229 143.725 136.288 143.296 136.288 142.832C136.288 142.395 136.234 141.981 136.128 141.592C136.026 141.203 135.85 140.888 135.6 140.648C135.349 140.408 135.008 140.288 134.576 140.288C134.165 140.288 133.832 140.403 133.576 140.632C133.325 140.856 133.141 141.163 133.024 141.552C132.906 141.936 132.848 142.363 132.848 142.832C132.848 143.264 132.901 143.68 133.008 144.08C133.114 144.475 133.293 144.797 133.544 145.048C133.794 145.299 134.138 145.424 134.576 145.424ZM142.909 147L147.053 135.432H149.517L153.653 147H151.325L150.381 144.32H146.221L145.253 147H142.909ZM146.741 142.28H149.821L148.293 137.688L146.741 142.28ZM161.128 138.728L158.024 147H156.336L153.224 138.728H155.336L157.144 144H157.208L158.992 138.728H161.128ZM164.384 147.16C163.856 147.16 163.382 147.061 162.96 146.864C162.539 146.667 162.206 146.381 161.96 146.008C161.715 145.629 161.592 145.171 161.592 144.632C161.592 143.725 161.931 143.037 162.608 142.568C163.286 142.093 164.355 141.848 165.816 141.832L166.848 141.816V141.32C166.848 140.941 166.736 140.651 166.512 140.448C166.294 140.24 165.952 140.139 165.488 140.144C165.147 140.149 164.822 140.229 164.512 140.384C164.208 140.539 164 140.808 163.888 141.192H161.944C161.976 140.595 162.15 140.104 162.464 139.72C162.779 139.331 163.206 139.043 163.744 138.856C164.288 138.664 164.904 138.568 165.592 138.568C166.44 138.568 167.12 138.675 167.632 138.888C168.144 139.096 168.515 139.397 168.744 139.792C168.974 140.181 169.088 140.645 169.088 141.184V147H167.136L166.944 145.576C166.662 146.173 166.307 146.587 165.88 146.816C165.459 147.045 164.96 147.16 164.384 147.16ZM165.168 145.624C165.382 145.624 165.587 145.587 165.784 145.512C165.987 145.432 166.166 145.328 166.32 145.2C166.48 145.067 166.608 144.917 166.704 144.752C166.8 144.587 166.848 144.416 166.848 144.24V143.016L166.008 143.032C165.619 143.037 165.256 143.085 164.92 143.176C164.584 143.261 164.312 143.403 164.104 143.6C163.902 143.797 163.8 144.064 163.8 144.4C163.8 144.784 163.934 145.085 164.2 145.304C164.467 145.517 164.79 145.624 165.168 145.624ZM173.508 138.728V147H171.276V138.728H173.508ZM173.532 135.44V137.544H171.26V135.44H173.532ZM178.312 147.144C177.704 147.144 177.221 147.072 176.864 146.928C176.507 146.784 176.243 146.595 176.072 146.36C175.901 146.12 175.792 145.856 175.744 145.568C175.696 145.275 175.672 144.979 175.672 144.68V135.112H177.96V144.392C177.96 144.696 178.024 144.944 178.152 145.136C178.285 145.323 178.533 145.437 178.896 145.48L179.288 145.504V146.944C179.128 146.997 178.965 147.043 178.8 147.08C178.635 147.123 178.472 147.144 178.312 147.144ZM183.197 147.16C182.669 147.16 182.194 147.061 181.773 146.864C181.352 146.667 181.018 146.381 180.773 146.008C180.528 145.629 180.405 145.171 180.405 144.632C180.405 143.725 180.744 143.037 181.421 142.568C182.098 142.093 183.168 141.848 184.629 141.832L185.661 141.816V141.32C185.661 140.941 185.549 140.651 185.325 140.448C185.106 140.24 184.765 140.139 184.301 140.144C183.96 140.149 183.634 140.229 183.325 140.384C183.021 140.539 182.813 140.808 182.701 141.192H180.757C180.789 140.595 180.962 140.104 181.277 139.72C181.592 139.331 182.018 139.043 182.557 138.856C183.101 138.664 183.717 138.568 184.405 138.568C185.253 138.568 185.933 138.675 186.445 138.888C186.957 139.096 187.328 139.397 187.557 139.792C187.786 140.181 187.901 140.645 187.901 141.184V147H185.949L185.757 145.576C185.474 146.173 185.12 146.587 184.693 146.816C184.272 147.045 183.773 147.16 183.197 147.16ZM183.981 145.624C184.194 145.624 184.4 145.587 184.597 145.512C184.8 145.432 184.978 145.328 185.133 145.2C185.293 145.067 185.421 144.917 185.517 144.752C185.613 144.587 185.661 144.416 185.661 144.24V143.016L184.821 143.032C184.432 143.037 184.069 143.085 183.733 143.176C183.397 143.261 183.125 143.403 182.917 143.6C182.714 143.797 182.613 144.064 182.613 144.4C182.613 144.784 182.746 145.085 183.013 145.304C183.28 145.517 183.602 145.624 183.981 145.624ZM194.577 147.16C194.166 147.16 193.811 147.107 193.513 147C193.214 146.893 192.961 146.752 192.753 146.576C192.545 146.395 192.374 146.195 192.241 145.976C192.107 145.757 192.003 145.533 191.929 145.304L191.665 147H189.969V135.112H192.313V139.848C192.414 139.672 192.545 139.507 192.705 139.352C192.865 139.197 193.051 139.061 193.265 138.944C193.478 138.827 193.713 138.736 193.969 138.672C194.23 138.603 194.507 138.568 194.801 138.568C195.83 138.568 196.635 138.939 197.217 139.68C197.803 140.421 198.097 141.467 198.097 142.816C198.097 143.691 197.963 144.453 197.697 145.104C197.43 145.755 197.035 146.261 196.513 146.624C195.99 146.981 195.345 147.16 194.577 147.16ZM194.065 145.48C194.566 145.48 194.982 145.275 195.313 144.864C195.649 144.448 195.817 143.755 195.817 142.784C195.817 141.925 195.657 141.291 195.337 140.88C195.022 140.469 194.593 140.264 194.049 140.264C193.659 140.264 193.337 140.357 193.081 140.544C192.825 140.725 192.633 141.003 192.505 141.376C192.382 141.749 192.318 142.219 192.313 142.784C192.313 143.76 192.457 144.453 192.745 144.864C193.038 145.275 193.478 145.48 194.065 145.48ZM202.296 147.144C201.688 147.144 201.206 147.072 200.848 146.928C200.491 146.784 200.227 146.595 200.056 146.36C199.886 146.12 199.776 145.856 199.728 145.568C199.68 145.275 199.656 144.979 199.656 144.68V135.112H201.944V144.392C201.944 144.696 202.008 144.944 202.136 145.136C202.27 145.323 202.518 145.437 202.88 145.48L203.272 145.504V146.944C203.112 146.997 202.95 147.043 202.784 147.08C202.619 147.123 202.456 147.144 202.296 147.144ZM206.686 143.4C206.68 143.821 206.747 144.189 206.886 144.504C207.024 144.813 207.224 145.053 207.486 145.224C207.752 145.389 208.072 145.472 208.446 145.472C208.846 145.472 209.195 145.387 209.494 145.216C209.798 145.045 210.008 144.765 210.126 144.376H212.23C212.139 144.963 211.904 145.464 211.526 145.88C211.152 146.296 210.699 146.613 210.166 146.832C209.632 147.051 209.078 147.16 208.502 147.16C207.686 147.16 206.966 146.989 206.342 146.648C205.723 146.301 205.24 145.813 204.894 145.184C204.547 144.555 204.374 143.813 204.374 142.96C204.374 142.133 204.531 141.389 204.846 140.728C205.16 140.061 205.616 139.536 206.214 139.152C206.816 138.763 207.539 138.568 208.382 138.568C209.224 138.568 209.931 138.747 210.502 139.104C211.078 139.456 211.51 139.949 211.798 140.584C212.091 141.213 212.238 141.941 212.238 142.768V143.4H206.686ZM206.678 142.008H210.054C210.054 141.677 209.992 141.373 209.87 141.096C209.747 140.819 209.56 140.6 209.31 140.44C209.064 140.28 208.755 140.2 208.382 140.2C208.019 140.2 207.71 140.288 207.454 140.464C207.203 140.635 207.011 140.859 206.878 141.136C206.744 141.413 206.678 141.704 206.678 142.008Z" fill="white"/>
</svg>
