<svg width="304" height="200" viewBox="0 0 304 200" fill="none" xmlns="http://www.w3.org/2000/svg">
<path fill-rule="evenodd" clip-rule="evenodd" d="M160.478 13.2286C175.829 18.8469 190.423 30.8752 201.917 42.0908C225.852 65.4455 229.424 70.3559 258.954 89.963C276.164 101.391 289.733 111.055 296.419 123.981C315.198 160.29 292.83 199.508 245.957 199.508H55.4191C55.4191 199.508 33.0058 200.006 16.6508 180.599C-38.7838 114.823 53.1592 -26.0485 160.478 13.2286Z" fill="#FFEEEE"/>
<path d="M98.8163 112.246C101.938 117.031 104.716 122.076 107.088 127.278C103.625 129.46 100.34 131.924 97.2673 134.615C100.808 132.747 104.629 131.404 108.544 130.623C113.107 141.477 119.199 155.893 119.601 167.223C111.542 166.668 99.9028 162.113 91.6864 159.575C93.7338 156.66 95.8665 153.83 98.1099 151.082C94.3414 153.164 90.7226 155.507 87.2774 158.11C79.0385 155.229 70.9628 151.429 63.4124 146.833C67.0207 142.264 71.2621 138.163 75.4706 134.101C69.0801 136.158 63.0068 139.169 57.4828 142.996C54.1783 140.734 51.0204 138.332 48.0003 135.78C47.4959 135.354 47.0005 134.921 46.4977 134.481C42.5302 131.008 38.9996 127.589 35.7939 124.06C36.6724 123.293 37.5509 122.525 38.4294 121.757C42.9971 117.769 47.5767 113.759 52.1444 109.769C45.0609 111.239 39.3903 115.189 32.7213 118.023C32.1826 118.251 31.6408 118.493 31.1065 118.728L31.1005 118.721C25.2622 111.067 19.1141 100.755 14.2486 89.9092C15.398 89.1923 16.5893 88.5338 17.8076 87.9292C19.0213 87.3021 20.286 86.7259 21.5461 86.2156C19.9567 86.0629 18.3598 85.9537 16.751 85.8773C15.3202 85.8085 13.8715 85.7666 12.4288 85.7681C10.1943 80.5539 7.93742 74.8263 5.54883 68.4523C14.1439 68.5361 22.0954 68.786 29.5351 69.4909C29.794 70.8469 30.0843 72.1923 30.3956 73.5348C30.9374 75.9338 31.56 78.309 32.2754 80.6572C32.7019 78.6607 33.2452 76.6911 33.9067 74.747C34.4439 73.213 35.0351 71.7029 35.7011 70.2123C43.6436 71.3078 51.013 73.0993 58.0111 75.9847C57.5786 77.8016 57.173 79.6215 56.7405 81.4384C55.654 86.1183 54.5554 90.7817 53.4749 95.4691C55.3097 91.6573 57.3092 87.9382 59.4658 84.3014C60.6527 82.3004 61.8948 80.3219 63.1819 78.3718C68.7568 81.1825 74.0937 84.7953 79.3184 89.4363C82.2368 92.0359 85.0654 94.8376 87.7488 97.8293C86.9062 99.4711 86.0652 101.113 85.2151 102.761C83.2021 106.701 81.1967 110.634 79.1717 114.558C82.9238 111.441 86.6713 108.3 90.4233 105.182C91.1192 104.607 91.8032 104.03 92.4901 103.461C94.7275 106.281 96.8378 109.214 98.8163 112.257" fill="#FFD4D4"/>
<path d="M23.8705 81.2706L24.1713 81.4861L23.9513 81.5505C23.9244 81.4577 23.8974 81.3649 23.8705 81.2706ZM68.2256 116.293L68.29 116.348L68.2212 116.341L68.2271 116.293H68.2256ZM11.3588 72.5693C12.3526 73.2682 22.3604 80.193 23.3497 80.8995C19.2669 80.9324 15.1737 81.7211 11.3483 83.2102L11.7345 84.1336C15.7708 82.5667 20.117 81.8004 24.4168 81.9097L24.7745 81.9186C27.7422 84.0468 30.6906 86.2034 33.6165 88.387C27.7407 89.5918 22.338 92.0402 17.6386 95.4211C17.4366 95.5663 17.2345 95.7144 17.034 95.8641C17.1836 96.1709 17.3348 96.4747 17.4845 96.777C17.7284 96.5929 17.9738 96.4118 18.2223 96.2337C23.0474 92.7631 28.6252 90.3012 34.7 89.1952C35.7521 89.9824 36.7998 90.7756 37.8459 91.5703C32.1992 93.4081 26.8473 96.2248 21.9653 99.7358C21.2454 100.254 20.5375 100.785 19.8401 101.333C20.0018 101.632 20.1634 101.93 20.325 102.225C21.0554 101.65 21.7977 101.092 22.5505 100.55C27.5492 96.9551 33.0403 94.1056 38.8202 92.3126C41.0142 93.9873 43.1963 95.677 45.3664 97.3816C41.562 99.4784 37.8818 101.804 34.3543 104.341C31.37 106.487 28.495 108.786 25.7473 111.222C25.9343 111.504 26.1214 111.784 26.31 112.06C29.0638 109.612 31.9462 107.306 34.9395 105.154C38.5478 102.557 42.3193 100.185 46.2209 98.0551C51.3214 102.078 56.3545 106.186 61.3173 110.374C56.1031 112.773 51.1702 115.646 46.5831 118.946C43.4881 121.173 40.5488 123.595 37.786 126.196C38.0165 126.437 38.2485 126.676 38.4819 126.916C41.2103 124.348 44.1122 121.958 47.1683 119.759C51.8287 116.407 56.8484 113.499 62.1629 111.088C64.1159 112.743 66.0586 114.41 67.9892 116.089C61.2948 118.152 54.9417 121.336 49.2456 125.434C46.9049 127.118 44.6764 128.956 42.5797 130.933C42.8221 131.16 43.0676 131.389 43.3145 131.617C45.3649 129.688 47.5439 127.893 49.8308 126.248C55.6017 122.097 62.0596 118.897 68.8557 116.874L68.8812 116.866C72.5568 120.076 76.1936 123.331 79.7885 126.631C72.5329 129.572 65.629 133.395 59.2684 137.97C57.8092 139.019 56.3799 140.108 54.9806 141.235C55.2605 141.439 55.5433 141.64 55.8262 141.84C57.1417 140.786 58.4842 139.767 59.8536 138.782C66.2785 134.161 73.2647 130.316 80.6056 127.383C82.3462 128.986 84.0748 130.599 85.7959 132.223C83.7171 133.428 81.6982 134.734 79.7496 136.136C74.7898 139.704 70.273 143.89 66.3519 148.564C66.6467 148.732 66.9416 148.9 67.2379 149.066C71.0782 144.513 75.4917 140.433 80.3348 136.949C82.3387 135.508 84.416 134.168 86.5562 132.94C88.3222 134.611 90.0762 136.295 91.8213 137.988C87.52 139.661 83.4357 141.889 79.6882 144.586C76.8432 146.632 74.1926 148.949 71.7861 151.495C72.0974 151.653 72.4087 151.809 72.7215 151.965C75.0278 149.551 77.5615 147.351 80.2734 145.399C84.0778 142.662 88.2354 140.415 92.613 138.757C95.0435 141.125 97.453 143.513 99.8416 145.923C94.807 147.309 90.0268 149.621 85.7809 152.676C84.3532 153.702 82.9868 154.813 81.6907 156.001C82.0349 156.14 82.3806 156.278 82.7263 156.414C83.8862 155.375 85.1015 154.398 86.3661 153.488C90.6719 150.392 95.5373 148.075 100.654 146.741C103.496 149.618 106.308 152.524 109.091 155.459C105.948 156.276 102.959 157.695 100.316 159.597C99.4615 160.211 98.6443 160.877 97.8691 161.588L98.9616 161.953C99.5827 161.408 100.231 160.893 100.901 160.41C103.597 158.472 106.666 157.055 109.882 156.296C119.372 166.344 110.212 159.777 118.971 170.463L120.028 170.174C111.169 159.35 120.221 165.787 110.614 155.615C111.455 152.554 113.025 149.682 115.131 147.276C115.005 146.917 114.88 146.557 114.751 146.2C112.495 148.653 110.786 151.599 109.815 154.772C107.027 151.831 104.209 148.919 101.361 146.037C103.739 141.921 106.81 138.191 110.394 135.042L109.989 134.068C106.282 137.275 103.101 141.083 100.63 145.3C98.1893 142.838 95.7274 140.397 93.243 137.977C95.3578 131.642 99.1801 125.843 104.161 121.327C104.001 121.024 103.838 120.72 103.674 120.418C98.5949 124.964 94.6753 130.8 92.4483 137.205C90.7497 135.557 89.042 133.918 87.3224 132.29C90.7676 125.9 95.2799 120.066 100.62 115.105C100.442 114.814 100.264 114.524 100.084 114.237C94.6663 119.241 90.0837 125.126 86.5696 131.578C84.8261 129.931 83.0735 128.296 81.3105 126.672C84.6779 119.449 89.6467 112.94 95.7319 107.743C95.5358 107.47 95.3398 107.199 95.1422 106.93C89.0016 112.161 83.976 118.698 80.5383 125.961C76.8282 122.555 73.0747 119.195 69.2778 115.884C70.4032 106.39 73.6883 97.1242 78.7633 88.9393C78.5074 88.7163 78.2515 88.4963 77.9955 88.2778C72.9175 96.4253 69.5906 105.631 68.3678 115.093C66.503 113.473 64.6293 111.864 62.745 110.269C64.1893 100.941 67.2633 91.8397 71.7681 83.4766C71.4913 83.285 71.2144 83.095 70.936 82.9079C66.4492 91.2171 63.3557 100.246 61.8501 109.515C56.9591 105.39 52.0024 101.343 46.9782 97.3802C47.7609 89.4017 50.0583 81.5475 53.695 74.3503C53.3762 74.241 53.0575 74.1333 52.7357 74.0285C49.1767 81.109 46.8944 88.8076 46.0473 96.6453C43.8398 94.9092 41.6188 93.1896 39.3859 91.4865C39.3575 84.6709 41.0067 77.8254 44.1017 71.6863C43.765 71.613 43.4283 71.5411 43.09 71.4708C40.1148 77.4587 38.479 84.0887 38.3877 90.7277C37.4328 90.0019 36.4765 89.279 35.5172 88.5606C35.7237 82.4918 36.9943 76.438 39.2407 70.7494C38.9055 70.6925 38.5687 70.6372 38.2305 70.5833C36.0754 76.1013 34.8212 81.9516 34.5444 87.8318C31.2997 85.4087 28.0296 83.0187 24.7355 80.663C23.6864 76.8766 23.1596 72.9375 23.1701 68.9954L22.1689 68.937C22.1554 72.5813 22.5894 76.2225 23.4619 79.7515C22.6253 79.1574 12.7716 72.3418 11.932 71.7521C11.706 71.592 11.3932 71.6474 11.2346 71.8734C11.076 72.0994 11.1298 72.4122 11.3558 72.5708L11.3588 72.5693Z" fill="#BB3138"/>
<path d="M32.4188 136.659C27.7255 133.281 21.058 132.603 16.2764 135.11C21.4666 137.355 27.2495 138.167 32.9561 137.242C33.7164 137.44 34.4767 137.642 35.2355 137.846C30.0647 137.723 25.1992 140.587 23.3254 144.935C28.5037 144.181 33.1477 141.479 35.8117 138C37.1227 138.354 38.4307 138.72 39.7373 139.092C34.6368 139.537 30.156 142.825 28.6683 147.331C33.3512 146.101 37.431 143.359 40.538 139.323C41.8206 139.694 43.1017 140.073 44.3798 140.46C42.0855 140.51 39.9423 141.581 38.4113 143.097C36.6348 144.857 35.5752 147.155 34.7281 149.482C39.1356 147.915 42.8787 145.017 45.3616 140.76C46.7654 141.191 48.1662 141.632 49.5655 142.084C44.8886 143.416 41.2848 147.178 40.3853 151.704C44.947 149.95 48.6825 146.638 49.8095 142.163C51.4827 142.705 53.1514 143.262 54.8172 143.832C49.3545 145.267 45.0952 149.609 44.0894 154.868C48.7035 152.465 52.5393 148.892 55.3619 144.021C56.7463 144.498 58.1262 144.986 59.5046 145.484C56.9468 146.339 54.7663 147.991 53.3834 150.142C51.8778 152.484 51.3286 155.398 51.8599 158.231C55.332 154.858 58.0528 150.808 60.0403 145.679C61.0551 146.047 62.0683 146.421 63.08 146.801C59.102 149.611 56.7867 154.308 57.0052 159.172C60.3861 156.062 62.7073 151.963 63.2596 146.869C64.9687 147.512 66.6718 148.171 68.369 148.844C64.5347 151.374 62.3107 155.824 62.6085 160.403C62.64 160.882 62.9632 161.549 63.4407 161.411C63.6038 161.365 63.7085 161.227 63.8013 161.097C66.1525 157.807 67.9889 154.177 68.5351 148.912C71.2201 149.979 73.89 151.086 76.545 152.23C71.9624 153.412 68.3391 156.965 67.3528 161.333C71.7484 159.699 75.5752 156.945 77.214 152.52C78.8049 153.21 80.3898 153.913 81.9702 154.63C77.3951 155.56 74.0187 159.626 74.1714 164.092C78.0027 162.131 81.0932 159.053 82.2277 154.747C84.7315 155.887 87.2219 157.061 89.6943 158.268L90.7763 157.813C88.922 156.905 87.0602 156.01 85.1939 155.13C87.0123 153.315 87.2952 150.335 86.3374 147.614C84.5459 149.459 83.829 152.174 84.3992 154.756C83.1226 154.157 81.8445 153.566 80.5619 152.984C82.1588 149.943 81.9987 146.052 80.3853 142.635C78.4622 145.487 78.2886 149.373 79.8735 152.673C78.1434 151.891 76.4088 151.124 74.6683 150.374C76.9551 147.328 77.5028 143.676 76.7216 140.158C73.7912 142.392 72.6523 146.412 73.8182 150.007C72.8334 149.587 71.8471 149.171 70.8594 148.762C71.9354 144.351 72.2782 140.294 71.8935 136.234C70.3625 138.082 68.9677 140.111 68.5157 142.472C68.1415 144.419 68.5247 146.638 69.8013 148.325C68.1625 147.653 66.5177 146.997 64.8684 146.358C66.7347 142.207 66.7497 137.778 64.9253 133.935C62.1985 137.154 61.8288 142.012 63.8911 145.984C62.4649 145.439 61.0356 144.907 59.6018 144.39C60.5253 139.395 59.771 134.969 57.535 131.181C56.1551 133.205 55.5789 135.729 55.9262 138.226C56.2105 140.273 57.1175 142.291 58.4944 143.994C57.0591 143.485 55.6208 142.989 54.1781 142.511C55.1704 137.928 54.1991 133.11 51.3839 129.342C49.2498 133.202 49.9831 138.422 53.0362 142.133C51.6877 141.693 50.3363 141.268 48.9804 140.858C49.2513 135.74 47.156 130.771 43.3277 127.453C42.3878 131.934 44.1628 137.018 47.7756 140.498C46.3508 140.076 44.923 139.671 43.4923 139.282C42.9071 134.496 39.5203 129.752 34.8 127.432C35.7593 131.895 38.5954 136.126 42.5285 139.023C40.8597 138.58 39.1835 138.163 37.5043 137.769C35.2489 132.808 31.1796 128.758 26.2603 126.533C27.7554 131.103 31.4221 135.165 36.0002 137.425C34.8074 137.157 33.6131 136.903 32.4159 136.662" fill="#FFD4D4"/>
<path d="M295.212 199.509H27.3525V200H295.212V199.509Z" fill="#000446"/>
<path fill-rule="evenodd" clip-rule="evenodd" d="M177.756 0H96.1573C88.6773 0 82.5576 6.22741 82.5576 13.8377V185.67C82.5576 193.282 88.6773 199.509 96.1573 199.509H177.756C185.236 199.509 191.355 193.282 191.355 185.67V13.8377C191.355 6.22741 185.236 0 177.756 0Z" fill="#FFC8C8"/>
<path fill-rule="evenodd" clip-rule="evenodd" d="M183.682 0H102.083C94.6031 0 88.4834 6.22741 88.4834 13.8377V185.67C88.4834 193.282 94.6031 199.509 102.083 199.509H183.682C191.162 199.509 197.281 193.282 197.281 185.67V13.8377C197.281 6.22741 191.162 0 183.682 0Z" fill="#FFD4D4"/>
<path fill-rule="evenodd" clip-rule="evenodd" d="M184.324 6.30066C188.286 6.30066 191.55 9.56627 191.55 13.5263V184.793C191.55 188.754 188.286 192.019 184.324 192.019H101.443C97.4819 192.019 94.2178 188.754 94.2178 184.793V13.5263C94.2178 9.56477 97.4819 6.30066 101.443 6.30066H118.933C118.933 8.69674 120.893 10.6573 123.29 10.6573H164.113C166.509 10.6573 168.469 8.69674 168.469 6.30066H184.326H184.324Z" fill="white"/>
<path fill-rule="evenodd" clip-rule="evenodd" d="M142.883 50.2114C165.738 50.2114 184.268 68.7395 184.268 91.5958C184.268 114.452 165.74 132.98 142.883 132.98C120.027 132.98 101.499 114.452 101.499 91.5958C101.499 68.7395 120.027 50.2114 142.883 50.2114Z" fill="#FFEEEE"/>
<path fill-rule="evenodd" clip-rule="evenodd" d="M142.884 58.7047C161.049 58.7047 175.775 73.4299 175.775 91.5958C175.775 109.762 161.05 124.487 142.884 124.487C124.718 124.487 109.993 109.762 109.993 91.5958C109.993 73.4299 124.718 58.7047 142.884 58.7047Z" fill="#FFD4D4"/>
<path fill-rule="evenodd" clip-rule="evenodd" d="M147.264 66.2611H138.5V85.2621H132.828L142.882 98.6822L152.937 85.2621H147.264V66.2611ZM158.905 102.153V92.2872H164.64V107.43H121.126V92.2872H126.631V102.153H158.907H158.905Z" fill="#BB3138"/>
<path fill-rule="evenodd" clip-rule="evenodd" d="M242.319 179.564L246.549 184.92L250.198 181.605L245.045 176.936L242.319 179.564Z" fill="#F4AF8F"/>
<path fill-rule="evenodd" clip-rule="evenodd" d="M245.22 183.822L241.269 194.168C241.269 194.168 239.709 196.469 240.835 197.343C241.653 197.98 242.448 198.756 243.39 197.87L255.291 186.662C255.291 186.662 255.882 185.637 254.608 184.494C253.766 183.736 251.932 182.329 251.022 181.316C250.692 180.948 250.038 180.734 249.651 181.111C249.385 181.373 248.652 182.246 248.222 182.525C247.174 183.211 245.22 183.82 245.22 183.82" fill="#4C3939"/>
<path fill-rule="evenodd" clip-rule="evenodd" d="M244.616 185.408L241.399 193.826C242.627 193.741 243.18 192.981 243.18 192.981C243.18 192.981 245.22 188.355 245.467 186.933C245.714 185.51 245.124 185.45 244.614 185.408" fill="#6E5C5C"/>
<path fill-rule="evenodd" clip-rule="evenodd" d="M241.27 197.685C241.941 198.203 242.616 198.599 243.389 197.869L255.29 186.661C255.29 186.661 255.757 185.851 254.967 184.868L241.269 197.683L241.27 197.685Z" fill="#140505"/>
<path fill-rule="evenodd" clip-rule="evenodd" d="M232.183 192.586L232.202 187.262L237.367 187.385L236.812 193.455L232.183 192.586Z" fill="#F4AF8F"/>
<path fill-rule="evenodd" clip-rule="evenodd" d="M231.841 191.445C231.841 191.445 223.732 194.778 221.457 195.893C219.69 196.758 218.69 198.58 220.14 199.508H237.817C237.832 199.466 237.848 199.419 237.863 199.37C238.125 198.496 238.813 192.257 236.974 192.394C235.832 192.481 234.394 192.759 231.841 191.444" fill="#4C3939"/>
<path fill-rule="evenodd" clip-rule="evenodd" d="M229.902 192.249C227.443 193.271 223.323 195.001 221.632 195.811C222.516 196.493 223.36 196.357 223.36 196.357C223.36 196.357 228.16 194.861 229.525 193.891C230.332 193.319 230.17 192.677 229.902 192.249Z" fill="#6E5C5C"/>
<path fill-rule="evenodd" clip-rule="evenodd" d="M219.438 197.775V197.779L219.426 198.167C219.453 198.72 219.674 199.21 220.143 199.509H237.819C237.834 199.467 237.851 199.421 237.866 199.371C237.916 199.201 238.042 198.313 238.104 197.822L219.439 197.776L219.438 197.775Z" fill="#140505"/>
<path fill-rule="evenodd" clip-rule="evenodd" d="M218.74 116.651L213.047 147.776C212.064 154.973 212.236 154.66 218.125 160.892C218.67 161.47 219.265 162.076 219.912 162.71C226.172 168.845 243.03 182.358 243.03 182.358C243.03 182.358 244.587 182.807 246.606 180.906C248.624 179.006 248.21 177.926 248.21 177.926L225.906 149.649L240.555 120.076L240.701 117.248L219.087 114.388L218.739 116.651H218.74Z" fill="#212B36"/>
<path fill-rule="evenodd" clip-rule="evenodd" d="M228.686 170.529C230.266 171.873 231.881 173.226 233.432 174.513C233.471 172.004 234.267 163.81 234.388 160.403L228.008 152.313C227.276 154.097 228.286 165.352 228.688 170.529" fill="#12143C"/>
<path fill-rule="evenodd" clip-rule="evenodd" d="M217.722 122.215L216.905 126.679C221.332 128.127 229.04 129.135 236.162 128.945L240.555 120.076L240.565 119.861L238.858 119.78L218.251 121.938L217.721 122.215H217.722Z" fill="#031542"/>
<path fill-rule="evenodd" clip-rule="evenodd" d="M240.644 180.43C241.091 180.794 241.486 181.113 241.82 181.382C243.554 180.39 245.428 179.029 247.139 176.567L246.274 175.47C244.625 177.871 242.543 179.32 240.644 180.429" fill="#4C49A0"/>
<path fill-rule="evenodd" clip-rule="evenodd" d="M225.907 149.649L238.889 129.433L230.149 129.067L225.907 149.649Z" fill="#12143C"/>
<path fill-rule="evenodd" clip-rule="evenodd" d="M229.812 119.645L228.799 156.779L231.077 189.548C231.077 189.548 234.17 190.2 236.291 190.077C238.412 189.955 238.421 189.643 238.421 189.643L242.723 154.156C242.723 154.156 248.443 140.439 247.623 127.839C247.267 122.368 247.728 118.129 246.975 116.237C246.222 114.347 242.464 115.106 242.464 115.106L229.812 119.645Z" fill="#212B36"/>
<path fill-rule="evenodd" clip-rule="evenodd" d="M229.782 120.73L229.562 128.805C236.046 129.236 243.025 128.866 247.582 127.119C247.438 124.442 247.475 122.085 247.441 120.186L238.859 119.781L229.782 120.732V120.73Z" fill="#12143C"/>
<path fill-rule="evenodd" clip-rule="evenodd" d="M230.849 186.286L230.941 187.632C233.448 187.877 236.503 188.052 238.659 187.665L238.827 186.283C236.846 186.767 233.513 186.559 230.849 186.286Z" fill="#4C49A0"/>
<mask id="mask0_5112_42931" style="mask-type:luminance" maskUnits="userSpaceOnUse" x="208" y="64" width="6" height="16">
<path d="M212.961 65.1371L212.352 64.8363L208.191 65.9662L208.263 79.4807L213.066 78.6396L212.961 65.1371Z" fill="white"/>
</mask>
<g mask="url(#mask0_5112_42931)">
<path d="M213.066 64.8363H208.191V79.4792H213.066V64.8363Z" fill="url(#paint0_linear_5112_42931)"/>
</g>
<path d="M227.773 91.5314C225.019 97.5747 220.622 105.062 212.741 106.236C205.689 107.286 207.976 85.747 208.731 83.8223C209.552 81.7315 212.349 82.0518 213.449 83.5769C214.172 87.7045 214.526 93.3168 215.487 93.2495C216.397 93.1851 220.749 83.303 226.338 81.2751C227.001 80.8485 229.714 88.6115 227.774 91.5314" fill="#FFD4D4"/>
<path fill-rule="evenodd" clip-rule="evenodd" d="M213.972 86.2484C213.972 86.2484 212.514 87.2631 210.453 86.859C208.392 86.4534 208.053 86.1496 208.053 86.1496C208.053 86.1496 208.247 84.0289 208.723 83.2102C209.199 82.3916 212.158 82.1177 213.171 82.7433C214.184 83.3689 213.973 86.2484 213.973 86.2484" fill="#BB3138"/>
<path d="M226.465 94.2283C223.671 99.6146 219.479 105.233 212.741 106.236C212.509 106.27 212.288 106.279 212.075 106.266C218.069 102.841 221.136 98.2961 223.391 91.5942L226.467 94.2283H226.465Z" fill="#BB3138"/>
<path d="M250.54 84.3072C253.165 88.2209 244.515 102.753 247.981 125.454C239.006 128.179 224.448 127.86 217.116 125.525C217.683 117.884 221.209 88.0637 226.335 81.2751C235.07 78.8281 246.635 80.0463 250.54 84.3072Z" fill="#FFD4D4"/>
<path fill-rule="evenodd" clip-rule="evenodd" d="M248.941 98.4667C247.735 105.312 246.979 116.353 247.982 125.454C241.593 127.393 232.376 127.791 224.95 127.016C226.294 127.046 225.438 127.098 229.204 127.027C232.969 126.956 241.94 125.308 243.462 122.43C244.975 119.569 245.892 103.676 247.091 96.12L248.942 98.4637L248.941 98.4667Z" fill="#BB3138"/>
<path d="M230.604 80.4041C233.488 79.78 237.284 79.4298 241.175 80.3726C241.948 82.5592 240.194 86.8575 234.578 87.2032C230.007 87.4845 228.332 82.4784 230.604 80.4041Z" fill="#BB3138"/>
<path fill-rule="evenodd" clip-rule="evenodd" d="M228.594 74.3968C229.458 76.1149 230.667 77.4394 232.015 78.0859L231.969 80.5838L231.605 80.8936C230.182 82.4186 231.655 84.5782 234.085 85.4507C237.548 85.5121 240.586 82.2944 239.355 80.47L238.82 79.8744L238.702 76.3409C238.913 76.3289 240.452 75.4534 240.911 75.3142C241.369 75.1735 242.041 74.2905 242.086 73.3581C242.131 72.4257 240.691 72.728 240.691 72.728C242.435 70.3409 244.41 68.3923 241.85 66.2432C239.289 64.0941 233.406 62.8399 233.406 62.8399L229.865 61.6127C230.315 62.8339 229.996 66.6099 229.088 69.1556C228.272 71.4379 227.436 72.092 228.594 74.3997" fill="#F4B1B1"/>
<path fill-rule="evenodd" clip-rule="evenodd" d="M237.032 76.8301C237.032 76.8301 235.03 80.2648 233.385 80.5761C231.74 80.8874 232.581 80.6569 231.968 80.5836L232.014 78.0858C233.147 78.2684 234.256 78.1786 237.032 76.8286" fill="#E06B6C"/>
<path d="M245.338 90.804C245.54 86.5102 247.364 80.9593 250.748 84.2848C257.564 90.9821 264.632 105.607 263.193 109.928C261.696 114.266 252.799 129.682 249.724 127.389C248 126.103 245.913 125.482 247.809 122.882C250.012 119.37 253.572 109.823 253.798 108.745C254.576 102.954 245.086 96.138 245.338 90.804Z" fill="#FFD4D4"/>
<path fill-rule="evenodd" clip-rule="evenodd" d="M253.828 125.633C252.444 127.735 250.47 128.32 248.436 127.461C246.516 126.651 246.62 124.065 247.119 123.2C247.616 122.335 248.169 121.678 248.169 121.678C248.169 121.678 249.446 121.019 251.031 121.706C252.616 122.393 253.907 124.665 253.828 125.633Z" fill="#BB3138"/>
<path fill-rule="evenodd" clip-rule="evenodd" d="M247.384 124.512L246.124 125.765C244.937 126.126 243.822 126.753 242.545 127.068C241.905 127.227 241.304 127.357 240.87 127.33C240.24 127.29 240.556 128.016 240.896 128.218C241.858 128.79 242.939 128.61 242.936 128.691C242.9 129.05 242.331 129.655 242.395 129.728C243.995 131.563 246.397 132.06 247.05 131.775C247.55 131.558 247.86 129.417 250.42 127.573C251.544 126.546 248.337 124.469 247.385 124.512" fill="#F4B1B1"/>
<path fill-rule="evenodd" clip-rule="evenodd" d="M212.83 79.8802C212.941 79.0601 213.516 77.5634 213.463 77.3015C213.399 76.9842 211.878 77.9077 211.699 77.9585C211.543 78.0034 212.309 75.0731 212.188 75.2721C212.037 74.7049 210.774 76.7313 210.671 76.9812C210.467 76.5757 210.717 73.9671 210.472 73.7321C210.246 73.5151 209.692 75.7241 209.484 75.6493C209.116 75.5176 209.363 72.9075 208.878 72.5468C207.957 72.2101 207.282 78.4045 208.457 79.961C209.732 81.6507 209.039 82.1595 209.184 83.6621C209.764 84.0483 211.809 84.4972 212.841 83.4152C212.725 82.3676 212.694 80.8904 212.83 79.8802Z" fill="#F4B1B1"/>
<path fill-rule="evenodd" clip-rule="evenodd" d="M209.156 66.1414L208.536 66.2536V68.2725L209.156 68.1603V66.1414Z" fill="white"/>
<path fill-rule="evenodd" clip-rule="evenodd" d="M241.655 128.532C242.717 130.298 244.72 131.404 247.489 131.82C247.538 132.139 247.326 132.554 247.358 132.883C244.362 132.889 240.229 130.87 239.56 128.326L241.655 128.532Z" fill="#12143C"/>
<path fill-rule="evenodd" clip-rule="evenodd" d="M230.285 67.0378C233.235 68.5494 236.631 66.7565 238.349 68.7799C239.199 69.7826 239.114 71.2268 238.162 73.4568C237.88 74.1138 237.506 74.5987 238.617 74.0839C239.127 73.8474 239.965 73.5182 240.253 73.7501C240.89 74.265 240.568 75.35 240.059 75.6987C239.832 75.8544 239.402 76.0863 239.402 76.0863C243.37 75.3336 245.024 71.7536 244.967 68.8727C244.947 67.8954 244.757 67.5122 244.087 66.7594C245.338 54.2088 222.099 58.1539 229.58 66.532C229.793 66.7175 230.026 66.8882 230.285 67.0378Z" fill="#212B36"/>
<path fill-rule="evenodd" clip-rule="evenodd" d="M66.322 155.196L63.9199 150.779H39.9756V155.196V199.509H101.187V155.196H66.322Z" fill="#BB3138"/>
<path d="M99.2274 157.209H41.9385V199.509H99.2274V157.209Z" fill="#212B36"/>
<path fill-rule="evenodd" clip-rule="evenodd" d="M41.2217 159.367H99.9967L99.2259 199.509H41.9371L41.2217 159.367Z" fill="white"/>
<path fill-rule="evenodd" clip-rule="evenodd" d="M37.9395 161.723H102.961L101.186 199.509H39.9748L37.9395 161.723Z" fill="#FEBEBE"/>
<path fill-rule="evenodd" clip-rule="evenodd" d="M58.3493 186.158L59.3011 185.528C59.6992 185.264 59.8788 184.766 59.7292 184.312C59.4433 183.435 59.2712 182.538 59.2113 181.637C59.1784 181.159 58.8267 180.764 58.3583 180.67L57.2388 180.439C56.6581 180.321 56.2825 179.755 56.3992 179.175L56.8362 177.03C56.9544 176.449 57.5217 176.075 58.1023 176.193L59.2218 176.421C59.6902 176.517 60.1677 176.291 60.3847 175.864C60.7933 175.059 61.3021 174.299 61.9097 173.604C62.224 173.245 62.2539 172.718 61.989 172.319L61.3605 171.365C61.0327 170.871 61.1689 170.205 61.6628 169.879L63.4887 168.673C63.9825 168.345 64.647 168.481 64.9748 168.975L65.6049 169.927C65.8683 170.325 66.3651 170.505 66.8186 170.357C67.6956 170.069 68.5936 169.899 69.4931 169.837C69.972 169.806 70.3656 169.454 70.4614 168.984L70.6889 167.865C70.8071 167.284 71.3728 166.908 71.9535 167.028L74.0981 167.464C74.6788 167.582 75.053 168.149 74.9348 168.73L74.7073 169.849C74.6115 170.318 74.8375 170.797 75.264 171.011C76.0692 171.421 76.828 171.93 77.5239 172.536C77.8831 172.851 78.4099 172.88 78.808 172.616L79.7598 171.986C80.2537 171.659 80.9197 171.795 81.246 172.289L82.4522 174.113C82.7785 174.608 82.6438 175.273 82.1499 175.601L81.1981 176.231C80.8 176.494 80.6204 176.991 80.7686 177.446C81.0559 178.322 81.2265 179.22 81.2879 180.12C81.3193 180.599 81.671 180.993 82.1395 181.09L83.2589 181.318C83.8396 181.436 84.2138 182.003 84.0955 182.584L83.66 184.727C83.5418 185.308 82.9731 185.682 82.3924 185.565L81.2744 185.336C80.8045 185.242 80.3271 185.466 80.1115 185.894C79.703 186.698 79.1941 187.46 78.588 188.153C78.2737 188.512 78.2423 189.042 78.5072 189.44L79.1373 190.392C79.465 190.886 79.3288 191.552 78.8349 191.878L77.0106 193.086C76.5167 193.41 75.8507 193.276 75.5229 192.782L74.8943 191.829C74.6309 191.43 74.1341 191.252 73.6776 191.4C72.8021 191.688 71.9041 191.858 71.0046 191.92C70.5272 191.953 70.1321 192.303 70.0363 192.771L69.8089 193.891C69.6906 194.472 69.1234 194.847 68.5427 194.729L66.3981 194.292C65.8174 194.174 65.4417 193.608 65.5615 193.026L65.7889 191.906C65.8847 191.438 65.6587 190.96 65.2322 190.743C64.4255 190.336 63.6667 189.828 62.9723 189.22C62.6116 188.906 62.0863 188.876 61.6882 189.139L60.7334 189.769C60.2395 190.097 59.5735 189.961 59.2472 189.467L58.041 187.642C57.7132 187.149 57.8494 186.483 58.3448 186.156M65.9192 184.949C67.6133 186.779 70.3641 187.339 72.6404 186.318C76.3969 184.633 77.3742 179.833 74.5771 176.811C72.8814 174.983 70.1321 174.421 67.8573 175.444C64.0993 177.13 63.122 181.928 65.9192 184.95V184.949Z" fill="#212B36"/>
<path d="M178.865 140.718H106.901V149.907H178.865V140.718Z" fill="#FFD4D4"/>
<path d="M151.753 140.718H106.901V149.907H151.753V140.718Z" fill="#BB3138"/>
<path fill-rule="evenodd" clip-rule="evenodd" d="M108.708 162.026H177.06C178.052 162.026 178.866 162.839 178.866 163.833C178.866 164.827 178.053 165.639 177.06 165.639H108.708C107.716 165.639 106.901 164.827 106.901 163.833C106.901 162.839 107.714 162.026 108.708 162.026Z" fill="#212B36"/>
<path fill-rule="evenodd" clip-rule="evenodd" d="M108.708 171.531H157.479C158.473 171.531 159.286 172.344 159.286 173.338C159.286 174.332 158.473 175.144 157.479 175.144H108.708C107.714 175.144 106.901 174.332 106.901 173.338C106.901 172.344 107.714 171.531 108.708 171.531Z" fill="#212B36"/>
<defs>
<linearGradient id="paint0_linear_5112_42931" x1="210.629" y1="74.6272" x2="210.629" y2="65.5921" gradientUnits="userSpaceOnUse">
<stop stop-color="#000446"/>
<stop offset="1" stop-color="#03096B"/>
</linearGradient>
</defs>
</svg>
