<svg width="20" height="20" viewBox="0 0 20 20" fill="none" xmlns="http://www.w3.org/2000/svg">
<path d="M19.0909 10.9089C18.8498 10.9089 18.6186 11.0047 18.4481 11.1752C18.2776 11.3457 18.1818 11.5769 18.1818 11.818V15.648C18.1811 16.3198 17.9139 16.9638 17.4389 17.4388C16.9639 17.9138 16.3199 18.1809 15.6482 18.1817H4.35182C3.68008 18.1809 3.03606 17.9138 2.56106 17.4388C2.08607 16.9638 1.8189 16.3198 1.81818 15.648V11.818C1.81818 11.5769 1.7224 11.3457 1.55192 11.1752C1.38143 11.0047 1.1502 10.9089 0.909091 10.9089C0.667985 10.9089 0.436754 11.0047 0.266267 11.1752C0.0957789 11.3457 0 11.5769 0 11.818V15.648C0.00120326 16.8018 0.460084 17.908 1.27595 18.7239C2.09181 19.5398 3.19801 19.9986 4.35182 19.9998H15.6482C16.802 19.9986 17.9082 19.5398 18.7241 18.7239C19.5399 17.908 19.9988 16.8018 20 15.648V11.818C20 11.5769 19.9042 11.3457 19.7337 11.1752C19.5632 11.0047 19.332 10.9089 19.0909 10.9089Z" fill="white"/>
<path d="M5.18811 8.44818L9.09084 12.3509V0.909086C9.09084 0.66798 9.18661 0.436749 9.3571 0.266261C9.52759 0.0957737 9.75882 -4.76837e-06 9.99993 -4.76837e-06C10.241 -4.76837e-06 10.4723 0.0957737 10.6428 0.266261C10.8132 0.436749 10.909 0.66798 10.909 0.909086V12.3509L14.8117 8.44818C14.9832 8.28258 15.2128 8.19095 15.4512 8.19302C15.6896 8.19509 15.9176 8.2907 16.0861 8.45925C16.2547 8.6278 16.3503 8.85581 16.3524 9.09418C16.3544 9.33254 16.2628 9.56217 16.0972 9.73363L10.6427 15.1882C10.4722 15.3586 10.241 15.4543 9.99993 15.4543C9.75887 15.4543 9.52768 15.3586 9.3572 15.1882L3.90265 9.73363C3.73706 9.56217 3.64542 9.33254 3.6475 9.09418C3.64957 8.85581 3.74517 8.6278 3.91373 8.45925C4.08228 8.2907 4.31029 8.19509 4.54865 8.19302C4.78701 8.19095 5.01665 8.28258 5.18811 8.44818Z" fill="white"/>
</svg>
