<svg width="20" height="20" viewBox="0 0 20 20" fill="none" xmlns="http://www.w3.org/2000/svg">
<path fill-rule="evenodd" clip-rule="evenodd" d="M0 10C0 4.47715 4.47715 0 10 0C11.5947 0 13.1049 0.37401 14.445 1.04001C14.9396 1.28579 15.1413 1.88597 14.8955 2.38055C14.6497 2.87513 14.0495 3.07682 13.555 2.83103C12.4852 2.2994 11.279 2 10 2C5.58172 2 2 5.58172 2 10C2 14.4183 5.58172 18 10 18C14.4183 18 18 14.4183 18 10C18 9.6988 17.9834 9.4018 17.9511 9.1099C17.8904 8.5609 18.2863 8.0667 18.8352 8.0061C19.3841 7.94537 19.8783 8.3412 19.939 8.8901C19.9793 9.2549 20 9.6252 20 10C20 15.5228 15.5228 20 10 20C4.47715 20 0 15.5228 0 10ZM19.7071 2.29289C20.0976 2.68342 20.0976 3.31658 19.7071 3.70711L10.7071 12.7071C10.3166 13.0976 9.6834 13.0976 9.2929 12.7071L6.29289 9.7071C5.90237 9.3166 5.90237 8.6834 6.29289 8.2929C6.68342 7.90237 7.31658 7.90237 7.70711 8.2929L10 10.5858L18.2929 2.29289C18.6834 1.90237 19.3166 1.90237 19.7071 2.29289Z" fill="#212B36"/>
</svg>
