<svg width="16" height="20" viewBox="0 0 16 20" fill="none" xmlns="http://www.w3.org/2000/svg">
<path d="M13.6938 16.9692C14.1805 16.2322 14.3762 15.3408 14.2431 14.4677C14.11 13.5947 13.6575 12.8021 12.9733 12.2437C12.2891 11.6852 11.4219 11.4007 10.5399 11.4452C9.65783 11.4897 8.82373 11.8601 8.19923 12.4846C7.57474 13.1091 7.20433 13.9432 7.15981 14.8253C7.11529 15.7073 7.39982 16.5745 7.95825 17.2587C8.51669 17.9429 9.30925 18.3954 10.1823 18.5285C11.0554 18.6616 11.9468 18.4659 12.6838 17.9792L14.4952 19.7906C14.6299 19.9207 14.8104 19.9927 14.9976 19.9911C15.1849 19.9895 15.3641 19.9143 15.4965 19.7819C15.6289 19.6495 15.7041 19.4703 15.7057 19.283C15.7073 19.0958 15.6353 18.9153 15.5052 18.7806L13.6938 16.9692ZM9.19878 16.5149C8.89923 16.2152 8.69528 15.8333 8.61271 15.4177C8.53014 15.0021 8.57266 14.5713 8.73488 14.1798C8.89711 13.7883 9.17177 13.4537 9.52413 13.2183C9.87649 12.9829 10.2907 12.8573 10.7145 12.8573C11.1383 12.8573 11.5525 12.9829 11.9049 13.2183C12.2572 13.4537 12.5319 13.7883 12.6941 14.1798C12.8563 14.5713 12.8988 15.0021 12.8163 15.4177C12.7337 15.8333 12.5298 16.2152 12.2302 16.5149C12.0322 16.7158 11.7963 16.8754 11.5361 16.9843C11.2758 17.0932 10.9966 17.1493 10.7145 17.1493C10.4324 17.1493 10.1531 17.0932 9.89293 16.9843C9.63272 16.8754 9.39676 16.7158 9.19878 16.5149Z" fill="#212B36"/>
<path d="M3.57171 5.71422H7.85742C8.04686 5.71422 8.22854 5.63896 8.3625 5.50501C8.49645 5.37105 8.5717 5.18937 8.5717 4.99993C8.5717 4.81049 8.49645 4.62881 8.3625 4.49485C8.22854 4.3609 8.04686 4.28564 7.85742 4.28564H3.57171C3.38227 4.28564 3.20059 4.3609 3.06663 4.49485C2.93268 4.62881 2.85742 4.81049 2.85742 4.99993C2.85742 5.18937 2.93268 5.37105 3.06663 5.50501C3.20059 5.63896 3.38227 5.71422 3.57171 5.71422Z" fill="#212B36"/>
<path d="M11.4288 7.85711C11.4288 7.66767 11.3536 7.48599 11.2196 7.35203C11.0857 7.21808 10.904 7.14282 10.7146 7.14282H3.57171C3.38227 7.14282 3.20059 7.21808 3.06663 7.35203C2.93268 7.48599 2.85742 7.66767 2.85742 7.85711C2.85742 8.04655 2.93268 8.22823 3.06663 8.36218C3.20059 8.49614 3.38227 8.57139 3.57171 8.57139H10.7146C10.904 8.57139 11.0857 8.49614 11.2196 8.36218C11.3536 8.22823 11.4288 8.04655 11.4288 7.85711Z" fill="#212B36"/>
<path d="M3.57171 10C3.38227 10 3.20059 10.0753 3.06663 10.2092C2.93268 10.3432 2.85742 10.5248 2.85742 10.7143C2.85742 10.9037 2.93268 11.0854 3.06663 11.2194C3.20059 11.3533 3.38227 11.4286 3.57171 11.4286H5.71456C5.904 11.4286 6.08568 11.3533 6.21964 11.2194C6.35359 11.0854 6.42885 10.9037 6.42885 10.7143C6.42885 10.5248 6.35359 10.3432 6.21964 10.2092C6.08568 10.0753 5.904 10 5.71456 10H3.57171Z" fill="#212B36"/>
<path d="M14.6686 2.94358L12.77 1.04644C12.4392 0.713761 12.0457 0.449983 11.6123 0.270366C11.1789 0.0907492 10.7141 -0.00114141 10.245 1.07009e-05H3.57143C2.62457 0.00114488 1.71683 0.377783 1.0473 1.04731C0.377773 1.71684 0.00113418 2.62458 0 3.57144V16.4286C0.00113418 17.3754 0.377773 18.2832 1.0473 18.9527C1.71683 19.6222 2.62457 19.9989 3.57143 20H7.14285C7.33229 20 7.51397 19.9247 7.64793 19.7908C7.78188 19.6568 7.85714 19.4752 7.85714 19.2857C7.85714 19.0963 7.78188 18.9146 7.64793 18.7806C7.51397 18.6467 7.33229 18.5714 7.14285 18.5714H3.57143C3.00311 18.5714 2.45806 18.3457 2.0562 17.9438C1.65434 17.5419 1.42857 16.9969 1.42857 16.4286V3.57144C1.42857 3.00312 1.65434 2.45807 2.0562 2.05621C2.45806 1.65435 3.00311 1.42858 3.57143 1.42858H9.99999V3.57144C9.99999 4.13976 10.2258 4.6848 10.6276 5.08667C11.0295 5.48853 11.5745 5.71429 12.1428 5.71429H14.2857V11.4286C14.2857 11.618 14.361 11.7997 14.4949 11.9337C14.6289 12.0676 14.8106 12.1429 15 12.1429C15.1894 12.1429 15.3711 12.0676 15.5051 11.9337C15.639 11.7997 15.7143 11.618 15.7143 11.4286V5.46929C15.7156 5.00007 15.6239 4.53524 15.4444 4.1017C15.2649 3.66816 15.0012 3.27453 14.6686 2.94358ZM11.4286 3.57144V1.78572C11.5479 1.86396 11.659 1.95419 11.76 2.05501L13.6586 3.95215C13.7592 4.05434 13.8496 4.16605 13.9286 4.28572H12.1428C11.9534 4.28572 11.7717 4.21047 11.6378 4.07651C11.5038 3.94256 11.4286 3.76088 11.4286 3.57144Z" fill="#212B36"/>
</svg>
