<svg width="20" height="20" viewBox="0 0 20 20" fill="none" xmlns="http://www.w3.org/2000/svg">
<path d="M19.0911 10.9091C18.85 10.9091 18.6187 11.0048 18.4483 11.1753C18.2778 11.3458 18.182 11.577 18.182 11.8182V15.6482C18.1813 16.3199 17.9141 16.964 17.4391 17.439C16.9641 17.914 16.3201 18.1811 15.6483 18.1819H4.35186C3.68011 18.1811 3.03609 17.914 2.56109 17.439C2.08609 16.964 1.81892 16.3199 1.8182 15.6482V11.8182C1.8182 11.577 1.72242 11.3458 1.55193 11.1753C1.38144 11.0048 1.15021 10.9091 0.9091 10.9091C0.667991 10.9091 0.436758 11.0048 0.266269 11.1753C0.0957798 11.3458 0 11.577 0 11.8182V15.6482C0.00120327 16.802 0.460088 17.9082 1.27596 18.7241C2.09183 19.54 3.19804 19.9989 4.35186 20.0001H15.6483C16.8021 19.9989 17.9084 19.54 18.7242 18.7241C19.5401 17.9082 19.999 16.802 20.0002 15.6482V11.8182C20.0002 11.577 19.9044 11.3458 19.7339 11.1753C19.5634 11.0048 19.3322 10.9091 19.0911 10.9091Z" fill="#212B36"/>
<path d="M5.18812 7.00624L9.09089 3.10347V14.5454C9.09089 14.7865 9.18667 15.0177 9.35716 15.1882C9.52765 15.3587 9.75888 15.4545 9.99999 15.4545C10.2411 15.4545 10.4723 15.3587 10.6428 15.1882C10.8133 15.0177 10.9091 14.7865 10.9091 14.5454V3.10347L14.8119 7.00624C14.9833 7.17184 15.2129 7.26347 15.4513 7.2614C15.6897 7.25933 15.9177 7.16372 16.0862 6.99516C16.2548 6.82661 16.3504 6.59859 16.3525 6.36023C16.3546 6.12187 16.2629 5.89223 16.0973 5.72077L10.6427 0.266172C10.4722 0.0957422 10.241 0 9.99999 0C9.75893 0 9.52774 0.0957422 9.35725 0.266172L3.90266 5.72077C3.73706 5.89223 3.64542 6.12187 3.6475 6.36023C3.64957 6.59859 3.74518 6.82661 3.91373 6.99516C4.08228 7.16372 4.3103 7.25933 4.54866 7.2614C4.78702 7.26347 5.01666 7.17184 5.18812 7.00624Z" fill="#212B36"/>
</svg>
