<svg width="25" height="26" viewBox="0 0 25 26" fill="none" xmlns="http://www.w3.org/2000/svg">
<g id="_x30_6_x2C__Calendar_x2C__May_x2C___six_x2C__6_x2C__calendar_date_x2C__monthly_calendar_x2C__time_and_date_x2C__month_x2C__schedule">
<g id="Group">
<path id="Vector" d="M19.6064 4.30246C20.0125 4.30246 20.3417 3.97063 20.3417 3.56133V1.09087C20.3417 0.681563 20.0125 0.349731 19.6064 0.349731C19.2003 0.349731 18.8711 0.681563 18.8711 1.09087V3.56133C18.8711 3.97063 19.2003 4.30246 19.6064 4.30246Z" fill="#EF6A30"/>
<path id="Vector_2" d="M12.5009 4.30246C12.907 4.30246 13.2362 3.97063 13.2362 3.56133V1.09087C13.2362 0.681563 12.907 0.349731 12.5009 0.349731C12.0948 0.349731 11.7656 0.681563 11.7656 1.09087V3.56133C11.7656 3.97063 12.0948 4.30246 12.5009 4.30246Z" fill="#EF6A30"/>
<path id="Vector_3" d="M22.0571 24.5604H2.9394C1.81769 24.5604 0.805285 24.0825 0.0898438 23.319C0.41504 24.5993 1.56926 25.5486 2.9394 25.5486H22.0571C23.4272 25.5486 24.5814 24.5993 24.9066 23.319C24.1912 24.0825 23.1788 24.5604 22.0571 24.5604Z" fill="#EF6A30"/>
<path id="Vector_4" d="M5.39154 4.30246C5.79762 4.30246 6.12684 3.97063 6.12684 3.56133V1.09087C6.12684 0.681563 5.79762 0.349731 5.39154 0.349731C4.98547 0.349731 4.65625 0.681563 4.65625 1.09087V3.56133C4.65625 3.97063 4.98547 4.30246 5.39154 4.30246Z" fill="#EF6A30"/>
<path id="Vector_5" d="M13.2367 19.2994L12.9844 20.1134H13.4891L13.2367 19.2994Z" fill="#EF6A30"/>
<path id="Vector_6" d="M14.9519 9.73755C14.3293 9.73755 13.814 10.2081 13.7368 10.8148C13.7322 10.8724 13.7288 10.9279 13.7266 10.9805C13.7307 11.6581 14.2787 12.208 14.9519 12.208C15.6276 12.208 16.1773 11.6539 16.1773 10.9728C16.1773 10.2917 15.6276 9.73755 14.9519 9.73755Z" fill="#EF6A30"/>
<path id="Vector_7" d="M22.0588 2.32605H21.3235V3.56128C21.3235 4.51483 20.5539 5.2906 19.6078 5.2906C18.6618 5.2906 17.8922 4.51483 17.8922 3.56128V2.32605H14.2157V3.56128C14.2157 4.51483 13.446 5.2906 12.5 5.2906C11.554 5.2906 10.7843 4.51483 10.7843 3.56128V2.32605H7.10784V3.56128C7.10784 4.51483 6.33819 5.2906 5.39216 5.2906C4.44613 5.2906 3.67647 4.51483 3.67647 3.56128V2.32605H2.94118C1.31941 2.32605 0 3.65595 0 5.2906V14.6783H25V5.2906C25 3.65595 23.6806 2.32605 22.0588 2.32605ZM11.7647 11.2197C11.7647 12.3095 10.8851 13.1961 9.80392 13.1961C8.72274 13.1961 7.84314 12.3095 7.84314 11.2197V8.74924C7.84314 7.65947 8.72274 6.77288 9.80392 6.77288C10.8851 6.77288 11.7647 7.65947 11.7647 8.74924V11.2197ZM14.951 13.1961C13.641 13.1961 12.609 12.0442 12.76 10.7177C12.8878 9.17362 13.6541 7.78161 14.9087 6.86665C15.1281 6.70667 15.4346 6.75622 15.5932 6.97728C15.7519 7.19834 15.7027 7.50729 15.4835 7.66723C15.0494 7.98379 14.6855 8.37171 14.3995 8.8196C15.7963 8.4559 17.1569 9.52511 17.1569 10.9727C17.1569 12.1986 16.1673 13.1961 14.951 13.1961Z" fill="#EF6A30"/>
<path id="Vector_8" d="M9.80461 7.76123C9.26402 7.76123 8.82422 8.20453 8.82422 8.74941V11.2199C8.82422 11.7648 9.26402 12.2081 9.80461 12.2081C10.3452 12.2081 10.785 11.7648 10.785 11.2199V8.74941C10.785 8.20453 10.3452 7.76123 9.80461 7.76123Z" fill="#EF6A30"/>
<path id="Vector_9" d="M0 20.6075C0 22.2422 1.31941 23.5721 2.94118 23.5721H22.0588C23.6806 23.5721 25 22.2422 25 20.6075V15.6666H0V20.6075ZM15.6373 17.2477C15.8539 17.084 16.1611 17.1283 16.3235 17.3465L17.402 18.7959L18.4804 17.3465C18.6428 17.1282 18.9501 17.0839 19.1667 17.2477C19.3832 17.4114 19.4271 17.7212 19.2647 17.9394L17.8922 19.784V21.5957C17.8922 21.8686 17.6726 22.0898 17.402 22.0898C17.1313 22.0898 16.9118 21.8686 16.9118 21.5957V19.784L15.5392 17.9394C15.3768 17.7212 15.4207 17.4114 15.6373 17.2477ZM11.5419 21.4484C11.9511 20.1284 12.3587 18.8137 12.7674 17.4957C12.8314 17.2894 13.0209 17.1489 13.2353 17.1489C13.4497 17.1489 13.6392 17.2894 13.7032 17.4957C14.1127 18.8166 14.5192 20.1275 14.9287 21.4484C15.0094 21.7088 14.8654 21.986 14.607 22.0673C14.3475 22.149 14.0733 22.0027 13.9929 21.7431L13.794 21.1016H12.6766L12.4777 21.7431C12.397 22.0036 12.1218 22.1489 11.8636 22.0673C11.6052 21.9859 11.4612 21.7088 11.5419 21.4484ZM5.63726 17.643C5.63726 17.4332 5.76877 17.2462 5.96515 17.1767C6.16172 17.1073 6.3802 17.1705 6.5102 17.3343L8.08824 19.3225L9.66623 17.3343C9.79627 17.1704 10.0148 17.1073 10.2113 17.1768C10.4077 17.2462 10.5392 17.4332 10.5392 17.643V21.5957C10.5392 21.8686 10.3197 22.0898 10.049 22.0898C9.77833 22.0898 9.55882 21.8686 9.55882 21.5957V19.0515L8.47103 20.4221C8.2749 20.6693 7.90152 20.6691 7.70549 20.4221L6.61765 19.0515V21.5957C6.61765 21.8686 6.39814 22.0898 6.12745 22.0898C5.85676 22.0898 5.63726 21.8686 5.63726 21.5957V17.643Z" fill="#EF6A30"/>
</g>
</g>
</svg>
