<svg width="25" height="26" viewBox="0 0 25 26" fill="none" xmlns="http://www.w3.org/2000/svg">
<g id="calendar_check">
<path id="Vector" d="M21.25 2.86166H20V1.60173C20 0.905322 19.4403 0.341797 18.75 0.341797C18.0597 0.341797 17.5 0.905322 17.5 1.60173V2.86166H13.75V1.60173C13.75 0.905322 13.1903 0.341797 12.5 0.341797C11.8097 0.341797 11.25 0.905322 11.25 1.60173V2.86166H7.5V1.60173C7.5 0.905322 6.94031 0.341797 6.25 0.341797C5.55969 0.341797 5 0.905322 5 1.60173V2.86166H3.75C1.68213 2.86166 0 4.55716 0 6.64147V21.7607C0 23.845 1.68213 25.5405 3.75 25.5405H21.25C23.3179 25.5405 25 23.845 25 21.7607V6.64147C25 4.55716 23.3179 2.86166 21.25 2.86166ZM18.0713 10.1604C18.5596 10.6526 18.5596 11.4499 18.0713 11.942L11.8213 18.2417C11.5771 18.4878 11.2573 18.6108 10.9375 18.6108C10.6177 18.6108 10.2979 18.4878 10.0537 18.2417L6.92871 15.0919C6.44043 14.5997 6.44043 13.8024 6.92871 13.3103C7.41699 12.8181 8.20801 12.8181 8.69629 13.3103L10.9375 15.5693L16.3037 10.1604C16.792 9.66826 17.583 9.66826 18.0713 10.1604Z" fill="#0BB30B"/>
</g>
</svg>
