<svg width="26" height="26" viewBox="0 0 26 26" fill="none" xmlns="http://www.w3.org/2000/svg">
<g id="Group 449">
<path id="Vector" d="M6.01655 5.00396C6.13685 5.0036 6.25213 4.95528 6.3372 4.86953C6.42226 4.78379 6.47021 4.66759 6.47056 4.54633V0.807447C6.4685 0.687447 6.41976 0.573063 6.33484 0.488935C6.24991 0.404807 6.1356 0.357666 6.01653 0.357666C5.89746 0.357666 5.78315 0.404807 5.69823 0.488935C5.6133 0.573063 5.56456 0.687447 5.5625 0.807447V4.54633C5.56285 4.6676 5.6108 4.78379 5.69588 4.86954C5.78095 4.95529 5.89624 5.00361 6.01655 5.00396Z" fill="#F3C628"/>
<path id="Vector_2" d="M12.0331 4.54645V0.80756C12.031 0.687583 11.9822 0.573233 11.8973 0.489133C11.8124 0.405033 11.6981 0.35791 11.579 0.35791C11.46 0.35791 11.3457 0.405033 11.2608 0.489133C11.1759 0.573233 11.1271 0.687583 11.125 0.80756V4.54642C11.1271 4.6664 11.1758 4.78075 11.2608 4.86485C11.3457 4.94895 11.46 4.99608 11.579 4.99608C11.6981 4.99609 11.8124 4.94897 11.8973 4.86487C11.9822 4.78077 12.031 4.66642 12.0331 4.54645Z" fill="#F3C628"/>
<path id="Vector_3" d="M17.5917 4.54645V0.80756C17.5896 0.687583 17.5408 0.573233 17.4559 0.489133C17.371 0.405033 17.2567 0.35791 17.1376 0.35791C17.0186 0.35791 16.9043 0.405033 16.8194 0.489133C16.7344 0.573233 16.6857 0.687583 16.6836 0.80756V4.54642C16.6857 4.6664 16.7344 4.78075 16.8194 4.86485C16.9043 4.94895 17.0186 4.99608 17.1376 4.99608C17.2567 4.99609 17.371 4.94897 17.4559 4.86487C17.5408 4.78077 17.5896 4.66642 17.5917 4.54645Z" fill="#F3C628"/>
<path id="Vector_4" d="M24.6094 17.8179C24.0218 18.6229 22.7631 20.3363 22.1849 21.1266L20.7048 19.6347C20.619 19.55 20.5035 19.5027 20.3833 19.5033C20.2632 19.504 20.1482 19.5523 20.0632 19.6379C19.9783 19.7236 19.9303 19.8395 19.9297 19.9606C19.9291 20.0817 19.9759 20.1981 20.06 20.2846L21.917 22.1517C21.9634 22.1976 22.019 22.2331 22.0801 22.2556C22.1411 22.2782 22.2062 22.2874 22.2711 22.2827C22.336 22.2779 22.3991 22.2593 22.4562 22.228C22.5134 22.1968 22.5633 22.1536 22.6026 22.1014L23.152 21.3509L25.3358 18.3625C25.405 18.2653 25.4335 18.1446 25.4153 18.0263C25.397 17.9081 25.3334 17.8019 25.2381 17.7304C25.1429 17.659 25.0236 17.6282 24.906 17.6445C24.7884 17.6609 24.6819 17.7232 24.6094 17.8179Z" fill="#F3C628"/>
<path id="Vector_5" d="M21.2575 22.7832L19.4188 20.9344C19.2313 20.741 19.1042 20.4964 19.0533 20.2309C19.0024 19.9654 19.0298 19.6907 19.1323 19.4408C19.2348 19.1909 19.4077 18.9768 19.6297 18.825C19.8517 18.6732 20.113 18.5903 20.3813 18.5867C21.0749 18.5239 21.6335 19.3091 22.0793 19.7263L23.1508 18.2664V8.5874H0V24.1653C0.000600378 24.5341 0.146209 24.8876 0.404922 25.1484C0.663634 25.4091 1.01435 25.5559 1.38023 25.5565H21.7706C22.1365 25.5559 22.4872 25.4091 22.7459 25.1484C23.0046 24.8876 23.1502 24.5341 23.1508 24.1653V22.8382C22.89 23.0787 22.5465 23.2075 22.1932 23.1973C21.8398 23.187 21.5042 23.0385 21.2575 22.7832ZM11.1146 18.6554C11.114 19.3834 10.8268 20.0815 10.316 20.5963C9.80529 21.1111 9.11272 21.4006 8.39041 21.4012H7.48235C6.76027 21.3998 6.06816 21.1101 5.55757 20.5954C5.04699 20.0808 4.75955 19.3832 4.7582 18.6554V14.079C4.75955 13.3512 5.04699 12.6536 5.55757 12.1389C6.06816 11.6243 6.76027 11.3346 7.48235 11.3332H8.39041C9.11272 11.3338 9.80528 11.6233 10.316 12.1381C10.8268 12.6529 11.114 13.351 11.1146 14.079V18.6554ZM18.3608 11.9236L15.6367 21.0763C15.6003 21.1903 15.5208 21.2854 15.4155 21.341C15.3102 21.3966 15.1874 21.4082 15.0736 21.3734C14.9599 21.3385 14.8642 21.2601 14.8074 21.1548C14.7505 21.0496 14.7369 20.9261 14.7695 20.8108L17.3166 12.2485H12.4766C12.3576 12.2464 12.2441 12.1973 12.1606 12.1117C12.0772 12.0261 12.0304 11.9108 12.0304 11.7908C12.0304 11.6708 12.0772 11.5556 12.1606 11.47C12.2441 11.3844 12.3576 11.3353 12.4766 11.3332H17.9249C17.9959 11.3332 18.0658 11.3499 18.1292 11.382C18.1926 11.4141 18.2477 11.4607 18.29 11.518C18.3324 11.5754 18.3608 11.6419 18.3731 11.7123C18.3854 11.7828 18.3812 11.8551 18.3608 11.9236Z" fill="#F3C628"/>
<path id="Vector_6" d="M8.39213 12.2484H7.48406C7.00284 12.2498 6.54173 12.4432 6.20146 12.7861C5.86118 13.1291 5.66939 13.5939 5.66797 14.0789V18.6553C5.66861 19.1406 5.86015 19.6058 6.2006 19.949C6.54104 20.2921 7.0026 20.4852 7.48406 20.4858H8.39213C8.63064 20.4859 8.86683 20.4386 9.0872 20.3466C9.30757 20.2547 9.50781 20.1198 9.67646 19.9498C9.84512 19.7798 9.97889 19.578 10.0701 19.3559C10.1614 19.1338 10.2083 18.8957 10.2083 18.6553V14.0789C10.2076 13.5936 10.0161 13.1284 9.67561 12.7853C9.33516 12.4421 8.87359 12.2491 8.39213 12.2484Z" fill="#F3C628"/>
<path id="Vector_7" d="M23.1508 3.61295C23.1512 3.24345 23.006 2.88893 22.7472 2.62723C22.4884 2.36552 22.1372 2.21804 21.7706 2.21716H18.5016V4.54655C18.502 4.72714 18.4672 4.90605 18.3989 5.07302C18.3307 5.24 18.2304 5.39177 18.1039 5.51963C17.9774 5.64749 17.8271 5.74893 17.6616 5.81815C17.4961 5.88737 17.3187 5.92299 17.1395 5.92299C16.9603 5.92299 16.7829 5.88737 16.6175 5.81815C16.452 5.74893 16.3017 5.64749 16.1751 5.51963C16.0486 5.39177 15.9484 5.24 15.8801 5.07302C15.8119 4.90605 15.777 4.72714 15.7774 4.54655V2.21716H12.9398V4.54655C12.9391 4.91023 12.7953 5.2588 12.5399 5.51573C12.2846 5.77266 11.9385 5.91696 11.5777 5.91696C11.2169 5.91696 10.8708 5.77266 10.6154 5.51573C10.36 5.2588 10.2162 4.91023 10.2156 4.54655V2.21716H7.37791V4.54652C7.37377 4.90789 7.22845 5.25304 6.97346 5.50711C6.71848 5.76118 6.37439 5.90367 6.01585 5.90367C5.65731 5.90367 5.31322 5.76119 5.05823 5.50713C4.80324 5.25307 4.65791 4.90792 4.65376 4.54655V2.21716H1.38023C1.01365 2.21804 0.662398 2.36552 0.403611 2.62722C0.144825 2.88892 -0.000338534 3.24345 5.92862e-07 3.61295V7.67218H23.1508V3.61295Z" fill="#F3C628"/>
</g>
</svg>
