<svg width="19" height="24" viewBox="0 0 19 24" fill="none" xmlns="http://www.w3.org/2000/svg">
<path d="M0 23.597L1.21783 22.474C1.98403 21.7628 3.16594 21.7532 3.94349 22.4518L5.48565 23.8279C5.7429 24.0582 6.13273 24.0574 6.38866 23.8255L7.90837 22.4545C8.67959 21.7556 9.8549 21.7556 10.6261 22.4545L12.1458 23.8255C12.4017 24.0571 12.7916 24.0582 13.0488 23.8279L14.591 22.4516C15.3685 21.753 16.5507 21.7628 17.3167 22.474L18.5345 23.597V0H0V23.597ZM4.74745 7.82808H13.4255C13.7989 7.82808 14.1016 8.13102 14.1016 8.50422C14.1016 8.87767 13.7989 9.18035 13.4255 9.18035H4.74745C4.374 9.18035 4.07132 8.87767 4.07132 8.50422C4.07132 8.13102 4.374 7.82808 4.74745 7.82808ZM4.74745 12.5288H13.4255C13.7989 12.5288 14.1016 12.8315 14.1016 13.2049C14.1016 13.5784 13.7989 13.8811 13.4255 13.8811H4.74745C4.374 13.8811 4.07132 13.5784 4.07132 13.2049C4.07132 12.8315 4.374 12.5288 4.74745 12.5288Z" fill="#212B36"/>
</svg>
