<svg width="24" height="24" viewBox="0 0 24 24" fill="none" xmlns="http://www.w3.org/2000/svg">
<path d="M9.89062 24V21.8438C8.33948 21.8438 7.07812 20.5824 7.07812 19.0312C7.07812 17.4801 8.33948 16.2188 9.89062 16.2188V14.1094H5.96025L6.29466 13.17C6.34823 13.021 6.375 12.8638 6.375 12.7031C6.375 11.9279 5.74397 11.2969 4.96875 11.2969C4.19353 11.2969 3.5625 11.9279 3.5625 12.7031C3.5625 12.8638 3.58927 13.021 3.64284 13.17L3.97725 14.1094H0C0.348891 19.3637 4.63631 23.6511 9.89062 24Z" fill="#BB3138"/>
<path d="M4.96875 9.89016C6.51989 9.89016 7.78125 11.1515 7.78125 12.7027H9.89062V8.77228L10.83 9.10669C11.6958 9.41498 12.7024 8.71598 12.7031 7.78078C12.7024 6.84488 11.6965 6.14039 10.83 6.45488L9.89062 6.78928V2.89453C4.63631 3.24342 0.348891 7.44834 0 12.7027H2.15625C2.15625 11.1515 3.41761 9.89016 4.96875 9.89016Z" fill="#BB3138"/>
<path d="M21.105 14.1094H19.0313C19.0313 15.6605 17.7699 16.9219 16.2188 16.9219C14.6676 16.9219 13.4063 15.6605 13.4063 14.1094H11.2969V18.0397L10.3575 17.7053C9.48825 17.3929 8.48367 18.0953 8.48438 19.0312C8.48367 19.9672 9.48895 20.6696 10.3575 20.3572L11.2969 20.0228V24C16.5512 23.6511 20.7561 19.3637 21.105 14.1094Z" fill="#BB3138"/>
<path d="M21.1406 5.67188V2.85938H18.3281C18.3281 1.30823 17.0668 0 15.5156 0C13.9645 0 12.7031 1.30823 12.7031 2.85938H11.2969V4.96875C12.848 4.96875 14.1094 6.23011 14.1094 7.78125C14.1094 9.33239 12.848 10.5938 11.2969 10.5938V12.7031H15.2272L14.8928 13.6425C14.8393 13.7915 14.8125 13.9487 14.8125 14.1094C14.8125 14.8846 15.4435 15.5156 16.2188 15.5156C16.994 15.5156 17.625 14.8846 17.625 14.1094C17.625 13.9487 17.5982 13.7915 17.5447 13.6425L17.2103 12.7031H21.1406V11.2969C22.6918 11.2969 24 10.0355 24 8.48438C24 6.93323 22.6918 5.67188 21.1406 5.67188Z" fill="#BB3138"/>
</svg>
