<svg width="31" height="40" viewBox="0 0 31 40" fill="none" xmlns="http://www.w3.org/2000/svg">
<path d="M0 39.3284L2.02972 37.4567C3.30671 36.2713 5.27656 36.2554 6.57248 37.4197L9.14276 39.7131C9.5715 40.097 10.2212 40.0956 10.6478 39.7091L13.1806 37.4241C14.466 36.2594 16.4248 36.2594 17.7102 37.4241L20.243 39.7091C20.6696 40.0952 21.3193 40.097 21.748 39.7131L24.3183 37.4193C25.6142 36.255 27.5845 36.2713 28.8611 37.4567L30.8908 39.3284V0H0V39.3284ZM7.91242 13.0468H22.3758C22.9982 13.0468 23.5026 13.5517 23.5026 14.1737C23.5026 14.7961 22.9982 15.3006 22.3758 15.3006H7.91242C7.28999 15.3006 6.78554 14.7961 6.78554 14.1737C6.78554 13.5517 7.28999 13.0468 7.91242 13.0468ZM7.91242 20.8813H22.3758C22.9982 20.8813 23.5026 21.3858 23.5026 22.0082C23.5026 22.6306 22.9982 23.1351 22.3758 23.1351H7.91242C7.28999 23.1351 6.78554 22.6306 6.78554 22.0082C6.78554 21.3858 7.28999 20.8813 7.91242 20.8813Z" fill="white"/>
</svg>
