<svg width="24" height="24" viewBox="0 0 24 24" fill="none" xmlns="http://www.w3.org/2000/svg">
<path d="M0.701756 1.40351H3.53217V3.64506C2.71537 3.93474 2.12866 4.71477 2.12866 5.62962C2.12866 6.79047 3.07304 7.73489 4.23393 7.73489C5.39482 7.73489 6.33919 6.79047 6.33919 5.62962C6.33919 4.71477 5.75248 3.93474 4.93568 3.64506V1.40351H9.1464V3.64506C8.32961 3.93474 7.74289 4.71477 7.74289 5.62962C7.74289 6.79047 8.68727 7.73489 9.84816 7.73489C11.0091 7.73489 11.9534 6.79047 11.9534 5.62962C11.9534 4.71477 11.3667 3.93474 10.5499 3.64506V1.40351H13.3803C13.7678 1.40351 14.082 1.08931 14.082 0.701756C14.082 0.314199 13.7678 0 13.3803 0H0.701756C0.314199 0 0 0.314199 0 0.701756C0 1.08931 0.314153 1.40351 0.701756 1.40351Z" fill="#212B36"/>
<path d="M13.3799 6.68979C13.3799 7.07735 13.6941 7.39155 14.0816 7.39155H14.3157V5.98804H14.0816C13.694 5.98804 13.3799 6.30224 13.3799 6.68979Z" fill="#212B36"/>
<path d="M22.5504 7.39155C22.938 7.39155 23.2522 7.07735 23.2522 6.68979C23.2522 6.30224 22.938 5.98804 22.5504 5.98804H22.3164V7.39155H22.5504Z" fill="#212B36"/>
<path d="M22.3164 5.28611C22.3164 4.12526 21.372 3.18084 20.2112 3.18084H19.0182V2.94687C19.0182 2.55932 18.7039 2.24512 18.3164 2.24512C17.9288 2.24512 17.6147 2.55932 17.6147 2.94687V3.18084H16.4217C15.2608 3.18084 14.3164 4.12526 14.3164 5.28611V5.98795H22.3164V5.28611Z" fill="#212B36"/>
<path d="M23.2515 11.7893H0.701756C0.314199 11.7893 0 12.1035 0 12.4911V14.5965H23.9533V12.4911C23.9533 12.1035 23.639 11.7893 23.2515 11.7893Z" fill="#212B36"/>
<path d="M7.04102 24H12.6785V16H7.04102V24ZM8.44467 19.5322C8.44467 19.1446 8.75887 18.8304 9.14642 18.8304C9.53398 18.8304 9.84818 19.1446 9.84818 19.5322V20.4679C9.84818 20.8554 9.53398 21.1696 9.14642 21.1696C8.75887 21.1696 8.44467 20.8554 8.44467 20.4679V19.5322Z" fill="#212B36"/>
<path d="M0 23.2983C0 23.6858 0.314199 24 0.701756 24H5.63753V16H0V23.2983ZM2.83004 19.5322C2.83004 19.1446 3.14424 18.8304 3.5318 18.8304C3.91935 18.8304 4.23355 19.1446 4.23355 19.5322V20.4679C4.23355 20.8554 3.91935 21.1696 3.5318 21.1696C3.14424 21.1696 2.83004 20.8554 2.83004 20.4679V19.5322Z" fill="#212B36"/>
<path d="M17.5908 18.8071H20.4445V21.1932H17.5908V18.8071Z" fill="#212B36"/>
<path d="M14.082 24H23.2515C23.6391 24 23.9533 23.6858 23.9533 23.2983V16H14.082V24ZM16.1873 18.1053C16.1873 17.7177 16.5015 17.4035 16.8891 17.4035H21.1463C21.5338 17.4035 21.848 17.7177 21.848 18.1053V21.8948C21.848 22.2824 21.5338 22.5966 21.1463 22.5966H16.8891C16.5015 22.5966 16.1873 22.2824 16.1873 21.8948L16.1873 18.1053Z" fill="#212B36"/>
<path d="M14.3164 8.9821C14.3164 9.52095 14.5201 10.0129 14.8542 10.3857H21.7786C22.1127 10.0129 22.3164 9.52095 22.3164 8.9821V7.39136H14.3164V8.9821Z" fill="#212B36"/>
</svg>
