<svg width="24" height="23" viewBox="0 0 24 23" fill="none" xmlns="http://www.w3.org/2000/svg">
<rect width="24" height="23" fill="#F5F5F5"/>
<g id="Branch - List">
<rect id="Rectangle 21" x="-32" y="-268" width="1440" height="1024" fill="#F7F8F9"/>
<g id="Side Panel">
<rect id="Rectangle 2" x="-32" y="-268" width="280" height="1024" fill="white"/>
<rect id="Rectangle 10" x="-10" y="-13" width="240" height="50" rx="8" fill="#F7F8F9"/>
</g>
<path id="Vector" d="M6.72771 12.9879L10.2798 9.44614L1.46855 0.673105C-0.489516 2.62545 -0.489516 5.79175 1.46855 7.75661L6.72771 12.9879ZM15.2378 10.7227C17.1582 11.6112 19.8568 10.9855 21.8525 8.9956C24.2499 6.60523 24.7143 3.17611 22.8692 1.3364C21.0366 -0.490793 17.5975 -0.0402513 15.1876 2.35012C13.1918 4.34001 12.5642 7.03074 13.4554 8.94554L1.20496 21.1602L2.97475 22.9248L11.6229 14.327L20.2584 22.9373L22.0282 21.1727L13.3927 12.5624L15.2378 10.7227Z" fill="#212B36"/>
</g>
</svg>
