<svg width="24" height="24" viewBox="0 0 24 24" fill="none" xmlns="http://www.w3.org/2000/svg">
<rect width="24" height="24" fill="#F5F5F5"/>
<g id="Branch - List">
<rect id="Rectangle 21" x="-32" y="-322" width="1440" height="1024" fill="#F7F8F9"/>
<g id="Side Panel">
<rect id="Rectangle 2" x="-32" y="-322" width="280" height="1024" fill="white"/>
<rect id="Rectangle 11" x="-10" y="-12" width="240" height="50" rx="8" fill="#F7F8F9"/>
</g>
<path id="Vector" d="M18.6109 23.9755H20.4218C21.3382 23.9755 22.0909 23.2794 22.2 22.3875L24 4.46179H18.5455V0.0565186H16.3964V4.46179H10.9745L11.3018 7.00706C13.1673 7.51829 14.9127 8.44286 15.96 9.46532C17.5309 11.0099 18.6109 12.6088 18.6109 15.2194V23.9755ZM0 22.8878V21.811H16.3964V22.8878C16.3964 23.4861 15.9055 23.9755 15.2945 23.9755H1.10182C0.490909 23.9755 0 23.4861 0 22.8878ZM16.3964 15.2738C16.3964 6.57197 0 6.57197 0 15.2738H16.3964ZM0.0218182 17.4601H16.3855V19.6355H0.0218182V17.4601Z" fill="#212B36"/>
</g>
</svg>
