<svg width="24" height="24" viewBox="0 0 24 24" fill="none" xmlns="http://www.w3.org/2000/svg">
<path id="Vector" d="M18.6109 23.9891H20.4218C21.3382 23.9891 22.0909 23.2909 22.2 22.3964L24 4.41818H18.5455V0H16.3964V4.41818H10.9745L11.3018 6.97091C13.1673 7.48364 14.9127 8.41091 15.96 9.43636C17.5309 10.9855 18.6109 12.5891 18.6109 15.2073V23.9891ZM0 22.8982V21.8182H16.3964V22.8982C16.3964 23.4982 15.9055 23.9891 15.2945 23.9891H1.10182C0.490909 23.9891 0 23.4982 0 22.8982ZM16.3964 15.2618C16.3964 6.53454 0 6.53454 0 15.2618H16.3964ZM0.0218182 17.4545H16.3855V19.6364H0.0218182V17.4545Z" fill="#212B36"/>
</svg>
