<svg width="24" height="23" viewBox="0 0 24 23" fill="none" xmlns="http://www.w3.org/2000/svg">
<path d="M22.3935 6.46667V13.8421C22.3935 15.8301 20.7715 17.4473 18.7777 17.4473H3.01172V19.8497C3.01172 21.0645 4.00292 22.0527 5.22119 22.0527H21.7904C23.0086 22.0527 23.9998 21.0645 23.9998 19.8497V8.58556C23.9998 7.57935 23.3194 6.72912 22.3935 6.46667Z" fill="#212B36"/>
<path d="M20.9881 13.842V6.28271H0V13.842C0 15.0587 0.989184 16.045 2.20942 16.045H18.7786C19.9989 16.045 20.9881 15.0587 20.9881 13.842ZM17.9255 12.9415H14.9129C14.5246 12.9415 14.2098 12.6276 14.2098 12.2404C14.2098 11.8533 14.5246 11.5394 14.9129 11.5394H17.9255C18.3138 11.5394 18.6286 11.8533 18.6286 12.2404C18.6286 12.6276 18.3139 12.9415 17.9255 12.9415Z" fill="#212B36"/>
<path d="M20.9881 2.57784C20.9881 1.36117 19.9989 0.374878 18.7786 0.374878H2.20947C0.989231 0.374878 0 1.36122 0 2.57789V4.88055H20.9881V2.57784Z" fill="#212B36"/>
</svg>
