<svg width="24" height="24" viewBox="0 0 24 24" fill="none" xmlns="http://www.w3.org/2000/svg">
<path d="M21.8904 9.43888C21.4445 8.3822 21.2309 7.85012 20.7663 6.81593L21.733 4.78501L19.1813 2.24824L17.1766 3.21124C16.1311 2.76534 15.5991 2.55176 14.5536 2.10585L13.7967 0H10.1845L9.43513 2.09087C8.37471 2.53677 7.84262 2.75035 6.81218 3.19625L4.8 2.24824L2.24824 4.78501L3.21124 6.80468C2.76534 7.85012 2.55176 8.3822 2.10585 9.42763L0 10.1845V13.7967L2.09087 14.5461C2.53677 15.6066 2.75035 16.1386 3.19625 17.1691L2.24824 19.1813C3.526 20.4703 3.526 20.4703 4.81499 21.748L6.81967 20.785C7.86511 21.2309 8.39719 21.4445 9.44262 21.9091L10.192 24H13.8042L14.5536 21.9091C15.6103 21.4632 16.1424 21.2496 17.1766 20.785L19.1813 21.733C20.4703 20.4553 20.4703 20.4553 21.748 19.1663L20.785 17.1616C21.2309 16.1162 21.4445 15.5841 21.9091 14.5386L24 13.7892V10.1845L21.8904 9.43888ZM11.9906 18.4618C10.7099 18.4618 9.45784 18.082 8.39296 17.3703C7.32808 16.6587 6.49817 15.6472 6.00821 14.4639C5.51825 13.2805 5.39024 11.9784 5.64038 10.7223C5.89052 9.46619 6.50757 8.31247 7.41348 7.40708C8.3194 6.5017 9.47347 5.88531 10.7297 5.6359C11.986 5.38649 13.288 5.51525 14.4711 6.0059C15.6542 6.49654 16.6651 7.32704 17.3762 8.39233C18.0872 9.45762 18.4663 10.7099 18.4656 11.9906C18.4646 13.7072 17.782 15.3532 16.5678 16.5667C15.3536 17.7802 13.7072 18.4618 11.9906 18.4618Z" fill="#212B36"/>
<path d="M16.1951 14.475C15.7185 15.1463 15.0882 15.6937 14.3567 16.0714C13.6253 16.4491 12.814 16.6463 11.9908 16.6463C11.1676 16.6463 10.3564 16.4491 9.62495 16.0714C8.89352 15.6937 8.26317 15.1463 7.78662 14.475C8.14919 13.3684 8.93439 12.4498 9.97116 11.9195C10.564 12.3318 11.2688 12.5528 11.9908 12.5528C12.7124 12.5531 13.4164 12.3306 14.0068 11.9158C15.0465 12.4452 15.8335 13.3657 16.1951 14.475Z" fill="#212B36"/>
<path d="M13.9691 9.31138C13.9699 9.70284 13.8544 10.0857 13.6375 10.4116C13.4206 10.7374 13.1118 10.9916 12.7504 11.1419C12.3889 11.2922 11.991 11.3319 11.607 11.256C11.223 11.1801 10.8701 10.992 10.593 10.7154C10.3159 10.4389 10.1271 10.0864 10.0505 9.70249C9.97386 9.3186 10.0128 8.92061 10.1624 8.55887C10.3121 8.19714 10.5657 7.88793 10.8911 7.67036C11.2165 7.4528 11.5992 7.33667 11.9907 7.33667C12.2503 7.33618 12.5075 7.38689 12.7475 7.48591C12.9875 7.58493 13.2056 7.73031 13.3894 7.91373C13.5732 8.09714 13.719 8.315 13.8184 8.55483C13.9179 8.79465 13.9691 9.05174 13.9691 9.31138Z" fill="#212B36"/>
</svg>
