<svg width="21" height="24" viewBox="0 0 21 24" fill="none" xmlns="http://www.w3.org/2000/svg">
<path d="M17.4001 0H3.48999C1.57007 0 0 1.56006 0 3.48999V20.51C0 22.4302 1.57007 24 3.48999 24H17.4001C19.3201 24 20.8899 22.4302 20.8899 20.51V3.48999C20.8899 1.56006 19.3201 0 17.4001 0ZM10.3914 20.3389H5.6228C5.02588 20.3389 4.54272 19.8555 4.54272 19.259C4.54272 18.6626 5.02588 18.1792 5.6228 18.1792H10.3914C10.9883 18.1792 11.4712 18.6626 11.4712 19.259C11.4712 19.8555 10.9883 20.3389 10.3914 20.3389ZM15.2654 15.1802H5.6228C5.02588 15.1802 4.54272 14.6965 4.54272 14.1003C4.54272 13.5039 5.02588 13.0203 5.6228 13.0203H15.2654C15.8623 13.0203 16.3455 13.5039 16.3455 14.1003C16.3455 14.6965 15.8623 15.1802 15.2654 15.1802ZM16.6985 5.45557L13.2344 9.31689C12.8811 9.71021 12.2947 9.78809 11.8499 9.5061L8.48901 7.36279L5.77246 10.1973C5.35986 10.6284 4.67562 10.642 4.24658 10.23C3.81519 9.81714 3.80054 9.13379 4.21387 8.70312L7.54297 5.22876C7.90063 4.85718 8.46997 4.78955 8.90332 5.06543L12.239 7.19238L15.0916 4.01294C15.49 3.56909 16.1736 3.53418 16.6165 3.93066C17.0603 4.32886 17.0972 5.01172 16.6985 5.45557Z" fill="#BB3138"/>
</svg>
