<svg width="98" height="70" viewBox="0 0 98 70" fill="none" xmlns="http://www.w3.org/2000/svg">
<path d="M11.5817 26.24C11.5817 26.24 8.6943 21.7905 2.14893 23.1754C2.14893 23.1754 6.78857 29.6069 11.5817 26.24Z" fill="#3F9896"/>
<path d="M15.9039 27.3017C15.9039 27.3017 14.7984 18.2342 3.62378 15.4307C3.62378 15.4307 5.94235 28.8892 15.9039 27.3017Z" fill="#7FC6A6"/>
<path d="M97.0235 51.7221C95.5957 64.1765 91.6353 70 91.6353 70L74.6693 69.8708H10.8494C4.62885 68.1272 0.517133 59.9443 0.0454959 50.5244C-0.668424 36.2761 6.94491 19.1983 28.1824 17.2942C45.0667 15.7805 56.9468 0.216038 72.1848 2.76355C88.5916 5.50663 96.7887 21.0899 97.4622 39.0342C97.6428 43.8473 97.4422 48.0699 97.0235 51.7221Z" fill="#FFD4D4"/>
<path d="M94.1387 69.7207H8.40698V69.9997H94.1387V69.7207Z" fill="#33182C"/>
<path d="M83.4232 16.9399C83.4341 16.7935 83.3886 16.6405 83.2689 16.5133C83.0513 16.2815 82.6801 16.0926 82.0559 16.0488C82.0559 16.0488 82.271 12.1785 79.3474 11.9225C75.9946 11.6285 75.9542 15.4308 75.9542 15.4308C75.9542 15.4308 74.4304 13.9842 73.3312 15.8182C73.3312 15.8182 71.4317 14.7202 70.4738 16.7481C70.4438 16.8119 70.4371 16.8782 70.448 16.9403H83.4232V16.9399Z" fill="white"/>
<path d="M9.4469 37.1934C9.43564 37.0383 9.4836 36.8761 9.61037 36.7414C9.84098 36.4958 10.2342 36.2956 10.8956 36.2493C10.8956 36.2493 10.6679 32.1484 13.7655 31.8765C17.3184 31.565 17.3613 35.5942 17.3613 35.5942C17.3613 35.5942 18.976 34.0613 20.1407 36.0049C20.1407 36.0049 22.1536 34.8415 23.1686 36.9903C23.2007 37.0579 23.2078 37.1284 23.1961 37.1938H9.4469V37.1934Z" fill="white"/>
<path d="M24.2465 30.2525C25.4605 30.1828 28.3061 30.0615 30.7802 30.2704C31.8036 30.3567 32.6876 29.539 32.6643 28.5123C32.6547 28.092 32.5042 27.6032 32.1138 27.049C30.6118 24.9156 28.0009 26.9531 28.0259 28.0361C28.0259 28.0361 27.498 26.4056 25.895 26.6908C24.2916 26.9765 24.8587 29.3476 24.8587 29.3476C24.8587 29.3476 24.3412 29.2383 23.9826 29.4831C23.6298 29.7237 23.8199 30.2771 24.2461 30.2525H24.2465Z" fill="white"/>
<path d="M87.0979 24.5968C86.2843 24.5501 84.3773 24.4687 82.7193 24.6088C82.0333 24.6668 81.4412 24.1189 81.4566 23.4304C81.4628 23.1489 81.5638 22.8211 81.8252 22.4496C82.8319 21.0201 84.5817 22.3854 84.565 23.111C84.565 23.111 84.9186 22.018 85.9932 22.2094C87.0679 22.4008 86.6876 23.99 86.6876 23.99C86.6876 23.99 87.0341 23.9166 87.2747 24.0809C87.5112 24.2423 87.3835 24.613 87.0979 24.5968Z" fill="white"/>
<g style="mix-blend-mode:multiply" opacity="0.3">
<path d="M97.0234 51.7222C95.5956 64.1766 91.6352 70.0001 91.6352 70.0001L74.6692 69.8709H10.8493C4.62876 68.1274 0.517048 59.9444 0.0454102 50.5246C2.39109 49.364 5.54743 48.7389 9.76381 49.3886C9.76381 49.3886 14.6562 49.8561 17.9922 56.1946C17.9922 56.1946 25.2311 50.6347 31.0638 55.4165C31.0638 55.4165 32.1889 44.1952 43.3268 44.1952C54.4647 44.1952 54.531 56.2689 54.531 56.2689C54.531 56.2689 58.0906 51.0796 65.2306 55.861C65.2306 55.861 65.3641 41.5951 78.0416 41.5947C89.4956 41.5947 89.6065 56.0837 89.6065 56.0837C89.6065 56.0837 92.7949 52.2489 97.0234 51.7222Z" fill="#FFD4D4"/>
</g>
<path d="M34.2082 22.1938C34.2082 22.1938 34.3633 22.6421 35.0188 22.7284C35.6744 22.8147 38.5722 23.1767 39.3482 23.7805C40.1243 24.3843 40.9983 22.7159 40.9983 22.7159V22.3401L34.2078 22.1934L34.2082 22.1938Z" fill="#FE9F73"/>
<path d="M51.9603 64.7715L51.9282 68.6L54.992 68.6222L55.0145 65.196L51.9603 64.7715Z" fill="#FE9F73"/>
<path d="M64.6331 63.5986L61.5005 63.8768L62.2365 67.6265L65.2978 66.9531L64.6331 63.5986Z" fill="#FE9F73"/>
<path d="M57.0564 38.9006C56.9709 42.3785 56.6469 57.8549 55.707 66.9186C53.5898 67.6417 51.8759 67.0054 51.2354 66.6968L50.5515 37.361C50.5503 37.2939 50.554 37.2272 50.5632 37.1613L50.5824 37.0249C50.6862 36.2739 51.4218 35.8164 52.0969 36.0837L56.3237 37.7564C56.7745 37.9353 57.0689 38.394 57.056 38.901L57.0564 38.9006Z" fill="#363D51"/>
<path d="M65.2666 64.8976C63.5464 66.1349 61.4976 66.3046 60.9376 66.328L57.1641 53.1792L55.0836 41.199L52.9001 34.6924L61.478 37.2724C61.478 37.2724 61.5873 44.3011 62.5881 52.0462C63.0906 55.9386 64.8241 61.3906 65.2666 64.8976Z" fill="#424960"/>
<path d="M60.3705 64.604C60.3768 64.6261 60.3964 64.6403 60.4172 64.6403C60.4218 64.6403 60.4264 64.6395 60.4306 64.6382C60.456 64.6303 60.4706 64.602 60.4631 64.5749L57.2117 53.1676L55.6604 44.2369C55.6554 44.2094 55.6304 44.1914 55.6041 44.196C55.5778 44.201 55.5603 44.2277 55.5653 44.2552L57.1174 53.1913L57.1182 53.1943L60.3705 64.6045V64.604Z" fill="black"/>
<path d="M62.3993 50.9201H62.4018C62.4047 50.9372 62.4084 50.9593 62.4126 50.986C62.7062 52.7716 63.2545 56.0135 63.6294 57.6644C63.6349 57.6878 63.6549 57.7036 63.677 57.7036C63.6807 57.7036 63.6841 57.7032 63.6878 57.7024C63.7137 57.6957 63.7299 57.6682 63.7237 57.6411C63.3496 55.993 62.8013 52.7537 62.5081 50.9693C62.4998 50.9176 62.4939 50.8826 62.4881 50.8588C62.4881 50.8588 62.4881 50.8588 62.4881 50.8584C62.4881 50.835 62.4852 50.8021 62.481 50.755L61.6849 41.4782C61.6824 41.4503 61.6586 41.429 61.6324 41.4319C61.6057 41.4344 61.5861 41.459 61.5886 41.4874C61.5965 41.5804 62.3847 50.7562 62.3934 50.868C62.3934 50.8692 62.3934 50.8701 62.3934 50.8713L62.3993 50.9214V50.9201Z" fill="black"/>
<path d="M51.1625 64.0261C51.1625 64.0261 51.1629 64.0261 51.1633 64.0261C51.19 64.0253 51.2113 64.0019 51.2104 63.974L50.6983 41.6448C50.6975 41.6165 50.6771 41.5935 50.6487 41.5948C50.622 41.5956 50.6008 41.619 50.6016 41.6469L51.1137 63.9761C51.1145 64.004 51.1362 64.0261 51.1625 64.0261Z" fill="black"/>
<path d="M55.1083 69.6746C55.1541 69.6746 55.1913 69.635 55.1908 69.5866L55.1875 69.1583C55.1871 69.0878 55.132 69.0307 55.0653 69.0316L52.3785 69.0516L51.2797 67.8105L49.2968 69.0749L48.8677 69.0783C48.7197 69.0795 48.585 69.1858 48.5583 69.3389C48.5224 69.5449 48.6726 69.7238 48.8611 69.7221L55.1079 69.6754L55.1083 69.6746Z" fill="#2C344C"/>
<path d="M53.8889 67.5678C53.8889 67.5678 52.8526 68.3539 51.9273 67.4189L49.6542 68.5015C49.6542 68.5015 49.0303 68.7263 48.8635 69.0807L55.0415 69.0344L55.0328 67.8735C55.0328 67.8735 54.5753 67.2355 53.8889 67.5682V67.5678Z" fill="#363D51"/>
<path d="M55.0576 67.8717L55.0117 67.8721L55.0204 69.0276L55.0663 69.0272L55.0576 67.8717Z" fill="black"/>
<path d="M53.876 67.5483C53.3668 67.9232 52.8276 67.8477 52.8222 67.8468L52.8159 67.8944C52.8159 67.8944 52.8701 67.9023 52.9577 67.9015C53.157 67.8998 53.5373 67.856 53.9022 67.5875L53.876 67.5479V67.5483Z" fill="black"/>
<path d="M54.7488 68.5732L54.459 68.7826L54.4848 68.8222L54.7747 68.6133L54.7488 68.5732Z" fill="black"/>
<path d="M54.5393 68.5166L54.2495 68.7255L54.2754 68.7651L54.5652 68.5562L54.5393 68.5166Z" fill="black"/>
<path d="M55.2133 69.5142L55.2108 69.1931C55.2099 69.0909 55.1303 69.0084 55.0331 69.0088L48.8564 69.0551C48.675 69.0563 48.529 69.2127 48.5303 69.4037C48.5311 69.5055 48.5741 69.6014 48.6483 69.6668L48.6775 69.6297C48.6137 69.5734 48.5766 69.4909 48.5757 69.4033C48.5745 69.239 48.7004 69.1043 48.8564 69.1035L55.0331 69.0572C55.1048 69.0567 55.1641 69.1176 55.1645 69.1935L55.167 69.5146H55.2129L55.2133 69.5142Z" fill="black"/>
<path d="M49.4474 68.618C49.9049 68.4083 51.9161 67.4508 51.9366 67.4412L51.9178 67.3975C51.8974 67.4071 49.8866 68.3645 49.4291 68.5743C48.9637 68.7874 48.8407 69.0584 48.8357 69.0697L48.8774 69.0901C48.8786 69.0876 49 68.8236 49.4474 68.6185V68.618Z" fill="black"/>
<path d="M59.667 69.6282L65.6565 67.7637C65.7007 67.75 65.7257 67.7012 65.7124 67.6549L65.5969 67.2441C65.5777 67.1766 65.5101 67.1378 65.4459 67.1578L62.87 67.9597L61.4885 67.0869L59.9155 68.8796L59.5039 69.0077C59.3622 69.0519 59.2608 69.1932 59.275 69.3484C59.2946 69.5569 59.4856 69.6849 59.6666 69.6286L59.667 69.6282Z" fill="#2C344C"/>
<path d="M63.9317 66.0942C63.9317 66.0942 63.1427 67.1517 62.0076 66.5225L60.1081 68.2247C60.1081 68.2247 59.5677 68.6225 59.501 69.0116L65.4242 67.168L65.1106 66.0546C65.1106 66.0546 64.5038 65.5746 63.9313 66.0942H63.9317Z" fill="#363D51"/>
<path d="M65.1327 66.0479L65.0889 66.0616L65.4008 67.1696L65.4446 67.1558L65.1327 66.0479Z" fill="black"/>
<path d="M63.9494 66.1095L63.9139 66.0791C63.5232 66.5879 62.9852 66.6721 62.9802 66.6729L62.9865 66.7205C62.9865 66.7205 63.0407 66.7121 63.1245 66.6859C63.3159 66.6262 63.6695 66.4736 63.9494 66.1091V66.1095Z" fill="black"/>
<path d="M65.0214 66.8096L64.7979 67.0948L64.8333 67.1257L65.0568 66.84L65.0214 66.8096Z" fill="black"/>
<path d="M64.8053 66.8164L64.5818 67.1016L64.6172 67.1321L64.8408 66.8468L64.8053 66.8164Z" fill="black"/>
<path d="M59.5002 69.0357L65.4226 67.1925C65.4914 67.1712 65.5644 67.2125 65.5848 67.2855L65.6716 67.5932L65.7153 67.5795L65.6286 67.2717C65.6011 67.1737 65.5027 67.1174 65.4097 67.1462L59.4873 68.9894C59.3134 69.0436 59.2142 69.2362 59.2655 69.4193C59.293 69.5169 59.3593 69.5965 59.4481 69.6378L59.4665 69.5936C59.3902 69.5582 59.333 69.4898 59.3092 69.4055C59.265 69.2479 59.3505 69.082 59.5002 69.0357Z" fill="black"/>
<path d="M59.9401 68.3967C60.3246 68.0619 62.0055 66.5556 62.0222 66.5406L61.9926 66.5039C61.9755 66.5189 60.295 68.0252 59.9109 68.3596C59.5197 68.6999 59.4726 68.9964 59.4709 69.0089L59.516 69.0164C59.516 69.0135 59.5635 68.7245 59.9401 68.3971V68.3967Z" fill="black"/>
<path d="M59.4747 39.3231L60.5439 38.2756C60.5627 38.2572 60.564 38.2259 60.5469 38.2055C60.5298 38.1855 60.5001 38.1838 60.4814 38.2026L59.4122 39.2501C59.3934 39.2685 59.3922 39.2997 59.4093 39.3202C59.4172 39.3298 59.428 39.3352 59.4393 39.336C59.4518 39.3373 59.4647 39.3331 59.4747 39.3231Z" fill="black"/>
<path d="M59.4268 39.9078L60.2337 39.1301C60.2529 39.1117 60.2542 39.0805 60.2371 39.0604C60.22 39.04 60.1908 39.0383 60.1716 39.0567L59.3647 39.8344C59.3455 39.8528 59.3443 39.884 59.3614 39.904C59.3697 39.9136 59.3805 39.9191 59.3918 39.9203C59.4043 39.9216 59.4168 39.9174 59.4268 39.9078Z" fill="black"/>
<path d="M50.3523 33.3193V38.2563C50.3523 38.2563 56.7601 40.1841 61.383 38.0453L61.202 33.7676L50.3523 33.3193Z" fill="white"/>
<path d="M64.8854 26.4026C64.1352 21.9006 61.91 21.1591 61.91 21.1591C61.91 21.1591 60.8133 20.7109 59.918 23.16C59.0226 25.6095 61.7019 28.0848 61.7019 28.0848L61.7549 31.8984L59.918 36.2862C59.918 36.2862 65.2477 34.9667 65.4809 34.7595C65.7135 34.5527 65.636 30.9042 64.8858 26.4022L64.8854 26.4026Z" fill="white"/>
<path d="M55.7934 13.6747C55.1374 13.8415 54.6641 14.4132 54.6087 15.0875L54.5544 15.7472L58.069 14.5767C58.069 14.5767 58.5853 14.8748 58.5486 14.7943C58.5119 14.7134 58.124 14.0166 58.124 14.0166C58.124 14.0166 56.9268 13.3869 55.7942 13.6751L55.7934 13.6747Z" fill="#FE9F73"/>
<path d="M54.386 17.7947C54.386 17.7947 54.263 18.7851 55.122 18.9806L54.8505 20.2934C54.7496 20.7813 55.0057 21.2775 55.4665 21.466C55.6921 21.5582 55.9639 21.6345 56.2771 21.6603C57.2709 21.7421 57.8705 21.0411 57.9839 20.675C58.0974 20.3092 57.9956 18.5082 57.9956 18.5082L58.0978 17.6358L58.2638 14.2363L54.6145 15.0128L54.3856 17.7943L54.386 17.7947Z" fill="#FE9F73"/>
<path d="M55.8175 16.0795C55.8008 16.095 55.7995 16.1212 55.8154 16.1383C55.8312 16.155 55.8571 16.1563 55.8742 16.1404C56.3091 15.7355 56.8479 16.2113 56.8704 16.2322C56.8792 16.2401 56.8904 16.2434 56.9013 16.2426C56.9117 16.2418 56.9217 16.2372 56.9292 16.2288C56.9446 16.2117 56.9434 16.1855 56.9263 16.17C56.92 16.1646 56.3083 15.6225 55.8175 16.0795Z" fill="#4C222E"/>
<path d="M54.4514 15.6062C54.4322 15.6192 54.4276 15.645 54.4401 15.6638C54.453 15.683 54.4789 15.688 54.4976 15.675C54.7116 15.5299 55.0306 15.8715 55.0335 15.8752C55.0406 15.8827 55.0498 15.8873 55.0594 15.8886C55.071 15.8898 55.0831 15.8865 55.0923 15.8777C55.109 15.8623 55.1102 15.836 55.0948 15.8189C55.0798 15.8027 54.7241 15.4211 54.4509 15.6062H54.4514Z" fill="#4C222E"/>
<path d="M56.1897 16.5073C56.1209 16.5015 56.0608 16.5527 56.0554 16.6211C56.0495 16.6899 56.1008 16.75 56.1692 16.7554C56.238 16.7612 56.2981 16.71 56.3035 16.6416C56.3093 16.5728 56.258 16.5127 56.1897 16.5073Z" fill="black"/>
<path d="M54.8794 16.2739C54.8106 16.2681 54.7505 16.3193 54.7451 16.3877C54.7392 16.4565 54.7905 16.5166 54.8589 16.522C54.9277 16.5278 54.9878 16.4766 54.9932 16.4082C54.999 16.3394 54.9477 16.2793 54.8794 16.2739Z" fill="black"/>
<path d="M58.1265 13.9727L58.2057 14.2462L57.6536 15.4255L57.7528 18.5093C59.0401 18.7541 59.0059 16.8892 59.0376 16.6157C59.0693 16.3421 59.5643 15.893 59.3729 14.951C59.1819 14.0089 58.1256 13.9727 58.1256 13.9727H58.1265Z" fill="black"/>
<path d="M57.8913 15.9781C57.4797 15.9444 57.1186 16.2504 57.0848 16.662C57.051 17.0736 57.3571 17.4347 57.7687 17.4685C58.1803 17.5023 58.5414 17.1962 58.5752 16.7846C58.609 16.373 58.3029 16.0119 57.8913 15.9781Z" fill="#FE9F73"/>
<path d="M57.8258 16.3978C57.7274 16.4416 57.6561 16.5279 57.6131 16.6538L57.5894 16.7243L57.6465 16.6764C57.6544 16.6697 57.8458 16.5116 58.0447 16.6588C58.1548 16.7402 58.1544 16.8724 58.1202 16.9608C58.0848 17.0525 57.9934 17.1547 57.8512 17.143C57.85 17.143 57.8483 17.143 57.8471 17.143C57.8358 17.1422 57.8258 17.1505 57.8245 17.1618C57.8233 17.173 57.8316 17.1834 57.8433 17.1843C57.845 17.1843 57.8462 17.1843 57.8479 17.1843C58.0026 17.1972 58.1156 17.0892 58.1594 16.9758C58.2111 16.8415 58.1757 16.7039 58.0698 16.6255C57.913 16.5096 57.7582 16.5629 57.6773 16.6071C57.7165 16.525 57.772 16.4679 57.8429 16.4362C57.9964 16.3674 58.1736 16.4412 58.1757 16.442C58.1861 16.4466 58.1986 16.442 58.2028 16.4312C58.2074 16.4207 58.2028 16.4086 58.1919 16.4041C58.184 16.4007 57.9968 16.3223 57.8262 16.3982L57.8258 16.3978Z" fill="#F07162"/>
<path d="M55.122 18.9812L54.9219 19.9495C57.0123 19.9616 57.2075 18.3027 57.2075 18.3027C56.4473 19.3628 55.122 18.9812 55.122 18.9812Z" fill="#F07162"/>
<path d="M55.1542 17.2112L55.3656 16.245C55.3681 16.2337 55.361 16.2229 55.3497 16.2204C55.3385 16.2174 55.3276 16.2249 55.3251 16.2362L55.1062 17.2358L55.5416 17.4205C55.5436 17.4213 55.5457 17.4218 55.5478 17.4222C55.5566 17.423 55.5649 17.418 55.5687 17.4097C55.5733 17.3992 55.5683 17.3867 55.5578 17.3826L55.1542 17.2112Z" fill="#F07162"/>
<path d="M57.512 18.7432H58.0078L57.9786 17.3291L57.6275 17.3391L57.512 18.7432Z" fill="#FE9F73"/>
<path d="M55.6399 18.0143C55.9368 17.9122 55.933 17.5469 55.933 17.5469C55.9197 17.549 55.1211 17.8263 55.1211 17.8263C55.1211 17.8263 55.3425 18.1165 55.6399 18.0143Z" fill="#FBFDFC"/>
<path d="M55.6724 12.3463C55.6441 12.3896 55.8488 12.6173 55.9289 12.7374C55.6136 12.6674 55.3267 12.6148 55.1028 12.5789C54.0228 12.4055 54.8684 13.6056 54.8684 13.6056C54.8684 13.6056 54.1291 13.5819 53.9948 14.1757C53.8401 14.8604 56.7012 15.2991 57.2037 15.3708C57.4089 15.7315 57.1812 16.6064 57.1991 16.7507C57.2195 16.9133 57.4193 16.8583 57.4193 16.8583C57.3734 16.3404 57.6712 15.9601 57.6712 15.9601L57.727 15.2778C57.727 15.2778 57.73 15.277 57.7312 15.2766C57.7825 15.2766 58.3638 15.2812 58.4431 15.3016C58.4868 15.3129 58.3384 15.2132 58.1837 15.1139C58.6086 14.9225 58.9902 14.6106 58.7675 14.1523C58.1411 12.8642 55.8555 12.0644 55.672 12.3467L55.6724 12.3463Z" fill="black"/>
<path d="M54.3033 20.1925C54.4055 20.1925 57.066 19.8952 59.2194 20.3994C61.3729 20.9035 55.106 29.4552 55.106 29.4552L54.1123 28.7221L54.3033 20.1925Z" fill="white"/>
<path d="M41.263 22.6419C41.263 22.6419 45.5407 28.4684 45.6099 28.41C45.6695 28.3595 48.0861 23.4301 50.438 21.4785C50.5773 21.363 50.7737 21.2399 50.9118 21.147C51.0548 21.051 51.2337 20.9626 51.3742 20.8947C51.4668 20.85 51.5548 20.8096 51.6457 20.7783L52.7162 21.2791L52.4918 27.2299L50.0598 29.3775C50.0598 29.3775 47.6103 34.0259 45.0232 32.8532C42.436 31.6802 39.0549 24.0906 39.0549 24.0906C39.0549 24.0906 39.2618 23.159 41.263 22.6415V22.6419Z" fill="white"/>
<path d="M37.7703 21.667H30.1895L30.3171 21.7408C30.9964 22.1332 31.767 22.34 32.5514 22.34H42.9896C43.7739 22.34 44.5446 22.1336 45.2239 21.7408L45.3515 21.667H37.7707H37.7703Z" fill="#B5D6FB"/>
<path d="M55.8284 20.1182L54.9789 19.4456L54.6157 20.1682L55.2241 21.2028L55.8288 20.8551L56.227 21.2566L58.536 20.2675L58.026 19.21L55.8284 20.1182Z" fill="#B5D6FB"/>
<path d="M51.5865 20.7616C51.5865 20.7616 51.4314 27.7473 50.0598 29.3774V36.4924C50.0598 36.4924 53.9151 37.3723 54.7945 34.6297L54.9238 28.8082L54.3029 20.1924C54.3029 20.1924 52.8884 20.1924 51.5861 20.7616H51.5865Z" fill="#424960"/>
<path d="M59.2191 20.3994L54.7688 29.1187L54.7947 34.6299C54.7947 34.6299 55.0273 37.9417 61.1336 36.4151L61.7545 34.7333V28.2392C61.7545 28.2392 60.2537 24.1859 61.9097 21.1584C61.9097 21.1584 60.9781 20.5804 59.2187 20.3994H59.2191Z" fill="#424960"/>
<path d="M54.846 35.132C54.846 35.132 55.3276 33.1638 55.0995 32.7151C54.8706 32.2647 54.1429 32.0658 53.8235 32.2501C53.5053 32.4336 53.0383 32.2739 52.7764 32.2772C52.5149 32.2805 52.1521 32.5345 52.2042 32.9794C52.2217 33.1296 52.0808 34.3134 52.1171 34.449C52.1183 34.454 52.1196 34.4586 52.1208 34.4636C52.2309 34.861 52.5979 35.1325 53.0103 35.1325H54.8456L54.846 35.132Z" fill="#FE9F73"/>
<path d="M54.7695 32.2237V43.3749L61.91 43.0818L61.7732 31.9047C61.7732 31.9047 58.1894 31.5252 54.7695 32.2237Z" fill="#B5D6FB"/>
<path d="M55.7717 20.9374C55.7717 20.9374 56.7079 20.1217 56.8634 20.4153C57.0136 20.6989 56.7955 20.7977 56.8526 21.0467C56.9101 21.2965 57.1612 21.8256 55.8797 21.1697L55.7659 21.0041L55.7717 20.9378V20.9374Z" fill="#424960"/>
<path d="M55.8289 20.9427C55.8289 20.9427 55.0495 19.9765 54.8452 20.2384C54.6479 20.4911 54.8452 20.6266 54.7455 20.8618C54.6454 21.0978 54.306 21.5753 55.6821 21.1525L55.8231 21.009L55.8289 20.9427Z" fill="#424960"/>
<path d="M55.9624 20.725L55.6786 20.7001C55.6238 20.6953 55.5754 20.7359 55.5706 20.7907L55.5383 21.1592C55.5334 21.214 55.574 21.2623 55.6288 21.2672L55.9125 21.2921C55.9674 21.2969 56.0157 21.2564 56.0205 21.2015L56.0529 20.8331C56.0577 20.7782 56.0172 20.7299 55.9624 20.725Z" fill="#333B4F"/>
<path d="M27.6211 11.4098C27.6257 11.4098 27.6307 11.4103 27.6353 11.4103C27.7199 11.4103 27.792 11.3456 27.7991 11.2597C27.8071 11.1692 27.7395 11.0896 27.649 11.0817L25.0302 10.859C24.9397 10.8515 24.8601 10.9186 24.8521 11.0091C24.8446 11.0996 24.9118 11.1792 25.0023 11.1872L27.6211 11.4098Z" fill="#FECC86"/>
<path d="M28.8968 7.21055C28.9252 7.23015 28.9577 7.23933 28.9898 7.23933C29.0423 7.23933 29.0941 7.21431 29.1258 7.1676C29.177 7.09254 29.1579 6.98995 29.0828 6.93866L26.9139 5.45453C26.8389 5.40323 26.7363 5.42242 26.685 5.49748C26.6337 5.57254 26.6529 5.67512 26.7279 5.72642L28.8968 7.21055Z" fill="#FECC86"/>
<path d="M32.9095 4.24641C32.93 4.24641 32.9512 4.24266 32.9713 4.23432C33.0555 4.20013 33.0959 4.10421 33.0617 4.01998L32.0726 1.58506C32.0384 1.50083 31.9421 1.46038 31.8583 1.49457C31.774 1.52877 31.7336 1.62468 31.7678 1.70891L32.7569 4.14383C32.7828 4.20763 32.8445 4.24641 32.9095 4.24641Z" fill="#FECC86"/>
<path d="M46.0874 11.8848L48.7099 11.7118C48.8008 11.7059 48.8692 11.6275 48.8634 11.5366C48.8576 11.4457 48.7783 11.3773 48.6882 11.3832L46.0657 11.5562C45.9748 11.5621 45.9064 11.6405 45.9122 11.7314C45.9181 11.8185 45.9902 11.8852 46.0765 11.8852C46.0803 11.8852 46.084 11.8852 46.0874 11.8852V11.8848Z" fill="#FECC86"/>
<path d="M44.8011 7.68831C44.832 7.68831 44.8637 7.67955 44.8912 7.6612L47.088 6.21835C47.1639 6.16831 47.1852 6.06614 47.1351 5.99024C47.0851 5.91435 46.9829 5.89308 46.907 5.94312L44.7102 7.38597C44.6343 7.43602 44.6131 7.53818 44.6631 7.61408C44.6948 7.66203 44.7473 7.68831 44.8007 7.68831H44.8011Z" fill="#FECC86"/>
<path d="M41.4458 4.23599C41.5096 4.23599 41.5704 4.19846 41.5971 4.13633L42.6321 1.72059C42.668 1.63719 42.6292 1.54003 42.5458 1.50458C42.4624 1.46872 42.3653 1.5075 42.3294 1.5909L41.2944 4.00664C41.2585 4.09004 41.2973 4.1872 41.3807 4.22265C41.402 4.23182 41.4237 4.23599 41.4453 4.23599H41.4458Z" fill="#FECC86"/>
<path d="M37.2243 2.95743C37.314 2.95743 37.3874 2.88529 37.389 2.79521L37.4295 0.167221C37.4307 0.0763127 37.3582 0.00125103 37.2673 0C37.2664 0 37.2656 0 37.2648 0C37.1751 0 37.1017 0.0721426 37.1 0.162217L37.0596 2.79021C37.0583 2.88112 37.1309 2.95618 37.2218 2.95743C37.2226 2.95743 37.2235 2.95743 37.2243 2.95743Z" fill="#FECC86"/>
<path d="M46.2423 15.556C46.2381 15.5544 46.2335 15.5527 46.2289 15.551C46.1484 15.5248 46.06 15.5644 46.0267 15.644C45.9912 15.7279 46.0308 15.8246 46.1147 15.8596L48.5371 16.8788C48.6209 16.9138 48.7176 16.8746 48.7527 16.7908C48.7881 16.707 48.7485 16.6102 48.6647 16.5752L46.2423 15.556Z" fill="#FECC86"/>
<path d="M27.5286 15.1611L25.0257 15.963C24.939 15.991 24.8914 16.0836 24.9189 16.1703C24.9469 16.257 25.0399 16.3042 25.1258 16.277L27.6287 15.4751C27.7154 15.4472 27.7629 15.3546 27.7354 15.2679C27.7087 15.1849 27.6224 15.1374 27.539 15.1582C27.5357 15.159 27.5319 15.1603 27.5286 15.1611Z" fill="#FECC86"/>
<path d="M36.8574 5.80371L38.9679 10.0801L43.6872 10.7657L40.2723 14.0947L41.0788 18.7948L36.8574 16.5755L32.6365 18.7948L33.4425 14.0947L30.0281 10.7657L34.747 10.0801L36.8574 5.80371Z" fill="#FEC786"/>
<g style="mix-blend-mode:multiply" opacity="0.5">
<path d="M43.6875 10.766L40.7534 10.3398C39.0345 12.8327 37.2084 14.7197 33.1084 16.0445L32.6367 18.7951L36.8577 16.5762L41.0787 18.7951L40.2726 14.095L43.6875 10.7664V10.766Z" fill="#FECC86"/>
</g>
<path d="M45.6392 29.2556H45.5808V28.4032L45.5841 28.3969C45.6042 28.3594 47.6 24.6339 49.3756 22.4929C51.1141 20.3962 53.3576 20.2444 53.3801 20.2432L53.3835 20.3011C53.3614 20.3024 51.1425 20.4538 49.4206 22.53C47.6834 24.6251 45.7334 28.2418 45.6392 28.4182V29.256V29.2556Z" fill="#1D1D1B"/>
<path d="M41.2869 22.626L41.2402 22.6611L45.5869 28.4294L45.6335 28.3942L41.2869 22.626Z" fill="#1D1D1B"/>
<path d="M45.8848 33.072C43.8799 33.0136 41.7702 29.2785 41.6814 29.1192L41.7323 29.0908C41.754 29.1296 43.9145 32.9561 45.8865 33.0136L45.8848 33.072Z" fill="#1D1D1B"/>
<path d="M51.5108 36.6601C50.7164 36.6601 50.0663 36.5246 50.0542 36.5221L50.0312 36.5171V29.3662L50.04 29.3574C50.0467 29.3508 50.7181 28.6706 51.1184 25.9234C51.5204 23.1636 51.5054 22.016 51.5054 22.0047L51.5638 22.0039C51.5638 22.0152 51.5792 23.1661 51.1764 25.9317C50.7927 28.566 50.1747 29.2999 50.0896 29.39V36.4695C50.3348 36.5175 52.4628 36.9036 53.6196 36.0838L53.6534 36.1313C53.0633 36.5496 52.2285 36.6597 51.5112 36.6597L51.5108 36.6601Z" fill="#1D1D1B"/>
<path d="M54.7687 39.0359C52.9977 39.0242 50.3705 38.2924 50.3443 38.2848L50.323 38.279L50.3351 36.5518H50.3935L50.3818 38.2348C50.6366 38.3049 53.0915 38.9667 54.7696 38.9775V39.0359H54.7687Z" fill="#1D1D1B"/>
<path d="M54.7407 43.406V32.2005L54.7641 32.196C54.7995 32.1889 58.3524 31.477 61.7769 31.8765L61.7857 31.8774L62.3194 32.3206L62.2823 32.3653L61.7619 31.9328C58.4946 31.5538 55.1127 32.1872 54.7995 32.2481V43.3451L61.8812 43.0545L61.8082 37.1042L61.8666 37.1033L61.94 43.1099L61.9116 43.1112L54.7411 43.4056L54.7407 43.406Z" fill="#1D1D1B"/>
<path d="M54.9534 32.1822H54.895V28.802L54.8984 28.7957L59.1931 20.3867L59.2448 20.4134L54.9534 28.8161V32.1822Z" fill="#1D1D1B"/>
<path d="M54.5482 23.1999L54.49 23.2041L54.8941 28.8138L54.9523 28.8096L54.5482 23.1999Z" fill="#1D1D1B"/>
<path d="M65.2078 28.8117C64.6256 23.147 62.9009 21.8956 62.8838 21.8839L62.9167 21.8359C62.9347 21.8484 63.365 22.1512 63.8729 23.1649C64.3396 24.0961 64.9601 25.8309 65.2657 28.8058L65.2078 28.8117Z" fill="#1D1D1B"/>
<g opacity="0.3">
<path d="M36.3705 9.04298C36.1474 9.56049 35.8442 9.92704 35.6928 9.86199C35.5415 9.79693 35.5999 9.32446 35.8225 8.80695C36.0456 8.28945 36.3488 7.92289 36.5002 7.98795C36.6516 8.053 36.5932 8.52547 36.3705 9.04298Z" fill="white"/>
</g>
</svg>
