<svg width="494" height="355" viewBox="0 0 494 355" fill="none" xmlns="http://www.w3.org/2000/svg">
<path d="M58.6631 132.91C58.6631 132.91 44.038 110.372 10.8845 117.387C10.8845 117.387 34.3851 149.964 58.6631 132.91Z" fill="#3F9896"/>
<path d="M80.5563 138.287C80.5563 138.287 74.9568 92.3592 18.3555 78.1587C18.3555 78.1587 30.0994 146.329 80.5563 138.287Z" fill="#7FC6A6"/>
<path d="M491.441 261.981C484.209 325.065 464.149 354.562 464.149 354.562L378.213 353.908H54.954C23.4459 345.076 2.61937 303.628 0.230445 255.915C-3.38568 183.745 35.1772 97.2426 142.749 87.5982C228.27 79.9308 288.446 1.0941 365.628 13.9977C448.732 27.8919 490.252 106.824 493.663 197.715C494.578 222.094 493.562 243.482 491.441 261.981Z" fill="#FEEFDC"/>
<path d="M476.829 353.149H42.5826V354.562H476.829V353.149Z" fill="#33182C"/>
<path d="M422.553 85.805C422.608 85.0636 422.378 84.2884 421.771 83.6442C420.669 82.4698 418.789 81.513 415.627 81.2912C415.627 81.2912 416.717 61.6876 401.908 60.3907C384.926 58.9016 384.721 78.1609 384.721 78.1609C384.721 78.1609 377.003 70.8335 371.435 80.1231C371.435 80.1231 361.814 74.5616 356.962 84.8334C356.81 85.1565 356.776 85.4924 356.831 85.8071H422.553V85.805Z" fill="white"/>
<path d="M47.8506 188.391C47.7935 187.606 48.0365 186.784 48.6786 186.102C49.8466 184.858 51.8385 183.844 55.1884 183.609C55.1884 183.609 54.0352 162.838 69.7248 161.461C87.7209 159.883 87.9385 180.291 87.9385 180.291C87.9385 180.291 96.117 172.526 102.016 182.372C102.016 182.372 112.212 176.478 117.353 187.363C117.516 187.705 117.552 188.062 117.493 188.393H47.8506V188.391Z" fill="white"/>
<path d="M122.813 153.236C128.962 152.883 143.376 152.268 155.908 153.326C161.091 153.764 165.569 149.621 165.451 144.421C165.402 142.292 164.64 139.817 162.663 137.009C155.054 126.203 141.83 136.524 141.957 142.009C141.957 142.009 139.282 133.75 131.163 135.195C123.042 136.642 125.914 148.652 125.914 148.652C125.914 148.652 123.293 148.099 121.476 149.338C119.689 150.557 120.653 153.36 122.811 153.236H122.813Z" fill="white"/>
<path d="M441.166 124.59C437.045 124.353 427.386 123.941 418.988 124.651C415.513 124.944 412.514 122.169 412.592 118.682C412.623 117.256 413.135 115.596 414.459 113.714C419.558 106.473 428.421 113.388 428.336 117.064C428.336 117.064 430.127 111.528 435.571 112.497C441.014 113.467 439.087 121.516 439.087 121.516C439.087 121.516 440.843 121.145 442.061 121.977C443.259 122.794 442.613 124.672 441.166 124.59Z" fill="white"/>
<g style="mix-blend-mode:multiply" opacity="0.3">
<path d="M491.441 261.981C484.209 325.065 464.149 354.562 464.149 354.562L378.213 353.907H54.954C23.4459 345.076 2.6194 303.628 0.230469 255.915C12.1117 250.037 28.0992 246.87 49.4559 250.161C49.4559 250.161 74.2365 252.529 91.1343 284.635C91.1343 284.635 127.8 256.473 157.344 280.694C157.344 280.694 163.043 223.856 219.458 223.856C275.874 223.856 276.21 285.011 276.21 285.011C276.21 285.011 294.24 258.726 330.405 282.945C330.405 282.945 331.081 210.686 395.295 210.684C453.311 210.684 453.873 284.073 453.873 284.073C453.873 284.073 470.023 264.649 491.441 261.981Z" fill="#FEEFDC"/>
</g>
<path d="M173.27 112.415C173.27 112.415 174.056 114.685 177.376 115.123C180.697 115.56 195.375 117.393 199.306 120.452C203.236 123.51 207.664 115.059 207.664 115.059V113.156L173.268 112.413L173.27 112.415Z" fill="#FE9F73"/>
<path d="M263.188 328.077L263.025 347.469L278.544 347.581L278.658 330.227L263.188 328.077Z" fill="#FE9F73"/>
<path d="M327.378 322.14L311.511 323.549L315.239 342.542L330.745 339.13L327.378 322.14Z" fill="#FE9F73"/>
<path d="M289.001 197.039C288.568 214.655 286.927 293.046 282.166 338.955C271.442 342.618 262.761 339.394 259.517 337.831L256.053 189.241C256.046 188.901 256.065 188.563 256.112 188.229L256.209 187.538C256.735 183.734 260.461 181.417 263.88 182.771L285.29 191.243C287.573 192.149 289.065 194.473 288.999 197.041L289.001 197.039Z" fill="#363D51"/>
<path d="M330.587 328.717C321.874 334.984 311.496 335.844 308.66 335.962L289.546 269.362L279.008 208.679L267.949 175.722L311.397 188.791C311.397 188.791 311.95 224.392 317.02 263.623C319.565 283.338 328.346 310.953 330.587 328.717Z" fill="#424960"/>
<path d="M305.787 327.23C305.819 327.342 305.918 327.414 306.024 327.414C306.047 327.414 306.07 327.41 306.091 327.403C306.22 327.363 306.294 327.219 306.256 327.082L289.787 269.302L281.929 224.067C281.904 223.927 281.777 223.837 281.644 223.86C281.511 223.885 281.422 224.02 281.448 224.16L289.31 269.423L289.314 269.437L305.787 327.232V327.23Z" fill="black"/>
<path d="M316.063 257.92H316.076C316.091 258.006 316.11 258.118 316.131 258.253C317.618 267.298 320.395 283.718 322.294 292.081C322.322 292.199 322.423 292.279 322.535 292.279C322.554 292.279 322.571 292.277 322.59 292.273C322.721 292.239 322.803 292.1 322.771 291.962C320.877 283.615 318.099 267.207 316.614 258.169C316.572 257.907 316.543 257.73 316.513 257.609C316.513 257.609 316.513 257.609 316.513 257.607C316.513 257.489 316.498 257.322 316.477 257.083L312.445 210.095C312.432 209.953 312.312 209.845 312.179 209.86C312.043 209.873 311.944 209.998 311.957 210.141C311.997 210.612 315.989 257.09 316.033 257.656C316.033 257.662 316.033 257.666 316.033 257.673L316.063 257.926V257.92Z" fill="black"/>
<path d="M259.147 324.303C259.147 324.303 259.149 324.303 259.151 324.303C259.286 324.298 259.394 324.18 259.39 324.038L256.796 210.937C256.792 210.794 256.688 210.678 256.545 210.684C256.41 210.688 256.302 210.806 256.306 210.948L258.9 324.049C258.904 324.191 259.014 324.303 259.147 324.303Z" fill="black"/>
<path d="M279.133 352.913C279.365 352.913 279.553 352.712 279.551 352.467L279.534 350.298C279.532 349.941 279.253 349.651 278.915 349.656L265.306 349.757L259.741 343.471L249.697 349.875L247.523 349.892C246.774 349.898 246.091 350.437 245.956 351.212C245.775 352.256 246.535 353.162 247.49 353.153L279.131 352.917L279.133 352.913Z" fill="#2C344C"/>
<path d="M272.957 342.244C272.957 342.244 267.708 346.225 263.021 341.49L251.507 346.973C251.507 346.973 248.347 348.112 247.502 349.907L278.795 349.673L278.751 343.792C278.751 343.792 276.433 340.56 272.957 342.246V342.244Z" fill="#363D51"/>
<path d="M278.877 343.785L278.645 343.786L278.688 349.639L278.921 349.637L278.877 343.785Z" fill="black"/>
<path d="M272.891 342.145C270.312 344.044 267.581 343.661 267.554 343.657L267.522 343.898C267.522 343.898 267.797 343.938 268.24 343.934C269.25 343.925 271.176 343.704 273.024 342.343L272.891 342.143V342.145Z" fill="black"/>
<path d="M277.312 347.334L275.844 348.395L275.975 348.595L277.443 347.537L277.312 347.334Z" fill="black"/>
<path d="M276.252 347.047L274.784 348.105L274.915 348.306L276.383 347.248L276.252 347.047Z" fill="black"/>
<path d="M279.665 352.102L279.652 350.475C279.648 349.958 279.245 349.539 278.753 349.542L247.466 349.776C246.548 349.782 245.808 350.574 245.815 351.542C245.819 352.057 246.036 352.543 246.412 352.875L246.56 352.687C246.237 352.401 246.049 351.983 246.045 351.54C246.039 350.707 246.676 350.025 247.466 350.021L278.753 349.787C279.116 349.784 279.416 350.093 279.418 350.477L279.431 352.104H279.663L279.665 352.102Z" fill="black"/>
<path d="M250.459 347.562C252.776 346.5 262.964 341.65 263.067 341.602L262.972 341.38C262.869 341.428 252.684 346.278 250.366 347.341C248.009 348.42 247.386 349.793 247.361 349.85L247.572 349.953C247.578 349.941 248.193 348.604 250.459 347.564V347.562Z" fill="black"/>
<path d="M302.224 352.678L332.562 343.235C332.786 343.165 332.912 342.918 332.845 342.683L332.26 340.603C332.162 340.261 331.82 340.064 331.495 340.165L318.448 344.227L311.45 339.806L303.483 348.887L301.398 349.535C300.68 349.759 300.166 350.475 300.238 351.261C300.338 352.317 301.305 352.966 302.222 352.68L302.224 352.678Z" fill="#2C344C"/>
<path d="M323.825 334.779C323.825 334.779 319.829 340.136 314.08 336.949L304.458 345.571C304.458 345.571 301.721 347.586 301.383 349.556L331.385 340.218L329.797 334.579C329.797 334.579 326.723 332.147 323.823 334.779H323.825Z" fill="#363D51"/>
<path d="M329.909 334.543L329.687 334.612L331.267 340.225L331.489 340.155L329.909 334.543Z" fill="black"/>
<path d="M323.914 334.855L323.735 334.701C321.755 337.278 319.031 337.705 319.005 337.709L319.037 337.95C319.037 337.95 319.312 337.908 319.736 337.774C320.706 337.472 322.497 336.699 323.914 334.853V334.855Z" fill="black"/>
<path d="M329.345 338.404L328.213 339.849L328.392 340.005L329.524 338.558L329.345 338.404Z" fill="black"/>
<path d="M328.251 338.436L327.118 339.88L327.298 340.034L328.43 338.59L328.251 338.436Z" fill="black"/>
<path d="M301.379 349.677L331.377 340.341C331.725 340.233 332.095 340.442 332.198 340.812L332.638 342.371L332.859 342.301L332.42 340.742C332.281 340.246 331.782 339.96 331.311 340.106L301.313 349.442C300.433 349.717 299.93 350.693 300.19 351.62C300.329 352.114 300.665 352.518 301.115 352.727L301.208 352.503C300.821 352.323 300.532 351.977 300.411 351.55C300.188 350.752 300.621 349.911 301.379 349.677Z" fill="black"/>
<path d="M303.607 346.443C305.555 344.747 314.069 337.117 314.154 337.041L314.004 336.855C313.917 336.932 305.405 344.561 303.459 346.255C301.478 347.978 301.239 349.48 301.231 349.544L301.459 349.582C301.459 349.567 301.7 348.103 303.607 346.445V346.443Z" fill="black"/>
<path d="M301.25 199.176L306.666 193.87C306.761 193.778 306.767 193.619 306.681 193.516C306.594 193.414 306.444 193.406 306.349 193.501L300.933 198.807C300.838 198.9 300.832 199.058 300.918 199.162C300.959 199.21 301.013 199.238 301.07 199.242C301.134 199.248 301.199 199.227 301.25 199.176Z" fill="black"/>
<path d="M301.007 202.138L305.094 198.198C305.191 198.106 305.198 197.947 305.111 197.846C305.025 197.742 304.877 197.734 304.78 197.827L300.692 201.766C300.595 201.859 300.589 202.017 300.675 202.119C300.718 202.167 300.773 202.195 300.83 202.201C300.893 202.207 300.956 202.186 301.007 202.138Z" fill="black"/>
<path d="M255.043 168.767V193.773C255.043 193.773 287.499 203.538 310.916 192.705L309.999 171.037L255.043 168.767Z" fill="white"/>
<path d="M328.656 133.733C324.856 110.93 313.585 107.174 313.585 107.174C313.585 107.174 308.03 104.904 303.495 117.309C298.96 129.716 312.531 142.254 312.531 142.254L312.8 161.57L303.495 183.795C303.495 183.795 330.492 177.112 331.672 176.062C332.851 175.015 332.458 156.535 328.658 133.731L328.656 133.733Z" fill="white"/>
<path d="M282.603 69.2662C279.281 70.1111 276.883 73.007 276.602 76.4224L276.328 79.764L294.13 73.835C294.13 73.835 296.745 75.3452 296.559 74.9376C296.373 74.5278 294.409 70.9983 294.409 70.9983C294.409 70.9983 288.344 67.8088 282.608 69.2683L282.603 69.2662Z" fill="#FE9F73"/>
<path d="M275.474 90.1349C275.474 90.1349 274.851 95.1515 279.203 96.1421L277.828 102.791C277.316 105.263 278.613 107.776 280.947 108.731C282.09 109.198 283.467 109.584 285.053 109.715C290.087 110.129 293.124 106.579 293.699 104.724C294.273 102.872 293.758 93.749 293.758 93.749L294.275 89.3302L295.116 72.1113L276.632 76.0443L275.472 90.1328L275.474 90.1349Z" fill="#FE9F73"/>
<path d="M282.726 81.4475C282.641 81.5256 282.635 81.6587 282.715 81.7453C282.795 81.8298 282.926 81.8361 283.013 81.7559C285.216 79.7049 287.945 82.115 288.059 82.2206C288.104 82.2607 288.161 82.2776 288.215 82.2734C288.268 82.2691 288.319 82.2459 288.357 82.2037C288.435 82.1171 288.429 81.984 288.342 81.9058C288.311 81.8784 285.212 79.1325 282.726 81.4475Z" fill="#4C222E"/>
<path d="M275.806 79.0501C275.709 79.1156 275.686 79.2466 275.749 79.3416C275.815 79.4388 275.945 79.4641 276.041 79.3986C277.124 78.6636 278.74 80.3935 278.755 80.4125C278.791 80.4505 278.837 80.4738 278.886 80.4801C278.945 80.4864 279.006 80.4695 279.053 80.4252C279.137 80.347 279.143 80.214 279.065 80.1274C278.989 80.045 277.187 78.1123 275.804 79.0501H275.806Z" fill="#4C222E"/>
<path d="M284.61 83.6102C284.261 83.5806 283.957 83.8404 283.93 84.1868C283.9 84.5354 284.16 84.8395 284.506 84.867C284.855 84.8966 285.159 84.6367 285.187 84.2903C285.216 83.9418 284.956 83.6377 284.61 83.6102Z" fill="black"/>
<path d="M277.973 82.4317C277.625 82.4022 277.321 82.662 277.293 83.0084C277.263 83.3569 277.523 83.6611 277.87 83.6885C278.218 83.7181 278.522 83.4583 278.55 83.1119C278.579 82.7634 278.32 82.4592 277.973 82.4317Z" fill="black"/>
<path d="M294.421 70.7764L294.822 72.162L292.026 78.1354L292.529 93.7553C299.049 94.9951 298.876 85.5493 299.036 84.1637C299.197 82.778 301.704 80.5032 300.735 75.7316C299.767 70.9601 294.417 70.7764 294.417 70.7764H294.421Z" fill="black"/>
<path d="M293.23 80.9321C291.145 80.761 289.316 82.3114 289.145 84.3961C288.974 86.4809 290.524 88.3101 292.609 88.4812C294.694 88.6523 296.523 87.1019 296.694 85.0171C296.865 82.9324 295.315 81.1032 293.23 80.9321Z" fill="#FE9F73"/>
<path d="M292.898 83.059C292.4 83.2808 292.039 83.718 291.821 84.3559L291.701 84.7128L291.99 84.4699C292.03 84.4361 293 83.6356 294.007 84.3812C294.565 84.7931 294.563 85.4627 294.389 85.9105C294.21 86.3752 293.747 86.8927 293.027 86.8335C293.021 86.8335 293.012 86.8335 293.006 86.8335C292.949 86.8293 292.898 86.8715 292.892 86.9286C292.886 86.9856 292.928 87.0384 292.987 87.0426C292.995 87.0426 293.002 87.0426 293.01 87.0426C293.794 87.1081 294.366 86.561 294.588 85.9865C294.85 85.3064 294.67 84.6094 294.134 84.2123C293.34 83.6251 292.556 83.8954 292.146 84.1193C292.345 83.7032 292.626 83.4138 292.985 83.2533C293.762 82.9048 294.66 83.2787 294.67 83.2829C294.723 83.3061 294.787 83.2829 294.808 83.228C294.831 83.1751 294.808 83.1139 294.753 83.0907C294.713 83.0738 293.764 82.6767 292.9 83.0611L292.898 83.059Z" fill="#F07162"/>
<path d="M279.203 96.1444L278.189 101.049C288.777 101.11 289.766 92.7078 289.766 92.7078C285.915 98.077 279.203 96.1444 279.203 96.1444Z" fill="#F07162"/>
<path d="M279.365 87.1801L280.436 82.286C280.449 82.229 280.413 82.1741 280.356 82.1614C280.299 82.1466 280.244 82.1846 280.231 82.2417L279.122 87.3047L281.327 88.2404C281.338 88.2446 281.349 88.2467 281.359 88.2488C281.404 88.2531 281.446 88.2277 281.465 88.1855C281.488 88.1327 281.463 88.0693 281.41 88.0482L279.365 87.1801Z" fill="#F07162"/>
<path d="M291.308 94.936H293.819L293.671 87.7734L291.893 87.8241L291.308 94.936Z" fill="#FE9F73"/>
<path d="M281.826 91.2482C283.33 90.7307 283.311 88.8804 283.311 88.8804C283.243 88.8909 279.198 90.2956 279.198 90.2956C279.198 90.2956 280.32 91.7657 281.826 91.2482Z" fill="#FBFDFC"/>
<path d="M281.991 62.5367C281.847 62.7564 282.884 63.9096 283.29 64.518C281.693 64.1631 280.24 63.897 279.105 63.7153C273.635 62.8366 277.918 68.9156 277.918 68.9156C277.918 68.9156 274.173 68.7952 273.493 71.803C272.71 75.2713 287.202 77.4934 289.747 77.8567C290.786 79.6837 289.633 84.1152 289.724 84.846C289.827 85.6698 290.839 85.391 290.839 85.391C290.607 82.7676 292.115 80.8412 292.115 80.8412L292.398 77.3856C292.398 77.3856 292.412 77.3814 292.419 77.3793C292.679 77.3793 295.623 77.4025 296.024 77.506C296.246 77.5631 295.494 77.0582 294.711 76.5555C296.863 75.586 298.796 74.0061 297.668 71.6847C294.495 65.1601 282.918 61.1088 281.989 62.5388L281.991 62.5367Z" fill="black"/>
<path d="M275.056 102.28C275.574 102.28 289.05 100.774 299.957 103.328C310.865 105.882 279.122 149.197 279.122 149.197L274.089 145.484L275.056 102.28Z" fill="white"/>
<path d="M209.005 114.685C209.005 114.685 230.672 144.197 231.023 143.902C231.325 143.646 243.565 118.677 255.478 108.792C256.184 108.207 257.178 107.584 257.878 107.113C258.602 106.627 259.508 106.179 260.22 105.835C260.689 105.609 261.135 105.404 261.595 105.246L267.017 107.783L265.881 137.924L253.562 148.802C253.562 148.802 241.155 172.347 228.051 166.407C214.947 160.466 197.821 122.023 197.821 122.023C197.821 122.023 198.868 117.305 209.005 114.683V114.685Z" fill="white"/>
<path d="M191.313 109.749H152.915L153.561 110.123C157.002 112.11 160.905 113.158 164.878 113.158H217.75C221.723 113.158 225.626 112.113 229.067 110.123L229.713 109.749H191.315H191.313Z" fill="#B5D6FB"/>
<path d="M282.781 101.902L278.478 98.4952L276.638 102.156L279.72 107.396L282.783 105.634L284.8 107.669L296.495 102.658L293.912 97.3018L282.781 101.902Z" fill="#B5D6FB"/>
<path d="M261.295 105.163C261.295 105.163 260.509 140.547 253.562 148.804V184.843C253.562 184.843 273.09 189.3 277.544 175.408L278.199 145.921L275.054 102.28C275.054 102.28 267.889 102.28 261.293 105.163H261.295Z" fill="#424960"/>
<path d="M299.955 103.328L277.414 147.492L277.545 175.408C277.545 175.408 278.723 192.183 309.652 184.45L312.798 175.931V143.038C312.798 143.038 305.196 122.507 313.583 107.172C313.583 107.172 308.865 104.245 299.953 103.328H299.955Z" fill="#424960"/>
<path d="M277.804 177.951C277.804 177.951 280.244 167.981 279.089 165.708C277.929 163.427 274.243 162.42 272.625 163.353C271.013 164.283 268.648 163.474 267.321 163.491C265.997 163.507 264.159 164.794 264.423 167.048C264.512 167.808 263.798 173.805 263.982 174.491C263.988 174.516 263.995 174.54 264.001 174.565C264.559 176.578 266.417 177.953 268.506 177.953H277.802L277.804 177.951Z" fill="#FE9F73"/>
<path d="M277.418 163.22V219.703L313.585 218.218L312.893 161.604C312.893 161.604 294.74 159.682 277.418 163.22Z" fill="#B5D6FB"/>
<path d="M282.493 106.051C282.493 106.051 287.235 101.919 288.023 103.406C288.784 104.842 287.679 105.343 287.968 106.604C288.26 107.869 289.531 110.55 283.041 107.227L282.464 106.389L282.493 106.053V106.051Z" fill="#424960"/>
<path d="M282.783 106.076C282.783 106.076 278.835 101.182 277.8 102.508C276.801 103.788 277.8 104.475 277.295 105.666C276.788 106.862 275.069 109.28 282.039 107.138L282.753 106.412L282.783 106.076Z" fill="#424960"/>
<path d="M283.458 104.974L282.021 104.848C281.743 104.823 281.498 105.029 281.474 105.306L281.31 107.173C281.286 107.45 281.491 107.695 281.769 107.72L283.206 107.846C283.484 107.87 283.728 107.665 283.753 107.387L283.917 105.521C283.941 105.243 283.736 104.998 283.458 104.974Z" fill="#333B4F"/>
<path d="M139.906 57.7946C139.929 57.7946 139.954 57.7967 139.977 57.7967C140.406 57.7967 140.772 57.4693 140.807 57.0342C140.848 56.5759 140.505 56.1724 140.047 56.1323L126.782 55.0044C126.324 54.9663 125.92 55.3064 125.88 55.7648C125.842 56.2231 126.182 56.6266 126.641 56.6667L139.906 57.7946Z" fill="#FECC86"/>
<path d="M146.367 36.5204C146.511 36.6197 146.675 36.6661 146.838 36.6661C147.104 36.6661 147.366 36.5394 147.527 36.3028C147.786 35.9226 147.689 35.403 147.309 35.1432L136.323 27.6258C135.943 27.366 135.423 27.4632 135.164 27.8434C134.904 28.2236 135.001 28.7432 135.381 29.003L146.367 36.5204Z" fill="#FECC86"/>
<path d="M166.693 21.5067C166.796 21.5067 166.904 21.4877 167.005 21.4454C167.432 21.2722 167.637 20.7864 167.464 20.3598L162.454 8.02648C162.28 7.59981 161.792 7.39492 161.368 7.56813C160.941 7.74133 160.736 8.22714 160.91 8.65381L165.92 20.9871C166.051 21.3103 166.363 21.5067 166.693 21.5067Z" fill="#FECC86"/>
<path d="M233.441 60.1985L246.725 59.322C247.186 59.2924 247.532 58.8953 247.502 58.4348C247.473 57.9744 247.071 57.628 246.615 57.6575L233.331 58.5341C232.871 58.5637 232.525 58.9608 232.554 59.4212C232.584 59.8627 232.949 60.2006 233.386 60.2006C233.405 60.2006 233.424 60.2006 233.441 60.2006V60.1985Z" fill="#FECC86"/>
<path d="M226.925 38.943C227.081 38.943 227.242 38.8987 227.381 38.8057L238.509 31.4974C238.893 31.244 239.001 30.7265 238.747 30.342C238.494 29.9576 237.976 29.8499 237.592 30.1034L226.465 37.4117C226.08 37.6651 225.972 38.1826 226.226 38.567C226.386 38.81 226.653 38.943 226.923 38.943H226.925Z" fill="#FECC86"/>
<path d="M209.93 21.458C210.253 21.458 210.562 21.2679 210.697 20.9532L215.939 8.71704C216.121 8.2946 215.925 7.80245 215.502 7.62291C215.08 7.44126 214.588 7.63769 214.406 8.06014L209.163 20.2963C208.982 20.7187 209.178 21.2109 209.601 21.3904C209.708 21.4369 209.818 21.458 209.928 21.458H209.93Z" fill="#FECC86"/>
<path d="M188.548 14.9799C189.002 14.9799 189.374 14.6145 189.382 14.1582L189.587 0.847002C189.594 0.386537 189.226 0.00633668 188.766 0C188.761 0 188.757 0 188.753 0C188.299 0 187.927 0.365415 187.919 0.821656L187.714 14.1329C187.707 14.5934 188.075 14.9736 188.535 14.9799C188.54 14.9799 188.544 14.9799 188.548 14.9799Z" fill="#FECC86"/>
<path d="M234.225 78.7945C234.204 78.7861 234.18 78.7776 234.157 78.7692C233.75 78.6361 233.302 78.8368 233.133 79.2402C232.953 79.6648 233.154 80.1548 233.579 80.3322L245.848 85.4945C246.273 85.6719 246.763 85.4734 246.94 85.0488C247.12 84.6243 246.919 84.1342 246.495 83.9568L234.225 78.7945Z" fill="#FECC86"/>
<path d="M139.437 76.792L126.759 80.8538C126.32 80.9953 126.079 81.4642 126.218 81.9036C126.36 82.3429 126.831 82.5816 127.266 82.4443L139.944 78.3825C140.383 78.241 140.624 77.7721 140.484 77.3327C140.349 76.9124 139.912 76.6716 139.489 76.7772C139.473 76.7814 139.454 76.7878 139.437 76.792Z" fill="#FECC86"/>
<path d="M186.689 29.3958L197.379 51.0566L221.283 54.5291L203.986 71.391L208.071 95.1979L186.689 83.9566L165.309 95.1979L169.392 71.391L152.097 54.5291L175.999 51.0566L186.689 29.3958Z" fill="#FEC786"/>
<g style="mix-blend-mode:multiply" opacity="0.5">
<path d="M221.283 54.5293L206.422 52.3706C197.715 64.9975 188.466 74.5553 167.698 81.2658L165.309 95.1981L186.689 83.9589L208.069 95.1981L203.986 71.3912L221.283 54.5314V54.5293Z" fill="#FECC86"/>
</g>
<path d="M231.171 148.183H230.875V143.866L230.892 143.834C230.993 143.644 241.102 124.773 250.096 113.929C258.902 103.309 270.266 102.54 270.38 102.534L270.397 102.827C270.285 102.834 259.046 103.6 250.324 114.117C241.525 124.729 231.648 143.048 231.171 143.942V148.185V148.183Z" fill="#1D1D1B"/>
<path d="M209.125 114.606L208.889 114.784L230.906 144.001L231.142 143.823L209.125 114.606Z" fill="#1D1D1B"/>
<path d="M232.415 167.516C222.259 167.221 211.573 148.302 211.123 147.495L211.381 147.351C211.491 147.548 222.434 166.929 232.423 167.221L232.415 167.516Z" fill="#1D1D1B"/>
<path d="M260.911 185.688C256.887 185.688 253.594 185.001 253.533 184.989L253.417 184.963V148.743L253.461 148.699C253.495 148.665 256.895 145.22 258.923 131.304C260.959 117.326 260.883 111.513 260.883 111.456L261.179 111.452C261.179 111.509 261.257 117.338 259.217 131.347C257.273 144.69 254.143 148.407 253.712 148.863V184.723C254.954 184.966 265.733 186.921 271.592 182.769L271.763 183.01C268.774 185.128 264.546 185.686 260.913 185.686L260.911 185.688Z" fill="#1D1D1B"/>
<path d="M277.413 197.721C268.443 197.662 255.136 193.955 255.003 193.917L254.895 193.888L254.956 185.139H255.252L255.193 193.664C256.483 194.018 268.918 197.371 277.418 197.425V197.721H277.413Z" fill="#1D1D1B"/>
<path d="M277.272 219.857V163.1L277.39 163.076C277.57 163.04 295.566 159.435 312.912 161.458L312.956 161.463L315.66 163.708L315.472 163.934L312.836 161.744C296.286 159.824 279.156 163.032 277.57 163.34V219.549L313.44 218.077L313.07 187.937L313.366 187.933L313.737 218.358L313.594 218.364L277.274 219.855L277.272 219.857Z" fill="#1D1D1B"/>
<path d="M278.349 163.007H278.053V145.885L278.07 145.853L299.824 103.26L300.086 103.395L278.349 145.957V163.007Z" fill="#1D1D1B"/>
<path d="M276.297 117.51L276.002 117.531L278.049 145.945L278.344 145.924L276.297 117.51Z" fill="#1D1D1B"/>
<path d="M330.289 145.936C327.34 117.243 318.604 110.905 318.517 110.845L318.684 110.603C318.775 110.666 320.955 112.199 323.528 117.334C325.891 122.051 329.034 130.838 330.582 145.906L330.289 145.936Z" fill="#1D1D1B"/>
<g opacity="0.3">
<path d="M184.222 45.8015C183.092 48.4228 181.557 50.2794 180.79 49.9499C180.023 49.6204 180.319 47.2272 181.447 44.606C182.577 41.9847 184.112 40.1281 184.879 40.4576C185.646 40.7871 185.35 43.1802 184.222 45.8015Z" fill="white"/>
</g>
</svg>
