<svg width="25" height="26" viewBox="0 0 25 26" fill="none" xmlns="http://www.w3.org/2000/svg">
<g id="Group 440">
<path id="Vector" d="M24.537 25.5485H0.462963C0.340178 25.5485 0.222421 25.5042 0.135599 25.4254C0.0487764 25.3467 0 25.2399 0 25.1285C0 25.0171 0.0487764 24.9103 0.135599 24.8315C0.222421 24.7527 0.340178 24.7085 0.462963 24.7085H24.537C24.6598 24.7085 24.7776 24.7527 24.8644 24.8315C24.9512 24.9103 25 25.0171 25 25.1285C25 25.2399 24.9512 25.3467 24.8644 25.4254C24.7776 25.5042 24.6598 25.5485 24.537 25.5485Z" fill="#51B7F0"/>
<path id="Vector_2" d="M24.582 6.22925H18.7487C18.5186 6.22925 18.332 6.43519 18.332 6.68922V25.0883C18.332 25.3423 18.5186 25.5482 18.7487 25.5482H24.582C24.8121 25.5482 24.9987 25.3423 24.9987 25.0883V6.68922C24.9987 6.43519 24.8121 6.22925 24.582 6.22925Z" fill="#51B7F0"/>
<path id="Vector_3" d="M16.1445 10.4292H8.85286C8.56522 10.4292 8.33203 10.6407 8.33203 10.9017V25.0759C8.33203 25.3369 8.56522 25.5484 8.85286 25.5484H16.1445C16.4322 25.5484 16.6654 25.3369 16.6654 25.0759V10.9017C16.6654 10.6407 16.4322 10.4292 16.1445 10.4292Z" fill="#51B7F0"/>
<path id="Vector_4" d="M6.25 15.4689H0.416667C0.186548 15.4689 0 15.674 0 15.927V25.0902C0 25.3432 0.186548 25.5483 0.416667 25.5483H6.25C6.48012 25.5483 6.66667 25.3432 6.66667 25.0902V15.927C6.66667 15.674 6.48012 15.4689 6.25 15.4689Z" fill="#51B7F0"/>
<path id="Vector_5" d="M22.3903 0.519498C22.3467 0.466285 22.2923 0.423521 22.231 0.394182C22.1697 0.364843 22.103 0.349633 22.0354 0.349609H18.7796C18.6563 0.349609 18.538 0.400171 18.4508 0.490172C18.3635 0.580173 18.3145 0.70224 18.3145 0.829521C18.3145 0.956801 18.3635 1.07887 18.4508 1.16887C18.538 1.25887 18.6563 1.30943 18.7796 1.30943H20.6926L2.71939 12.9002C2.61454 12.9677 2.53996 13.0754 2.51204 13.1996C2.48413 13.3238 2.50518 13.4543 2.57056 13.5625C2.63594 13.6707 2.74029 13.7477 2.86066 13.7765C2.98103 13.8053 3.10756 13.7836 3.21241 13.7161L21.3745 2.00626L21.1117 3.63412C21.1017 3.6963 21.1036 3.7599 21.1173 3.82131C21.1311 3.88272 21.1565 3.94073 21.192 3.99203C21.2275 4.04332 21.2724 4.0869 21.3243 4.12027C21.3761 4.15363 21.4338 4.17614 21.494 4.1865C21.5193 4.18962 21.5449 4.19043 21.5703 4.1889C21.6803 4.18875 21.7866 4.14842 21.8705 4.07506C21.9543 4.00171 22.0103 3.90006 22.0284 3.78817L22.4935 0.908706C22.5048 0.839987 22.5013 0.769573 22.4835 0.70236C22.4657 0.635147 22.4339 0.572747 22.3903 0.519498Z" fill="#51B7F0"/>
<path id="Vector_6" d="M4.16667 0.349609C3.34258 0.349609 2.537 0.595922 1.85179 1.0574C1.16659 1.51888 0.632535 2.17479 0.31717 2.9422C0.00180533 3.70961 -0.0807085 4.55405 0.0800632 5.36872C0.240835 6.1834 0.637671 6.93173 1.22039 7.51908C1.80311 8.10643 2.54554 8.50642 3.35379 8.66847C4.16205 8.83052 4.99982 8.74735 5.76118 8.42948C6.52254 8.1116 7.17328 7.57331 7.63112 6.88266C8.08896 6.19201 8.33333 5.38002 8.33333 4.54939C8.33162 3.43607 7.89208 2.36884 7.11105 1.5816C6.33002 0.794367 5.27121 0.351337 4.16667 0.349609ZM4.16667 4.08275C4.49238 4.08529 4.80685 4.20314 5.05509 4.4157C5.30333 4.62826 5.46956 4.922 5.52472 5.24557C5.57988 5.56914 5.52046 5.90195 5.35684 6.18584C5.19322 6.46972 4.93582 6.68662 4.62963 6.7986V7.03659C4.62963 7.16035 4.58085 7.27904 4.49403 7.36655C4.40721 7.45407 4.28945 7.50323 4.16667 7.50323C4.04388 7.50323 3.92613 7.45407 3.8393 7.36655C3.75248 7.27904 3.7037 7.16035 3.7037 7.03659V6.7986C3.43392 6.70174 3.20029 6.52345 3.03461 6.28799C2.86893 6.05253 2.77925 5.77133 2.77778 5.48267C2.77778 5.35891 2.82656 5.24022 2.91338 5.15271C3.0002 5.06519 3.11796 5.01603 3.24074 5.01603C3.36353 5.01603 3.48128 5.06519 3.56811 5.15271C3.65493 5.24022 3.7037 5.35891 3.7037 5.48267C3.7037 5.57496 3.73086 5.66518 3.78173 5.74192C3.8326 5.81866 3.9049 5.87847 3.9895 5.91379C4.07409 5.94911 4.16718 5.95835 4.25699 5.94035C4.34679 5.92234 4.42929 5.8779 4.49403 5.81264C4.55878 5.74738 4.60287 5.66423 4.62073 5.57371C4.6386 5.48319 4.62943 5.38936 4.59439 5.30409C4.55935 5.21883 4.50001 5.14595 4.42388 5.09467C4.34774 5.0434 4.25823 5.01603 4.16667 5.01603C3.84095 5.01348 3.52649 4.89563 3.27824 4.68307C3.03 4.47052 2.86377 4.17678 2.80861 3.85321C2.75345 3.52964 2.81288 3.19682 2.9765 2.91294C3.14011 2.62905 3.39751 2.41216 3.7037 2.30017V2.06219C3.7037 1.93842 3.75248 1.81973 3.8393 1.73222C3.92613 1.64471 4.04388 1.59554 4.16667 1.59554C4.28945 1.59554 4.40721 1.64471 4.49403 1.73222C4.58085 1.81973 4.62963 1.93842 4.62963 2.06219V2.30017C4.89942 2.39703 5.13305 2.57532 5.29873 2.81078C5.4644 3.04624 5.55408 3.32744 5.55556 3.6161C5.55556 3.73986 5.50678 3.85856 5.41996 3.94607C5.33314 4.03358 5.21538 4.08275 5.09259 4.08275C4.96981 4.08275 4.85205 4.03358 4.76523 3.94607C4.67841 3.85856 4.62963 3.73986 4.62963 3.6161C4.62963 3.52381 4.60248 3.43359 4.55161 3.35685C4.50074 3.28011 4.42843 3.2203 4.34384 3.18498C4.25924 3.14966 4.16615 3.14042 4.07635 3.15843C3.98654 3.17643 3.90405 3.22088 3.8393 3.28614C3.77456 3.3514 3.73046 3.43455 3.7126 3.52507C3.69474 3.61559 3.7039 3.70941 3.73895 3.79468C3.77399 3.87995 3.83332 3.95283 3.90946 4.0041C3.98559 4.05538 4.0751 4.08275 4.16667 4.08275Z" fill="#51B7F0"/>
</g>
</svg>
