<svg width="25" height="26" viewBox="0 0 25 26" fill="none" xmlns="http://www.w3.org/2000/svg">
<g id="Icon">
<path id="365" d="M14.4634 15.6166H14.5459C14.7246 15.6166 14.8809 15.5201 14.9658 15.3754V16.2067C14.8521 15.9655 14.6831 15.7672 14.4634 15.6161V15.6166ZM6.47315 6.60412C7.41699 6.60412 8.18213 5.8329 8.18213 4.88156C8.18213 4.47946 8.04492 4.10985 7.81592 3.81652V1.70318C7.81592 0.955582 7.21484 0.349731 6.47315 0.349731C5.73145 0.349731 5.13037 0.955582 5.13037 1.70318V3.81652C4.90137 4.10985 4.76416 4.47946 4.76416 4.88156C4.76416 5.8329 5.5293 6.60412 6.47315 6.60412ZM18.5264 6.60412C19.4702 6.60412 20.2354 5.8329 20.2354 4.88156C20.2354 4.47946 20.0981 4.10985 19.8691 3.81652V1.70318C19.8691 0.955582 19.2681 0.349731 18.5264 0.349731C17.7847 0.349731 17.1836 0.955582 17.1836 1.70318V3.81652C16.9546 4.10985 16.8174 4.47946 16.8174 4.88156C16.8174 5.8329 17.5825 6.60412 18.5264 6.60412ZM20.3569 2.17073V3.65755C20.5972 4.02027 20.7231 4.44009 20.7231 4.88156C20.7231 6.14346 19.6704 7.16272 18.4028 7.09284C17.2236 7.02787 16.2979 6.01107 16.3291 4.82102C16.3403 4.4017 16.4658 4.00354 16.6943 3.65755V2.17073H8.3042V3.65755C8.54443 4.02027 8.67041 4.44009 8.67041 4.88156C8.67041 6.14346 7.61768 7.16272 6.3501 7.09284C5.1709 7.02787 4.24561 6.01057 4.27686 4.82102C4.28809 4.4017 4.41357 4.00354 4.64209 3.65755V2.17073H3.41797C1.53027 2.17073 0 3.71316 0 5.61586V7.33843H25V5.61586C25 3.71316 23.4697 2.17073 21.582 2.17073H20.3574H20.3569ZM9.75293 16.2756C9.74316 16.2933 9.73291 16.311 9.72266 16.3283C9.73291 16.343 9.74316 16.3583 9.75293 16.3735V16.2756ZM0 7.83059H25V22.1033C25 24.006 23.4697 25.5484 21.582 25.5484H3.41797C1.53027 25.5484 0 24.006 0 22.1033L0 7.83059ZM4.70508 18.4746C4.70508 19.607 5.43604 20.2567 6.71094 20.2567H7.98047C8.95801 20.2567 9.61572 19.8743 9.86963 19.1852C10.123 19.8743 10.7808 20.2567 11.7588 20.2567H13.1318C14.0962 20.2567 14.7495 19.8846 15.0103 19.2128C15.271 19.8846 15.9243 20.2567 16.8887 20.2567H18.272C19.5469 20.2567 20.2778 19.607 20.2778 18.4746V16.6536C20.2778 15.5851 19.6274 14.9468 18.4839 14.8774H19.6865C19.9561 14.8774 20.1748 14.6569 20.1748 14.3852V13.0844C20.1748 12.8127 19.9561 12.5923 19.6865 12.5923H15.4541C15.1846 12.5923 14.9658 12.8127 14.9658 13.0844V13.8168C14.7568 13.0313 14.0767 12.5923 13.0283 12.5923H11.7588C10.7812 12.5923 10.1235 12.9747 9.86963 13.6637C9.61621 12.9747 8.95801 12.5923 7.98047 12.5923H6.71094C5.43652 12.5923 4.70508 13.2419 4.70508 14.3744V15.2691C4.70508 15.5408 4.92383 15.7613 5.19336 15.7613H6.14014V15.779V16.9754C6.14014 17.0138 6.14453 17.0507 6.15283 17.0867H5.19385C4.92432 17.0867 4.70557 17.3072 4.70557 17.5788V18.4736L4.70508 18.4746ZM7.25781 14.3857H7.46436C7.63623 14.3857 7.72266 14.462 7.72266 14.6145V15.5511C7.72266 15.7037 7.63672 15.78 7.46436 15.78H6.62842V16.9764H7.46436C7.63623 16.9764 7.72266 17.0527 7.72266 17.2053V18.2354C7.72266 18.3879 7.63672 18.4642 7.46436 18.4642H7.25781C7.08594 18.4642 6.99951 18.3879 6.99951 18.2354V17.5798H5.19287V18.4746C5.19287 19.3349 5.69873 19.7645 6.71045 19.7645H7.97998C8.9917 19.7645 9.49756 19.3344 9.49756 18.4746V17.4341C9.49756 17.1428 9.46289 16.9124 9.39453 16.7422C9.32568 16.5724 9.19482 16.4459 9.00244 16.3622C9.33301 16.1821 9.49805 15.7898 9.49805 15.1864V14.3749C9.49805 13.5151 8.99219 13.0849 7.98047 13.0849H6.71094C5.69922 13.0849 5.19336 13.5151 5.19336 14.3749V15.2696H7V14.6141C7 14.4615 7.08594 14.3852 7.2583 14.3852L7.25781 14.3857ZM11.9956 14.6145C11.9956 14.462 12.0815 14.3857 12.2539 14.3857H12.5327C12.7046 14.3857 12.791 14.462 12.791 14.6145V15.1244H14.5459V14.3754C14.5459 13.5155 14.04 13.0854 13.0283 13.0854H11.7588C10.7471 13.0854 10.2412 13.5155 10.2412 14.3754V18.4746C10.2412 19.3349 10.7471 19.7645 11.7588 19.7645H13.1318C14.1436 19.7645 14.6494 19.3344 14.6494 18.4746V17.0493C14.6494 16.1895 14.1436 15.7593 13.1318 15.7593H11.9966V14.615L11.9956 14.6145ZM12.6357 18.4642H12.2539C12.082 18.4642 11.9956 18.3879 11.9956 18.2354V17.0074H12.6357C12.8076 17.0074 12.894 17.0837 12.894 17.2363V18.2354C12.894 18.3879 12.8081 18.4642 12.6357 18.4642ZM17.229 14.3857H19.6855V13.0849H15.4531V16.6639H17.7549C17.9268 16.6639 18.0132 16.7402 18.0132 16.8928V18.2349C18.0132 18.3875 17.9272 18.4637 17.7549 18.4637H17.4351C17.2632 18.4637 17.1768 18.3875 17.1768 18.2349V17.4233H15.3701V18.4741C15.3701 19.3344 15.876 19.764 16.8877 19.764H18.271C19.2827 19.764 19.7886 19.3339 19.7886 18.4741V16.6531C19.7886 15.7933 19.2827 15.3631 18.271 15.3631H17.2285V14.3852L17.229 14.3857Z" fill="#FF3C3C"/>
</g>
</svg>
