<svg width="283" height="200" viewBox="0 0 283 200" fill="none" xmlns="http://www.w3.org/2000/svg">
<path fill-rule="evenodd" clip-rule="evenodd" d="M70.6903 57.3247C79.5153 57.3247 87.9598 58.9466 95.7482 61.9002V61.8857C95.7482 27.7067 123.455 0 157.634 0C186.271 0 210.362 19.4534 217.421 45.8654C254.466 51.2009 282.936 83.0688 282.936 121.591C282.936 162.502 250.831 195.911 210.442 198.003V198.486H76.2918C74.4437 198.631 72.5762 198.706 70.6903 198.706C68.8044 198.706 66.9369 198.631 65.0888 198.486H65.0655V198.484C28.6551 195.618 0 165.164 0 128.016C0 88.9741 31.6495 57.3247 70.6903 57.3247Z" fill="#FFEEEE"/>
<path fill-rule="evenodd" clip-rule="evenodd" d="M173.892 45.5897L175.169 48.0047C175.702 49.0151 175.506 50.2653 174.674 51.0447C173.065 52.5589 171.676 54.2468 170.515 56.0677C169.898 57.0306 168.709 57.4577 167.618 57.1189L165.005 56.3182C163.652 55.8989 162.213 56.6559 161.794 58.009L160.253 63.0107C159.836 64.3657 160.598 65.8022 161.952 66.2196L164.563 67.0252C165.656 67.363 166.399 68.3851 166.364 69.5265C166.297 71.6852 166.496 73.8643 166.973 76.0191C167.22 77.1344 166.679 78.2729 165.665 78.8068L163.251 80.0851C161.997 80.7461 161.521 82.3001 162.182 83.5532L164.629 88.1802C165.289 89.4333 166.843 89.9108 168.096 89.2508L170.511 87.9744C171.521 87.4415 172.77 87.6337 173.553 88.4655C175.064 90.0739 176.753 91.4629 178.572 92.6247C179.539 93.2401 179.964 94.4301 179.626 95.525L178.82 98.136C178.403 99.49 179.161 100.928 180.517 101.342L185.518 102.887C186.873 103.306 188.307 102.544 188.726 101.19L189.532 98.5786C189.87 97.4847 190.893 96.7412 192.034 96.78C194.193 96.8431 196.372 96.6451 198.527 96.1714C199.641 95.921 200.781 96.4655 201.317 97.474L202.592 99.8899C203.253 101.143 204.806 101.621 206.06 100.96L210.687 98.5136C211.94 97.8496 212.419 96.2986 211.757 95.0445L210.48 92.6305C209.947 91.6191 210.141 90.3738 210.973 89.5866C212.581 88.0802 213.969 86.3884 215.13 84.5694C215.745 83.6007 216.936 83.1766 218.029 83.5114L220.641 84.32C221.995 84.7383 223.432 83.9764 223.849 82.6223L225.392 77.6245C225.81 76.2676 225.048 74.832 223.694 74.4127L221.084 73.611C219.988 73.2703 219.246 72.2501 219.283 71.1048C219.347 68.9471 219.152 66.768 218.673 64.6171C218.425 63.5018 218.968 62.3565 219.979 61.8236L222.393 60.5472C223.647 59.8872 224.127 58.3322 223.464 57.0801L221.019 52.4512C220.358 51.202 218.803 50.7215 217.549 51.3825L215.135 52.6618C214.124 53.1956 212.878 52.9996 212.091 52.1658C210.582 50.5604 208.892 49.1714 207.074 48.0105C206.11 47.3951 205.682 46.2071 206.02 45.1122L206.827 42.5022C207.244 41.1452 206.485 39.7077 205.13 39.2894L200.128 37.749C198.774 37.3306 197.336 38.0887 196.919 39.4456L196.113 42.0576C195.775 43.1505 194.755 43.8921 193.611 43.8591C191.451 43.7883 189.273 43.9872 187.119 44.4658C186.002 44.7113 184.864 44.1726 184.33 43.1612L183.05 40.7443C182.39 39.4913 180.835 39.0108 179.583 39.6747L174.956 42.1217C173.702 42.7827 173.224 44.3357 173.888 45.5878M188.401 56.8093C194.058 54.9117 200.474 56.8899 204.079 61.645C210.031 69.4916 206.576 80.6869 197.238 83.8211C191.582 85.7158 185.167 83.7405 181.564 78.9863C175.611 71.1368 179.062 59.9415 188.401 56.8093Z" fill="#FFD4D4"/>
<mask id="mask0_5141_50266" style="mask-type:luminance" maskUnits="userSpaceOnUse" x="97" y="34" width="86" height="165">
<path d="M108.067 34.3458H171.87C177.719 34.3458 182.503 39.4688 182.503 45.7304V187.1C182.503 193.362 177.718 198.486 171.87 198.486H108.067C102.218 198.486 97.4336 193.362 97.4336 187.1V45.7304C97.4336 39.4688 102.219 34.3458 108.067 34.3458Z" fill="white"/>
</mask>
<g mask="url(#mask0_5141_50266)">
<path d="M182.504 34.3458H97.4336V198.486H182.504V34.3458Z" fill="url(#paint0_linear_5141_50266)"/>
</g>
<path fill-rule="evenodd" clip-rule="evenodd" d="M111.856 34.3459H175.659C181.508 34.3459 186.292 39.469 186.292 45.7305V187.1C186.292 193.362 181.507 198.486 175.659 198.486H111.856C106.007 198.486 101.223 193.362 101.223 187.1V45.7305C101.223 39.469 106.008 34.3459 111.856 34.3459Z" fill="#BB3138"/>
<mask id="mask1_5141_50266" style="mask-type:luminance" maskUnits="userSpaceOnUse" x="105" y="42" width="77" height="150">
<path d="M111.355 42.4525C108.258 42.4525 105.705 45.0829 105.705 48.2724V185.492C105.705 188.682 108.258 191.313 111.355 191.313H176.161C179.259 191.313 181.812 188.683 181.812 185.492V48.2734C181.812 45.082 179.259 42.4535 176.161 42.4535H111.355V42.4525Z" fill="white"/>
</mask>
<g mask="url(#mask1_5141_50266)">
<path d="M181.812 42.4525H105.705V191.313H181.812V42.4525Z" fill="url(#paint1_linear_5141_50266)"/>
</g>
<mask id="mask2_5141_50266" style="mask-type:luminance" maskUnits="userSpaceOnUse" x="109" y="60" width="106" height="57">
<path d="M133.25 80.1345C123.784 80.1345 116.111 88.182 116.111 98.1097C116.111 99.2356 116.211 100.336 116.4 101.404C112.748 101.656 109.861 104.842 109.861 108.736C109.861 112.63 112.998 116.085 116.868 116.085H209.024C217.936 115.82 216.06 102.132 207.014 102.314C207.48 91.622 198.525 79.2221 182.525 83.125C182.251 80.5335 181.348 76.6694 179.343 73.0935C175.135 65.5867 167.355 60.5481 158.45 60.5481C146.954 60.5481 137.328 68.947 134.846 80.2122C134.32 80.1617 133.788 80.1335 133.25 80.1335" fill="white"/>
</mask>
<g mask="url(#mask2_5141_50266)">
<path d="M217.936 60.5482H109.861V116.084H217.936V60.5482Z" fill="url(#paint2_linear_5141_50266)"/>
</g>
<mask id="mask3_5141_50266" style="mask-type:luminance" maskUnits="userSpaceOnUse" x="117" y="60" width="106" height="57">
<path d="M140.545 80.1346C131.079 80.1346 123.406 88.1822 123.406 98.1098C123.406 99.2357 123.506 100.336 123.694 101.404C120.043 101.657 117.156 104.842 117.156 108.736C117.156 112.63 120.293 116.085 124.163 116.085H216.319C225.23 115.82 223.355 102.132 214.309 102.315C214.775 91.6221 205.82 79.2222 189.82 83.1252C189.546 80.5336 188.642 76.6695 186.638 73.0937C182.429 65.5868 174.65 60.5482 165.745 60.5482C154.249 60.5482 144.623 68.9471 142.141 80.2123C141.615 80.1618 141.083 80.1337 140.545 80.1337" fill="white"/>
</mask>
<g mask="url(#mask3_5141_50266)">
<path d="M225.23 60.5482H117.156V116.084H225.23V60.5482Z" fill="url(#paint3_linear_5141_50266)"/>
</g>
<path fill-rule="evenodd" clip-rule="evenodd" d="M165.665 72.8276C175.683 72.8276 183.806 80.9499 183.806 90.9688C183.806 100.988 175.683 109.11 165.665 109.11C155.646 109.11 147.523 100.988 147.523 90.9688C147.523 80.9499 155.646 72.8276 165.665 72.8276Z" fill="#BB3138"/>
<path fill-rule="evenodd" clip-rule="evenodd" d="M163.737 95.2784H168.386V85.1983H171.395L166.061 78.0797L160.728 85.1983H163.737V95.2784ZM174.561 97.1197V91.886H177.603V99.919H154.52V91.886H157.439V97.1197H174.561Z" fill="white"/>
<mask id="mask4_5141_50266" style="mask-type:luminance" maskUnits="userSpaceOnUse" x="119" y="128" width="49" height="48">
<path d="M129.188 128.068H158.471C163.573 128.068 167.749 132.243 167.749 137.347V166.629C167.749 171.731 163.574 175.907 158.471 175.907H129.188C124.086 175.907 119.91 171.732 119.91 166.629V137.347C119.91 132.244 124.085 128.068 129.188 128.068Z" fill="white"/>
</mask>
<g mask="url(#mask4_5141_50266)">
<path d="M167.749 128.068H119.91V175.907H167.749V128.068Z" fill="url(#paint4_linear_5141_50266)"/>
</g>
<path fill-rule="evenodd" clip-rule="evenodd" d="M140.236 146.225H157.417C157.833 146.225 158.173 146.565 158.173 146.98V166.164C158.173 166.579 157.833 166.919 157.417 166.919H130.107C129.691 166.919 129.352 166.579 129.352 166.164V145.318C129.352 144.686 129.869 144.168 130.502 144.168H138.18C139.311 144.168 140.236 145.093 140.236 146.224V146.225Z" fill="#D04047"/>
<path fill-rule="evenodd" clip-rule="evenodd" d="M134.154 134.984H151.595L156.187 139.576V148.761H134.154V134.984Z" fill="white"/>
<path fill-rule="evenodd" clip-rule="evenodd" d="M136.467 141.197H153.426V141.675H136.467V141.197ZM136.467 142.939H153.426V143.417H136.467V142.939ZM136.467 144.682H153.426V145.159H136.467V144.682ZM136.467 146.424H153.426V146.902H136.467V146.424ZM136.467 139.437H143.01V139.915H136.467V139.437Z" fill="#212B36"/>
<path fill-rule="evenodd" clip-rule="evenodd" d="M142.482 148.041H158.68C159.096 148.041 159.435 148.381 159.435 148.796V166.164C159.435 166.579 159.096 166.919 158.68 166.919H132.355C131.939 166.919 131.6 166.579 131.6 166.164V147.134C131.6 146.503 132.117 145.985 132.749 145.985H140.427C141.557 145.985 142.482 146.91 142.482 148.041Z" fill="#FFC775"/>
<path fill-rule="evenodd" clip-rule="evenodd" d="M151.594 134.984V139.576H156.186L151.594 134.984Z" fill="#EFF3FF"/>
<path d="M251.098 155.904H203.004V198.059H251.098V155.904Z" fill="#FAB7B7"/>
<path fill-rule="evenodd" clip-rule="evenodd" d="M206.03 157.85H248.071C248.554 157.85 248.95 158.451 248.95 159.185V171.05C248.95 171.784 248.554 172.385 248.071 172.385H206.03C205.546 172.385 205.15 171.784 205.15 171.05V159.185C205.15 158.451 205.546 157.85 206.03 157.85Z" fill="#FDA4A4"/>
<path d="M208.178 162.396H206.705V163.325H208.178V162.396Z" fill="#212B36"/>
<path d="M208.178 164.159H206.705V165.088H208.178V164.159Z" fill="#212B36"/>
<path d="M208.178 165.922H206.705V166.851H208.178V165.922Z" fill="#212B36"/>
<path d="M208.178 167.686H206.705V168.615H208.178V167.686Z" fill="#212B36"/>
<path d="M208.178 169.448H206.705V170.377H208.178V169.448Z" fill="#212B36"/>
<path d="M210.294 162.396H208.82V163.325H210.294V162.396Z" fill="#212B36"/>
<path d="M212.409 162.396H210.936V163.325H212.409V162.396Z" fill="#D9D9D9"/>
<path d="M214.526 162.396H213.053V163.325H214.526V162.396Z" fill="#D9D9D9"/>
<path d="M216.641 162.396H215.168V163.325H216.641V162.396Z" fill="#D9D9D9"/>
<path d="M218.757 162.396H217.283V163.325H218.757V162.396Z" fill="#D9D9D9"/>
<path d="M220.872 162.396H219.398V163.325H220.872V162.396Z" fill="#D9D9D9"/>
<path d="M210.294 164.159H208.82V165.088H210.294V164.159Z" fill="#212B36"/>
<path d="M212.409 164.159H210.936V165.088H212.409V164.159Z" fill="#D9D9D9"/>
<path d="M214.526 164.159H213.053V165.088H214.526V164.159Z" fill="#D9D9D9"/>
<path d="M216.641 164.159H215.168V165.088H216.641V164.159Z" fill="#D9D9D9"/>
<path d="M218.757 164.159H217.283V165.088H218.757V164.159Z" fill="#D9D9D9"/>
<path d="M220.872 164.159H219.398V165.088H220.872V164.159Z" fill="#D9D9D9"/>
<path d="M210.294 165.922H208.82V166.851H210.294V165.922Z" fill="#212B36"/>
<path d="M212.409 165.922H210.936V166.851H212.409V165.922Z" fill="#D9D9D9"/>
<path d="M214.526 165.922H213.053V166.851H214.526V165.922Z" fill="#D9D9D9"/>
<path d="M216.641 165.922H215.168V166.851H216.641V165.922Z" fill="#D9D9D9"/>
<path d="M218.757 165.922H217.283V166.851H218.757V165.922Z" fill="#D9D9D9"/>
<path d="M220.872 165.922H219.398V166.851H220.872V165.922Z" fill="#D9D9D9"/>
<path d="M210.294 167.686H208.82V168.615H210.294V167.686Z" fill="#212B36"/>
<path d="M212.409 167.686H210.936V168.615H212.409V167.686Z" fill="#D9D9D9"/>
<path d="M214.526 167.686H213.053V168.615H214.526V167.686Z" fill="#D9D9D9"/>
<path d="M216.641 167.686H215.168V168.615H216.641V167.686Z" fill="#D9D9D9"/>
<path d="M218.757 167.686H217.283V168.615H218.757V167.686Z" fill="#D9D9D9"/>
<path d="M220.872 167.686H219.398V168.615H220.872V167.686Z" fill="#D9D9D9"/>
<path d="M210.294 169.448H208.82V170.377H210.294V169.448Z" fill="#212B36"/>
<path d="M212.409 169.448H210.936V170.377H212.409V169.448Z" fill="#D9D9D9"/>
<path d="M214.526 169.448H213.053V170.377H214.526V169.448Z" fill="#D9D9D9"/>
<path d="M216.641 169.448H215.168V170.377H216.641V169.448Z" fill="#D9D9D9"/>
<path d="M218.757 169.448H217.283V170.377H218.757V169.448Z" fill="#D9D9D9"/>
<path d="M220.872 169.448H219.398V170.377H220.872V169.448Z" fill="#D9D9D9"/>
<path d="M225.143 162.396H223.67V163.325H225.143V162.396Z" fill="#E16E73"/>
<path d="M227.259 162.396H225.785V163.325H227.259V162.396Z" fill="#E16E73"/>
<path d="M229.374 162.396H227.9V163.325H229.374V162.396Z" fill="#E16E73"/>
<path d="M235.04 162.396H233.566V163.325H235.04V162.396Z" fill="#E16E73"/>
<path d="M237.155 162.396H235.682V163.325H237.155V162.396Z" fill="#E16E73"/>
<path d="M239.27 162.396H237.797V163.325H239.27V162.396Z" fill="#E16E73"/>
<path fill-rule="evenodd" clip-rule="evenodd" d="M206.03 172.87H248.071C248.554 172.87 248.95 173.471 248.95 174.204V186.07C248.95 186.803 248.554 187.404 248.071 187.404H206.03C205.546 187.404 205.15 186.803 205.15 186.07V174.204C205.15 173.471 205.546 172.87 206.03 172.87Z" fill="#FDA4A4"/>
<path d="M208.178 177.416H206.705V178.345H208.178V177.416Z" fill="#212B36"/>
<path d="M208.178 179.179H206.705V180.108H208.178V179.179Z" fill="#212B36"/>
<path d="M208.178 180.943H206.705V181.872H208.178V180.943Z" fill="#212B36"/>
<path d="M208.178 182.705H206.705V183.634H208.178V182.705Z" fill="#212B36"/>
<path d="M208.178 184.468H206.705V185.397H208.178V184.468Z" fill="#212B36"/>
<path d="M210.294 177.416H208.82V178.345H210.294V177.416Z" fill="#212B36"/>
<path d="M212.409 177.416H210.936V178.345H212.409V177.416Z" fill="#D9D9D9"/>
<path d="M214.526 177.416H213.053V178.345H214.526V177.416Z" fill="#D9D9D9"/>
<path d="M216.641 177.416H215.168V178.345H216.641V177.416Z" fill="#D9D9D9"/>
<path d="M218.757 177.416H217.283V178.345H218.757V177.416Z" fill="#D9D9D9"/>
<path d="M220.872 177.416H219.398V178.345H220.872V177.416Z" fill="#D9D9D9"/>
<path d="M210.294 179.179H208.82V180.108H210.294V179.179Z" fill="#212B36"/>
<path d="M212.409 179.179H210.936V180.108H212.409V179.179Z" fill="#D9D9D9"/>
<path d="M214.526 179.179H213.053V180.108H214.526V179.179Z" fill="#D9D9D9"/>
<path d="M216.641 179.179H215.168V180.108H216.641V179.179Z" fill="#D9D9D9"/>
<path d="M218.757 179.179H217.283V180.108H218.757V179.179Z" fill="#D9D9D9"/>
<path d="M220.872 179.179H219.398V180.108H220.872V179.179Z" fill="#D9D9D9"/>
<path d="M210.294 180.943H208.82V181.872H210.294V180.943Z" fill="#212B36"/>
<path d="M212.409 180.943H210.936V181.872H212.409V180.943Z" fill="#D9D9D9"/>
<path d="M214.526 180.943H213.053V181.872H214.526V180.943Z" fill="#D9D9D9"/>
<path d="M216.641 180.943H215.168V181.872H216.641V180.943Z" fill="#D9D9D9"/>
<path d="M218.757 180.943H217.283V181.872H218.757V180.943Z" fill="#D9D9D9"/>
<path d="M220.872 180.943H219.398V181.872H220.872V180.943Z" fill="#D9D9D9"/>
<path d="M210.294 182.705H208.82V183.634H210.294V182.705Z" fill="#212B36"/>
<path d="M212.409 182.705H210.936V183.634H212.409V182.705Z" fill="#D9D9D9"/>
<path d="M214.526 182.705H213.053V183.634H214.526V182.705Z" fill="#D9D9D9"/>
<path d="M216.641 182.705H215.168V183.634H216.641V182.705Z" fill="#D9D9D9"/>
<path d="M218.757 182.705H217.283V183.634H218.757V182.705Z" fill="#D9D9D9"/>
<path d="M220.872 182.705H219.398V183.634H220.872V182.705Z" fill="#D9D9D9"/>
<path d="M210.294 184.468H208.82V185.397H210.294V184.468Z" fill="#212B36"/>
<path d="M212.409 184.468H210.936V185.397H212.409V184.468Z" fill="#D9D9D9"/>
<path d="M214.526 184.468H213.053V185.397H214.526V184.468Z" fill="#D9D9D9"/>
<path d="M216.641 184.468H215.168V185.397H216.641V184.468Z" fill="#D9D9D9"/>
<path d="M218.757 184.468H217.283V185.397H218.757V184.468Z" fill="#D9D9D9"/>
<path d="M220.872 184.468H219.398V185.397H220.872V184.468Z" fill="#D9D9D9"/>
<path d="M225.143 177.416H223.67V178.345H225.143V177.416Z" fill="#E16E73"/>
<path d="M227.259 177.416H225.785V178.345H227.259V177.416Z" fill="#E16E73"/>
<path d="M229.374 177.416H227.9V178.345H229.374V177.416Z" fill="#E16E73"/>
<path d="M235.04 177.416H233.566V178.345H235.04V177.416Z" fill="#E16E73"/>
<path d="M237.155 177.416H235.682V178.345H237.155V177.416Z" fill="#E16E73"/>
<path d="M239.27 177.416H237.797V178.345H239.27V177.416Z" fill="#E16E73"/>
<path d="M248.07 172.385H206.029V172.87H248.07V172.385Z" fill="#BB3138"/>
<path d="M203.003 155.904H196.006V198.059H203.003V155.904Z" fill="#FDA4A4"/>
<path d="M246.456 169.24H223.67V170.377H246.456V169.24Z" fill="#BB3138"/>
<path d="M246.456 184.259H223.67V185.397H246.456V184.259Z" fill="#BB3138"/>
<path fill-rule="evenodd" clip-rule="evenodd" d="M233.302 111.312C233.302 111.312 233.362 112.645 232.676 114.727C231.99 116.809 232.124 118.787 232.715 120.798C233.306 122.809 231.564 126.295 231.139 126.438C230.713 126.579 225.225 127.573 224.089 127.478C222.953 127.384 217.701 121.233 217.701 121.233L218.269 115.839L233.302 111.313V111.312Z" fill="#212B36"/>
<path d="M241.524 152.031L252.189 159.531L252.66 192.929C252.741 193.022 252.821 193.114 252.9 193.204C252.961 193.275 253.022 193.344 253.084 193.411C253.231 193.576 253.375 193.731 253.52 193.875C253.585 193.941 253.649 194.005 253.716 194.067C254.778 195.065 256.06 195.225 257.113 195.394C257.929 195.526 258.553 195.573 259.181 196.599C259.201 196.631 259.217 196.664 259.229 196.697C259.375 197.07 259.113 197.5 258.691 197.523L249.188 197.979C248.719 198.005 248.319 197.677 248.236 197.236C248.224 197.174 248.217 197.109 248.219 197.044L248.523 192.855C248.523 192.855 248.523 192.849 248.524 192.838C247.652 184.778 244.885 173.083 245.634 163.528C245.634 163.528 233.919 149.8 233.922 149.367C233.924 148.935 241.526 152.032 241.526 152.032" fill="#FFF3DB"/>
<path d="M241.405 156.718C240.992 160.286 243.481 162.402 243.067 165.969C243.061 174.899 236.804 185.189 234.688 194.207C234.618 194.506 235.151 197.342 235.089 197.638C234.15 198.643 231.471 200.061 231.184 195.426C232.381 187.64 233.871 175.056 236.956 165.582L235.009 156.138L241.405 156.718Z" fill="#FFF3DB"/>
<path fill-rule="evenodd" clip-rule="evenodd" d="M236.3 143.599C238.357 150.427 256.872 147.557 252.79 170.053C245.799 171.227 236.623 171.532 231.043 170.198C228.112 159.872 211.623 167.535 220.327 143.845C222.109 139.681 235.643 140.933 236.301 143.599" fill="#212B36"/>
<path fill-rule="evenodd" clip-rule="evenodd" d="M235.144 125.956C235.144 125.956 232.028 136.791 234.1 141.708C234.364 142.334 235.368 142.58 236.25 143.453C238.137 145.32 240.559 147.915 241.679 148.174C245.75 149.118 247.597 148.345 247.182 145.672C247.053 144.845 245.531 144.033 243.832 143.505C242.369 143.05 240.388 139.55 239.531 137.547C237.045 131.746 237.32 122.919 232.936 120.005C232.437 119.684 233.685 123.759 235.145 125.956" fill="#BB3138"/>
<path fill-rule="evenodd" clip-rule="evenodd" d="M215.531 121.74C213.715 129.152 220.837 128.773 219.189 143.735C224.639 144.492 231.613 144.753 236.298 143.599C235.549 138.094 236.322 133.784 236.541 130.778C236.868 126.256 235.592 123.288 233.979 120.79C232.377 118.309 218.601 117.162 215.53 121.74" fill="#D04047"/>
<path fill-rule="evenodd" clip-rule="evenodd" d="M219.439 139.516C219.5 141.085 219.414 141.698 219.189 143.735C221.201 144.015 222.46 144.177 224.694 144.275C224.24 143.275 220.531 140.247 219.439 139.516Z" fill="#BB3138"/>
<path fill-rule="evenodd" clip-rule="evenodd" d="M229.577 118.024L229.119 119.796L229.315 120.085C230.019 121.44 228.318 123.347 227.193 122.961C224.262 122.299 222.701 119.31 223.928 118.265L224.423 117.949L225.2 115.478C225.054 115.428 224.139 114.509 223.843 114.32C223.548 114.131 223.246 113.376 223.398 112.71C223.549 112.044 224.506 112.539 224.506 112.539C223.744 110.512 222.733 108.749 224.962 107.735C227.191 106.72 231.588 106.99 231.588 106.99L234.328 106.819C233.77 107.593 233.367 109.47 233.509 111.445C233.71 114.251 232.014 117.536 229.577 118.026" fill="#F7AAAC"/>
<path fill-rule="evenodd" clip-rule="evenodd" d="M226.281 116.152C226.281 116.152 227.021 118.969 228.121 119.511C229.22 120.054 228.672 119.727 229.119 119.796L229.577 118.024C228.741 117.93 227.976 117.65 226.281 116.152Z" fill="#E16E73"/>
<path fill-rule="evenodd" clip-rule="evenodd" d="M217.12 120.505C210.357 122.602 211.269 137.018 212.232 141.15C213.053 144.504 224.068 153.406 226.971 152.495C228.371 152.057 229.298 150.421 227.392 148.917C226.727 148.135 218.016 140.197 217.921 139.374C217.703 134.06 221.819 120.201 217.12 120.504" fill="#D04047"/>
<path fill-rule="evenodd" clip-rule="evenodd" d="M245.177 151.083L227.51 151.347L233.636 156.609H253.057L245.177 151.083Z" fill="#FFEEEE"/>
<path fill-rule="evenodd" clip-rule="evenodd" d="M257.097 143.176H236.306L233.637 156.609H254.429L257.26 143.29L257.097 143.176Z" fill="#FAB7B7"/>
<path fill-rule="evenodd" clip-rule="evenodd" d="M227.909 149.826L228.58 150.196L230.989 150.237C231.272 150.17 233.043 150.101 232.485 150.572C232.093 150.904 231.089 151.297 231.105 151.345C231.904 151.941 234.06 153.261 234.082 153.318C234.382 154.121 232.259 153.033 231.922 152.91C231.834 152.878 233.31 154.043 233.234 154.09C233.142 154.146 232.902 154.307 232.533 154.162C232.081 153.984 231.187 153.282 231.08 153.331C230.97 153.382 232.414 154.511 232.307 154.552C232.225 154.583 232.059 154.652 231.778 154.533C231.314 154.336 230.5 153.623 230.373 153.648C230.241 153.674 231.216 154.397 231.238 154.518C231.252 154.603 231.087 154.686 230.999 154.657C228.623 153.866 229.26 153.156 226.515 152.324C224.988 151.861 227.329 149.965 227.911 149.827" fill="#F5A7B9"/>
<path fill-rule="evenodd" clip-rule="evenodd" d="M228.159 111.147C228.159 111.147 232.083 112.645 233.743 111.858C236.61 110.495 236.174 104.027 228.909 103.954C222.736 104.062 223.123 111.481 215.072 112.038C210.802 112.333 208.195 115.901 209.639 121.792C209.651 121.806 210.286 119.917 211.862 120.146C209.292 123.114 211.88 126.596 212.267 127.199C213.186 122.695 215.888 119.549 223.565 118.631C226.754 117.425 223.948 110.629 228.159 111.147Z" fill="#212B36"/>
<path fill-rule="evenodd" clip-rule="evenodd" d="M256.795 195.111C256.795 195.111 260.169 195.762 260.101 196.792C259.965 198.871 248.526 198.414 248.46 198.343C248.019 197.875 247.787 195.56 248.273 194.826C248.634 194.279 253.286 196.68 256.795 195.111Z" fill="#212B36"/>
<path fill-rule="evenodd" clip-rule="evenodd" d="M236.135 199.08C236.063 200.404 231.282 200.023 230.563 199.626C229.493 199.036 230.797 194.872 231.199 195.335C231.199 195.335 232.446 197.298 233.92 196.902C235.394 196.506 234.877 196.068 235.129 196.565C235.601 197.495 236.201 197.86 236.135 199.08Z" fill="#212B36"/>
<path fill-rule="evenodd" clip-rule="evenodd" d="M245.551 149.93C245.074 149.93 244.688 150.301 244.688 150.758C244.688 151.215 245.075 151.586 245.551 151.586C246.028 151.586 246.415 151.215 246.415 150.758C246.415 150.301 246.028 149.93 245.551 149.93Z" fill="white"/>
<path fill-rule="evenodd" clip-rule="evenodd" d="M58.7307 192.662L59.1257 188.332L54.9297 188.436L54.9705 193.394L58.7307 192.662Z" fill="#F8A98E"/>
<path fill-rule="evenodd" clip-rule="evenodd" d="M58.9366 192.296C59.75 195.302 62.0552 196.613 60.5459 198.486H52.8643C52.8517 198.45 52.839 198.411 52.8274 198.369C52.7527 198.112 52.3945 198.005 52.6342 197.066C53.0798 195.322 54.3882 192.64 54.8376 192.502C55.7286 192.228 56.9943 192.999 58.9366 192.296Z" fill="#637381"/>
<path fill-rule="evenodd" clip-rule="evenodd" d="M61.0358 197.027V197.031L61.0455 197.357C61.0242 197.823 60.8437 198.234 60.4632 198.487H52.8631C52.2749 197.911 52.5234 197.392 52.6331 197.067L61.0358 197.027Z" fill="#212B36"/>
<path fill-rule="evenodd" clip-rule="evenodd" d="M71.5943 132.648L67.0983 151.553L64.8037 162.807L59.7098 190.22C59.7098 190.22 58.6324 190.73 56.9086 190.626C55.1857 190.522 54.316 190.259 54.316 190.259C54.2782 182.165 54.3151 171.886 55.1615 161.556C55.871 152.899 53.1998 148.264 53.7123 138.716C53.8637 135.896 56.7989 127.903 56.7601 128.005L71.5953 132.648H71.5943Z" fill="#212B36"/>
<path fill-rule="evenodd" clip-rule="evenodd" d="M77.276 192.662L77.2605 188.184L73.0645 188.288L73.5158 193.394L77.276 192.662Z" fill="#F8A98E"/>
<path fill-rule="evenodd" clip-rule="evenodd" d="M77.5526 191.703C79.6346 194.259 84.115 194.805 85.9883 195.445C87.5064 195.963 88.2373 197.705 87.058 198.486H72.6965C72.6839 198.45 72.6712 198.411 72.6596 198.369C72.4461 197.635 71.8879 192.385 73.3817 192.502C74.3087 192.575 75.4773 192.81 77.5526 191.703Z" fill="#637381"/>
<path fill-rule="evenodd" clip-rule="evenodd" d="M87.631 197.027V197.031L87.6407 197.357C87.6194 197.823 87.4388 198.234 87.0583 198.487H72.6968C72.6842 198.451 72.6716 198.412 72.66 198.37C72.6182 198.227 72.5173 197.48 72.4668 197.067L87.631 197.027Z" fill="#212B36"/>
<path fill-rule="evenodd" clip-rule="evenodd" d="M77.6283 131.632L78.0864 138.813C79.4433 153.313 78.8493 171.948 77.6758 190.206C77.6758 190.206 75.6617 190.657 73.9389 190.553C72.216 190.449 72.5305 190.243 72.5305 190.243L68.4975 160.401C68.4975 160.401 67.5851 153.606 65.4516 148.31C63.9103 144.486 62.0205 143.383 62.299 138.939C62.5883 134.338 62.2146 130.771 62.8261 129.181C63.4376 127.591 66.4912 128.229 66.4912 128.229L77.6292 131.632H77.6283Z" fill="#212B36"/>
<path fill-rule="evenodd" clip-rule="evenodd" d="M69.3997 167.083L68.497 160.4C68.497 160.4 68 156.696 66.8809 152.626L67.735 146.293L69.5093 162.175L69.3997 167.083Z" fill="#212B36"/>
<path fill-rule="evenodd" clip-rule="evenodd" d="M69.9449 107.97C72.2114 113.283 73.9439 118.483 80.5889 119.59C85.2965 119.782 93.7963 116.711 93.178 115.022C92.5063 113.186 95.4066 112.582 92.6995 112.602C89.1033 112.548 82.0798 112.618 81.2693 112.549C80.5025 112.484 76.3298 101.282 70.372 98.9765C69.8158 98.596 68.3356 105.397 69.9449 107.969" fill="#D04047"/>
<path fill-rule="evenodd" clip-rule="evenodd" d="M101.026 112.695C100.894 112.919 100.883 113.246 100.65 113.565C99.9073 114.582 97.9292 116.114 93.6797 115.418C93.4788 115.385 92.9275 115.426 92.7101 115.386C92.58 114.958 92.4829 113.63 92.9838 112.418C94.5407 112.607 101.716 111.839 101.026 112.695Z" fill="#F7AAAC"/>
<path fill-rule="evenodd" clip-rule="evenodd" d="M72.6172 113.596C74.2013 116.157 76.5347 118.914 80.589 119.59C83.2466 119.699 86.1779 118.98 89.3169 117.849C86.2041 117.298 83.532 118.725 80.5308 117.786C77.7829 116.927 73.0035 109.045 73.0035 109.045C73.0035 109.045 73.1015 112.504 72.6182 113.595" fill="#BB3138"/>
<path fill-rule="evenodd" clip-rule="evenodd" d="M52.4554 119.002C53.259 124.248 54.1239 132.73 53.3581 139.235C63.706 141.203 72.1388 140.103 78.3538 138.137C77.6948 130.155 75.9272 105.357 70.3733 98.9765C63.5361 96.9032 55.871 97.7962 52.1176 101.306C51.5546 101.816 50.9868 102.53 50.4238 103.389V122.702C51.211 121.479 51.9225 120.158 52.4563 119.003" fill="#D04047"/>
<path d="M66.2562 98.0855C63.8957 97.6516 61.0546 97.1769 57.3652 98.5805C58.2291 103.388 61.1332 103.983 63.3521 103.859C66.3533 103.69 67.4996 100.884 66.2562 98.0855Z" fill="#BB3138"/>
<path fill-rule="evenodd" clip-rule="evenodd" d="M55.2568 130.234C55.2568 130.234 64.372 130.827 66.0318 130.53C67.6916 130.234 68.2643 129.759 68.2643 129.759C69.8396 130.117 71.0995 130.118 72.0604 129.929C72.8719 129.769 74.784 128.631 73.4552 128.04L69.7241 126.381L61.3669 125.967L56.3303 126.234L54.6133 127.894L55.2568 130.235V130.234Z" fill="#BB3138"/>
<path fill-rule="evenodd" clip-rule="evenodd" d="M56.0898 110.844C56.0898 110.844 56.7663 117.259 57.3099 119.274C58.0573 122.045 65.5399 122.889 67.0191 125.927L54.0573 127.271C54.0573 127.271 51.3667 122.441 51.6249 121.166C51.8821 119.892 56.0898 110.844 56.0898 110.844Z" fill="#BB3138"/>
<path fill-rule="evenodd" clip-rule="evenodd" d="M54.442 139.431C63.9251 141.06 71.7474 140.113 77.6673 138.347C76.3327 138.528 74.3817 138.805 71.429 138.997C64.3288 139.458 56.5861 138.585 55.6815 136.934C55.2942 136.226 54.9195 118.872 54.1673 114.591C53.6558 116.297 53.1966 117.44 52.4551 119.003C53.2034 124.336 54.0498 133.351 53.3578 139.235C53.7198 139.304 54.0809 139.369 54.441 139.433L54.442 139.431Z" fill="#BB3138"/>
<path fill-rule="evenodd" clip-rule="evenodd" d="M67.693 92.9732C67.0446 94.4446 66.1031 95.5968 65.0276 96.1821L65.1412 98.2796C67.5687 102.527 59.428 104.421 59.1407 98.4165L59.5571 97.8982L59.5455 94.9241C59.3737 94.9212 58.0973 94.234 57.7216 94.1302C57.346 94.0253 56.7724 93.3051 56.7073 92.5238C56.6423 91.7424 57.8207 91.9501 57.8207 91.9501C56.3317 89.9991 54.669 88.4219 56.6831 86.5349C58.6962 84.6471 63.4348 83.4076 63.4348 83.4076L66.272 82.2642C65.9429 83.3057 66.3176 86.4699 67.1329 88.5801C67.8638 90.4738 68.5636 90.997 67.6939 92.9722" fill="#F7AAAC"/>
<path fill-rule="evenodd" clip-rule="evenodd" d="M60.916 95.2842C61.9197 96.9216 63.0844 98.6154 65.1422 98.2796L65.0286 96.182C64.1143 96.3713 63.2106 96.3305 60.916 95.2842Z" fill="#E16E73"/>
<path d="M55.4474 107.719C53.7323 104.568 51.7357 100.356 50.0963 103.968C46.967 110.866 47.2514 124.657 49.874 127.359C52.5452 130.052 65.3799 130.573 66.599 129.697C68.0346 128.665 69.1266 126.823 66.8009 125.586C65.3508 124.678 63.6027 124.412 61.1276 123.986C57.2926 123.326 55.8997 122.61 55.5299 119.096C55.1193 115.196 57.0402 110.645 55.4474 107.718" fill="#D04047"/>
<path fill-rule="evenodd" clip-rule="evenodd" d="M69.1098 125.423C69.5544 125.007 71.3394 123.38 71.9033 123.305C72.1906 123.267 72.178 123.373 72.179 123.535C72.179 123.677 72.0576 123.969 71.9169 124.127C71.6228 124.456 71.4219 125.243 71.2345 125.399C73.2078 126.944 76.5167 126.187 76.3896 127.534C76.2207 127.742 74.8841 128.526 74.592 128.821C73.6611 129.76 73.1059 130.12 68.3032 129.006C68.0761 128.954 67.4432 128.939 67.1967 128.878C67.0822 128.438 67.0783 127.106 67.748 125.947L69.1098 125.421V125.423Z" fill="#F8BDBE"/>
<path fill-rule="evenodd" clip-rule="evenodd" d="M66.3939 87.0727C63.9906 88.3471 61.2243 86.8349 59.8246 88.5412C59.1316 89.3867 59.2015 90.6048 59.978 92.4859C60.2071 93.0401 60.5118 93.4488 59.6072 93.0149C59.1918 92.8159 58.5085 92.5373 58.2745 92.7334C57.7543 93.1683 58.0173 94.0826 58.4318 94.3767C58.6172 94.5077 58.9676 94.7038 58.9676 94.7038C55.7354 94.069 54.3891 91.0503 54.4347 88.6199C54.4502 87.7958 54.5395 87.063 54.69 86.4117C54.624 86.1875 54.5881 85.9487 54.5881 85.7012C54.5881 84.6461 55.2374 83.755 56.1265 83.4745C56.2915 82.3719 57.1719 81.5313 58.2338 81.5313C58.5531 81.5313 58.8569 81.608 59.1287 81.7439L59.2355 81.7148C59.6237 81.0247 60.3517 80.5607 61.1855 80.5607C61.7698 80.5607 62.3027 80.7888 62.7026 81.1635C63.2917 80.3345 64.1818 79.8055 65.1787 79.8055C66.952 79.8055 68.3905 81.4789 68.3905 83.5435C68.3905 84.8354 67.8275 85.9749 66.9714 86.6466C66.7986 86.8038 66.6074 86.9465 66.3968 87.0727" fill="#212B36"/>
<path fill-rule="evenodd" clip-rule="evenodd" d="M105.299 99.2017H90.077C89.4772 99.2017 89.0976 99.7598 88.986 100.415L88.0523 105.861L87.0156 111.908H104.269L106.24 100.246C106.335 99.6812 105.817 99.2017 105.3 99.2017" fill="#BB3138"/>
<path fill-rule="evenodd" clip-rule="evenodd" d="M104.99 99.2017H89.7673C89.1664 99.2017 88.7879 99.7598 88.6763 100.415L86.7311 111.759H86.7049L86.5797 112.592C86.5118 113.043 86.9214 113.424 87.3378 113.424H103.107C103.523 113.424 103.803 113.045 103.865 112.592L103.958 111.908L105.929 100.247C106.024 99.6821 105.506 99.2026 104.99 99.2026" fill="#525252"/>
<path fill-rule="evenodd" clip-rule="evenodd" d="M87.0548 112.179L86.9829 112.656C86.9548 112.845 87.1732 113.002 87.3392 113.002H103.108C103.33 113.002 103.437 112.721 103.463 112.531L103.557 111.841L105.53 100.173C105.58 99.8743 105.256 99.6219 104.99 99.6219H89.7677C89.3435 99.6219 89.1397 100.123 89.0766 100.488L87.0722 112.179H87.0538H87.0548Z" fill="#FFD4D4"/>
<path fill-rule="evenodd" clip-rule="evenodd" d="M104.372 111.758H78.8652V112.591C78.8652 113.049 79.2399 113.423 79.698 113.423H103.539C103.997 113.423 104.372 113.049 104.372 112.591V111.758Z" fill="#FFAEAE"/>
<path d="M100.587 112.095H98.5V112.857H100.587V112.095Z" fill="#212B36"/>
<path d="M99.5453 102.248H90.1758V102.648H99.5453V102.248Z" fill="#212B36"/>
<path d="M99.266 103.674H89.8965V104.075H99.266V103.674Z" fill="#212B36"/>
<path d="M98.9848 105.1H89.6152V105.501H98.9848V105.1Z" fill="#212B36"/>
<path d="M98.7055 106.526H89.3359V106.927H98.7055V106.526Z" fill="#212B36"/>
<path d="M98.4262 107.953H89.0566V108.354H98.4262V107.953Z" fill="#212B36"/>
<path d="M98.1469 109.379H88.7773V109.78H98.1469V109.379Z" fill="#212B36"/>
<path d="M282.654 198.365H28.6543V198.865H282.654V198.365Z" fill="#000446"/>
<defs>
<linearGradient id="paint0_linear_5141_50266" x1="139.969" y1="158.118" x2="139.97" y2="-18.6556" gradientUnits="userSpaceOnUse">
<stop stop-color="#BB3138"/>
<stop offset="1" stop-color="#FFD4D4"/>
</linearGradient>
<linearGradient id="paint1_linear_5141_50266" x1="143.758" y1="330.538" x2="143.759" y2="38.4195" gradientUnits="userSpaceOnUse">
<stop stop-color="#FFD4D4"/>
<stop offset="1" stop-color="#FDFDFD"/>
</linearGradient>
<linearGradient id="paint2_linear_5141_50266" x1="163.898" y1="112.418" x2="163.898" y2="60.6657" gradientUnits="userSpaceOnUse">
<stop stop-color="#F89999"/>
<stop offset="1" stop-color="#FFF3F3"/>
</linearGradient>
<linearGradient id="paint3_linear_5141_50266" x1="171.193" y1="98.665" x2="171.193" y2="42.6158" gradientUnits="userSpaceOnUse">
<stop stop-color="#FDA5A5"/>
<stop offset="1" stop-color="#FDFDFD"/>
</linearGradient>
<linearGradient id="paint4_linear_5141_50266" x1="143.829" y1="160.902" x2="143.829" y2="112.621" gradientUnits="userSpaceOnUse">
<stop stop-color="#EC636A"/>
<stop offset="1" stop-color="#FDF2F2"/>
</linearGradient>
</defs>
</svg>
