<svg width="60" height="60" viewBox="0 0 60 60" fill="none" xmlns="http://www.w3.org/2000/svg">
<circle cx="30" cy="30" r="30" fill="#BB3138"/>
<path d="M31.6445 13.5625L31.3906 33.9727H28.1289L27.8555 13.5625H31.6445ZM27.7383 40.1836C27.7383 39.5977 27.9141 39.1029 28.2656 38.6992C28.6302 38.2956 29.1641 38.0938 29.8672 38.0938C30.5573 38.0938 31.0846 38.2956 31.4492 38.6992C31.8268 39.1029 32.0156 39.5977 32.0156 40.1836C32.0156 40.7435 31.8268 41.2253 31.4492 41.6289C31.0846 42.0326 30.5573 42.2344 29.8672 42.2344C29.1641 42.2344 28.6302 42.0326 28.2656 41.6289C27.9141 41.2253 27.7383 40.7435 27.7383 40.1836Z" fill="white"/>
</svg>
