<svg width="14" height="15" viewBox="0 0 14 15" fill="none" xmlns="http://www.w3.org/2000/svg">
<g id="Group 277">
<circle id="Ellipse 10" cx="6.5918" cy="4.18945" r="3.7793" fill="#BB3138"/>
<path id="Vector" d="M11.4496 9.79178C10.6891 9.03142 9.78081 8.47573 8.79134 8.15186C10.0802 7.38851 10.9464 5.98377 10.9464 4.38031C10.9464 1.965 8.98144 0 6.56613 0C4.15082 0 2.18582 1.965 2.18582 4.38031C2.18582 6.02796 3.1004 7.46581 4.44841 8.21352C3.52899 8.54413 2.68474 9.07782 1.9707 9.79179C0.699879 11.0625 0 12.7457 0 14.5312V15H0.937518V14.5312C0.937518 11.3484 3.52695 8.75896 6.7098 8.75896C9.89311 8.75896 12.4829 11.3484 12.4829 14.5312V15H13.4204V14.5312C13.4204 12.7456 12.7205 11.0624 11.4496 9.79178ZM3.12334 4.38031C3.12334 2.48194 4.66776 0.937518 6.56613 0.937518C8.4645 0.937518 10.0089 2.48194 10.0089 4.38031C10.0089 6.27868 8.4645 7.8231 6.56613 7.8231C4.66777 7.8231 3.12334 6.27868 3.12334 4.38031Z" fill="#637381"/>
</g>
</svg>
