<svg width="13" height="15" viewBox="0 0 13 15" fill="none" xmlns="http://www.w3.org/2000/svg">
<path d="M11.0156 1.875H8.4375V1.40625C8.4375 0.62959 7.80791 0 7.03125 0H5.15625C4.37959 0 3.75 0.62959 3.75 1.40625V1.875H1.17188C0.524678 1.875 0 2.39968 0 3.04688V3.98438C0 4.24327 0.209854 4.45312 0.46875 4.45312H11.7188C11.9776 4.45312 12.1875 4.24327 12.1875 3.98438V3.04688C12.1875 2.39968 11.6628 1.875 11.0156 1.875ZM4.6875 1.40625C4.6875 1.14785 4.89785 0.9375 5.15625 0.9375H7.03125C7.28965 0.9375 7.5 1.14785 7.5 1.40625V1.875H4.6875V1.40625Z" fill="white"/>
<path d="M0.888666 5.39062C0.805023 5.39062 0.738373 5.46053 0.742357 5.54408L1.12908 13.6605C1.16482 14.4117 1.78181 15 2.53357 15H9.65212C10.4039 15 11.0209 14.4117 11.0566 13.6605L11.4433 5.54408C11.4473 5.46053 11.3807 5.39062 11.297 5.39062H0.888666ZM7.96785 6.5625C7.96785 6.30352 8.17761 6.09375 8.4366 6.09375C8.69558 6.09375 8.90535 6.30352 8.90535 6.5625V12.6562C8.90535 12.9152 8.69558 13.125 8.4366 13.125C8.17761 13.125 7.96785 12.9152 7.96785 12.6562V6.5625ZM5.6241 6.5625C5.6241 6.30352 5.83386 6.09375 6.09285 6.09375C6.35183 6.09375 6.5616 6.30352 6.5616 6.5625V12.6562C6.5616 12.9152 6.35183 13.125 6.09285 13.125C5.83386 13.125 5.6241 12.9152 5.6241 12.6562V6.5625ZM3.28035 6.5625C3.28035 6.30352 3.49011 6.09375 3.7491 6.09375C4.00808 6.09375 4.21785 6.30352 4.21785 6.5625V12.6562C4.21785 12.9152 4.00808 13.125 3.7491 13.125C3.49011 13.125 3.28035 12.9152 3.28035 12.6562V6.5625Z" fill="white"/>
</svg>
