<svg width="44" height="44" viewBox="0 0 44 44" fill="none" xmlns="http://www.w3.org/2000/svg">
<g filter="url(#filter0_d_1769_907)">
<rect x="1" y="1" width="40" height="40" rx="5" fill="#F32137"/>
<rect x="1.5" y="1.5" width="39" height="39" rx="4.5" stroke="white"/>
</g>
<path d="M27.6875 13.5H24.25V12.875C24.25 11.8395 23.4105 11 22.375 11H19.875C18.8395 11 18 11.8395 18 12.875V13.5H14.5625C13.6996 13.5 13 14.1996 13 15.0625V16.3125C13 16.6577 13.2798 16.9375 13.625 16.9375H28.625C28.9702 16.9375 29.25 16.6577 29.25 16.3125V15.0625C29.25 14.1996 28.5504 13.5 27.6875 13.5ZM19.25 12.875C19.25 12.5305 19.5305 12.25 19.875 12.25H22.375C22.7195 12.25 23 12.5305 23 12.875V13.5H19.25V12.875Z" fill="white"/>
<path d="M14.186 18.1875C14.0745 18.1875 13.9856 18.2807 13.9909 18.3921L14.5066 29.2141C14.5542 30.2156 15.3769 31 16.3792 31H25.8706C26.873 31 27.6956 30.2156 27.7433 29.2141L28.2589 18.3921C28.2642 18.2807 28.1754 18.1875 28.0638 18.1875H14.186ZM23.6249 19.75C23.6249 19.4047 23.9046 19.125 24.2499 19.125C24.5952 19.125 24.8749 19.4047 24.8749 19.75V27.875C24.8749 28.2203 24.5952 28.5 24.2499 28.5C23.9046 28.5 23.6249 28.2203 23.6249 27.875V19.75ZM20.4999 19.75C20.4999 19.4047 20.7796 19.125 21.1249 19.125C21.4702 19.125 21.7499 19.4047 21.7499 19.75V27.875C21.7499 28.2203 21.4702 28.5 21.1249 28.5C20.7796 28.5 20.4999 28.2203 20.4999 27.875V19.75ZM17.3749 19.75C17.3749 19.4047 17.6546 19.125 17.9999 19.125C18.3452 19.125 18.6249 19.4047 18.6249 19.75V27.875C18.6249 28.2203 18.3452 28.5 17.9999 28.5C17.6546 28.5 17.3749 28.2203 17.3749 27.875V19.75Z" fill="white"/>
<defs>
<filter id="filter0_d_1769_907" x="0" y="0" width="44" height="44" filterUnits="userSpaceOnUse" color-interpolation-filters="sRGB">
<feFlood flood-opacity="0" result="BackgroundImageFix"/>
<feColorMatrix in="SourceAlpha" type="matrix" values="0 0 0 0 0 0 0 0 0 0 0 0 0 0 0 0 0 0 127 0" result="hardAlpha"/>
<feOffset dx="1" dy="1"/>
<feGaussianBlur stdDeviation="1"/>
<feComposite in2="hardAlpha" operator="out"/>
<feColorMatrix type="matrix" values="0 0 0 0 0 0 0 0 0 0 0 0 0 0 0 0 0 0 0.24 0"/>
<feBlend mode="normal" in2="BackgroundImageFix" result="effect1_dropShadow_1769_907"/>
<feBlend mode="normal" in="SourceGraphic" in2="effect1_dropShadow_1769_907" result="shape"/>
</filter>
</defs>
</svg>
