<svg width="23" height="17" viewBox="0 0 23 17" fill="none" xmlns="http://www.w3.org/2000/svg">
<path d="M13.4841 15.9138L12.4878 15.2527C12.4229 15.2095 12.3698 15.1508 12.3331 15.082C12.2964 15.0132 12.2774 14.9364 12.2776 14.8584V8.97224H10.3888V14.8584C10.3888 14.9361 10.3696 15.0127 10.3329 15.0812C10.2963 15.1497 10.2433 15.2082 10.1786 15.2513L9.18224 15.9138C9.11759 15.957 9.06458 16.0154 9.02793 16.0839C8.99127 16.1525 8.9721 16.229 8.97211 16.3067V16.5277C8.97211 16.6529 9.02186 16.7731 9.11042 16.8616C9.19897 16.9502 9.31908 16.9999 9.44432 16.9999H13.2221C13.3473 16.9999 13.4674 16.9502 13.556 16.8616C13.6445 16.7731 13.6943 16.6529 13.6943 16.5277V16.3081C13.6945 16.2302 13.6755 16.1534 13.6388 16.0845C13.6021 16.0157 13.549 15.9571 13.4841 15.9138Z" fill="#637381"/>
<path d="M17.471 6.13882H4.72118C4.46038 6.13882 4.24896 6.35024 4.24896 6.61103V7.55547C4.24896 7.81627 4.46038 8.02768 4.72118 8.02768H17.471C17.7318 8.02768 17.9432 7.81627 17.9432 7.55547V6.61103C17.9432 6.35024 17.7318 6.13882 17.471 6.13882Z" fill="#637381"/>
<path d="M11.8049 1.44215V0.944434H12.2771C12.4024 0.944434 12.5225 0.894682 12.611 0.806125C12.6996 0.717567 12.7493 0.597457 12.7493 0.472217C12.7493 0.346977 12.6996 0.226867 12.611 0.138309C12.5225 0.0497514 12.4024 0 12.2771 0H10.3882C10.263 0 10.1429 0.0497514 10.0543 0.138309C9.96578 0.226867 9.91603 0.346977 9.91603 0.472217C9.91603 0.597457 9.96578 0.717567 10.0543 0.806125C10.1429 0.894682 10.263 0.944434 10.3882 0.944434H10.8605V1.44215C9.85866 1.54395 8.91546 1.96274 8.16808 2.63758C7.42071 3.31243 6.90815 4.20813 6.70496 5.19439H15.9604C15.7572 4.20813 15.2447 3.31243 14.4973 2.63758C13.7499 1.96274 12.8067 1.54395 11.8049 1.44215ZM10.7188 3.3721C10.0688 3.51718 9.49029 3.88564 9.08399 4.41334C9.00778 4.51278 8.89519 4.57787 8.77098 4.5943C8.64678 4.61073 8.52114 4.57714 8.4217 4.50094C8.32226 4.42473 8.25717 4.31214 8.24074 4.18794C8.22431 4.06373 8.2579 3.93809 8.3341 3.83865C8.87592 3.13483 9.64745 2.64337 10.5143 2.44986C10.5749 2.43644 10.6375 2.43507 10.6986 2.44584C10.7597 2.45661 10.818 2.4793 10.8703 2.51263C10.9226 2.54595 10.9679 2.58926 11.0035 2.64007C11.039 2.69087 11.0643 2.74819 11.0777 2.80875C11.0911 2.8693 11.0925 2.93191 11.0817 2.99299C11.0709 3.05407 11.0482 3.11244 11.0149 3.16475C10.9816 3.21706 10.9383 3.2623 10.8875 3.29788C10.8367 3.33345 10.7794 3.35868 10.7188 3.3721Z" fill="#637381"/>
<path d="M22.4298 5.04287C22.3414 4.94207 22.2325 4.86133 22.1103 4.80603C21.9881 4.75073 21.8556 4.72217 21.7215 4.72224H21.212C21.005 4.72332 20.8042 4.79235 20.6403 4.9187C20.4764 5.04505 20.3585 5.22174 20.3048 5.42159L19.0832 9.98415H16.1701C15.8567 9.98446 15.5523 10.089 15.3049 10.2814C15.0575 10.4738 14.8811 10.743 14.8035 11.0466L14.6689 11.5694C14.6329 11.7089 14.6293 11.8548 14.6583 11.9959C14.6874 12.137 14.7483 12.2696 14.8365 12.3836C14.9247 12.4975 15.0378 12.5897 15.1671 12.6532C15.2965 12.7167 15.4386 12.7498 15.5827 12.7499H15.6153L14.7034 16.4134C14.6884 16.4736 14.6855 16.5362 14.6947 16.5975C14.7039 16.6589 14.7251 16.7178 14.7572 16.771C14.7892 16.8241 14.8313 16.8705 14.8813 16.9073C14.9312 16.9441 14.9879 16.9708 15.0481 16.9857C15.0855 16.9953 15.1239 17 15.1624 16.9999C15.2677 16.9998 15.37 16.9646 15.453 16.8997C15.536 16.8349 15.595 16.7441 15.6205 16.6419L16.5871 12.7499H19.9743L20.8366 16.6301C20.8598 16.7348 20.9181 16.8285 21.0017 16.8957C21.0853 16.9629 21.1892 16.9996 21.2965 16.9999C21.3311 16.9998 21.3656 16.996 21.3994 16.9885C21.46 16.9751 21.5173 16.9499 21.5681 16.9143C21.619 16.8788 21.6623 16.8335 21.6956 16.7812C21.7289 16.7289 21.7516 16.6705 21.7624 16.6094C21.7731 16.5484 21.7718 16.4857 21.7583 16.4252L20.9253 12.6777C21.1801 12.5965 21.4066 12.445 21.5788 12.2405C21.7511 12.036 21.8619 11.787 21.8986 11.5222L22.6579 5.79322C22.6757 5.65912 22.6645 5.52276 22.6252 5.39332C22.5859 5.26389 22.5192 5.14439 22.4298 5.04287Z" fill="#637381"/>
<path d="M7.82912 12.3849C7.9179 12.271 7.97929 12.1382 8.00852 11.9968C8.03775 11.8554 8.03405 11.7091 7.9977 11.5694L7.86265 11.0471C7.78525 10.7435 7.60897 10.4742 7.36161 10.2818C7.11425 10.0894 6.80989 9.98488 6.49652 9.98462H3.58531L2.36368 5.42159C2.30988 5.22135 2.19167 5.04438 2.0273 4.91798C1.86293 4.79159 1.66154 4.72281 1.45419 4.72224H0.941365C0.80707 4.72267 0.674413 4.75174 0.552244 4.80751C0.430075 4.86328 0.321204 4.94446 0.232897 5.04564C0.144589 5.14682 0.078875 5.26567 0.0401393 5.39426C0.00140358 5.52284 -0.00946294 5.65822 0.0082648 5.79134L0.76759 11.5222C0.803769 11.7871 0.914185 12.0364 1.08607 12.2412C1.25796 12.446 1.48431 12.598 1.73894 12.6796L0.905949 16.4252C0.878772 16.5475 0.90129 16.6756 0.96855 16.7813C1.03581 16.887 1.1423 16.9616 1.2646 16.9888C1.38689 17.016 1.51498 16.9934 1.62067 16.9262C1.72637 16.8589 1.80101 16.7524 1.82819 16.6301L2.6914 12.7499H6.08003L7.04855 16.6419C7.0741 16.7444 7.13324 16.8353 7.21652 16.9002C7.29981 16.9651 7.40244 17.0002 7.50801 16.9999C7.54655 17 7.58495 16.9953 7.62229 16.9857C7.68248 16.9707 7.73912 16.9441 7.789 16.9072C7.83887 16.8703 7.88099 16.824 7.91296 16.7709C7.94493 16.7177 7.96611 16.6588 7.97531 16.5974C7.9845 16.5361 7.98152 16.4736 7.96654 16.4134L7.05232 12.7499H7.08538C7.22906 12.7503 7.37088 12.7175 7.49986 12.6542C7.62884 12.5909 7.74151 12.4988 7.82912 12.3849Z" fill="#637381"/>
</svg>
