<svg width="19" height="20" viewBox="0 0 19 20" fill="none" xmlns="http://www.w3.org/2000/svg">
<path d="M14.3188 9.11625C14.2176 8.8925 13.9951 8.75 13.7501 8.75H11.2501V0.625C11.2501 0.28 10.9701 0 10.6251 0H8.12508C7.78008 0 7.50008 0.28 7.50008 0.625V8.75H5.00008C4.75508 8.75 4.53258 8.89375 4.43133 9.11625C4.32883 9.34 4.36883 9.60125 4.53008 9.78625L8.90508 14.7863C9.02383 14.9225 9.19508 15 9.37508 15C9.55508 15 9.72633 14.9213 9.84508 14.7863L14.2201 9.78625C14.3826 9.6025 14.4201 9.34 14.3188 9.11625Z" fill="white"/>
<path d="M16.25 13.75V17.5H2.5V13.75H0V18.75C0 19.4412 0.56 20 1.25 20H17.5C18.1912 20 18.75 19.4412 18.75 18.75V13.75H16.25Z" fill="white"/>
</svg>
