<svg width="21" height="20" viewBox="0 0 21 20" fill="none" xmlns="http://www.w3.org/2000/svg">
<path d="M19.531 12.1583C19.2399 12.1583 19.004 12.3942 19.004 12.6853V17.3649C19.0029 18.2376 18.2958 18.945 17.4229 18.946H2.63512C1.76224 18.945 1.05508 18.2376 1.05405 17.3649V3.63122C1.05508 2.75833 1.76224 2.05117 2.63512 2.05014H7.31452C7.60562 2.05014 7.84154 1.81422 7.84154 1.52312C7.84154 1.23202 7.60562 0.996094 7.31452 0.996094H2.63512C1.18045 0.997741 0.00164695 2.17655 0 3.63122V17.3649C0.00164695 18.8196 1.18045 19.9984 2.63512 20.0001H17.4229C18.8776 19.9984 20.0564 18.8196 20.058 17.3649V12.6855C20.058 12.3944 19.8221 12.1583 19.531 12.1583Z" fill="white"/>
<path d="M8.24072 9.38495L15.9359 1.68958L18.4176 4.17132L10.7225 11.8667L8.24072 9.38495Z" fill="white"/>
<path d="M6.98535 13.1223L9.72794 12.3627L7.74501 10.3798L6.98535 13.1223Z" fill="white"/>
<path d="M19.1039 0.385232C18.589 -0.128411 17.7555 -0.128411 17.2406 0.385232L16.6816 0.944166L19.1634 3.42592L19.7223 2.86698C20.2362 2.3521 20.2362 1.51854 19.7223 1.00366L19.1039 0.385232Z" fill="white"/>
</svg>
