<svg width="20" height="20" viewBox="0 0 20 20" fill="none" xmlns="http://www.w3.org/2000/svg">
<path d="M0.909099 7.27272C0.363647 7.27272 0 6.90907 0 6.36362V2.72726C0 1.18181 1.18181 0 2.72726 0H6.36362C6.90907 0 7.27272 0.363647 7.27272 0.909099C7.27272 1.45455 6.90907 1.8182 6.36362 1.8182H2.72726C2.18181 1.8182 1.81816 2.18185 1.81816 2.7273V6.36366C1.8182 6.90907 1.45455 7.27272 0.909099 7.27272Z" fill="white"/>
<path d="M19.0907 7.27272C18.5453 7.27272 18.1816 6.90907 18.1816 6.36362V2.72726C18.1816 2.18181 17.818 1.81816 17.2725 1.81816H13.6362C13.0907 1.81816 12.7271 1.45451 12.7271 0.909062C12.7271 0.36361 13.0907 0 13.6362 0H17.2725C18.818 0 19.9998 1.18181 19.9998 2.72726V6.36362C19.9998 6.90907 19.6362 7.27272 19.0907 7.27272Z" fill="white"/>
<path d="M6.36362 20H2.72726C1.18181 20 0 18.8182 0 17.2728V13.6364C0 13.0909 0.363647 12.7273 0.909099 12.7273C1.45455 12.7273 1.8182 13.0909 1.8182 13.6364V17.2728C1.8182 17.8182 2.18185 18.1819 2.7273 18.1819H6.36366C6.90911 18.1819 7.27276 18.5455 7.27276 19.091C7.27272 19.6364 6.90907 20 6.36362 20Z" fill="white"/>
<path d="M17.2725 20.0001H13.6362C13.0907 20.0001 12.7271 19.6364 12.7271 19.091C12.7271 18.5455 13.0907 18.1819 13.6362 18.1819H17.2725C17.818 18.1819 18.1816 17.8182 18.1816 17.2728V13.6364C18.1816 13.0909 18.5453 12.7273 19.0907 12.7273C19.6362 12.7273 19.9998 13.0909 19.9998 13.6364V17.2728C19.9998 18.8182 18.818 20.0001 17.2725 20.0001Z" fill="white"/>
<path d="M8.18169 9.09091H4.54533C3.99988 9.09091 3.63623 8.72726 3.63623 8.18181V4.54545C3.63623 4 3.99988 3.63635 4.54533 3.63635H8.18169C8.72714 3.63635 9.09079 4 9.09079 4.54545V8.18181C9.09079 8.72726 8.72714 9.09091 8.18169 9.09091ZM5.45443 7.27271H7.27263V5.45451H5.45443V7.27271Z" fill="white"/>
<path d="M8.18169 16.3636H4.54533C3.99988 16.3636 3.63623 16 3.63623 15.4545V11.8182C3.63623 11.2727 3.99988 10.9091 4.54533 10.9091H8.18169C8.72714 10.9091 9.09079 11.2727 9.09079 11.8182V15.4545C9.09079 16 8.72714 16.3636 8.18169 16.3636ZM5.45443 14.5454H7.27263V12.7272H5.45443V14.5454Z" fill="white"/>
<path d="M15.4546 9.09091H11.8183C11.2728 9.09091 10.9092 8.72726 10.9092 8.18181V4.54545C10.9092 4 11.2728 3.63635 11.8183 3.63635H15.4546C16.0001 3.63635 16.3637 4 16.3637 4.54545V8.18181C16.3637 8.72726 16.0001 9.09091 15.4546 9.09091ZM12.7274 7.27271H14.5456V5.45451H12.7274V7.27271Z" fill="white"/>
<path d="M11.8183 13.6364C11.2728 13.6364 10.9092 13.2727 10.9092 12.7273V11.8182C10.9092 11.2727 11.2728 10.9091 11.8183 10.9091C12.3637 10.9091 12.7274 11.2727 12.7274 11.8182V12.7273C12.7274 13.2727 12.3637 13.6364 11.8183 13.6364Z" fill="white"/>
<path d="M15.4544 12.7273H14.5453C13.9999 12.7273 13.6362 12.3636 13.6362 11.8182C13.6362 11.2727 13.9999 10.9091 14.5453 10.9091H15.4544C15.9999 10.9091 16.3635 11.2727 16.3635 11.8182C16.3635 12.3636 15.9999 12.7273 15.4544 12.7273Z" fill="white"/>
<path d="M15.4547 16.3636H12.7275C12.182 16.3636 11.8184 16 11.8184 15.4545C11.8184 14.9091 12.182 14.5454 12.7275 14.5454H15.4547C16.0002 14.5454 16.3638 14.9091 16.3638 15.4545C16.3638 16 16.0002 16.3636 15.4547 16.3636Z" fill="white"/>
</svg>
