<svg width="21" height="17" viewBox="0 0 21 17" fill="none" xmlns="http://www.w3.org/2000/svg">
<path d="M17.1475 9.17798H15.5977C15.7556 9.6105 15.8419 10.0773 15.8419 10.5638V16.4213C15.8419 16.6242 15.8066 16.8189 15.7424 16.9999H18.3047C19.2618 16.9999 20.0404 16.2212 20.0404 15.2641V12.0709C20.0405 10.4758 18.7427 9.17798 17.1475 9.17798Z" fill="#212B36"/>
<path d="M4.19855 10.5638C4.19855 10.0772 4.28486 9.6105 4.44283 9.17798H2.89297C1.29779 9.17798 0 10.4758 0 12.0709V15.2642C0 16.2213 0.778648 17 1.73578 17H4.29809C4.23385 16.8188 4.19855 16.6242 4.19855 16.4213V10.5638Z" fill="#212B36"/>
<path d="M11.7916 7.67065H8.24844C6.65326 7.67065 5.35547 8.96844 5.35547 10.5636V16.4212C5.35547 16.7407 5.61451 16.9998 5.93406 16.9998H14.106C14.4256 16.9998 14.6846 16.7408 14.6846 16.4212V10.5636C14.6846 8.96844 13.3868 7.67065 11.7916 7.67065Z" fill="#212B36"/>
<path d="M10.0202 0C8.10176 0 6.54102 1.56074 6.54102 3.4792C6.54102 4.78047 7.25923 5.91695 8.31989 6.51363C8.82298 6.79663 9.40299 6.95836 10.0202 6.95836C10.6374 6.95836 11.2174 6.79663 11.7205 6.51363C12.7812 5.91695 13.4993 4.78043 13.4993 3.4792C13.4993 1.56078 11.9386 0 10.0202 0Z" fill="#212B36"/>
<path d="M3.91079 3.24292C2.47605 3.24292 1.30884 4.41013 1.30884 5.84487C1.30884 7.27962 2.47605 8.44683 3.91079 8.44683C4.27473 8.44683 4.62129 8.37144 4.93611 8.23593C5.48042 8.00159 5.92922 7.58676 6.20693 7.06715C6.40185 6.70247 6.51274 6.28643 6.51274 5.84487C6.51274 4.41017 5.34553 3.24292 3.91079 3.24292Z" fill="#212B36"/>
<path d="M16.1295 3.24292C14.6948 3.24292 13.5276 4.41013 13.5276 5.84487C13.5276 6.28647 13.6385 6.70251 13.8334 7.06715C14.1111 7.5868 14.5599 8.00163 15.1042 8.23593C15.419 8.37144 15.7656 8.44683 16.1295 8.44683C17.5643 8.44683 18.7315 7.27962 18.7315 5.84487C18.7315 4.41013 17.5643 3.24292 16.1295 3.24292Z" fill="#212B36"/>
</svg>
