<svg width="44" height="44" viewBox="0 0 44 44" fill="none" xmlns="http://www.w3.org/2000/svg">
<rect width="44" height="44" fill="#F5F5F5"/>
<g id="Stores - Menu - Addons" clip-path="url(#clip0_3891_357)">
<rect width="1440" height="1024" transform="translate(-1232 -339)" fill="#F3F3F4"/>
<g id="Rectangle 399" filter="url(#filter0_d_3891_357)">
<rect x="-930" y="-144" width="1118" height="410" rx="8" fill="white"/>
</g>
<path id="Rectangle 393" d="M-909 -3H167V188C167 191.866 163.866 195 160 195H-902C-905.866 195 -909 191.866 -909 188V-3Z" stroke="#BB3138" stroke-width="2"/>
<rect id="Rectangle 397" x="-908" y="-4" width="1074" height="50" fill="#F4F4F4"/>
<g id="Group 283">
<g id="Group 269">
<g id="Rectangle 80" filter="url(#filter1_d_3891_357)">
<rect x="1" y="1" width="40" height="40" rx="8" fill="#23C6C8"/>
<rect x="2" y="2" width="38" height="38" rx="7" stroke="white" stroke-width="2"/>
</g>
<g id="Group 28">
<path id="Vector" d="M21.0002 24.5448C22.7007 24.5448 24.0792 23.1663 24.0792 21.4658C24.0792 19.7653 22.7007 18.3867 21.0002 18.3867C19.2997 18.3867 17.9211 19.7653 17.9211 21.4658C17.9211 23.1663 19.2997 24.5448 21.0002 24.5448Z" fill="white"/>
<path id="Vector_2" d="M30.6933 20.6131C28.3265 17.753 24.7438 15 21.0001 15C17.2556 15 13.672 17.755 11.3068 20.6131C10.8977 21.1073 10.8977 21.8247 11.3068 22.3189C11.9015 23.0375 13.1481 24.4246 14.8131 25.6365C19.0063 28.6891 22.9845 28.6958 27.187 25.6365C28.852 24.4246 30.0986 23.0375 30.6933 22.3189C31.1012 21.8257 31.1033 21.1089 30.6933 20.6131ZM21.0001 17.1553C23.3771 17.1553 25.3107 19.089 25.3107 21.466C25.3107 23.843 23.3771 25.7766 21.0001 25.7766C18.623 25.7766 16.6894 23.843 16.6894 21.466C16.6894 19.089 18.623 17.1553 21.0001 17.1553Z" fill="white"/>
</g>
</g>
</g>
</g>
<defs>
<filter id="filter0_d_3891_357" x="-936" y="-146" width="1130" height="422" filterUnits="userSpaceOnUse" color-interpolation-filters="sRGB">
<feFlood flood-opacity="0" result="BackgroundImageFix"/>
<feColorMatrix in="SourceAlpha" type="matrix" values="0 0 0 0 0 0 0 0 0 0 0 0 0 0 0 0 0 0 127 0" result="hardAlpha"/>
<feMorphology radius="2" operator="dilate" in="SourceAlpha" result="effect1_dropShadow_3891_357"/>
<feOffset dy="4"/>
<feGaussianBlur stdDeviation="2"/>
<feColorMatrix type="matrix" values="0 0 0 0 0 0 0 0 0 0 0 0 0 0 0 0 0 0 0.05 0"/>
<feBlend mode="normal" in2="BackgroundImageFix" result="effect1_dropShadow_3891_357"/>
<feBlend mode="normal" in="SourceGraphic" in2="effect1_dropShadow_3891_357" result="shape"/>
</filter>
<filter id="filter1_d_3891_357" x="0" y="0" width="44" height="44" filterUnits="userSpaceOnUse" color-interpolation-filters="sRGB">
<feFlood flood-opacity="0" result="BackgroundImageFix"/>
<feColorMatrix in="SourceAlpha" type="matrix" values="0 0 0 0 0 0 0 0 0 0 0 0 0 0 0 0 0 0 127 0" result="hardAlpha"/>
<feOffset dx="1" dy="1"/>
<feGaussianBlur stdDeviation="1"/>
<feComposite in2="hardAlpha" operator="out"/>
<feColorMatrix type="matrix" values="0 0 0 0 0 0 0 0 0 0 0 0 0 0 0 0 0 0 0.24 0"/>
<feBlend mode="normal" in2="BackgroundImageFix" result="effect1_dropShadow_3891_357"/>
<feBlend mode="normal" in="SourceGraphic" in2="effect1_dropShadow_3891_357" result="shape"/>
</filter>
<clipPath id="clip0_3891_357">
<rect width="1440" height="1024" fill="white" transform="translate(-1232 -339)"/>
</clipPath>
</defs>
</svg>
