<svg width="299" height="258" viewBox="0 0 299 258" fill="none" xmlns="http://www.w3.org/2000/svg">
<g clip-path="url(#clip0_3968_1029)">
<path d="M219.565 208.057C259.013 168.564 259.013 104.534 219.565 65.0412C180.117 25.5485 116.159 25.5485 76.7106 65.0412C37.2625 104.534 37.2625 168.564 76.7106 208.057C116.159 247.55 180.117 247.55 219.565 208.057Z" fill="#FCD2D4"/>
<path opacity="0.73" d="M230.63 160.852V194.848C226.915 200.111 222.729 204.984 218.089 209.45V160.852H218.073V160.738C218.008 160.495 211.924 155.427 207.235 151.594V149.466L212.897 148.004C215.234 147.403 217.683 147.598 219.857 148.54C220.847 148.962 221.869 149.368 222.891 149.693V154.128C227.58 157.977 230.549 160.478 230.598 160.738V160.852H230.614H230.63Z" fill="#DF6268"/>
<path d="M4.38062 6.80573L34.0064 76.4384L55.6823 61.5926L68.24 79.8657L70.4952 49.0531L96.7138 33.054L4.38062 6.80573Z" fill="#FFB031"/>
<path d="M60.4847 58.3115L34.0064 76.4384L55.6823 61.5925L68.24 79.8656L70.4952 49.0531L28.7173 24.153L60.4847 58.3115Z" fill="#FF9433"/>
<path d="M69.9436 56.606L28.7173 24.153L70.4952 49.0531L69.9436 56.606Z" fill="#FF7733"/>
<path d="M68.7592 88.5393C68.532 87.1749 68.2238 85.8268 67.8831 84.5111L69.9111 83.9589C70.2843 85.3395 70.5925 86.7526 70.8359 88.1657L68.7592 88.5231V88.5393Z" fill="#CC4E54"/>
<path d="M44.2278 135.838C41.1776 135.627 38.2572 134.653 35.7749 133.012L36.943 131.258C39.1171 132.703 41.6806 133.548 44.3738 133.727L44.2278 135.822V135.838ZM52.9728 134.117L52.048 132.232C54.2383 131.16 56.3475 129.487 58.3431 127.278L59.9168 128.691C57.7428 131.112 55.4227 132.947 52.989 134.133L52.9728 134.117ZM29.9341 126.288C28.7497 123.884 28.1169 121.236 28.1169 118.637C28.1169 118.426 28.1169 118.215 28.1169 118.004L28.1494 117.549L30.2423 117.695V118.085C30.2099 118.28 30.2099 118.458 30.2099 118.637C30.2099 120.911 30.7615 123.234 31.7999 125.362L29.9179 126.288H29.9341ZM111.348 125.8V123.689C114.074 123.689 116.897 123.559 119.72 123.348L119.866 125.443C116.994 125.654 114.123 125.768 111.348 125.784V125.8ZM102.814 125.524L101.468 125.427C98.8879 125.215 96.5354 124.923 94.2964 124.533L94.6533 122.454C96.8274 122.828 99.1151 123.12 101.63 123.331L102.944 123.429L102.798 125.524H102.814ZM128.351 124.566L128.076 122.47C130.785 122.097 133.576 121.642 136.366 121.106L136.772 123.169C133.933 123.721 131.11 124.176 128.368 124.566H128.351ZM85.9408 122.438C83.4747 121.593 81.1546 120.57 79.0454 119.384C78.7209 119.206 78.3802 119.011 78.0557 118.816L79.1428 117.013C79.451 117.192 79.7593 117.386 80.0676 117.549C82.0632 118.67 84.2535 119.644 86.606 120.456L85.9246 122.454L85.9408 122.438ZM64.9464 121.593L63.1293 120.538C64.4921 118.166 65.6603 115.632 66.6013 113.033L68.5807 113.748C67.6072 116.477 66.3742 119.108 64.9626 121.593H64.9464ZM145.079 121.366L144.576 119.319C147.204 118.686 149.946 117.955 152.721 117.159L153.305 119.189C150.514 119.985 147.74 120.716 145.079 121.366ZM161.433 116.704L160.784 114.706C163.461 113.846 166.122 112.936 168.767 111.994L169.464 113.975C166.803 114.918 164.126 115.843 161.433 116.704ZM71.063 113.927C69.1323 112.514 67.0556 111.036 64.8004 109.801L64.1027 109.428L65.06 107.56C65.3033 107.69 65.5629 107.819 65.8063 107.949C68.1751 109.249 70.3978 110.824 72.2961 112.221L71.063 113.927ZM33.2276 110.759L31.7512 109.249C33.6008 107.43 36.1318 106.065 39.4903 105.091L40.2041 107.072C37.1053 107.982 34.8014 109.2 33.2276 110.743V110.759ZM56.4124 106.65C54.0274 106.114 51.5612 105.838 49.1276 105.838H48.2677L48.219 103.743C51.1232 103.678 54.0436 103.954 56.8829 104.587L56.4286 106.65H56.4124ZM70.8196 105.416L68.7429 105.042C69.2296 102.313 69.473 99.5519 69.4892 96.7906H71.5984C71.5984 99.6656 71.3226 102.573 70.8196 105.399V105.416Z" fill="#CC4E54"/>
<path d="M177.479 111.003L176.733 109.038C178.047 108.534 179.345 108.031 180.659 107.527L181.422 109.492C180.107 110.012 178.793 110.516 177.479 111.019V111.003Z" fill="#00C8B7"/>
<path d="M243.724 162.346C242.653 162.346 241.744 161.534 241.631 160.446C241.517 159.293 242.361 158.253 243.529 158.14C256.249 156.905 267.947 150.83 276.464 141.036C277.227 140.159 278.557 140.061 279.434 140.825C280.31 141.588 280.407 142.92 279.644 143.797C270.413 154.42 257.725 160.998 243.934 162.33C243.87 162.33 243.805 162.33 243.724 162.33V162.346Z" fill="#CC4E54"/>
<path d="M218.089 160.868L144.787 204.139L71.4849 160.868C71.4849 160.868 71.4849 160.787 71.4849 160.755C71.5498 160.478 75.5896 157.1 81.7549 152.081C81.8198 152.032 81.8685 151.983 81.9172 151.935C102.165 135.481 144.771 101.793 144.771 101.793C144.771 101.793 187.376 135.481 207.624 151.935C213.887 157.019 218.008 160.462 218.073 160.755C218.073 160.787 218.073 160.836 218.073 160.868H218.089Z" fill="#7A4C08"/>
<path d="M174.932 65.9456H95.8378C89.056 65.9456 83.5559 71.4519 83.5559 78.2413V197.95C83.5559 204.74 89.056 210.246 95.8378 210.246H194.937C201.718 210.246 207.219 204.74 207.219 197.95V98.2687L174.916 65.9293L174.932 65.9456Z" fill="white"/>
<path d="M174.932 85.9729C174.932 92.7624 180.432 98.2687 187.214 98.2687H207.219L174.916 65.9293V85.9566L174.932 85.9729Z" fill="#E6E8E8"/>
<path d="M133.917 86.1678H106.643C104.224 86.1678 102.263 88.1313 102.263 90.5534V117.857C102.263 120.28 104.224 122.243 106.643 122.243H133.917C136.336 122.243 138.297 120.28 138.297 117.857V90.5534C138.297 88.1313 136.336 86.1678 133.917 86.1678Z" fill="#CC4E54"/>
<path d="M171.298 132.281H105.832C103.885 132.281 102.311 133.857 102.311 135.806C102.311 137.755 103.885 139.33 105.832 139.33H171.298C173.244 139.33 174.818 137.755 174.818 135.806C174.818 133.857 173.244 132.281 171.298 132.281Z" fill="#D9DBDB"/>
<path d="M171.298 149.856H105.832C103.885 149.856 102.311 151.431 102.311 153.38C102.311 155.33 103.885 156.905 105.832 156.905H171.298C173.244 156.905 174.818 155.33 174.818 153.38C174.818 151.431 173.244 149.856 171.298 149.856Z" fill="#D9DBDB"/>
<path d="M141.574 166.911H105.832C103.885 166.911 102.311 168.486 102.311 170.435C102.311 172.384 103.885 173.96 105.832 173.96H141.574C143.521 173.96 145.095 172.384 145.095 170.435C145.095 168.486 143.521 166.911 141.574 166.911Z" fill="#D9DBDB"/>
<path d="M218.089 160.852V231.248C218.089 236.17 214.065 240.198 209.149 240.198H80.3921C75.4761 240.198 71.4849 236.17 71.4849 231.248V160.852L144.787 204.123L218.089 160.852Z" fill="#FFB031"/>
<path d="M215.606 237.404L168.426 190.17L144.787 204.123L121.132 190.154L73.9509 237.388C75.5734 239.11 77.861 240.198 80.392 240.198H209.149C211.696 240.198 213.968 239.11 215.606 237.404Z" fill="#FF9433"/>
<path d="M232.902 64.2077C211.794 66.2868 194.937 83.699 193.428 104.863C192.681 115.405 195.667 125.183 201.15 133.109C203.227 136.098 203.552 139.948 202.173 143.294L198.701 151.675L212.929 147.988C215.25 147.387 217.699 147.582 219.89 148.524C226.477 151.383 233.908 152.698 241.712 151.935C262.43 149.921 279.174 133.174 281.186 112.449C283.863 84.6248 260.71 61.4627 232.918 64.1914L232.902 64.2077Z" fill="#DF6268"/>
<path d="M238.434 130.365L240.852 127.944C240.852 127.944 238.937 123.413 246.985 115.762C251.787 111.214 252.858 106.796 252.468 103.19C251.852 97.4567 247.163 92.7625 241.436 92.1453C237.834 91.7555 233.437 92.8275 228.894 97.6353C221.253 105.708 216.726 103.775 216.726 103.775L214.309 106.195L238.434 130.348V130.365Z" fill="white"/>
<path d="M219.76 115.551C217.845 118.166 218.056 121.853 220.425 124.225C222.794 126.596 226.477 126.807 229.089 124.891L219.76 115.551Z" fill="white"/>
<path d="M254.172 95.0852L252.663 96.5958C251.495 94.7279 249.889 93.1361 248.023 91.9666L249.548 90.4398C250.83 89.1566 252.907 89.1566 254.188 90.4398C255.454 91.7067 255.454 93.7858 254.188 95.0852H254.172Z" fill="white"/>
<path d="M236.163 64.0291C251.852 68.7232 263.29 83.2768 263.29 100.51C263.29 121.545 246.254 138.6 225.244 138.6C214.179 138.6 204.233 133.84 197.289 126.288C198.392 128.692 199.674 130.982 201.15 133.126C203.227 136.114 203.552 139.964 202.173 143.31L198.701 151.691L212.929 148.004C215.25 147.403 217.699 147.598 219.89 148.54C226.477 151.399 233.908 152.715 241.712 151.951C262.43 149.937 279.174 133.207 281.186 112.465C283.765 85.7456 262.495 63.3306 236.179 64.0291H236.163Z" fill="#CC4E54"/>
<path d="M6.87926 27.4665L16.5003 49.5567C16.9871 50.6774 16.4679 51.9931 15.3484 52.4804L15.0077 52.6266C13.872 53.1138 12.5578 52.5941 12.0873 51.4571L2.80693 29.2045C2.32019 28.035 2.90427 26.7031 4.08866 26.2646C5.19192 25.8585 6.42497 26.3783 6.89548 27.4665H6.87926Z" fill="#FFB031"/>
<path d="M44.5524 182.894C40.6423 182.894 37.4785 186.061 37.4785 189.975C37.4785 193.89 40.6423 197.057 44.5524 197.057C48.4625 197.057 51.6262 193.89 51.6262 189.975C51.6262 186.061 48.4625 182.894 44.5524 182.894ZM44.5524 192.834C42.9786 192.834 41.6969 191.551 41.6969 189.975C41.6969 188.4 42.9786 187.117 44.5524 187.117C46.1261 187.117 47.4079 188.4 47.4079 189.975C47.4079 191.551 46.1261 192.834 44.5524 192.834Z" fill="#EFC3C5"/>
<path d="M233.973 211.53C230.062 211.53 226.899 214.697 226.899 218.611C226.899 222.526 230.062 225.693 233.973 225.693C237.883 225.693 241.046 222.526 241.046 218.611C241.046 214.697 237.883 211.53 233.973 211.53ZM233.973 221.47C232.399 221.47 231.117 220.187 231.117 218.611C231.117 217.036 232.399 215.753 233.973 215.753C235.546 215.753 236.828 217.036 236.828 218.611C236.828 220.187 235.546 221.47 233.973 221.47Z" fill="#EFC3C5"/>
<path d="M291.796 101.615C288.811 101.615 286.377 104.035 286.377 107.04C286.377 110.045 288.795 112.465 291.796 112.465C294.798 112.465 297.215 110.045 297.215 107.04C297.215 104.035 294.798 101.615 291.796 101.615ZM291.796 109.233C290.58 109.233 289.606 108.258 289.606 107.04C289.606 105.822 290.58 104.847 291.796 104.847C293.013 104.847 293.987 105.822 293.987 107.04C293.987 108.258 293.013 109.233 291.796 109.233Z" fill="#EFC3C5"/>
<path d="M196.494 14.9434C193.33 14.9434 190.767 17.5097 190.767 20.6771C190.767 23.8444 193.33 26.4107 196.494 26.4107C199.658 26.4107 202.221 23.8444 202.221 20.6771C202.221 17.5097 199.658 14.9434 196.494 14.9434ZM196.494 22.9835C195.212 22.9835 194.174 21.944 194.174 20.6608C194.174 19.3776 195.212 18.3381 196.494 18.3381C197.776 18.3381 198.814 19.3776 198.814 20.6608C198.814 21.944 197.776 22.9835 196.494 22.9835Z" fill="#EFC3C5"/>
<path d="M13.4499 148.426C10.1239 148.426 7.43066 151.123 7.43066 154.452C7.43066 157.782 10.1239 160.479 13.4499 160.479C16.7759 160.479 19.4692 157.782 19.4692 154.452C19.4692 151.123 16.7759 148.426 13.4499 148.426Z" fill="#EFC3C5"/>
<path d="M254.837 168.372C252.42 168.372 250.457 170.338 250.457 172.758C250.457 175.178 252.42 177.144 254.837 177.144C257.255 177.144 259.218 175.178 259.218 172.758C259.218 170.338 257.255 168.372 254.837 168.372Z" fill="#EFC3C5"/>
<path d="M109.92 16.7463C106.384 16.7463 103.528 19.6051 103.528 23.146C103.528 26.6869 106.384 29.5456 109.92 29.5456C113.457 29.5456 116.313 26.6869 116.313 23.146C116.313 19.6051 113.457 16.7463 109.92 16.7463Z" fill="#EFC3C5"/>
<path d="M144.17 248.677C141.591 248.677 139.514 250.772 139.514 253.338C139.514 255.905 141.607 258 144.17 258C146.734 258 148.827 255.905 148.827 253.338C148.827 250.772 146.734 248.677 144.17 248.677Z" fill="#EFC3C5"/>
<path d="M234.378 41.4515C231.36 41.4515 228.91 43.9042 228.91 46.9253C228.91 49.9465 231.36 52.3992 234.378 52.3992C237.396 52.3992 239.846 49.9465 239.846 46.9253C239.846 43.9042 237.396 41.4515 234.378 41.4515Z" fill="#EFC3C5"/>
<path d="M40.6258 90.261C42.3462 90.261 43.7409 88.8648 43.7409 87.1424C43.7409 85.4201 42.3462 84.0238 40.6258 84.0238C38.9054 84.0238 37.5107 85.4201 37.5107 87.1424C37.5107 88.8648 38.9054 90.261 40.6258 90.261Z" fill="#EFC3C5"/>
<path d="M293.678 74.3107C290.742 74.3107 288.373 76.6984 288.373 79.6221C288.373 82.5457 290.758 84.9334 293.678 84.9334C296.599 84.9334 298.984 82.5457 298.984 79.6221C298.984 76.6984 296.599 74.3107 293.678 74.3107Z" fill="#EFC3C5"/>
<path d="M10.4646 109.249C12.3374 109.249 13.8555 107.729 13.8555 105.854C13.8555 103.979 12.3374 102.459 10.4646 102.459C8.59189 102.459 7.07373 103.979 7.07373 105.854C7.07373 107.729 8.59189 109.249 10.4646 109.249Z" fill="#EFC3C5"/>
<path d="M152.948 5.37637L155.073 3.24857C155.803 2.51765 155.803 1.29944 155.073 0.568518C154.343 -0.162406 153.126 -0.162406 152.396 0.568518L150.271 2.69632L148.145 0.568518C147.415 -0.162406 146.198 -0.162406 145.468 0.568518C144.738 1.29944 144.738 2.51765 145.468 3.24857L147.594 5.37637L145.468 7.50418C144.738 8.2351 144.738 9.45331 145.468 10.1842C146.198 10.9152 147.415 10.9152 148.145 10.1842L150.271 8.05643L152.396 10.1842C153.126 10.9152 154.343 10.9152 155.073 10.1842C155.803 9.45331 155.803 8.2351 155.073 7.50418L152.948 5.37637Z" fill="#EFC3C5"/>
<path d="M8.0473 69.7789L10.1727 67.6511C10.9028 66.9202 10.9028 65.702 10.1727 64.971C9.4426 64.2401 8.22577 64.2401 7.49567 64.971L5.37027 67.0988L3.24487 64.971C2.51477 64.2401 1.29794 64.2401 0.567838 64.971C-0.162261 65.702 -0.162261 66.9202 0.567838 67.6511L2.69324 69.7789L0.567838 71.9067C-0.162261 72.6376 -0.162261 73.8558 0.567838 74.5868C1.29794 75.3177 2.51477 75.3177 3.24487 74.5868L5.37027 72.459L7.49567 74.5868C8.22577 75.3177 9.4426 75.3177 10.1727 74.5868C10.9028 73.8558 10.9028 72.6376 10.1727 71.9067L8.0473 69.7789Z" fill="#EFC3C5"/>
<path d="M259.12 199.9L260.921 198.097C261.554 197.463 261.554 196.44 260.921 195.823C260.288 195.189 259.266 195.189 258.65 195.823L256.849 197.626L255.048 195.823C254.415 195.189 253.393 195.189 252.777 195.823C252.144 196.456 252.144 197.48 252.777 198.097L254.577 199.9L252.777 201.703C252.144 202.336 252.144 203.359 252.777 203.977C253.409 204.61 254.431 204.61 255.048 203.977L256.849 202.174L258.65 203.977C259.283 204.61 260.305 204.61 260.921 203.977C261.554 203.343 261.554 202.32 260.921 201.703L259.12 199.9Z" fill="#EFC3C5"/>
</g>
<defs>
<clipPath id="clip0_3968_1029">
<rect width="299" height="258" fill="white"/>
</clipPath>
</defs>
</svg>
