<svg width="20" height="13" viewBox="0 0 20 13" fill="none" xmlns="http://www.w3.org/2000/svg">
<path d="M10.0004 9.5448C11.7009 9.5448 13.0795 8.16627 13.0795 6.46576C13.0795 4.76525 11.7009 3.38672 10.0004 3.38672C8.29992 3.38672 6.92139 4.76525 6.92139 6.46576C6.92139 8.16627 8.29992 9.5448 10.0004 9.5448Z" fill="white"/>
<path d="M19.6933 5.61309C17.3265 2.75305 13.7438 0 10.0001 0C6.25555 0 2.67205 2.75497 0.306846 5.61309C-0.102282 6.10728 -0.102282 6.82469 0.306846 7.31888C0.901485 8.03745 2.14811 9.42456 3.8131 10.6365C8.00633 13.6891 11.9845 13.6958 16.187 10.6365C17.852 9.42456 19.0986 8.03745 19.6933 7.31888C20.1012 6.82566 20.1033 6.10889 19.6933 5.61309ZM10.0001 2.15533C12.3771 2.15533 14.3107 4.08897 14.3107 6.46599C14.3107 8.843 12.3771 10.7766 10.0001 10.7766C7.62303 10.7766 5.68939 8.843 5.68939 6.46599C5.68939 4.08897 7.62303 2.15533 10.0001 2.15533Z" fill="white"/>
</svg>
