<svg width="340" height="102" viewBox="0 0 340 102" fill="none" xmlns="http://www.w3.org/2000/svg">
<path d="M0 26.2677C0 11.7619 11.7582 0 26.2677 0C40.7772 0 52.5354 11.7619 52.5354 26.2677C52.5354 26.3302 52.5318 26.3889 52.5318 26.4477L0.00367408 26.3632C0.00367408 26.3302 0.00367408 26.3008 0.00367408 26.2677H0Z" fill="url(#paint0_linear_3673_2199)"/>
<path d="M340 26.2677C340 11.7619 328.242 0 313.732 0C299.223 0 287.464 11.7619 287.464 26.2677C287.464 26.3302 287.468 26.3889 287.468 26.4477L339.996 26.3632C339.996 26.3302 339.996 26.3008 339.996 26.2677H340Z" fill="url(#paint1_linear_3673_2199)"/>
<g filter="url(#filter0_d_3673_2199)">
<path d="M169.926 0.242437L26.2676 0L28.3503 1.19015C32.0053 3.2729 35.0651 5.93604 37.5997 8.99957C41.5044 13.7087 44.0684 19.3803 45.2585 25.3825C46.3642 30.9585 48.4543 40.6413 50.9595 47.9805C52.2488 52.3591 53.5528 56.0838 55.3197 60.5065C56.249 62.8317 57.3473 65.0577 58.5889 67.1772C60.8259 71.328 63.5552 75.0931 67.1109 78.0905C71.4307 82.5499 75.0783 85.5473 80.2246 87.6521C86.572 90.8442 95.3328 93.0629 109.872 93.0629C110.29 93.0629 110.695 93.0335 111.084 93.0261C111.359 93.0335 111.631 93.0114 111.892 93.0114H228.115C228.38 93.0114 228.648 93.0298 228.923 93.0261C229.313 93.0335 229.717 93.0629 230.135 93.0629C244.671 93.0629 253.435 90.8405 259.783 87.6521C264.929 85.5473 268.576 82.5499 272.896 78.0905C276.452 75.0894 279.181 71.328 281.418 67.1772C282.656 65.0614 283.758 62.8317 284.684 60.5065C286.451 56.0838 287.751 52.3628 289.04 47.9805C291.546 40.645 293.632 30.9585 294.734 25.3825C295.92 19.3803 298.477 13.7087 302.382 8.99957C304.92 5.93604 307.961 3.2729 311.613 1.19015L313.659 0L169.926 0.242437Z" fill="url(#paint2_linear_3673_2199)"/>
</g>
<path d="M113.46 32.3093L118.732 33.9807C117.923 36.9193 116.579 39.1012 114.702 40.5265C112.821 41.9517 110.437 42.6643 107.55 42.6643C103.976 42.6643 101.037 41.4411 98.7341 39.0021C96.431 36.5593 95.2812 33.2203 95.2812 28.985C95.2812 24.5036 96.4383 21.025 98.7525 18.5455C101.067 16.066 104.108 14.8281 107.877 14.8281C111.172 14.8281 113.846 15.8015 115.903 17.7484C117.126 18.8981 118.045 20.5511 118.658 22.7073L113.277 23.993C112.957 22.5971 112.296 21.4952 111.286 20.687C110.276 19.8789 109.049 19.4748 107.601 19.4748C105.607 19.4748 103.987 20.1911 102.745 21.6237C101.504 23.0563 100.883 25.3778 100.883 28.5846C100.883 31.9861 101.496 34.4104 102.72 35.8577C103.943 37.3013 105.533 38.025 107.495 38.025C108.939 38.025 110.184 37.5658 111.223 36.6475C112.263 35.7292 113.012 34.2856 113.464 32.313L113.46 32.3093Z" fill="white"/>
<path d="M122.295 28.9132C122.295 26.173 122.706 23.8698 123.525 22.0075C124.139 20.6373 124.973 19.4068 126.03 18.3158C127.088 17.2248 128.249 16.4167 129.509 15.8914C131.184 15.1825 133.12 14.8262 135.313 14.8262C139.28 14.8262 142.454 16.0567 144.834 18.5178C147.214 20.9789 148.404 24.3988 148.404 28.7847C148.404 33.1706 147.222 36.5317 144.86 38.9854C142.498 41.4392 139.339 42.6661 135.386 42.6661C131.434 42.6661 128.201 41.4429 125.836 39.0038C123.474 36.561 122.291 33.2 122.291 28.9132H122.295ZM127.896 28.7296C127.896 31.7784 128.602 34.0889 130.009 35.6611C131.415 37.2333 133.204 38.0193 135.372 38.0193C137.539 38.0193 139.317 37.2406 140.705 35.6795C142.094 34.1183 142.788 31.7784 142.788 28.6561C142.788 25.5338 142.112 23.2711 140.76 21.7503C139.409 20.2296 137.612 19.4729 135.372 19.4729C133.131 19.4729 131.327 20.2406 129.953 21.776C128.583 23.3115 127.896 25.6293 127.896 28.7259V28.7296Z" fill="white"/>
<path d="M152.574 42.2106V15.2891H160.71L165.596 33.6519L170.426 15.2891H178.581V42.2106H173.53V21.0194L168.185 42.2106H162.951L157.625 21.0194V42.2106H152.574Z" fill="white"/>
<path d="M183.808 42.2106V15.2891H189.244V42.2106H183.808Z" fill="white"/>
<path d="M194.479 42.2106V15.2891H199.768L210.788 33.2662V15.2891H215.839V42.2106H210.384L199.533 24.656V42.2106H194.482H194.479Z" fill="white"/>
<path d="M234.106 32.311V27.7745H245.821V38.4969C244.682 39.5989 243.033 40.5686 240.873 41.4061C238.713 42.2436 236.523 42.6661 234.308 42.6661C231.495 42.6661 229.037 42.0747 226.947 40.8955C224.853 39.7127 223.281 38.023 222.227 35.8264C221.173 33.6298 220.647 31.2384 220.647 28.6561C220.647 25.8534 221.235 23.3629 222.411 21.181C223.586 19.0027 225.305 17.3314 227.572 16.1669C229.298 15.2743 231.447 14.8262 234.018 14.8262C237.361 14.8262 239.973 15.5278 241.85 16.9273C243.73 18.3305 244.939 20.2663 245.475 22.7384L240.075 23.7486C239.697 22.4262 238.985 21.383 237.938 20.619C236.891 19.8549 235.583 19.4729 234.018 19.4729C231.642 19.4729 229.754 20.2259 228.354 21.732C226.951 23.238 226.249 25.4714 226.249 28.4357C226.249 31.6315 226.958 34.0265 228.38 35.6244C229.801 37.2222 231.66 38.0193 233.963 38.0193C235.102 38.0193 236.244 37.7953 237.387 37.3508C238.529 36.9027 239.513 36.3627 240.333 35.7272V32.311H234.11H234.106Z" fill="white"/>
<path d="M113.248 67.269L118.735 66.7364C119.066 68.5767 119.738 69.9322 120.745 70.7954C121.755 71.6586 123.118 72.0921 124.833 72.0921C126.651 72.0921 128.018 71.71 128.94 70.9386C129.862 70.1709 130.321 69.271 130.321 68.2424C130.321 67.5812 130.126 67.0192 129.741 66.5564C129.355 66.0936 128.675 65.6895 127.713 65.3479C127.052 65.1201 125.546 64.7124 123.195 64.1284C120.172 63.379 118.049 62.457 116.829 61.366C115.114 59.8306 114.258 57.9535 114.258 55.7459C114.258 54.3243 114.662 52.9909 115.466 51.753C116.271 50.5151 117.435 49.5711 118.952 48.9246C120.469 48.2781 122.302 47.9512 124.451 47.9512C127.955 47.9512 130.597 48.7189 132.371 50.258C134.141 51.7971 135.074 53.8468 135.162 56.4144L129.52 56.6642C129.281 55.228 128.764 54.1958 127.966 53.5676C127.169 52.9395 125.983 52.6236 124.396 52.6236C122.809 52.6236 121.472 52.9615 120.546 53.6338C119.948 54.0672 119.65 54.6439 119.65 55.3676C119.65 56.0287 119.929 56.5944 120.488 57.0646C121.197 57.6634 122.927 58.2841 125.671 58.9306C128.415 59.5771 130.446 60.2494 131.757 60.9399C133.069 61.6305 134.101 62.5782 134.843 63.7794C135.585 64.9806 135.96 66.4646 135.96 68.2277C135.96 69.8293 135.515 71.328 134.626 72.7239C133.737 74.1234 132.481 75.1593 130.854 75.8388C129.226 76.5184 127.202 76.86 124.774 76.86C121.241 76.86 118.53 76.0445 116.638 74.4099C114.746 72.779 113.615 70.3987 113.248 67.2727V67.269Z" fill="white"/>
<path d="M139.563 62.5633C139.563 59.7165 139.989 57.3289 140.838 55.4004C141.473 53.9788 142.34 52.7005 143.439 51.5691C144.537 50.4378 145.742 49.6003 147.049 49.0529C148.791 48.3146 150.796 47.9473 153.07 47.9473C157.184 47.9473 160.479 49.2256 162.951 51.7785C165.423 54.3315 166.657 57.8835 166.657 62.4311C166.657 66.9786 165.431 70.4682 162.98 73.0175C160.53 75.5631 157.25 76.8377 153.147 76.8377C149.044 76.8377 145.69 75.5704 143.237 73.0359C140.786 70.5013 139.56 67.0117 139.56 62.5633H139.563ZM145.374 62.3723C145.374 65.535 146.105 67.9337 147.567 69.5646C149.029 71.1955 150.884 72.011 153.132 72.011C155.38 72.011 157.224 71.2029 158.668 69.583C160.108 67.963 160.832 65.535 160.832 62.2952C160.832 59.0553 160.13 56.7044 158.727 55.1322C157.324 53.5564 155.458 52.7703 153.132 52.7703C150.807 52.7703 148.934 53.5674 147.512 55.1616C146.091 56.7558 145.378 59.1618 145.378 62.376L145.374 62.3723Z" fill="white"/>
<path d="M169.919 62.5633C169.919 59.7165 170.345 57.3289 171.194 55.4004C171.829 53.9788 172.696 52.7005 173.795 51.5691C174.893 50.4378 176.098 49.6003 177.405 49.0529C179.147 48.3146 181.152 47.9473 183.426 47.9473C187.54 47.9473 190.835 49.2256 193.307 51.7785C195.779 54.3315 197.013 57.8835 197.013 62.4311C197.013 66.9786 195.787 70.4682 193.336 73.0175C190.886 75.5631 187.606 76.8377 183.503 76.8377C179.4 76.8377 176.046 75.5704 173.592 73.0359C171.142 70.5013 169.916 67.0117 169.916 62.5633H169.919ZM175.73 62.3723C175.73 65.535 176.461 67.9337 177.923 69.5646C179.385 71.1955 181.24 72.011 183.488 72.011C185.736 72.011 187.58 71.2029 189.024 69.583C190.464 67.963 191.188 65.535 191.188 62.2952C191.188 59.0553 190.486 56.7044 189.083 55.1322C187.68 53.5564 185.814 52.7703 183.488 52.7703C181.163 52.7703 179.29 53.5674 177.868 55.1616C176.447 56.7558 175.734 59.1618 175.734 62.376L175.73 62.3723Z" fill="white"/>
<path d="M201.473 76.3612V48.4258H206.961L218.396 67.0824V48.4258H223.637V76.3612H217.977L206.714 58.1453V76.3612H201.473Z" fill="white"/>
<path d="M229.173 69.9148L228.101 54.7661V48.4297H232.45V54.7661L231.436 69.9148H229.173ZM228.259 77.0116V73.015H232.295V77.0116H228.259Z" fill="white"/>
<defs>
<filter id="filter0_d_3673_2199" x="22.2676" y="0" width="295.391" height="101.062" filterUnits="userSpaceOnUse" color-interpolation-filters="sRGB">
<feFlood flood-opacity="0" result="BackgroundImageFix"/>
<feColorMatrix in="SourceAlpha" type="matrix" values="0 0 0 0 0 0 0 0 0 0 0 0 0 0 0 0 0 0 127 0" result="hardAlpha"/>
<feOffset dy="4"/>
<feGaussianBlur stdDeviation="2"/>
<feComposite in2="hardAlpha" operator="out"/>
<feColorMatrix type="matrix" values="0 0 0 0 0 0 0 0 0 0 0 0 0 0 0 0 0 0 0.25 0"/>
<feBlend mode="normal" in2="BackgroundImageFix" result="effect1_dropShadow_3673_2199"/>
<feBlend mode="normal" in="SourceGraphic" in2="effect1_dropShadow_3673_2199" result="shape"/>
</filter>
<linearGradient id="paint0_linear_3673_2199" x1="0" y1="13.2239" x2="52.5318" y2="13.2239" gradientUnits="userSpaceOnUse">
<stop stop-color="#B30D0E"/>
<stop offset="0.15" stop-color="#AA0D0E"/>
<stop offset="0.39" stop-color="#920F0F"/>
<stop offset="0.7" stop-color="#6B1111"/>
<stop offset="1" stop-color="#3E1514"/>
</linearGradient>
<linearGradient id="paint1_linear_3673_2199" x1="340" y1="0" x2="287.468" y2="0" gradientUnits="userSpaceOnUse">
<stop stop-color="#B30D0E"/>
<stop offset="0.15" stop-color="#AA0D0E"/>
<stop offset="0.39" stop-color="#920F0F"/>
<stop offset="0.7" stop-color="#6B1111"/>
<stop offset="1" stop-color="#3E1514"/>
</linearGradient>
<linearGradient id="paint2_linear_3673_2199" x1="169.963" y1="93.0629" x2="169.963" y2="0" gradientUnits="userSpaceOnUse">
<stop stop-color="#E00D0E"/>
<stop offset="0.41" stop-color="#DD0D0E"/>
<stop offset="0.66" stop-color="#D50F0F"/>
<stop offset="0.86" stop-color="#C61211"/>
<stop offset="1" stop-color="#B81514"/>
</linearGradient>
</defs>
</svg>
