<svg width="113" height="120" viewBox="0 0 113 120" fill="none" xmlns="http://www.w3.org/2000/svg">
<circle cx="50" cy="68" r="50" fill="#D9D9D9"/>
<path d="M94.0646 99.3961C91.538 99.3655 89.4029 98.4478 87.7328 96.533C83.2364 91.382 85.3347 84.9463 87.4942 86.7877C88.1549 87.3505 88.7055 88.0234 89.1521 88.7698C90.865 91.6512 91.1159 94.1533 91.4217 95.9763C91.4829 96.3311 91.5257 96.3556 91.8745 96.2027C93.4344 95.5359 95.025 94.9241 96.6707 94.5081C98.1389 94.1349 100.219 93.5782 101.712 94.0309C102.758 94.349 102.972 95.5603 101.069 96.9123C99.4725 98.0441 97.7106 98.8149 95.7836 99.1758C95.2208 99.2798 94.6518 99.4144 94.0646 99.3961Z" fill="#6E7289"/>
<path d="M97.1845 71.6895C98.0287 72.1972 98.6221 72.9314 99.0993 73.7695C100.17 75.6659 100.372 77.5379 100.61 78.9756C100.678 79.3916 100.69 79.3915 101.008 79.1713C103.541 77.4217 106.349 76.0513 109.395 75.3845C110.631 75.1153 111.751 76.1798 110.301 77.8377C107.982 80.4866 99.3991 85.8028 96.1139 79.4527C94.1685 75.7026 94.6824 70.1846 97.1906 71.6895H97.1845Z" fill="#6E7289"/>
<path d="M93.4957 89.6997C91.1893 87.5769 90.6387 82.4748 91.4707 81.1962C92.3761 79.8075 93.8444 81.5816 94.346 82.4014C95.3432 84.0286 96.0222 85.7538 96.2914 87.6503C96.426 88.5985 97.0011 86.8366 103.565 85.5703C104.153 85.4541 105.67 85.3562 106.226 85.5336C107.107 85.8211 107.425 86.5613 106.997 87.375C105.56 90.1095 97.0622 92.9787 93.4896 89.6935" fill="#6E7289"/>
<path d="M98.7384 67.3949C98.6772 66.6363 98.8118 65.2904 99.5214 64.8194C100.794 63.969 102.085 66.5323 102.433 67.3949C103.944 71.1144 103.547 71.0716 103.883 71.8241C103.926 71.9219 104.03 71.9158 104.097 71.8546C104.214 71.7506 108.832 66.881 111.885 66.8627C115.091 66.8382 108.955 74.5097 104.055 74.9807C100.721 75.2988 99.0198 70.7963 98.7323 67.401L98.7384 67.3949Z" fill="#6E7289"/>
<path d="M103.265 61.4547C103.033 56.7442 105.657 56.0406 106.783 61.6382C107.297 64.1832 106.716 61.9319 109.836 59.4787C110.435 59.0077 111.873 58.3653 111.91 59.6378C111.959 61.2651 111.023 63.0331 110.032 64.2688C107.689 67.1747 105.18 68.0617 103.841 64.6298C103.425 63.5714 103.186 62.4825 103.265 61.4547Z" fill="#6E7289"/>
<path d="M104.422 59.1422C104.379 60.8062 104.55 62.5803 105.352 64.0546C105.48 64.2748 105.131 64.4706 105.009 64.2504C104.116 62.6965 103.975 60.8612 104.116 59.1116C104.134 58.9158 104.44 58.9403 104.422 59.1422Z" fill="#202538"/>
<path d="M110.637 60.537C110.062 62.152 109.096 63.6202 107.792 64.7398C107.707 64.8132 107.584 64.8009 107.511 64.7153C107.444 64.6358 107.45 64.5134 107.529 64.44C108.747 63.3449 109.707 61.944 110.344 60.433C110.405 60.2433 110.704 60.3473 110.637 60.537Z" fill="#202538"/>
<path d="M110.79 69.1325C109.175 70.6435 107.444 72.3014 105.229 72.8336C104.978 72.8825 104.905 72.491 105.156 72.4421C107.266 71.8731 108.961 70.2948 110.588 68.8939C110.735 68.7532 110.949 68.9979 110.79 69.1263V69.1325Z" fill="#202538"/>
<path d="M108.227 77.4827C106.587 78.9876 104.587 80.3886 102.262 80.3947C102.152 80.3947 102.066 80.3029 102.066 80.1928C102.066 80.0827 102.158 79.997 102.262 79.997C104.452 79.942 106.391 78.6206 108.013 77.2564C108.159 77.1279 108.367 77.3481 108.221 77.4827H108.227Z" fill="#202538"/>
<path d="M105.327 86.9038C104.183 87.6196 103.027 88.0478 101.791 88.5311C100.549 88.9471 99.3135 89.412 97.9615 89.3019C97.8513 89.2897 97.7718 89.1918 97.7841 89.0817C97.7963 88.9716 97.8942 88.8982 97.9982 88.9043C100.47 88.8737 102.972 87.7052 105.162 86.6408C105.327 86.5368 105.486 86.7937 105.321 86.8977L105.327 86.9038Z" fill="#202538"/>
<path d="M100.525 95.6215C98.1695 96.7166 95.5878 97.781 92.9144 97.4935C92.8043 97.4813 92.7248 97.3834 92.737 97.2733C92.7493 97.1631 92.8471 97.0897 92.9511 97.0959C95.5695 97.3283 98.0532 96.3128 100.445 95.3156C100.653 95.2422 100.739 95.5603 100.525 95.6154V95.6215Z" fill="#202538"/>
<path d="M86.8519 88.6046C87.274 91.0577 87.8491 93.6638 89.3296 95.6949C89.403 95.7805 89.3846 95.909 89.299 95.9824C89.2133 96.0497 89.091 96.0313 89.0237 95.9457C88.1917 94.9057 87.7084 93.6699 87.323 92.4342C87.2251 92.1773 86.0505 87.6074 86.858 88.5985L86.8519 88.6046Z" fill="#202538"/>
<path d="M92.5413 81.7469C92.8105 83.9309 93.2265 86.3412 94.6702 88.0602C94.8538 88.2438 94.5601 88.5252 94.3827 88.3355C93.5568 87.4424 93.1164 86.3167 92.7921 85.2033C92.682 84.9525 91.8011 80.7558 92.5413 81.7469Z" fill="#202538"/>
<path d="M96.6278 73.0353C96.5789 75.2682 97.2396 77.6296 98.8485 79.2385C99.0443 79.4159 98.7568 79.7157 98.5732 79.5261C96.842 77.8682 96.169 75.36 96.322 73.0169C96.3342 72.815 96.6462 72.8395 96.6278 73.0414V73.0353Z" fill="#202538"/>
<path d="M100.433 66.2571C100.849 68.282 101.393 70.5516 102.721 72.1912C102.898 72.3747 102.617 72.65 102.433 72.4665C101.289 71.194 100.837 69.5117 100.415 67.8966C100.286 67.346 100.164 66.8505 100.121 66.2265C100.115 66.1409 100.176 66.0674 100.262 66.0613C100.372 66.0552 100.433 66.147 100.433 66.2449V66.2571Z" fill="#202538"/>
<path d="M106.887 63.3635C104.844 70.9921 101.736 78.2598 98.1758 85.3012C94.5725 92.3242 90.0027 98.7844 85.2921 105.092C85.2248 105.177 85.1025 105.196 85.0168 105.128C84.9312 105.061 84.9128 104.939 84.9801 104.847C92.1683 95.4748 98.3471 85.3807 102.795 74.4241C104.281 70.7902 105.511 67.0524 106.594 63.2717C106.618 63.1922 106.704 63.1432 106.783 63.1677C106.863 63.1922 106.912 63.2778 106.887 63.3574V63.3635Z" fill="#202538"/>
<g opacity="0.5">
<path d="M63.336 119.009C48.4702 121.744 15.6676 119.829 12.1928 100.191C10.4676 90.4398 17.717 85.4601 21.7669 77.8865C24.5504 72.6866 22.7763 68.9976 20.5739 64.0363C15.845 53.3855 14.2667 42.3065 23.6939 33.956C33.9776 24.8408 52.1408 17.5241 65.8197 23.5255C75.8465 27.924 83.2671 36.8313 85.2492 46.7234C87.0233 55.6123 82.2822 64.8132 85.0718 73.5675C88.0083 82.7806 94.9395 91.0149 90.8774 101.115C86.6869 111.539 74.2131 117.015 63.3299 119.015L63.336 119.009Z" fill="#CFD1DD"/>
</g>
<mask id="mask0_4456_8766" style="mask-type:luminance" maskUnits="userSpaceOnUse" x="10" y="0" width="99" height="120">
<path d="M63.3361 119.009C48.4703 121.744 15.6677 119.829 12.1929 100.191C10.7675 92.1162 15.4903 87.3139 19.4545 81.6C20.574 79.9911 14.3463 71.5427 13.5143 70.0867C12.4559 68.2392 7.97785 50.6878 11.0734 45.2859C14.3402 39.5721 12.878 30.6832 12.8842 24.4065C12.8842 18.3868 13.4409 9.67533 18.7081 5.79677C24.8318 1.28198 33.6779 0.205278 41.0986 0.0156322C64.9511 -0.614481 82.3557 17.9219 97.1358 34.4027C100.935 38.6422 106.759 44.2337 107.927 50.0882C109.701 58.9771 104.324 65.7004 92.9881 73.066C91.4403 74.0754 86.3382 77.0608 87.0907 78.7676C90.2596 85.9986 94.1627 92.9482 90.8775 101.115C86.6869 111.54 74.2132 117.015 63.3299 119.015L63.3361 119.009Z" fill="white"/>
</mask>
<g mask="url(#mask0_4456_8766)">
<path d="M102.96 53.5815L98.8245 53.814L82.9615 54.701C82.2274 54.7438 81.5545 55.1048 81.114 55.686L77.6453 60.2742C77.2049 60.8615 76.5258 61.2224 75.7978 61.2591L67.5513 61.7179H67.4106L63.0365 61.9687C62.18 62.0177 61.4031 61.6262 60.9137 60.9899C60.8709 60.9349 60.8342 60.8798 60.7975 60.8186C60.5956 60.5005 60.461 60.1396 60.4182 59.7419C60.4182 59.6991 60.412 59.6563 60.412 59.6135L60.2775 57.2521L60.0572 53.3062C59.9838 51.9665 60.981 50.8102 62.3085 50.6879H62.3636L62.4064 50.6818L62.596 50.6695L64.7617 50.5472L66.5358 50.4493C66.5358 50.4493 66.548 50.4493 66.5541 50.4493L98.5431 48.6691L102.679 48.4366C104.055 48.3571 105.23 49.4093 105.303 50.7858L105.315 50.9448C105.321 51.0855 105.315 51.2262 105.303 51.3608C105.168 52.5476 104.196 53.502 102.966 53.5693L102.96 53.5815Z" fill="#202538"/>
<path d="M72.7942 52.7005C72.8309 53.3551 72.3292 53.9118 71.6747 53.9485C71.0201 53.9852 70.4634 53.4836 70.4267 52.829C70.39 52.1744 70.8916 51.6177 71.5462 51.581C72.2008 51.5443 72.7575 52.0459 72.7942 52.7005Z" fill="white"/>
<path d="M73.0267 56.8421C73.0634 57.4967 72.5618 58.0534 71.9072 58.0901C71.2526 58.1268 70.6959 57.6252 70.6592 56.9706C70.6225 56.316 71.1241 55.7593 71.7787 55.7226C72.4333 55.6859 72.99 56.1875 73.0267 56.8421Z" fill="white"/>
<g style="mix-blend-mode:multiply" opacity="0.25">
<path d="M98.7145 51.7401L81.5301 52.7005C80.8021 52.7372 80.1231 53.0982 79.6826 53.6855L76.2139 58.2737C75.7735 58.861 75.0944 59.2219 74.3664 59.2586L68.3773 59.5951H68.2672V59.6012L61.6051 59.9744C61.446 59.9805 61.2931 59.9744 61.1401 59.956C61.1218 59.956 61.1096 59.956 61.0912 59.9499C60.8587 59.9132 60.6324 59.8459 60.4244 59.7541C60.4672 60.1457 60.6018 60.5127 60.8037 60.8308C60.8404 60.8859 60.8832 60.941 60.9199 61.0021C61.4032 61.6384 62.1863 62.0238 63.0427 61.9809L67.4168 61.7362H67.5575L75.804 61.2713C76.5382 61.2346 77.2111 60.8737 77.6516 60.2864L81.1202 55.6982C81.5607 55.1109 82.2398 54.7499 82.9678 54.7132L98.8307 53.8262L102.966 53.5937C104.196 53.5264 105.175 52.5721 105.303 51.3853L98.7145 51.7523V51.7401Z" fill="#6E7289"/>
</g>
<path d="M75.7916 42.6307C75.9384 45.2429 74.5008 47.4453 72.586 47.5493C70.6711 47.6533 68.9949 45.6284 68.8542 43.0161C68.7074 40.4039 70.145 38.2016 72.0598 38.0976C73.9746 37.9936 75.6509 40.0185 75.7916 42.6307Z" fill="#202538"/>
<path d="M88.3695 46.0078L88.2349 70.1662C88.2287 71.61 86.9379 72.8458 85.3474 72.9314L62.7122 74.1916C61.1278 74.2773 59.7085 73.2006 59.5372 71.7629L56.7231 47.7697C56.5151 45.9956 57.7998 44.4662 59.5861 44.3683L85.1455 42.9429C86.9379 42.845 88.3756 44.2215 88.3695 46.0078Z" fill="#3D4357"/>
<path d="M88.3695 46.0078L88.3511 49.2685L57.1024 51.0059L56.7231 47.7636C56.5151 45.9895 57.7998 44.4601 59.5861 44.3622L85.1455 42.9368C86.9379 42.8389 88.3756 44.2154 88.3695 46.0017V46.0078Z" fill="#202538"/>
<g style="mix-blend-mode:multiply" opacity="0.25">
<path d="M88.3695 46.0078L88.2349 70.1663C88.2288 71.61 86.938 72.8458 85.3474 72.9314L62.7123 74.1916C61.1278 74.2773 59.7085 73.2006 59.5372 71.7629L59.3537 70.1785C73.5098 68.2147 78.0858 57.9494 79.5969 49.7518C80.0618 47.2436 80.2331 44.9556 80.282 43.206L85.1455 42.9368C86.938 42.8389 88.3756 44.2154 88.3695 46.0017V46.0078Z" fill="#6E7289"/>
</g>
<path d="M71.7602 39.1007C73.0632 39.6819 73.8891 41.0155 74.0788 42.3981C74.0971 42.5082 74.0237 42.6061 73.9136 42.6245C73.8035 42.6428 73.7056 42.5694 73.6872 42.4593C73.4731 41.2113 72.7757 39.9939 71.644 39.3821C71.4604 39.3087 71.5767 39.0151 71.7663 39.0946L71.7602 39.1007Z" fill="white"/>
<path d="M58.968 121.163C64.0701 133.685 68.2361 146.587 71.4234 159.771C74.6046 172.948 76.8069 186.413 77.7184 200.006C77.8958 202.661 78.0182 205.323 78.0732 207.99C78.0977 209.103 78.1161 210.217 78.1222 211.33C78.1344 213.691 78.0855 215.802 78.0121 217.607C78.0121 217.607 78.0794 219.124 77.1372 219.766C77.0638 219.815 76.9904 219.852 76.9109 219.895C76.6784 219.999 76.397 220.054 76.0667 220.042C76.0667 220.042 66.6089 220.152 66.5722 220.152C65.4282 220.164 64.694 218.922 64.6145 217.943C64.4249 216.022 64.1985 214.101 63.9538 212.18C63.8131 211.159 63.6724 210.137 63.5378 209.115C61.8555 197.724 59.4757 186.413 56.1049 175.365C52.4527 163.417 46.8735 152.161 41.025 141.247C39.7526 138.873 38.0458 135.876 36.4185 132.639C34.7912 129.397 33.2373 125.916 32.3013 122.509C31.3715 119.101 31.0595 115.761 31.9465 112.739C32.3931 111.228 33.1394 109.796 34.2651 108.463C35.3907 107.135 36.8895 105.899 38.8166 104.755C39.2876 104.443 39.7832 104.211 40.2665 104.021C40.7559 103.844 41.2392 103.703 41.7102 103.593C42.6523 103.379 43.5638 103.318 44.4448 103.385C46.2005 103.519 47.8156 104.18 49.2716 105.183C52.1835 107.19 54.4104 110.573 55.8786 113.877C56.9553 116.293 57.983 118.716 58.9802 121.163H58.968Z" fill="#202538"/>
<path d="M48.1336 161.869C47.1303 175.389 45.1115 188.884 41.8202 202.098C41.1779 204.68 40.4805 207.249 39.7158 209.806C39.4038 210.877 39.0734 211.942 38.7431 213.006C38.0334 215.257 37.3422 217.252 36.7182 218.946C36.7182 218.946 36.3205 220.414 35.2255 220.733C35.1398 220.757 35.0603 220.769 34.9685 220.781C34.7177 220.806 34.4302 220.775 34.1182 220.665C34.1182 220.665 25.0825 217.882 25.0396 217.869C23.9446 217.527 23.6265 216.126 23.8528 215.172C24.2627 213.281 24.6359 211.385 24.9846 209.482C25.162 208.467 25.3455 207.451 25.5229 206.436C27.4072 195.075 28.6001 183.58 28.7714 172.03C29.0895 131.721 14.6336 124.154 28.4349 101.653C30.5822 100.314 33.6777 99.3959 35.5069 99.2552C43.056 98.9799 46.5491 105.93 47.3506 113.411C47.632 116.036 49.3388 145.382 48.1336 161.863V161.869Z" fill="#202538"/>
<path d="M57.5917 119.389C51.4802 124.013 41.0436 117.468 34.0756 117.315C29.7321 117.217 25.3397 119.187 20.9962 118.208C17.4663 117.406 18.3289 115.651 19.3444 113.014C22.1524 105.734 22.8437 95.64 21.7915 87.785C20.5679 78.6759 14.2056 74.5587 14.5238 64.1221C14.8113 54.7255 28.2578 51.2935 35.6111 50.8714C42.2243 50.4921 48.2991 52.5843 52.4835 58.0779C58.0995 65.4496 58.2646 76.5775 57.4082 85.2217C56.5028 94.3737 56.3009 102.522 58.338 111.613C59.115 115.063 59.843 117.694 57.5917 119.401V119.389Z" fill="#B0B3C2"/>
<g style="mix-blend-mode:multiply" opacity="0.25">
<path d="M57.5915 119.388C51.48 124.013 41.0434 117.468 34.0754 117.315C29.7319 117.217 25.3395 119.187 20.996 118.208C17.4662 117.406 18.3287 115.651 19.3443 113.014C21.1612 108.303 22.0849 102.455 22.2379 96.8083C22.3113 97.0959 22.3725 97.3283 22.4031 97.4752C23.1616 100.846 24.2261 104.492 26.4651 107.221C29.3955 110.781 34.3079 110.102 38.3945 109.992C40.0891 109.943 42.4321 109.6 44.041 110.261C48.3233 112.029 49.3266 115.443 54.3064 113.711C54.6245 113.601 56.6127 112.531 58.3317 111.607C58.4419 112.096 58.5459 112.592 58.6499 113.081C59.1699 115.62 59.6226 117.847 57.5854 119.388H57.5915Z" fill="#6E7289"/>
</g>
<path d="M45.2096 65.8715C46.5738 68.4532 48.0604 71.1082 49.1738 73.8122C49.2656 74.0508 48.8924 74.1915 48.8006 73.9529C48.3418 72.7906 47.467 71.1205 46.9103 69.9703L44.9343 66.0123C44.8425 65.841 45.1178 65.6941 45.2096 65.8715Z" fill="#202538"/>
<path d="M30.9556 58.3042C29.4567 56.2915 25.2906 52.8779 27.4869 50.4859C32.1913 45.3715 29.2365 43.5302 34.7301 42.6431C35.9659 42.4473 37.2139 42.5024 38.468 42.5575C42.0223 42.6982 45.6867 45.0412 44.243 47.9838C41.6491 53.404 46.0354 55.539 46.2067 59.8152C46.427 65.3333 36.5715 65.89 30.9556 58.3103V58.3042Z" fill="#F0D0BB"/>
<path d="M44.5733 55.8326C40.9517 55.9978 36.9324 53.6119 35.1767 51.3729C33.2007 48.8402 35.5743 46.7051 36.8101 47.3903C37.3668 47.7023 41.3983 48.7423 43.9187 48.7729C43.203 50.9446 43.6251 53.7281 44.5733 55.8326Z" fill="#D99982"/>
<path d="M42.4628 30.5914C43.3009 31.662 46.4576 32.182 47.2834 35.6568C48.0787 39.0092 47.5098 40.2572 47.5098 43.0101C47.5098 46.7602 54.3493 45.3899 53.5601 40.869C53.2909 39.3212 52.2815 38.7033 53.2665 37.2474C54.3493 35.6384 54.7959 32.861 53.2603 31.3255C51.4924 29.5575 49.6571 29.9368 49.6999 28.5481C49.7611 26.358 50.0608 23.7642 47.5587 22.9872C45.3075 22.2898 43.5517 22.7853 41.9367 24.3576C40.9517 25.318 40.5663 28.1749 42.4689 30.6036L42.4628 30.5914Z" fill="#202538"/>
<path d="M50.8928 35.9016C51.2415 43.8422 47.9686 51.2201 40.6397 51.061C34.0938 50.9203 27.5602 44.8822 27.2115 36.9416C26.8628 29.0009 31.8976 22.5652 38.4251 22.0452C45.234 21.5068 50.5686 28.3402 50.8989 35.9077L50.8928 35.9016Z" fill="#F0D0BB"/>
<mask id="mask1_4456_8766" style="mask-type:luminance" maskUnits="userSpaceOnUse" x="27" y="22" width="24" height="30">
<path d="M50.8928 35.9016C51.2415 43.8422 47.9686 51.2201 40.6397 51.061C34.0938 50.9203 27.5602 44.8822 27.2115 36.9416C26.8628 29.0009 31.8976 22.5652 38.4251 22.0452C45.234 21.5068 50.5686 28.3402 50.8989 35.9077L50.8928 35.9016Z" fill="white"/>
</mask>
<g mask="url(#mask1_4456_8766)">
<path d="M46.2313 33.7603C46.2803 32.5062 49.3758 32.9222 49.1922 34.1885C49.0332 35.2591 46.1946 34.788 46.2313 33.7603Z" fill="#202538"/>
<path d="M37.7401 33.9501C37.4954 32.7144 40.6032 32.4024 40.7194 33.6748C40.8173 34.7515 37.942 34.9534 37.7401 33.9501Z" fill="#202538"/>
<path d="M48.4275 37.5287C48.3174 37.9325 48.0421 38.165 47.7118 38.1405C46.9838 38.0793 46.7758 37.0454 47.1306 36.5193C47.4732 36.0116 48.244 36.1951 48.4153 36.7518C48.4887 36.9965 48.4948 37.284 48.4275 37.5349V37.5287Z" fill="#202538"/>
<path d="M40.0832 37.0638C39.9547 37.4614 39.6733 37.6878 39.3429 37.645C38.6211 37.5532 38.4498 36.5132 38.8291 35.9993C39.19 35.5038 39.9547 35.724 40.1015 36.2807C40.1688 36.5316 40.1627 36.8191 40.0832 37.0638Z" fill="#202538"/>
<path d="M45.0873 44.8391C44.8181 45.1205 44.5 45.3163 44.1635 45.4325C42.94 45.8791 41.4595 45.3591 40.805 44.3497C40.7866 44.3191 40.7621 44.2885 40.7499 44.2518C40.5847 43.9643 40.4685 43.6462 40.4379 43.3097C40.4012 42.9733 40.4379 42.4655 40.7254 42.2636C41.013 42.0678 41.3861 42.0373 41.6553 42.2575C41.7899 42.3615 41.9306 42.4838 42.0652 42.6123C42.5791 43.1017 43.2031 43.3464 43.9494 43.3587C44.188 43.3587 44.4511 43.3648 44.6896 43.4198C45.3626 43.5728 45.5767 44.3252 45.0873 44.833V44.8391Z" fill="#202538"/>
<path d="M44.1635 45.4386C42.94 45.8852 41.4596 45.3652 40.805 44.3558C40.7866 44.3252 40.7622 44.2946 40.7499 44.2579C40.8172 44.1478 41.1047 44.0805 41.1843 44.056C41.3861 44.001 41.5941 43.9643 41.8021 43.9582C42.677 43.9215 43.8882 44.3619 44.1635 45.4386Z" fill="#D46966"/>
<path opacity="0.75" d="M34.2348 41.6275C34.2103 40.7955 35.238 39.9207 36.5962 39.9146C37.8197 39.9085 38.8719 40.5386 38.927 41.6703C38.9698 42.5513 37.8747 43.4445 36.7369 43.4506C35.4155 43.4567 34.2225 42.8205 34.2348 41.6275Z" fill="#D99982"/>
<path opacity="0.75" d="M51.3212 41.5297C51.4069 40.7038 50.4525 39.7495 49.1005 39.6394C47.877 39.5354 46.7819 40.086 46.6412 41.2116C46.5311 42.0864 47.5528 43.0591 48.6845 43.157C49.9998 43.2671 51.2417 42.7227 51.3212 41.5358V41.5297Z" fill="#D99982"/>
<path d="M43.7721 35.2652C44.1819 36.6539 44.6897 38.0181 44.757 39.468C44.7264 40.5324 43.509 40.875 42.6403 40.9301C42.4323 40.9423 42.4017 40.6242 42.6097 40.5936C42.7504 40.5753 42.8789 40.5508 42.9951 40.508C43.3377 40.3917 43.821 40.3 44.0718 40.0553C44.4266 39.7494 44.3838 39.1743 44.2737 38.6482C44.0596 37.547 43.8088 36.4275 43.5212 35.3447C43.4662 35.1856 43.717 35.1 43.7721 35.2591V35.2652Z" fill="#202538"/>
</g>
<path d="M31.2676 38.9543C31.4878 39.2357 31.861 39.67 32.0996 39.9576C32.2709 40.135 31.9956 40.4103 31.8182 40.239C31.4634 39.8903 31.2187 39.5416 30.9923 39.095C30.9556 39.0155 30.9923 38.9237 31.0718 38.8931C31.1452 38.8625 31.2248 38.8931 31.2676 38.9543Z" fill="#202538"/>
<path d="M89.0238 54.8356C87.8187 53.973 85.5123 53.612 84.405 54.4807C83.6832 55.0436 83.7566 55.7104 84.7293 56.3283C84.9923 56.4934 84.6191 56.5424 84.4662 56.5913C83.8973 56.7687 83.31 57.0318 83.2672 57.7108C83.2427 58.0962 83.4323 58.4633 83.7199 58.708C83.934 58.8854 84.4295 58.9405 84.5151 59.228C84.5213 59.2525 83.8667 59.54 83.7994 59.5706C83.5547 59.6929 83.2916 59.8459 83.1203 60.0661C82.7655 60.5311 82.9001 61.1673 83.31 61.5466C83.7504 61.9565 84.038 61.9259 84.2949 62.1033C84.1359 62.2929 83.9584 62.3296 83.7199 62.5254C82.4963 63.5226 83.8239 64.5136 84.8271 64.7461C86.277 65.0825 88.3264 64.9418 89.4276 63.8284C90.2351 63.0148 90.6511 61.8708 90.8285 60.7574C91.1344 58.8793 90.9325 55.8694 89.0177 54.8356H89.0238Z" fill="#F0D0BB"/>
<path d="M84.8331 56.3466C85.7813 56.42 86.7357 56.4628 87.6655 56.6586C87.7573 56.6769 87.8124 56.7687 87.794 56.8604C87.7756 56.94 87.7022 56.995 87.6288 56.9889C87.1517 56.9828 86.6806 56.9094 86.2095 56.836C85.7385 56.7626 85.2674 56.6953 84.8025 56.6035C84.6495 56.5729 84.6801 56.3343 84.8331 56.3404V56.3466Z" fill="#202538"/>
<path d="M84.4966 59.0077C85.4448 59.0811 86.3992 59.1239 87.329 59.3197C87.4208 59.3381 87.4759 59.4298 87.4575 59.5216C87.4392 59.6011 87.3657 59.6562 87.2923 59.65C86.8152 59.6439 86.3441 59.5705 85.873 59.4971C85.402 59.4237 84.9309 59.3564 84.466 59.2646C84.3131 59.234 84.3436 58.9955 84.4966 59.0016V59.0077Z" fill="#202538"/>
<path d="M84.411 61.9869C85.3592 62.0604 86.3136 62.1032 87.2435 62.2989C87.3352 62.3173 87.3903 62.4091 87.3719 62.5008C87.3536 62.5804 87.2802 62.6354 87.2067 62.6293C86.7296 62.6232 86.2585 62.5498 85.7875 62.4764C85.3164 62.4029 84.8454 62.3356 84.3804 62.2439C84.2275 62.2133 84.2581 61.9747 84.411 61.9808V61.9869Z" fill="#202538"/>
<path d="M37.948 82.1079L38.101 82.3342C38.1744 82.4382 38.2417 82.5484 38.3151 82.6524C38.5415 82.9766 38.7617 83.2886 38.9819 83.5945L39.3062 84.0288L39.3857 84.1328L39.4285 84.1818C39.4285 84.1818 39.4285 84.1818 39.4285 84.1879C39.4285 84.2001 39.4285 84.2001 39.4285 84.2062C39.4285 84.2429 39.4285 84.2919 39.453 84.3469C39.4836 84.4693 39.5998 84.5488 39.7527 84.5611C39.7894 84.5611 39.8323 84.5611 39.8751 84.5611C39.8934 84.5611 39.9302 84.5427 39.9607 84.5366C39.973 84.5366 39.973 84.5366 39.9913 84.5243L40.0892 84.4509L40.2911 84.3102C40.8294 83.9187 41.3984 83.4477 41.9673 82.9277C43.1113 81.8815 44.2737 80.658 45.4054 79.3672C47.155 77.3606 48.8068 75.2195 50.4463 73.0233C52.0858 70.8209 53.7254 68.539 55.4566 66.1715C56.0317 65.3885 56.6312 64.5748 57.2369 63.749C57.5733 63.2963 57.9098 62.8374 58.2524 62.3725C58.2524 62.3725 58.2585 62.3603 58.2646 62.3542C59.2373 61.045 60.6994 60.2313 62.1432 60.5923C62.3512 60.6473 62.5531 60.7208 62.7549 60.8248C62.8161 60.8553 62.8712 60.8859 62.9323 60.9226C62.9752 60.941 63.0119 60.9655 63.0486 60.9899C63.5686 61.308 63.9112 61.6996 64.1069 62.14C64.1069 62.14 64.1069 62.1462 64.1069 62.1584C64.5902 63.229 64.2476 64.5871 63.7827 65.8901V65.8962C63.6848 66.1654 63.5931 66.4224 63.4952 66.6854C63.4829 66.7099 63.4768 66.7282 63.4707 66.7527C63.0731 67.8111 62.6632 68.8694 62.2349 69.9216C60.4975 74.2101 58.5277 78.4434 56.1418 82.5912C54.9428 84.6651 53.6397 86.7206 52.1287 88.7455C51.3701 89.761 50.5503 90.7643 49.6327 91.7615C49.1739 92.2631 48.6844 92.7586 48.1644 93.2481L47.7546 93.6151L47.5527 93.7986L47.4487 93.8904L47.3019 94.0127C46.8981 94.337 46.5066 94.6612 46.0661 94.9549C43.5762 96.7718 40.5725 97.9097 37.5688 97.5916C34.565 97.2 31.9711 95.2118 29.8116 92.8076L29.4262 92.3732L29.1326 92.0368C28.9429 91.8165 28.7472 91.5902 28.5759 91.3699C26.6733 89.0391 25.1623 86.745 23.7307 84.4387C22.3115 82.1324 21.0023 79.826 19.7665 77.5136C17.8762 73.9776 15.8329 70.3132 15.2946 66.3489C15.0193 64.3118 15.6188 62.189 16.8178 60.6657C16.8178 60.6535 16.8301 60.6473 16.8362 60.6412C17.3868 59.9438 18.0597 59.3749 18.8244 58.9956H18.8305C19.0936 58.861 19.3689 58.757 19.6625 58.6714L19.687 58.6591C20.0846 58.5429 20.5006 58.4695 20.935 58.4572C21.4978 58.4328 22.0851 58.5062 22.6969 58.6714C25.4498 59.4422 27.0771 62.0422 28.2884 64.4525C29.83 67.5358 31.39 70.6007 32.9928 73.5922C34.5895 76.5715 36.2412 79.5202 37.9419 82.0895L37.948 82.1079Z" fill="#F0D0BB"/>
<path d="M37.9481 82.1076C36.853 83.478 35.5439 85.038 34.0083 86.653C32.4728 88.2619 30.7109 89.9321 28.5943 91.3758C26.6917 89.045 25.1806 86.7509 23.7491 84.4446C22.3298 82.1382 21.0207 79.8319 19.7849 77.5194C17.8946 73.9835 15.8513 70.319 15.3129 66.3548C15.0376 64.3176 15.6372 62.1948 16.8362 60.6716C16.8362 60.6593 16.8485 60.6532 16.8546 60.6471C17.5459 59.8885 18.3779 59.2523 19.3138 58.8057H19.32C19.4423 58.7629 19.5586 58.72 19.6809 58.6772L19.7054 58.665C20.103 58.5487 20.519 58.4753 20.9534 58.4631C21.5162 58.4386 22.1035 58.512 22.7152 58.6772C25.4682 59.448 27.0954 62.048 28.3067 64.4584C29.8484 67.5416 31.4084 70.6065 33.0112 73.598C34.6079 76.5773 36.2596 79.526 37.9603 82.0954L37.9481 82.1076Z" fill="#D17E64"/>
<path d="M67.2391 53.9912C67.7591 53.5018 68.3036 53.6853 68.3831 54.3888C68.5422 55.7286 67.3737 57.625 67.233 58.145C67.2819 58.1145 67.337 58.0961 67.3676 58.0533C67.5633 57.778 67.7591 57.5027 67.9365 57.209C68.4504 56.3771 68.9826 56.4382 69.2029 56.9888C69.6189 58.0227 68.8725 60.4942 67.3553 62.8128C65.8382 65.1375 63.5441 67.2909 61.0114 67.7374C59.7756 67.9577 58.1851 66.9605 57.7262 65.633C56.9004 63.2288 57.1084 59.2034 57.6651 57.0316C58.0749 55.4533 59.0721 55.1964 59.6166 55.9794C60.1305 56.7258 60.369 57.9432 60.4608 58.2001C61.1337 59.9926 62.7671 55.9427 63.8867 53.5568C64.5963 52.0519 65.7892 51.6726 66.1135 52.7921C66.4561 54.0157 65.8198 55.7286 66.1379 55.3371C66.3092 55.1229 66.9638 54.2542 67.233 53.9973L67.2391 53.9912Z" fill="#F0D0BB"/>
<path d="M57.8423 65.645C58.6988 66.7217 60.1119 67.2907 61.47 67.1194C61.7209 67.0949 61.7576 67.4864 61.5068 67.517C60.0079 67.7556 58.4418 67.0704 57.5854 65.8224C57.4691 65.6573 57.7322 65.4799 57.8423 65.6511V65.645Z" fill="#202538"/>
<path d="M64.5778 57.2274C64.9877 56.5912 65.3854 55.9427 65.7218 55.282C65.7708 55.1841 65.8931 55.1413 65.991 55.1903C66.0828 55.2392 66.1256 55.3493 66.0889 55.4411C65.7769 56.163 65.3364 56.8053 64.8348 57.4109C64.7124 57.5578 64.48 57.3804 64.5901 57.2213L64.5778 57.2274Z" fill="#202538"/>
<path d="M66.0032 59.7171C66.4008 59.0503 66.8046 58.3713 67.1472 57.68C67.1961 57.5821 67.3184 57.5393 67.4163 57.5882C67.5081 57.6371 67.5509 57.7473 67.5081 57.8451C67.1839 58.5915 66.7434 59.2583 66.2601 59.8884C66.1439 60.0414 65.8992 59.8701 66.0093 59.711L66.0032 59.7171Z" fill="#202538"/>
<path d="M40.3583 93.6457C39.4774 91.9144 39.2878 89.7916 40.0402 87.9808C40.0769 87.8951 40.1748 87.8523 40.2605 87.8829C40.34 87.9135 40.3828 88.0053 40.3583 88.0848C39.7955 89.8528 39.8383 91.8226 40.5969 93.5233C40.6703 93.6702 40.4379 93.7864 40.3645 93.6396L40.3583 93.6457Z" fill="#D17E64"/>
<path d="M22.0423 57.2702C24.8992 57.9981 27.5053 60.8367 29.1204 63.2287C31.3716 66.5689 33.3966 69.9825 35.2135 73.5919C39.6488 82.4074 46.1579 90.1523 45.332 95.3706C44.8243 98.5885 39.3245 99.8793 36.5043 99.1268C33.8187 98.4049 31.8794 95.5235 30.0808 93.5537C26.031 89.1062 22.7886 84.0163 19.5769 78.9509C17.3073 75.3783 15.1355 71.1632 14.4993 66.8687C13.8325 62.4089 16.2673 55.7958 22.0423 57.2702Z" fill="#B0B3C2"/>
<path d="M39.392 83.7535C41.527 81.4044 43.7905 79.2143 44.6837 78.4312C45.5768 77.6543 46.0601 77.6053 47.0573 78.2844C49.59 80.0034 52.8629 82.9093 54.6309 85.5704C55.0347 86.1822 55.0653 86.7879 54.6309 87.4057C52.4408 90.5012 51.8352 90.8928 48.1891 94.4716C45.3994 97.2061 40.7256 100.522 37.159 98.4541C30.8762 94.8264 34.6692 88.9596 39.3981 83.7535H39.392Z" fill="#B0B3C2"/>
<path d="M44.6468 80.7188C47.6628 82.5235 50.6849 84.579 52.5263 87.6623C52.5814 87.7602 52.5447 87.8764 52.4529 87.9314C52.3611 87.9865 52.2388 87.9498 52.1837 87.858C50.3913 84.9032 47.3936 82.7988 44.5 80.9818C44.3226 80.8901 44.4755 80.6087 44.6529 80.7127L44.6468 80.7188Z" fill="#202538"/>
<path d="M45.5277 77.9538C42.8299 80.3519 40.0647 82.7745 37.7584 85.5518C37.6911 85.6375 37.5626 85.6558 37.477 85.5886C37.3913 85.5213 37.3791 85.3989 37.4464 85.3133C38.5904 83.8756 39.8934 82.5909 41.2209 81.3307C42.5607 80.0888 43.931 78.8898 45.3259 77.7152C45.4727 77.5867 45.6807 77.8192 45.5277 77.9538Z" fill="#202538"/>
<path d="M30.087 64.4095C32.5768 68.6857 37.5443 77.3115 39.9914 81.6122C40.1198 81.8263 39.7711 82.0404 39.6488 81.8079C37.1773 77.5195 32.2465 68.8692 29.8239 64.5624C29.726 64.3972 29.9952 64.232 30.0931 64.4095H30.087Z" fill="#202538"/>
<path d="M23.5839 84.8547C25.982 88.9413 28.8757 92.826 32.2098 96.2029C35.8925 99.9591 40.6949 100.387 44.8671 97.1266C47.3998 95.2363 49.443 92.7525 51.4313 90.281C51.4986 90.1954 51.627 90.1831 51.7127 90.2504C51.7983 90.3177 51.8106 90.4462 51.7433 90.5319C49.7489 93.0156 47.6995 95.5177 45.1057 97.4509C38.4314 102.431 33.0785 98.6193 28.7166 92.9238C26.7345 90.4156 24.8686 87.8095 23.3086 85.0077C23.2169 84.8364 23.486 84.6773 23.5839 84.8608V84.8547Z" fill="#202538"/>
<path d="M43.4539 52.8105C43.3744 51.7093 43.3254 51.3606 44.8671 51.6298C46.3598 51.8929 47.7852 52.1743 48.8374 53.1103C49.6021 53.7893 48.3663 65.8777 42.9033 65.3149C37.4525 64.7582 29.5975 59.0627 25.254 55.7592C24.7034 55.3432 24.2018 54.866 23.7063 54.3766C23.3698 54.0463 23.4004 53.7465 23.7736 53.4528C24.9543 52.523 26.5387 51.8623 27.9825 51.5319C29.3283 51.226 30.4112 50.9997 31.5857 51.9602C33.8126 53.7954 33.7881 54.0463 34.8954 55.0679C41.5697 61.2344 39.2022 58.9587 42.5974 62.5803C43.0318 63.0391 43.2826 63.4307 43.4478 63.0391C43.5824 62.7149 43.6619 61.2039 43.668 60.8857C43.7047 57.6128 43.876 58.6528 43.46 52.7983L43.4539 52.8105Z" fill="#3D4357"/>
<path d="M28.8633 51.6236C29.5118 50.1126 29.1081 47.011 30.7782 47.4698C33.5311 48.2222 34.0878 45.61 32.9927 43.6585C32.2831 42.386 28.6921 41.0708 28.6859 39.315C28.6859 38.2261 29.9462 37.2962 30.9372 37.235C33.1579 37.0943 34.981 37.6082 35.9781 34.3659C38.156 27.2572 39.5508 30.4384 42.2548 28.548C45.7296 26.1132 45.9009 21.6841 42.683 18.766C42.0101 18.1542 41.3371 17.5363 40.4868 17.1509C38.0703 16.062 36.5777 16.9613 34.8586 17.8239C32.8276 18.8455 31.3899 18.2276 30.148 18.0441C28.1292 17.7504 30.8822 21.3292 31.1269 22.5161C32.9132 31.1358 26.4224 26.6944 24.5443 31.4722C24.0121 32.8303 25.1867 35.0633 21.6996 35.6444C18.9345 36.1094 17.5947 39.8595 19.4178 42.5084C20.1641 43.5912 21.3265 44.4783 21.1552 45.9526C21.0206 47.0905 20.2681 48.0509 20.1152 49.2011C19.7053 52.3639 22.4276 54.7558 25.2845 54.3643C26.8262 54.1502 28.2455 53.0857 28.8695 51.6297L28.8633 51.6236Z" fill="#202538"/>
<path d="M42.4077 18.8762C43.4844 20.8094 44.6529 22.8832 44.6223 25.1651C44.6162 25.2752 44.5183 25.3547 44.4082 25.3486C44.298 25.3425 44.2185 25.2446 44.2246 25.1406C44.2002 22.9689 43.0929 20.9378 42.1385 19.0353C42.0468 18.864 42.3098 18.711 42.4077 18.8823V18.8762Z" fill="#202538"/>
<path d="M26.3 32.3531C26.6732 34.1028 25.7433 35.8952 24.3118 36.8802C23.4003 37.5225 22.3175 37.9263 21.5466 38.7216C19.5217 40.8138 22.3052 42.5022 23.0883 44.3987C23.3085 44.9432 23.4125 45.5549 23.3452 46.1422C23.2657 47.3535 22.4337 48.3078 22.4459 49.3417C22.4582 50.3756 23.18 51.3728 24.1405 51.7704C25.1071 52.1864 26.2939 52.0151 27.0892 51.3177C27.1687 51.2443 27.2972 51.2504 27.3706 51.3361C27.444 51.4156 27.4379 51.5441 27.3523 51.6175C26.453 52.4189 25.0826 52.6208 23.9876 52.1436C22.8864 51.6848 22.0605 50.5775 22.0422 49.3478C22.0361 48.73 22.2746 48.1671 22.4888 47.6533C22.9476 46.6622 23.1495 45.5733 22.7212 44.5516C21.7975 42.4778 19.0996 40.8688 21.3019 38.483C22.1095 37.6571 23.2106 37.2533 24.1283 36.611C25.468 35.7056 26.349 34.0416 26.0125 32.4204C25.9697 32.2308 26.2817 32.1574 26.3184 32.3592L26.3 32.3531Z" fill="#3D4357"/>
<path d="M58.0811 13.7862C58.1178 15.1932 57.7079 16.6614 56.7474 18.0134C53.9761 21.9165 51.523 21.6228 50.8072 23.0176C50.7216 23.1828 50.6604 23.3786 50.6237 23.6049C50.6237 23.6294 50.6176 23.6539 50.6176 23.6844C50.6115 23.7273 50.6053 23.7701 50.6053 23.819C50.5992 23.923 50.5931 24.0332 50.5992 24.1494C50.6543 25.8868 50.6053 27.6181 50.5686 29.3555C50.5503 30.3404 46.9225 30.7503 43.5273 30.9032C41.7899 30.9828 40.1075 30.9889 39.0186 30.9828C39.0186 30.9828 27.5236 30.7258 27.5236 29.1719C27.5236 27.3428 27.5114 25.5136 27.5848 23.6844C27.5848 23.5866 27.5848 23.5009 27.5848 23.4153C27.5848 23.3908 27.5848 23.3602 27.5848 23.3357C27.5664 23.1706 27.5359 23.0237 27.4808 22.8892C27.389 22.6506 27.2422 22.4548 27.0465 22.2835C26.1961 21.5127 24.4526 21.1273 22.5011 18.876C22.2686 18.6068 22.0361 18.3193 21.7975 17.9951C19.1425 14.3551 20.4761 10.0177 24.1345 7.79091C24.4342 7.60738 24.7462 7.44221 25.0705 7.28927C28.0069 5.91892 28.062 7.25868 30.0318 5.4234C34.6751 1.08602 41.6063 0.413079 46.7145 4.10199C48.7456 5.5641 50.7399 6.68974 53.1992 7.4728C56.1295 8.40267 58.0076 10.9782 58.0811 13.7862Z" fill="#B0B3C2"/>
<g style="mix-blend-mode:multiply" opacity="0.25">
<path d="M58.0808 13.7861C58.1175 15.1932 57.7077 16.6614 56.7472 18.0134C53.9759 21.9164 51.5227 21.6228 50.807 23.0176C50.4093 22.9748 50.0545 22.9564 49.7364 22.9748C46.6837 23.1828 41.9548 19.1513 41.5388 18.2153C41.5388 18.2153 40.6089 17.3344 40.6395 16.6431C40.6762 15.8661 41.7591 15.2911 43.2089 15.7254C44.4569 16.0986 45.4969 16.4412 46.5675 17.1692C48.0724 18.1969 49.4428 19.2798 51.2842 19.3654C53.0583 19.4449 54.6794 18.5701 55.8601 17.3772C56.8389 16.38 57.6893 15.1443 58.0747 13.78L58.0808 13.7861Z" fill="#6E7289"/>
</g>
<g style="mix-blend-mode:multiply" opacity="0.25">
<path d="M43.5272 30.9033C41.7898 30.9829 40.1074 30.989 39.0185 30.9829C39.0185 30.9829 27.5235 30.7259 27.5235 29.172C27.5235 27.3429 27.5113 25.5137 27.5847 23.6846C27.5847 23.5867 27.5847 23.501 27.5847 23.4154C27.5847 23.3909 27.5847 23.3603 27.5847 23.3359C27.5663 23.1707 27.5358 23.0239 27.4807 22.8893C27.3889 22.6507 27.2421 22.4549 27.0463 22.2836C26.196 21.5128 24.4525 21.1274 22.501 18.8761C22.2685 18.6069 22.036 18.3194 21.7974 17.9952C19.1424 14.3552 20.476 10.0178 24.1344 7.79102C24.7522 10.6785 26.9729 18.2888 33.0905 18.5091C34.1734 18.5519 36.443 18.4907 37.171 19.5491C37.3912 19.8794 37.4279 20.1914 37.33 20.485C37.1832 20.9194 36.7611 21.2987 36.2778 21.6046C36.1126 22.7547 35.8679 27.8017 43.5272 30.8972V30.9033Z" fill="#6E7289"/>
</g>
<path d="M28.4289 27.1775C35.4825 28.1074 42.6584 28.0891 49.712 27.1347C49.9628 27.098 50.024 27.4957 49.7671 27.5262C42.6829 28.5173 35.4641 28.4928 28.386 27.4834C28.1964 27.4589 28.227 27.1469 28.4289 27.1775Z" fill="#202538"/>
<path d="M27.8905 22.2041C30.9799 22.6813 34.8034 22.8526 37.122 20.4055C37.6787 19.8182 38.0825 19.1208 38.3822 18.3623C39.0307 16.7411 40.6335 15.542 42.3954 15.4809C43.2702 15.4442 44.145 15.7133 44.873 16.1783C44.9648 16.2395 44.9954 16.3618 44.9342 16.4536C44.873 16.5453 44.7507 16.5759 44.6589 16.5147C43.9921 16.0865 43.2029 15.8479 42.4076 15.8846C40.8048 15.9397 39.3488 17.0409 38.7615 18.5152C38.4556 19.2983 38.0213 20.0691 37.4156 20.6869C36.2288 21.9533 34.5159 22.5956 32.8458 22.7425C31.1696 22.926 29.4811 22.822 27.8355 22.5161C27.6458 22.4794 27.6887 22.1735 27.8905 22.2102V22.2041Z" fill="#202538"/>
<path d="M41.2575 17.5364C43.2824 20.485 46.6165 22.7669 50.2809 22.7791C50.5379 22.7853 50.5195 23.1951 50.2626 23.1768C46.4574 23.189 43.0316 20.8093 40.9944 17.7015C40.8843 17.5302 41.1535 17.359 41.2575 17.5364Z" fill="#202538"/>
<path d="M52.4283 9.3081C55.7808 11.4921 56.2396 14.9363 53.8537 18.0807C53.7008 18.3071 53.3643 18.0624 53.5356 17.8422C55.7563 14.9424 55.3403 11.6328 52.2693 9.57728C52.0918 9.47939 52.2509 9.19798 52.4283 9.3081Z" fill="#202538"/>
<path d="M34.3814 5.63765C32.7297 7.96234 30.0135 10.0729 27.0036 9.55903C26.8935 9.54068 26.8201 9.4428 26.8384 9.33268C26.8568 9.22868 26.9547 9.14915 27.0587 9.16751C29.9217 9.60797 32.4727 7.61363 34.1245 5.46635C34.2346 5.30118 34.4977 5.47859 34.3814 5.64377V5.63765Z" fill="#202538"/>
<path d="M93.4041 81.3003L21.0634 113.601L91.3608 146.233L93.4041 81.3003Z" fill="#5C363E"/>
<g style="mix-blend-mode:multiply" opacity="0.5">
<mask id="mask2_4456_8766" style="mask-type:luminance" maskUnits="userSpaceOnUse" x="21" y="81" width="73" height="66">
<path d="M93.4041 81.3003L21.0634 113.601L91.3608 146.233L93.4041 81.3003Z" fill="white"/>
</mask>
<g mask="url(#mask2_4456_8766)">
<path d="M62.0026 90.9845C61.6783 102.614 50.7401 109.288 39.8935 108.193C36.4065 107.887 32.9929 106.817 29.9463 105.086C29.8484 105.031 29.8178 104.908 29.8729 104.816C29.928 104.719 30.0503 104.688 30.1482 104.743C33.1397 106.438 36.4983 107.49 39.9302 107.79C48.3848 108.664 57.9344 104.517 60.7485 96.0315C61.3174 94.4165 61.6722 92.6974 61.6967 90.9906C61.6783 90.7948 62.0148 90.7704 62.0087 90.9906L62.0026 90.9845Z" fill="#5C363E"/>
<path d="M78.6607 82.5238C74.617 86.8183 73.7789 93.0644 77.8349 97.6649C81.5666 101.923 86.8889 104.364 92.1011 106.346C95.6371 107.643 99.2648 108.677 102.917 109.588C103.021 109.613 103.088 109.723 103.064 109.827C103.039 109.931 102.929 109.998 102.825 109.973C99.1608 109.056 95.5147 108.028 91.9604 106.725C85.4023 104.186 76.752 100.344 74.9963 92.8136C74.1827 89.0023 75.8589 85.0809 78.4344 82.3035C78.5812 82.1567 78.8014 82.377 78.6546 82.5238H78.6607Z" fill="#5C363E"/>
<path d="M83.922 82.4868C81.3465 88.3353 84.393 93.7371 89.7887 96.4717C91.4589 97.3587 93.2391 98.0317 95.056 98.5823C95.16 98.6128 95.2212 98.723 95.1906 98.827C95.16 98.931 95.0499 98.9921 94.9398 98.9615C93.1045 98.411 91.2998 97.7319 89.593 96.8265C86.2038 95.0708 83.1206 91.9936 82.7229 88.0233C82.5149 86.0901 82.8208 84.1202 83.6406 82.3461C83.7262 82.1626 84.0198 82.3033 83.9158 82.4868H83.922Z" fill="#5C363E"/>
<path d="M103.407 117.847C99.7237 114.256 94.7868 112.231 89.7887 111.264C77.1375 108.86 63.6605 113.252 54.3311 122.007C52.4591 123.756 50.734 125.659 49.1434 127.672C49.0761 127.757 48.9476 127.776 48.862 127.708C48.7763 127.641 48.758 127.513 48.8314 127.427C50.4281 125.396 52.1716 123.475 54.0558 121.713C63.4708 112.861 77.0825 108.432 89.8499 110.915C94.9092 111.906 99.895 113.98 103.621 117.633C103.682 117.694 103.682 117.792 103.621 117.853C103.559 117.914 103.462 117.914 103.4 117.853L103.407 117.847Z" fill="#5C363E"/>
<path d="M58.4727 128.908C65.7037 119.431 77.1742 119.064 87.0113 124.619C90.0946 126.314 92.9454 128.394 95.6249 130.651C95.7105 130.724 95.7167 130.847 95.6494 130.932C95.5759 131.018 95.4536 131.024 95.3679 130.957C92.7007 128.712 89.8682 126.656 86.8155 124.974C77.1375 119.535 65.8811 119.798 58.7235 129.079C58.6746 129.152 58.5706 129.177 58.4971 129.122C58.4298 129.073 58.4115 128.975 58.4666 128.908H58.4727Z" fill="#5C363E"/>
<path d="M68.6462 88.6841C70.9954 96.6308 69.05 105.819 61.8802 110.597C56.8209 114.146 50.5626 115.338 44.5184 115.865C42.6281 115.962 40.3156 116.079 38.4192 116.03C32.999 115.975 27.5971 115.418 22.2381 114.647C22.128 114.629 22.0546 114.531 22.0668 114.421C22.079 114.311 22.183 114.237 22.2931 114.256C27.6399 115.026 33.0234 115.577 38.4192 115.626C40.9947 115.663 43.9311 115.553 46.4944 115.247C54.2882 114.421 63.0364 111.717 67.0251 104.412C69.6189 99.6896 69.7902 93.8902 68.3465 88.7758C68.3159 88.6902 68.3648 88.5984 68.4505 88.574C68.53 88.5495 68.6157 88.5984 68.6401 88.678L68.6462 88.6841Z" fill="#5C363E"/>
</g>
</g>
<path d="M36.0944 110.597C35.1707 112.928 38.1683 115.485 39.7711 113.711C40.2727 113.154 40.548 112.586 41.7226 112.494C42.2242 112.457 42.677 112.488 43.2092 112.365C48.1155 111.264 50.2811 109.368 52.0797 110.597C52.3917 110.811 52.7282 110.86 53.1013 110.787C55.3404 110.334 55.2058 106.719 52.6425 106.199C51.8044 106.027 51.1376 106.162 49.3451 106.468C47.3508 106.81 36.8285 108.75 36.0944 110.603V110.597Z" fill="#963C4E"/>
<path d="M49.1005 109.404C49.4125 109.313 49.6389 108.927 49.5594 108.609C49.4737 108.279 49.1005 108.046 48.7824 108.132C48.4093 108.23 48.1829 108.615 48.2991 108.964C48.4031 109.282 48.7885 109.496 49.1005 109.41V109.404Z" fill="#202538"/>
<path d="M38.5477 110.713C37.7218 110.928 38.046 112.2 38.8719 111.986C39.6611 111.784 39.4041 110.493 38.5477 110.713Z" fill="#202538"/>
<path d="M43.4724 110.034C43.5642 110.371 43.9312 110.554 44.2738 110.457C44.6103 110.365 44.8305 110.004 44.7326 109.674C44.4757 108.817 43.2399 109.19 43.4724 110.028V110.034Z" fill="#202538"/>
<g style="mix-blend-mode:multiply" opacity="0.25">
<path d="M37.0244 109.759C36.3086 110.133 36.2108 110.285 36.0823 110.622C35.2686 112.726 37.7769 115.332 39.6121 113.87C39.71 113.791 39.7284 113.705 39.6733 113.589C39.3552 112.996 39.4898 111.601 40.0832 110.971C42.2916 108.634 47.0083 110.029 49.6878 107.312C49.8958 107.098 50.4954 106.346 50.1772 106.346C49.021 106.346 40.0404 108.187 37.0305 109.753L37.0244 109.759Z" fill="#B05F95"/>
</g>
<path d="M75.5467 106.052C76.1646 105.477 76.5072 104.749 75.6324 104.633C70.8851 104.003 59.2678 105.024 52.7403 105.948C51.1803 106.168 51.3394 106.058 51.3639 106.603C51.4617 108.444 52.0674 111.919 53.1991 113.35C53.3337 113.522 53.4867 113.595 53.713 113.577C61.3294 112.818 72.3044 109.056 75.5467 106.052Z" fill="#B0B3C2"/>
<g style="mix-blend-mode:multiply" opacity="0.25">
<path d="M61.409 112.163C75.192 108.389 76.8376 104.669 75.9322 105.195C72.5369 107.165 58.8886 111.172 52.6547 111.778C52.3672 111.809 52.3978 111.839 52.5568 112.212C52.7159 112.598 52.9055 112.965 53.1625 113.301C53.3154 113.503 53.4928 113.589 53.7559 113.57C55.0956 113.473 55.1079 113.479 57.3653 113.124C57.4754 113.106 58.8886 112.769 59.3963 112.677C60.1733 112.537 60.9135 112.255 61.409 112.17V112.163Z" fill="#6E7289"/>
</g>
<g style="mix-blend-mode:multiply" opacity="0.25">
<path d="M69.9064 109.251C70.1511 109.147 69.7595 108.756 69.5454 108.597C67.4777 107.043 65.5323 107.502 62.9874 107.997C61.9657 108.199 59.225 108.927 59.1822 108.939C56.7474 109.765 54.0434 108.835 54.2514 106.327C54.3187 105.526 54.4227 105.691 51.9634 106.046C51.315 106.137 51.3272 106.168 51.3455 106.407C51.5107 108.548 51.9328 111.619 53.2114 113.356C53.3277 113.515 53.4867 113.589 53.6947 113.57C54.5267 113.491 55.0589 113.528 57.0288 113.167C61.3601 112.377 66.4316 110.726 69.9064 109.251Z" fill="#6E7289"/>
</g>
<path d="M72.1393 105.458C68.1384 105.88 60.0937 106.682 56.0867 107.055C55.8359 107.086 55.787 106.682 56.05 106.657C60.0509 106.254 68.1078 105.495 72.1087 105.146C72.3045 105.128 72.3412 105.44 72.1393 105.452V105.458Z" fill="white"/>
<path d="M78.8379 93.0829C78.1161 94.7346 77.0088 96.0744 75.4733 97.0471C74.8676 97.4325 74.2375 97.7506 73.5462 97.9647C73.1975 98.0748 72.8611 98.2216 72.5001 98.2889C70.6526 98.6193 68.854 98.5092 67.1105 97.7567C65.2691 96.9614 63.8804 95.6584 62.8282 93.9883C62.8159 93.9638 62.7976 93.9393 62.7792 93.9148C62.3755 93.2664 62.0635 92.5629 61.9105 91.8899C61.5435 90.4462 61.9105 88.5864 62.871 87.4424C63.5378 86.6532 64.3698 86.1394 65.3364 85.7845C65.9543 85.5582 66.5722 85.5154 67.2084 85.5031C67.8568 85.4909 68.4625 85.6805 69.0437 85.9681C69.2455 86.0721 69.478 86.1271 69.686 86.2311C69.8634 86.3168 69.9735 86.2617 70.0837 86.121C70.2427 85.9253 70.4201 85.7478 70.5792 85.5521C71.1298 84.8669 71.8455 84.4509 72.6531 84.1389C73.3199 83.882 74.005 83.8269 74.6902 83.8453C74.8615 83.8453 75.0267 83.8575 75.1857 83.8759C76.293 83.9982 77.278 84.4326 78.0794 85.2584C78.1405 85.3196 78.2017 85.3808 78.2507 85.4481C79.0092 86.2923 79.4803 87.2956 79.5904 88.4457C79.7434 90.0546 79.4742 91.6085 78.8318 93.089L78.8379 93.0829Z" fill="#D46966"/>
<g style="mix-blend-mode:multiply" opacity="0.25">
<path d="M78.8378 93.0828C78.1159 94.7345 77.0086 96.0743 75.4731 97.047C74.8675 97.4324 74.2374 97.7505 73.5461 97.9646C73.1974 98.0747 72.8609 98.2215 72.5 98.2888C70.6524 98.6192 68.8539 98.5091 67.1103 97.7566C65.2689 96.9613 63.8802 95.6583 62.828 93.9882C62.8158 93.9637 62.7974 93.9392 62.7791 93.9148C64.2473 93.2908 65.8807 93.0399 67.459 92.9176C69.539 92.7585 72.8548 94.1411 74.5555 92.4955C75.3385 91.7369 75.7117 90.6479 76.0176 89.6018C76.507 87.944 77.2778 86.6837 78.2566 85.4541C79.0152 86.2983 79.4863 87.3016 79.5964 88.4517C79.7493 90.0607 79.4801 91.6145 78.8378 93.095V93.0828Z" fill="#B05F95"/>
</g>
<path d="M64.4064 88.0358C63.6356 89.1187 63.3542 90.5746 63.862 91.8287C63.9476 92.0673 63.5744 92.2019 63.4888 91.9633C62.8831 90.5991 63.2318 88.9657 64.1678 87.834C64.2963 87.6749 64.5349 87.8768 64.4064 88.0297V88.0358Z" fill="#202538"/>
<path d="M73.7359 89.4305C73.2894 89.5528 72.855 89.4733 72.4207 89.3693C72.1821 89.3081 72.1454 89.3265 72.1148 89.5651C72.0658 89.9382 71.9007 90.2625 71.7661 90.6051C71.5642 91.1189 70.5242 91.3698 70.1021 91.0027C69.8084 90.7458 69.5148 90.5072 69.3007 90.1707C69.1906 89.9994 69.1477 90.0055 68.9764 90.134C68.8663 90.2135 68.7684 90.3053 68.6583 90.3848C68.3402 90.6234 67.9854 90.7641 67.5939 90.8131C66.7741 90.9109 66.1073 90.2502 66.2235 89.4305C66.2969 88.9288 66.4805 88.4578 66.8353 88.0785C66.9148 87.9928 66.9148 87.9133 66.7925 87.8521C66.4071 87.6564 66.0828 87.3872 65.8748 86.9957C65.7831 86.8244 65.7158 86.6409 65.6913 86.4512C65.624 85.8945 65.9176 85.4663 66.4621 85.3256C66.8659 85.2216 67.2696 85.2827 67.6673 85.3867C67.912 85.4479 67.9303 85.4357 67.9548 85.1787C67.9732 84.9279 68.0099 84.6771 68.0894 84.4385C68.224 84.0348 68.4687 83.7166 68.8235 83.4964C69.4108 83.1355 70.2061 83.2823 70.7261 83.8145C70.9341 84.0225 71.0748 84.2795 71.2216 84.5242C71.2828 84.6282 71.3623 84.6404 71.4602 84.567C71.5642 84.4813 71.6682 84.3896 71.7783 84.3162C71.9985 84.1632 72.231 84.0286 72.5063 83.9613C73.1609 83.8084 73.6625 84.1143 73.8094 84.775C73.8889 85.1237 73.8522 85.4663 73.7054 85.7966C73.6381 85.9557 73.5647 86.1209 73.4607 86.2554C73.2894 86.4757 73.2465 86.5491 73.5585 86.6714C73.9745 86.8305 74.2621 87.1425 74.5251 87.479C74.727 87.7298 74.8065 88.0295 74.7698 88.3477C74.7086 88.9227 74.3599 89.2898 73.7298 89.4366L73.7359 89.4305Z" fill="#86AF9A"/>
<path d="M70.151 89.8221C70.1143 89.6508 70.0653 89.4856 70.0408 89.3143C70.0164 89.1553 70.0592 89.0084 70.1815 88.8983C70.3284 88.7637 70.4935 88.7393 70.6526 88.8494C70.7321 88.9044 70.8055 88.9717 70.8545 89.0513C71.0747 89.4 71.1604 89.7915 71.1787 90.2014C71.1787 90.3176 71.1359 90.4277 71.0625 90.5195C70.8789 90.7581 70.5608 90.7642 70.3773 90.5195C70.3406 90.4767 70.3039 90.4277 70.2855 90.3727C70.2244 90.1891 70.1754 90.0056 70.1265 89.8221C70.1326 89.8221 70.1387 89.8221 70.151 89.8221Z" fill="#BDDECD"/>
<path d="M74.158 87.956C74.2375 88.2497 74.005 88.5678 73.742 88.5739C73.6686 88.5739 73.5829 88.5739 73.5156 88.5433C73.2036 88.4026 72.8794 88.268 72.5858 88.0906C72.3288 87.9377 72.3105 87.6502 72.494 87.4422C72.5735 87.3504 72.6653 87.2892 72.7938 87.2953C73.2709 87.3259 73.693 87.4972 74.054 87.8092C74.109 87.8582 74.1457 87.9316 74.1641 87.956H74.158Z" fill="#BDDECD"/>
<path d="M68.328 88.7272C68.328 88.77 68.328 88.8495 68.2974 88.9168C68.1016 89.2961 67.8691 89.6448 67.5388 89.9262C67.3492 90.0853 67.1656 90.0792 66.9576 89.9262C66.7802 89.7978 66.7252 89.6265 66.823 89.4185C67.0127 89.0086 67.2819 88.6599 67.6979 88.458C67.9364 88.3418 68.2423 88.458 68.328 88.7272Z" fill="#BDDECD"/>
<path d="M72.5491 84.6589C72.9284 84.5671 73.1486 84.7629 73.063 85.0871C72.959 85.497 72.6653 85.7845 72.3533 86.0353C72.182 86.1699 71.9434 86.121 71.7722 85.9619C71.6314 85.8335 71.5947 85.6194 71.711 85.4358C71.8884 85.1605 72.1209 84.9281 72.3839 84.7262C72.4451 84.6834 72.5246 84.665 72.543 84.6528L72.5491 84.6589Z" fill="#BDDECD"/>
<path d="M66.7863 85.9558C66.8475 85.9558 66.9637 85.9375 67.0739 85.9619C67.3736 86.0292 67.655 86.1455 67.912 86.329C68.0466 86.4269 68.1322 86.5431 68.0955 86.7144C68.0527 86.8979 67.9548 87.0325 67.7713 87.0815C67.6856 87.1059 67.5755 87.1182 67.4898 87.0937C67.2023 86.9958 66.9148 86.8857 66.664 86.6961C66.6028 86.6532 66.5539 86.5859 66.511 86.5248C66.3336 86.2801 66.4376 86.0292 66.7863 85.9497V85.9558Z" fill="#BDDECD"/>
<path d="M70.1571 85.0505C70.1571 85.0505 70.1877 85.1667 70.1877 85.283C70.1877 85.4787 70.0226 85.699 69.8329 85.7601C69.6739 85.8152 69.4353 85.7295 69.3374 85.5521C69.1783 85.2463 69.056 84.922 69.0988 84.5672C69.1171 84.3837 69.215 84.243 69.3986 84.1879C69.5821 84.1328 69.735 84.1879 69.8635 84.3225C70.0348 84.4938 70.0837 84.7201 70.151 85.0566L70.1571 85.0505Z" fill="#BDDECD"/>
<path d="M70.3344 88.2926C70.0652 88.3966 69.7471 88.3843 69.4474 88.3476C68.5603 88.2436 68.2361 87.4973 68.6949 86.7326C68.8478 86.4756 69.0742 86.2921 69.3678 86.2126C69.7043 86.1269 70.0408 86.0352 70.3833 85.9862C70.9095 85.9128 71.4111 86.1942 71.6191 86.6469C71.8393 87.1241 71.7292 87.5523 71.3071 87.8704C71.0808 88.0356 70.6892 88.2069 70.3344 88.2926Z" fill="#202538"/>
</g>
</svg>
