<svg width="105" height="100" viewBox="0 0 105 100" fill="none" xmlns="http://www.w3.org/2000/svg">
<circle cx="50" cy="50" r="50" fill="#D9D9D9"/>
<path d="M56.4137 65.0725C53.1273 64.923 50.3702 64.2122 47.4516 63.4598C45.664 62.9991 43.8171 62.523 41.7674 62.1552C41.6828 62.1401 41.5972 62.1251 41.5117 62.1109C40.3889 61.9236 39.2459 61.8286 38.1148 61.8286C37.1974 61.8286 36.2718 61.8913 35.3638 62.0147C35.1687 62.0413 34.9702 62.0546 34.7734 62.0546C33.7172 62.0546 32.6983 61.6726 31.9042 60.9795C30.9601 60.1553 30.4191 58.9637 30.4191 57.7107V25.1406C30.4191 22.7441 32.3687 20.7949 34.7648 20.7949H90.6648C93.0613 20.7949 95.0105 22.7445 95.0105 25.1406V56.0898L93.4399 55.9196C93.2186 55.8956 92.9956 55.8831 92.7769 55.8822H92.7528C92.5495 55.8822 92.3433 55.8921 92.1409 55.9119L91.4082 55.9828L90.9274 55.4233C89.939 54.3374 88.6426 53.6559 87.1773 53.4531C86.9203 53.4174 86.6608 53.3976 86.4051 53.3942C86.3716 53.3938 86.3393 53.3933 86.3071 53.3933C85.629 53.3933 84.9621 53.5029 84.3253 53.7195L80.9177 54.8771L82.6193 51.7063C83.3365 50.3703 84.428 49.2986 85.776 48.6068C86.812 48.0748 87.9783 47.7933 89.1484 47.7933H89.2059V33.7593H89.1484C85.0648 33.7593 81.7423 30.4368 81.7423 26.3533V26.2957H43.6865V26.3533C43.6865 30.4368 40.364 33.7593 36.2804 33.7593H36.2228V47.7933H36.2804C40.364 47.7933 43.6865 51.1159 43.6865 55.1994V55.257H71.5482L63.4026 61.3778C61.4203 62.8663 59.2666 64.0764 57.0007 64.9741L56.7175 65.0862L56.4133 65.0725H56.4137Z" fill="#BB3138"/>
<path d="M87.9065 33.7724C84.74 33.2442 82.2579 30.7622 81.7303 27.5961L81.5326 26.4114H43.8967L43.699 27.5961C43.1713 30.7622 40.6893 33.2442 37.5227 33.7724L36.338 33.9696V47.5837L37.5227 47.7814C40.6893 48.3091 43.1713 50.7911 43.699 53.9577L43.8967 55.1424H71.7012L72.363 54.6456C72.4476 54.582 72.5336 54.5206 72.6208 54.4621C73.6542 53.7617 74.8488 53.3935 76.0963 53.3935C76.3842 53.3935 76.6764 53.4132 76.9639 53.4532C77.9295 53.5868 78.8215 53.9284 79.6156 54.469L80.0686 54.7771L80.6981 55.2055L81.2718 55.5962L81.3534 55.6516L81.3727 55.5618L81.509 54.9357L81.5695 54.6555L81.597 54.53L81.7994 53.5976C81.8532 53.35 81.9202 53.1034 81.9997 52.861C82.0263 52.7803 82.0538 52.7003 82.0831 52.6204C82.1372 52.4726 82.1978 52.3226 82.2627 52.1752C83.2927 49.8414 85.4026 48.1991 87.9065 47.7814L89.0912 47.5837V33.9696L87.9065 33.7724ZM88.2963 46.9104L87.7755 46.9972C85.0064 47.4591 82.6739 49.2747 81.5356 51.8542C81.4634 52.0175 81.3964 52.1838 81.3362 52.3484C81.3126 52.4128 81.2898 52.4777 81.2679 52.5431C81.2679 52.5431 81.2679 52.5433 81.2679 52.5439C81.1703 52.8335 81.0878 53.1305 81.023 53.4291L80.827 54.3315L80.4471 54.0733L80.0634 53.812C79.1675 53.2018 78.1611 52.8163 77.0735 52.6655C76.7469 52.6204 76.4207 52.5985 76.0967 52.5985C74.5833 52.5985 73.1162 53.0853 71.8855 54.0101L71.4365 54.3474H44.5704L44.4836 53.8266C43.8997 50.3257 41.1551 47.5812 37.6542 46.9972L37.1334 46.9104V34.6429L37.6542 34.5561C41.1551 33.9726 43.8997 31.228 44.4836 27.7267L44.5704 27.2063H80.8597L80.9465 27.7267C81.5304 31.228 84.275 33.9726 87.7759 34.5561L88.2967 34.6429V46.9104H88.2963Z" fill="white"/>
<path d="M88.2963 34.6429V46.9103L87.7755 46.9971C85.0064 47.4591 82.6739 49.2746 81.5356 51.8542C81.4634 52.0175 81.3964 52.1838 81.3362 52.3483C81.3126 52.4128 81.2898 52.4777 81.2679 52.543C81.2679 52.543 81.2679 52.5433 81.2679 52.5439C81.1704 52.8335 81.0879 53.1304 81.023 53.4291L80.827 54.3315L80.4472 54.0732L80.0634 53.8119C79.1675 53.2018 78.1611 52.8163 77.0735 52.6655C76.7469 52.6204 76.4207 52.5984 76.0967 52.5984C74.5833 52.5984 73.1163 53.0853 71.8856 54.01L71.4365 54.3474H44.5705L44.4837 53.8266C43.8997 50.3257 41.1551 47.5811 37.6542 46.9971L37.1334 46.9103V34.6429L37.6542 34.5561C41.1551 33.9726 43.8997 31.228 44.4837 27.7267L44.5705 27.2063H80.8597L80.9465 27.7267C81.5305 31.228 84.275 33.9726 87.7759 34.5561L88.2967 34.6429H88.2963Z" fill="white"/>
<path d="M91.162 55.3915L90.4986 54.9958L89.4673 54.3808C88.5163 53.8136 87.427 53.5137 86.3162 53.5137C86.2272 53.5137 86.137 53.5158 86.0476 53.5197C84.81 53.573 83.6335 53.9941 82.6447 54.7375L82.3113 54.988L81.9675 55.2463L81.6916 55.4534L80.7209 56.183L78.7687 57.6492L73.6848 61.4698C72.9152 62.0482 72.1073 62.5922 71.2831 63.0877L68.7139 64.3725L68.8234 64.4241L69.5939 64.7855L71.363 65.6157C71.8731 65.855 72.3445 66.1717 72.7643 66.5576C73.329 67.0767 73.7673 67.686 74.0664 68.3684L74.7402 69.9063L76.1432 68.9846C77.6605 67.9885 79.091 66.8318 80.3952 65.5465L88.3758 57.678C88.7131 57.3454 89.0865 57.0519 89.4862 56.8048L90.5179 56.1667L91.2024 55.7435L91.4723 55.5767L91.162 55.3915ZM89.0681 56.1285C88.6182 56.4069 88.197 56.7378 87.8176 57.1121L79.837 64.9806C78.5702 66.2289 77.1805 67.3526 75.707 68.3203L75.0904 68.7251L74.7943 68.0496C74.4505 67.2653 73.9486 66.5666 73.3023 65.9723C72.8228 65.5319 72.2839 65.1696 71.7008 64.8959L70.5367 64.3497L71.666 63.7851C72.5228 63.2712 73.3625 62.7061 74.1622 62.1053L79.2465 58.2848L81.4149 56.6557L82.0526 56.1766L83.1221 55.373C83.982 54.7268 85.0056 54.3602 86.082 54.3138C86.1602 54.3104 86.238 54.3086 86.3158 54.3086C87.2843 54.3086 88.2284 54.5673 89.0599 55.0632L89.9408 55.5892L89.0681 56.1285Z" fill="#DDDDDD"/>
<path d="M89.9408 55.5891L89.0681 56.1284C88.6182 56.4069 88.1971 56.7378 87.8176 57.112L79.837 64.9805C78.5702 66.2288 77.1805 67.3525 75.707 68.3202L75.0904 68.725L74.7943 68.0495C74.4506 67.2653 73.9487 66.5666 73.3024 65.9723C72.8228 65.5318 72.284 65.1696 71.7008 64.8959L70.5367 64.3497L71.666 63.785C72.5229 63.2711 73.3625 62.706 74.1622 62.1053L79.2466 58.2847L81.4149 56.6557L82.0526 56.1766L83.1222 55.373C83.982 54.7267 85.0056 54.3602 86.082 54.3138C86.1602 54.3103 86.238 54.3086 86.3158 54.3086C87.2844 54.3086 88.2284 54.5673 89.0599 55.0632L89.9408 55.5891Z" fill="#DDDDDD"/>
<path d="M81.1351 55.6425L80.5992 55.2798L80.0123 54.8823L79.5495 54.5686C78.8331 54.0835 78.0356 53.7603 77.1787 53.6091C76.8277 53.5467 76.4684 53.5154 76.1105 53.5154C74.9511 53.5154 73.8016 53.8488 72.8305 54.462C72.717 54.5334 72.6062 54.6086 72.4983 54.6876C72.4755 54.7044 72.4523 54.7216 72.4313 54.7375L70.8345 55.9372L63.4718 61.4694C62.9913 61.8303 62.4985 62.1767 62.0077 62.4981L59.0719 64.4215L58.0342 65.1013H58.72L66.8166 65.1034L67.0951 65.0239L67.1583 64.9969C67.3405 64.9251 67.5218 64.8516 67.7023 64.7756C67.9713 64.663 68.239 64.5457 68.5046 64.4236C70.2999 63.602 72.014 62.581 73.6156 61.3778L79.4897 56.9643L80.6181 56.113L81.1914 55.6807L81.1351 55.6425ZM79.011 56.3296L73.1381 60.7423C71.1941 62.2024 69.0804 63.3863 66.8557 64.2616L66.8282 64.2732L66.7053 64.3085L60.6975 64.3072L62.4435 63.1633C62.9484 62.8324 63.455 62.4766 63.9492 62.1049L72.9087 55.373C72.9284 55.3584 72.9482 55.3434 72.968 55.3292C73.8785 54.664 74.9872 54.3103 76.1105 54.3103C76.4203 54.3103 76.7318 54.337 77.0399 54.392C77.7859 54.5239 78.4808 54.8045 79.1038 55.2269L79.6345 55.5862L79.8253 55.7155L79.3879 56.0451L79.011 56.3296Z" fill="#B3B3B3"/>
<path d="M79.8254 55.7155L79.3879 56.0451L79.0111 56.3295L73.1382 60.7422C71.1942 62.2024 69.0804 63.3863 66.8558 64.2616L66.8283 64.2732L66.7054 64.3084L60.6976 64.3071L62.4435 63.1632C62.9484 62.8324 63.455 62.4766 63.9492 62.1049L72.9087 55.373C72.9285 55.3584 72.9482 55.3433 72.968 55.3291C73.8786 54.664 74.9872 54.3103 76.1105 54.3103C76.4203 54.3103 76.7319 54.3369 77.04 54.3919C77.7859 54.5239 78.4808 54.8045 79.1039 55.2269L79.6346 55.5861L79.8254 55.7155Z" fill="#B3B3B3"/>
<path d="M53.6107 88.5218C50.3625 88.5218 46.6614 88.4586 42.3759 88.3856H42.36C38.5467 88.3203 34.2251 88.2463 29.353 88.2047L28.5318 88.1978L28.1326 87.4883L19.018 71.702L24.6459 66.927C28.433 63.7136 33.217 61.9441 38.1166 61.9441C39.2437 61.9441 40.3794 62.0382 41.4924 62.2238C41.5779 62.238 41.6626 62.253 41.7476 62.2681C43.7948 62.6359 45.6396 63.1112 47.4233 63.571C50.705 64.4171 53.805 65.2159 57.6513 65.2159C57.6921 65.2159 58.4312 65.2159 69.0774 65.2189C70.3966 65.2189 71.6707 65.7161 72.6646 66.6189C73.6663 67.5286 74.2717 68.7477 74.3697 70.0519L74.3727 70.0944C74.3774 70.158 74.3804 70.2268 74.3822 70.3024L74.383 70.3321V70.3604C74.3469 72.5008 73.5193 73.2713 73.2473 73.5244C72.1094 74.5832 70.2002 74.7259 68.4831 74.7259C67.3314 74.7259 66.0251 74.649 64.6419 74.5673C63.0446 74.4736 61.2364 74.3671 59.3568 74.3671C56.0988 74.3671 53.2596 74.6979 50.6762 75.379C50.6461 75.3868 50.6272 75.419 50.6354 75.4491C50.6418 75.474 50.665 75.4921 50.69 75.4921C50.693 75.4921 50.6986 75.492 50.7054 75.4899C53.276 74.8122 56.1108 74.4831 59.3723 74.4831C61.254 74.4831 63.0502 74.5888 64.635 74.682C66.0062 74.7628 67.3014 74.8389 68.4538 74.8389C70.941 74.8389 72.3978 74.4706 73.3246 73.6082C73.9121 73.0616 74.2696 72.3229 74.4178 71.3501L74.4866 70.8989V70.1353L75.1797 69.7232C77.0885 68.5874 78.8701 67.2098 80.4751 65.628L88.4557 57.7595C89.6047 56.6264 91.1311 56.0024 92.7537 56.0024C94.3763 56.0024 95.9301 56.6371 97.083 57.7896C98.1139 58.8209 98.6326 60.0001 98.6235 61.2952C98.6098 63.262 97.456 65.5489 94.992 68.4925C92.9599 70.9203 90.3047 73.5029 87.494 76.2372L87.4252 76.3042C87.1579 76.5642 86.8894 76.8254 86.6199 77.088C84.5268 79.1274 82.2695 80.9593 79.9113 82.5325C75.1806 85.6887 70.9354 87.267 65.2598 87.9812C62.2492 88.3598 58.7651 88.5214 53.6103 88.5214L53.6107 88.5218Z" fill="white"/>
<path d="M20.8615 98.0887C19.9729 98.0887 19.1461 97.6134 18.7043 96.8477L6.45023 75.6229C6.11849 75.0484 6.0304 74.3789 6.20229 73.7373C6.37288 73.0975 6.78369 72.5616 7.35907 72.229L7.3681 72.2239L13.9994 68.1987L14.0196 68.1871C14.3909 67.9779 14.8111 67.8674 15.2348 67.8674C15.4527 67.8674 15.6706 67.8962 15.8824 67.9534C16.5223 68.1253 17.0577 68.5361 17.3894 69.1097L28.3604 88.1121L28.3823 88.1361L28.4618 88.2878L28.4885 88.3338L29.6444 90.3358C29.9757 90.9112 30.0638 91.5803 29.8919 92.221C29.72 92.8617 29.3092 93.3975 28.7351 93.7292L28.7261 93.7344L22.0935 97.7604L22.072 97.7724C21.7042 97.9791 21.2856 98.0887 20.8619 98.0887H20.8615Z" fill="#BB3138"/>
<g style="mix-blend-mode:multiply">
<path d="M17.8982 74.941C17.3822 74.0476 16.4205 73.4924 15.3883 73.4924C14.8817 73.4924 14.3811 73.6269 13.941 73.8809C13.2711 74.2676 12.7915 74.8924 12.5913 75.6397C12.3911 76.387 12.4938 77.1678 12.8805 77.8377L14.5912 80.801C15.1073 81.6944 16.069 82.2495 17.1011 82.2495C17.6078 82.2495 18.1084 82.1155 18.5484 81.8611C19.2183 81.4743 19.6979 80.8495 19.8981 80.1023C20.0984 79.355 19.9957 78.5742 19.6089 77.9043L17.8982 74.941ZM17.7539 80.4843C17.548 80.6029 17.3233 80.6596 17.1016 80.6596C16.6499 80.6596 16.2108 80.4254 15.9684 80.006L14.2577 77.0427C13.8968 76.4175 14.1112 75.6182 14.736 75.2577C14.9418 75.1391 15.1666 75.0824 15.3883 75.0824C15.8399 75.0824 16.2791 75.3166 16.5214 75.736L18.2321 78.6993C18.5931 79.3245 18.3787 80.1238 17.7539 80.4843Z" fill="#DDDDDD"/>
</g>
<path d="M15.9851 80.3385C15.2361 80.3385 14.5378 79.9359 14.1635 79.2874L12.4528 76.3241C12.1722 75.8381 12.0975 75.2713 12.2427 74.729C12.388 74.1867 12.736 73.7334 13.222 73.4528C13.5413 73.2684 13.9044 73.1709 14.2718 73.1709C15.0208 73.1709 15.7191 73.5735 16.0934 74.222L17.8041 77.1853C18.3833 78.1891 18.0383 79.4769 17.0349 80.0566C16.7156 80.241 16.3525 80.3385 15.9851 80.3385Z" fill="white"/>
<g style="mix-blend-mode:multiply">
<path d="M98.7619 58.3446C98.22 57.8032 97.603 57.3623 96.9219 57.0292V26.2571C96.9219 23.4223 94.6156 21.1165 91.7808 21.1165H35.8812C33.0464 21.1165 30.7401 23.4223 30.7401 26.2571V58.8272C30.7401 60.3101 31.3808 61.7196 32.4977 62.695C32.694 62.8665 32.9025 63.022 33.1195 63.16C32.685 63.2897 32.2536 63.4333 31.8256 63.591C29.4274 64.4749 27.2143 65.7692 25.248 67.4377L20.2577 71.6717L19.1942 69.8295C18.7563 69.0715 18.0494 68.5292 17.2042 68.3023C16.9262 68.2276 16.6387 68.1893 16.3512 68.1893C15.7913 68.1893 15.2361 68.3354 14.7454 68.6117L14.7372 68.6164L14.7144 68.6293L14.6921 68.6431L8.0814 72.6553L8.07753 72.6575C7.31823 73.0962 6.7755 73.8044 6.5499 74.6505C6.32344 75.4966 6.4399 76.3796 6.87777 77.1372L19.1319 98.3616C19.715 99.3722 20.8056 100 21.9774 100C22.5374 100 23.0908 99.8552 23.5781 99.5815L23.5854 99.5772L23.6095 99.5635L23.6331 99.5493L30.2442 95.5362L30.2477 95.5341C31.0057 95.0962 31.548 94.3889 31.7745 93.5432C32.0009 92.698 31.8853 91.8149 31.4483 91.0565L30.9077 90.1205C35.595 90.1627 39.7684 90.234 43.4635 90.2972H43.4717H43.4768C47.7662 90.3702 51.4708 90.4334 54.7254 90.4334C59.915 90.4334 63.4288 90.2701 66.4742 89.8868C69.4358 89.5142 71.9324 88.9251 74.331 88.033C76.7306 87.1405 78.9986 85.9579 81.4677 84.3104C83.8664 82.7097 86.1619 80.8469 88.2898 78.774C88.5545 78.5157 88.8188 78.2592 89.0813 78.0035L89.1054 77.9799L89.1626 77.9244C91.9896 75.1747 94.6586 72.5784 96.7169 70.1191C97.9734 68.6177 98.8861 67.302 99.5066 66.097C100.19 64.7705 100.525 63.5669 100.534 62.4174C100.544 60.9018 99.9475 59.5315 98.7602 58.3442L98.7619 58.3446ZM74.0251 56.4895C74.0449 56.4749 74.0646 56.4599 74.0844 56.4457C74.9949 55.7805 76.1036 55.4268 77.2269 55.4268C77.5367 55.4268 77.8482 55.4535 78.1563 55.5085C78.9023 55.6404 79.5972 55.921 80.2202 56.3434L80.7509 56.7027L80.9417 56.832L80.5043 57.1616L80.1274 57.4461L74.2545 61.8588C72.3105 63.3189 70.1968 64.5028 67.9722 65.3781L67.9446 65.3897L67.8218 65.425L61.8139 65.4237L63.5599 64.2798C64.0648 63.9489 64.5714 63.5931 65.0656 63.2214L74.0251 56.4895ZM72.7823 64.9016C73.6392 64.3876 74.4789 63.8226 75.2785 63.2218L80.3629 59.4013L82.5312 57.7722L83.1689 57.2931L84.2385 56.4895C85.0983 55.8432 86.1219 55.4767 87.1983 55.4303C87.2766 55.4268 87.3543 55.4251 87.4321 55.4251C88.4007 55.4251 89.3448 55.6838 90.1763 56.1797L91.0572 56.7057L90.1844 57.245C89.7345 57.5234 89.3134 57.8543 88.934 58.2286L80.9533 66.097C79.6865 67.3454 78.2969 68.469 76.8234 69.4368L76.2067 69.8416L75.9107 69.166C75.5669 68.3818 75.065 67.6831 74.4187 67.0888C73.9391 66.6484 73.4003 66.2861 72.8172 66.0124L71.6531 65.4662L72.7823 64.9016ZM82.4526 53.4648C82.429 53.5292 82.4062 53.5941 82.3843 53.6594C82.3843 53.6594 82.3843 53.6597 82.3843 53.6603C82.2867 53.9499 82.2042 54.2469 82.1393 54.5455L81.9434 55.4479L81.5635 55.1896L81.1798 54.9284C80.2838 54.3182 79.2775 53.9327 78.1898 53.7819C77.8633 53.7368 77.5371 53.7149 77.2131 53.7149C75.6997 53.7149 74.2326 54.2017 73.0019 55.1265L72.5529 55.4638H45.6868L45.6 54.943C45.016 51.4421 42.2715 48.6975 38.7706 48.1136L38.2498 48.0268V35.7593L38.7706 35.6725C42.2715 35.089 45.016 32.3444 45.6 28.8431L45.6868 28.3227H81.9761L82.0629 28.8431C82.6468 32.3444 85.3914 35.089 88.8923 35.6725L89.4131 35.7593V48.0268L88.8923 48.1136C86.1232 48.5755 83.7907 50.391 82.6524 52.9706C82.5802 53.1339 82.5132 53.3002 82.453 53.4648H82.4526ZM32.3301 58.8272V26.2571C32.3301 24.2989 33.923 22.7064 35.8812 22.7064H91.7808C93.739 22.7064 95.332 24.2989 95.332 26.2571V56.3206L94.6418 56.2459C94.393 56.2188 94.1421 56.2046 93.8958 56.2038H93.8701C93.6973 56.2038 93.5237 56.2102 93.351 56.2222L92.0915 55.4711L92.0906 55.4702C91.0602 54.5554 89.7994 53.9757 88.402 53.7819C88.1128 53.7419 87.8197 53.7196 87.5318 53.7157C87.4953 53.7157 87.4592 53.7149 87.4231 53.7149C86.6578 53.7149 85.9058 53.8386 85.1856 54.0831L83.7705 54.564C83.7955 54.4725 83.8217 54.3814 83.8505 54.2911C83.8505 54.2903 83.8505 54.2898 83.8505 54.289L84.4357 53.1988C85.076 52.0059 86.051 51.0485 87.2551 50.4306C88.1794 49.9562 89.2201 49.7052 90.2648 49.7052H91.1169V34.0813H90.2648C86.6191 34.0813 83.6536 31.1154 83.6536 27.4702V26.6176H44.0075V27.4702C44.0075 31.1154 41.0421 34.0813 37.3964 34.0813H36.5443V49.7052H37.3964C41.0421 49.7052 44.0075 52.6707 44.0075 56.3164V57.1685H70.2831L64.0411 61.8588C62.1156 63.3048 60.0238 64.48 57.8241 65.3519L57.6999 65.4009L57.5662 65.3949C54.3623 65.2492 51.6439 64.5484 48.7661 63.8067C46.9648 63.3426 45.1037 62.8626 43.0239 62.4892C42.9358 62.4733 42.8469 62.4582 42.7583 62.4432C41.5874 62.2477 40.4082 62.1501 39.2308 62.1501C38.2751 62.1501 37.3203 62.2146 36.3724 62.3435C36.2112 62.3654 36.0501 62.3762 35.8894 62.3762C35.0308 62.3762 34.1963 62.0676 33.5432 61.497C32.7718 60.824 32.3296 59.8507 32.3296 58.8272H32.3301ZM30.2404 93.132C30.1235 93.5677 29.8442 93.9321 29.4536 94.1577L29.4407 94.165L22.8094 98.1905L22.8003 98.1957C22.5408 98.3414 22.258 98.4106 21.9783 98.4106C21.3926 98.4106 20.8211 98.1068 20.5095 97.567L8.25543 76.3422C8.02983 75.9516 7.9701 75.4961 8.08698 75.06C8.20301 74.6247 8.48232 74.2603 8.87379 74.0338L8.88668 74.0265L15.518 70.0018L15.527 69.9967C15.7831 69.8527 16.0659 69.7788 16.3525 69.7788C16.4995 69.7788 16.6477 69.7982 16.7934 69.8373C17.2287 69.9541 17.5931 70.2334 17.8187 70.6241L19.3403 73.2603L28.8318 89.7003L28.8425 89.7119L28.8808 89.7849C28.8859 89.7944 28.8915 89.8043 28.8971 89.8133L28.9182 89.8494L30.0732 91.8497C30.2984 92.2407 30.3581 92.6958 30.2412 93.1315L30.2404 93.132ZM95.4995 69.0994C93.4932 71.4964 90.8522 74.0652 88.0561 76.7848L87.9985 76.8407C87.7273 77.1041 87.4549 77.3693 87.182 77.6352C85.1237 79.6407 82.9047 81.4416 80.5872 82.9877C75.9669 86.0701 71.8211 87.6115 66.2774 88.3089C63.0446 88.7154 59.3401 88.843 54.7271 88.843C51.4845 88.843 47.7937 88.7803 43.5005 88.7068C39.682 88.6415 35.3561 88.5676 30.4763 88.5259L30.1153 88.5229L29.94 88.2113L21.1545 72.9952L26.2763 68.6495C29.9538 65.529 34.5435 63.8552 39.233 63.8557C40.3124 63.8557 41.3979 63.9446 42.4777 64.1247C42.5594 64.1384 42.6415 64.1526 42.7227 64.1672C44.7406 64.5294 46.5707 65.0013 48.3407 65.4576C51.6727 66.3166 54.8199 67.1275 58.7673 67.1275C58.8081 67.1275 59.5472 67.1275 70.1933 67.1305C71.3149 67.1305 72.399 67.5542 73.246 68.3238C74.0964 69.0964 74.6104 70.1277 74.6929 71.2278L74.6954 71.2652C74.6993 71.318 74.7019 71.3752 74.7032 71.4384V71.4513V71.4641C74.6731 73.2659 74.032 73.8628 73.8214 74.0588C72.9921 74.8301 71.5143 75.0475 69.599 75.0475C68.4715 75.0475 67.1918 74.9723 65.8047 74.8907C64.1718 74.7948 62.3769 74.6891 60.4728 74.6891C57.6883 74.6891 54.6708 74.9152 51.5898 75.7273C51.1352 75.8472 50.8631 76.3143 50.983 76.7689C51.0819 77.1432 51.4201 77.4045 51.8064 77.4045C51.8794 77.4045 51.9529 77.395 52.0247 77.3761C54.9312 76.61 57.8125 76.3955 60.4887 76.3955C62.3468 76.3955 64.1065 76.4991 65.705 76.5932C67.0887 76.6744 68.3946 76.7513 69.5707 76.7513C72.277 76.7513 73.8957 76.3195 74.9833 75.3075C75.707 74.6341 76.1449 73.7442 76.321 72.587L76.3988 72.0765V71.7048L76.7035 71.5234C78.6673 70.3551 80.5 68.9379 82.1501 67.3114L90.1307 59.4429C91.1642 58.4237 92.5173 57.9149 93.8705 57.9149C95.2237 57.9149 96.6013 58.4335 97.6374 59.4696C98.5247 60.3569 98.9523 61.3182 98.945 62.4075C98.9325 64.1792 97.8376 66.3059 95.4991 69.1003L95.4995 69.0994Z" fill="#DDDDDD"/>
</g>
<path d="M90.6644 20H34.7649C31.93 20 29.6238 22.3058 29.6238 25.1407V57.7107C29.6238 59.1936 30.2645 60.6031 31.3813 61.5785C31.5777 61.75 31.7861 61.9056 32.0035 62.0435C32.3464 62.2622 32.713 62.4384 33.0959 62.5699C33.6313 62.7534 34.1976 62.8496 34.7735 62.8496C35.0055 62.8496 35.2406 62.8337 35.4709 62.8024C36.3436 62.6838 37.2331 62.6236 38.1149 62.6236C39.2025 62.6236 40.3013 62.7151 41.3807 62.8952C41.4606 62.9085 41.5436 62.9227 41.6278 62.9377C43.6479 63.3004 45.4797 63.7727 47.2519 64.2294C49.9518 64.9251 52.5133 65.5856 55.4976 65.8129C55.7868 65.8353 56.0799 65.8533 56.3777 65.8666L56.5113 65.8731L56.8525 65.8886L57.1696 65.7627L57.2938 65.7137C57.6887 65.5573 58.0798 65.3914 58.4678 65.2161C58.552 65.1787 58.6358 65.1404 58.7196 65.1013C59.182 64.8878 59.6392 64.6609 60.0904 64.4215C61.407 63.7241 62.6743 62.9188 63.8796 62.0138L70.1216 57.3231L71.9659 55.9373H71.9664L72.3905 55.6184L72.8395 55.2811L73.9293 54.4621H44.4484C44.0961 50.5276 40.9523 47.3839 37.0178 47.0315V34.5217C40.9523 34.1693 44.0961 31.0256 44.4484 27.0911H80.98C81.3328 31.0256 84.4762 34.1693 88.4106 34.5217V47.0324C87.3664 47.1273 86.3424 47.4225 85.4125 47.8999C83.9205 48.6657 82.7122 49.8517 81.9185 51.3303L81.2675 52.543C81.2675 52.543 81.2675 52.5434 81.2675 52.5438C81.1699 52.8335 81.0874 53.1304 81.0226 53.4291L80.8266 54.3314L80.4467 54.0732L80.3904 54.1776L80.0686 54.7771L80.0123 54.8823L79.6904 55.4818L79.6346 55.5862L79.8254 55.7156L79.3879 56.0451L79.2629 56.2785L79.2758 56.2742L80.329 55.9162L81.1351 55.6425L81.2718 55.5961L81.3728 55.5617L81.6916 55.4534L82.0792 55.3219L82.2511 55.2635L83.0835 54.9807L84.5806 54.4724C85.1349 54.2842 85.7159 54.1884 86.3067 54.1884C86.3347 54.1884 86.363 54.1888 86.3914 54.1892H86.394C86.6166 54.1922 86.843 54.2094 87.0678 54.2403C88.2383 54.4028 89.2859 54.9146 90.1157 55.7276C90.1892 55.7989 90.2614 55.8733 90.3314 55.9502L90.5179 56.1668L90.5364 56.1882L90.6833 56.3593L91.0426 56.7774L91.074 56.8139L91.8947 56.7344L92.217 56.703C92.394 56.6858 92.5737 56.6772 92.752 56.6772H92.7765C92.9664 56.6781 93.1611 56.6893 93.354 56.7099L94.0441 56.7847L95.8055 56.9755V25.1407C95.8055 22.3058 93.4993 20 90.6644 20ZM31.2137 57.7107V25.1407C31.2137 23.1825 32.8067 21.5899 34.7649 21.5899H90.6644C92.6226 21.5899 94.2156 23.1825 94.2156 25.1407V55.2042L93.5255 55.1294C93.2767 55.1024 93.0257 55.0882 92.7795 55.0873H92.7537C92.581 55.0873 92.4074 55.0938 92.2346 55.1058C92.1775 55.1101 92.1207 55.1148 92.064 55.1204L91.7417 55.1518L91.5226 54.8965C91.349 54.7053 91.1663 54.5248 90.9764 54.3555L90.9751 54.3547L90.9743 54.3538C89.9438 53.4389 88.683 52.8593 87.2856 52.6655C86.9964 52.6255 86.7034 52.6031 86.4154 52.5993C86.3789 52.5988 86.3428 52.5984 86.3067 52.5984C85.5414 52.5984 84.7894 52.7222 84.0692 52.9667L82.6542 53.4475L82.5721 53.4755L82.7341 53.1747C82.7341 53.1747 82.7341 53.1734 82.7341 53.1725L83.3194 52.0823C83.9596 50.8895 84.9347 49.9321 86.1387 49.3141C87.063 48.8397 88.1038 48.5888 89.1484 48.5888H90.0005V32.9649H89.1484C85.5027 32.9649 82.5373 29.999 82.5373 26.3537V25.5012H42.8912V26.3537C42.8912 29.999 39.9257 32.9649 36.28 32.9649H35.4279V48.5888H36.28C39.9257 48.5888 42.8912 51.5542 42.8912 55.1999V56.052H69.1668L62.9248 60.7423C60.9992 62.1883 58.9074 63.3636 56.7077 64.2355L56.5835 64.2845L56.4499 64.2784C53.2459 64.1328 50.5276 63.4319 47.6498 62.6902C45.8484 62.2261 43.9873 61.7461 41.9075 61.3727C41.8195 61.3568 41.7305 61.3418 41.642 61.3267C40.471 61.1312 39.2919 61.0337 38.1145 61.0337C37.1588 61.0337 36.204 61.0981 35.256 61.227C35.0949 61.249 34.9337 61.2597 34.773 61.2597C33.9145 61.2597 33.08 60.9512 32.4268 60.3805C31.6555 59.7076 31.2133 58.7343 31.2133 57.7107H31.2137Z" fill="#333333"/>
<path d="M88.558 33.075L88.0372 32.9882C85.2058 32.5159 82.9864 30.2965 82.5145 27.4655L82.4277 26.9447L82.206 25.6165H43.2233L43.0016 26.9447L42.9148 27.4655C42.443 30.2965 40.2235 32.5159 37.3921 32.9882L36.8713 33.075L35.5431 33.2963V48.2571L36.8718 48.4789L37.3921 48.5657C40.2235 49.0375 42.443 51.257 42.9148 54.0883L43.0016 54.6087L43.2233 55.9374H71.9668L72.3909 55.6186L72.84 55.2812C73.7918 54.5662 74.9176 54.1885 76.0963 54.1885C76.3482 54.1885 76.6034 54.2061 76.8552 54.2409C77.6983 54.3573 78.4765 54.6551 79.1684 55.1261L79.6905 55.4819L79.932 55.6461L80.0265 55.7105L80.329 55.9163L80.6182 56.1132L80.7209 56.1832L81.3122 56.5858L81.4149 56.6559L82.0526 56.1767L82.0917 55.9976L82.218 55.4162L82.2511 55.2636L82.3113 54.9882L82.3805 54.6693L82.4484 54.3573L82.5635 53.8249L82.5764 53.7665C82.5996 53.6599 82.6254 53.5534 82.6542 53.4476C82.6791 53.3561 82.7053 53.265 82.7341 53.1748C82.7341 53.1739 82.7341 53.1735 82.7341 53.1726C82.7638 53.0794 82.7951 52.987 82.8287 52.8955V52.8942L82.8299 52.8929C82.8776 52.7614 82.9314 52.6278 82.9894 52.4967C83.9111 50.4083 85.798 48.9391 88.0368 48.5657L88.5576 48.4789L89.8858 48.2571V33.2963L88.5576 33.075H88.558ZM81.3363 52.3484C81.3126 52.4129 81.2898 52.4778 81.2679 52.5431C81.2679 52.5431 81.2679 52.5434 81.2679 52.544C81.1704 52.8336 81.0879 53.1305 81.023 53.4292L80.827 54.3316L80.4472 54.0733L80.0635 53.812C79.1675 53.2018 78.1611 52.8164 77.0735 52.6656C76.7469 52.6204 76.4208 52.5985 76.0968 52.5985C74.5833 52.5985 73.1163 53.0854 71.8856 54.0101L71.4365 54.3475H44.5705L44.4837 53.8267C43.8997 50.3258 41.1551 47.5812 37.6543 46.9972L37.1335 46.9104V34.643L37.6543 34.5562C41.1551 33.9726 43.8997 31.2281 44.4837 27.7268L44.5705 27.2064H80.8597L80.9465 27.7268C81.5305 31.2281 84.2751 33.9726 87.7759 34.5562L88.2967 34.643V46.9104L87.7759 46.9972C85.0069 47.4592 82.6744 49.2747 81.5361 51.8543C81.4639 52.0176 81.3969 52.1839 81.3367 52.3484H81.3363Z" fill="#333333"/>
<path d="M92.4189 55.2158L92.2346 55.1058L90.9751 54.3547L90.9742 54.3538L90.7555 54.2236L89.8742 53.6981C88.8007 53.0574 87.57 52.7188 86.3157 52.7188C86.2156 52.7188 86.1142 52.7209 86.0141 52.7252C84.7765 52.7789 83.5935 53.1571 82.5635 53.8248C82.4285 53.9121 82.2962 54.0044 82.1668 54.102L81.597 54.53L81.3143 54.7423L81.2713 54.7745L80.6981 55.2055L80.5992 55.2798L80.0264 55.7104L79.2757 56.2742L78.2913 57.0137L73.2073 60.8343C72.4674 61.3899 71.6913 61.9137 70.8998 62.3907L69.8259 62.9274L66.891 64.3949L66.9516 64.4233L67.7023 64.7756L68.6464 65.2187L68.661 65.2255L69.8612 65.7889L71.0253 66.3355C71.4618 66.5405 71.8662 66.812 72.2263 67.1429C72.7093 67.5872 73.0836 68.1068 73.338 68.6877L73.634 69.3632L74.3469 70.9897L74.3895 71.0872L74.4664 71.0365L75.9631 70.0542L76.5797 69.6494C78.1404 68.6246 79.6118 67.4347 80.9529 66.1129L88.934 58.244C89.2287 57.9535 89.5553 57.6965 89.9042 57.4808L90.777 56.9415L91.0426 56.7774L92.2638 56.0224L92.4804 55.8883L93.0038 55.5647L92.4189 55.2158ZM79.2465 58.2848L81.4148 56.6558L82.0525 56.1766L83.1221 55.3731C83.9819 54.7268 85.0055 54.3603 86.082 54.3138C86.1602 54.3104 86.2379 54.3087 86.3157 54.3087C87.2843 54.3087 88.2284 54.5674 89.0599 55.0633L89.9408 55.5892L89.068 56.1285C88.6181 56.407 88.197 56.7379 87.8176 57.1121L79.8369 64.9806C78.5701 66.2289 77.1805 67.3526 75.707 68.3203L75.0903 68.7251L74.7943 68.0496C74.4505 67.2654 73.9486 66.5667 73.3023 65.9724C72.8227 65.5319 72.2839 65.1697 71.7008 64.8959L70.5367 64.3498L71.666 63.7851C72.5228 63.2712 73.3625 62.7061 74.1622 62.1054L79.2465 58.2848Z" fill="#333333"/>
<path d="M82.218 55.4158L82.0792 55.3217L81.9675 55.2461L81.509 54.9354L81.2713 54.7742L81.2542 54.7626L81.0522 54.626L80.717 54.3987L80.3904 54.1774L79.9955 53.9101C79.1859 53.3618 78.2848 52.9969 77.3167 52.8259C76.9209 52.7559 76.5149 52.7202 76.1105 52.7202C74.6486 52.7202 73.1996 53.1907 72.0299 54.0454C72.0033 54.0648 71.9775 54.0837 71.9526 54.1026L71.4743 54.4618L70.5693 55.1421L70.4164 55.2568L69.511 55.937L62.9944 60.8336C62.5273 61.1847 62.0486 61.5207 61.572 61.8331L59.8261 62.977L57.6221 64.4209L56.6136 65.0818L56.4486 65.1896L55.4976 65.8127L55.3708 65.8956L60.6971 65.8969L66.7049 65.8982H66.9284L67.1428 65.8368L67.2657 65.8015L67.3624 65.774L67.4548 65.7345L67.4608 65.7319C67.8643 65.5725 68.2648 65.4036 68.661 65.2253C68.6662 65.2231 68.6713 65.221 68.676 65.2184C68.9846 65.08 69.2905 64.9356 69.5939 64.7852C69.7718 64.6976 69.9488 64.6078 70.125 64.5158C71.5061 63.7961 72.8335 62.9594 74.093 62.0136L79.9663 57.6005L79.9676 57.5996L79.9685 57.5987L80.7828 56.9847L81.3122 56.5855L82.0917 55.9972L82.5575 55.6457L82.218 55.4158ZM79.0111 56.3294L73.1382 60.7421C71.1942 62.2022 69.0804 63.3861 66.8558 64.2614L66.8283 64.273L66.7054 64.3083L60.6976 64.307L62.4435 63.1631C62.9484 62.8322 63.455 62.4764 63.9492 62.1047L72.9087 55.3728C72.9285 55.3582 72.9482 55.3432 72.968 55.329C73.8786 54.6638 74.9872 54.3102 76.1105 54.3102C76.4203 54.3102 76.7319 54.3368 77.04 54.3918C77.7859 54.5237 78.4808 54.8043 79.1039 55.2267L79.6346 55.586L79.8254 55.7153L79.3879 56.0449L79.0111 56.3294Z" fill="#333333"/>
<path d="M92.7541 56.7978C94.1198 56.7978 95.485 57.3164 96.521 58.3525C97.4084 59.2398 97.8359 60.2011 97.8286 61.2904C97.8162 63.0621 96.7213 65.1888 94.3828 67.9832C92.3764 70.3801 89.7354 72.9489 86.9393 75.6686L86.8817 75.7245C86.6105 75.9879 86.3381 76.253 86.0652 76.519C84.0069 78.5245 81.7879 80.3254 79.4704 81.8715C74.8502 84.9538 70.7043 86.4952 65.1606 87.1926C61.9279 87.5991 58.2233 87.7268 53.6103 87.7268C50.3677 87.7268 46.6769 87.664 42.3837 87.5905C38.5653 87.5252 34.2393 87.4513 29.3595 87.4096L28.9986 87.4066L28.8232 87.0951L20.0378 71.879L25.1595 67.5333C28.837 64.4127 33.4267 62.739 38.1158 62.7394C39.1952 62.7394 40.2807 62.8284 41.3605 63.0084C41.4422 63.0222 41.5243 63.0363 41.6055 63.0509C43.6234 63.4132 45.4535 63.885 47.2235 64.3414C50.5555 65.2004 53.7027 66.0112 57.6501 66.0112C57.6909 66.0112 58.43 66.0112 69.0761 66.0142C70.1977 66.0142 71.2818 66.4379 72.1288 67.2076C72.9792 67.9802 73.4931 69.0115 73.5756 70.1116L73.5782 70.1489C73.5821 70.2018 73.5847 70.2589 73.586 70.3221V70.335V70.3479C73.5559 72.1497 72.9148 72.7465 72.7042 72.9425C71.8748 73.7138 70.3971 73.9313 68.4818 73.9313C67.3543 73.9313 66.0746 73.8561 64.6875 73.7744C63.0546 73.6786 61.2597 73.5729 59.3556 73.5729C56.5711 73.5729 53.5536 73.7989 50.4726 74.6111C50.018 74.731 49.7459 75.1981 49.8658 75.6527C49.9647 76.027 50.3028 76.2882 50.6892 76.2882C50.7622 76.2882 50.8357 76.2788 50.9075 76.2599C53.814 75.4937 56.6953 75.2793 59.3715 75.2793C61.2296 75.2793 62.9893 75.3828 64.5878 75.4769C65.9715 75.5582 67.2774 75.6351 68.4535 75.6351C71.1598 75.6351 72.7785 75.2032 73.8661 74.1912C74.5898 73.5179 75.0276 72.6279 75.2038 71.4707L75.2816 70.9602V70.5885L75.5863 70.4072C77.5501 69.2388 79.3828 67.8216 81.0329 66.1952L89.0135 58.3267C90.047 57.3074 91.4001 56.7986 92.7533 56.7986L92.7541 56.7978ZM92.7541 55.2078C91.8642 55.2078 90.9962 55.3746 90.1742 55.7033C89.3207 56.0445 88.555 56.546 87.8984 57.1935L79.9178 65.062C78.4164 66.5419 76.756 67.8375 74.9791 68.9165C74.6843 67.8229 74.0724 66.8234 73.1992 66.0301C72.0588 64.9941 70.5952 64.4234 69.0774 64.4234C58.7304 64.4209 57.7313 64.4204 57.6514 64.4204C53.9056 64.4204 50.8533 63.6336 47.6214 62.8009C45.8235 62.3376 43.9646 61.8585 41.8878 61.4855C41.7997 61.4696 41.7107 61.4541 41.6235 61.4395C40.4672 61.2466 39.2876 61.149 38.1166 61.1486C35.5865 61.1486 33.0942 61.5942 30.7092 62.4734C28.311 63.3573 26.098 64.6516 24.1316 66.3202L19.0099 70.6659L17.9984 71.5244L18.6618 72.6735L27.4426 87.8819L27.6136 88.1857L28.0652 88.9884L28.9861 88.9961L29.3471 88.9991C34.2161 89.0408 38.5369 89.1147 42.3493 89.1796H42.3575H42.3626C46.652 89.2527 50.3566 89.3158 53.6112 89.3158C58.8008 89.3158 62.3146 89.1525 65.36 88.7692C68.3216 88.3967 70.8182 87.8075 73.2168 86.9155C75.6164 86.0229 77.8844 84.8404 80.3535 83.1929C82.7526 81.5922 85.0477 79.7294 87.1756 77.6564C87.4403 77.3982 87.7046 77.1416 87.9671 76.886L87.9912 76.8623L88.0484 76.8069C90.8754 74.0572 93.5444 71.4608 95.6027 69.0016C96.8592 67.5002 97.7719 66.1844 98.3924 64.9795C99.0757 63.653 99.4113 62.4493 99.4194 61.2999C99.4297 59.7843 98.8333 58.4139 97.646 57.2266C96.9877 56.5683 96.2176 56.0587 95.3573 55.711C94.5284 55.3763 93.6531 55.2065 92.7546 55.2065L92.7541 55.2078Z" fill="#333333"/>
<path d="M15.2352 68.6627C15.3822 68.6627 15.5305 68.682 15.6761 68.7211C16.1114 68.838 16.4758 69.1173 16.7014 69.5079L18.223 72.1442L27.7145 88.5842L27.7253 88.5958L27.7635 88.6688C27.7687 88.6783 27.7743 88.6882 27.7798 88.6972L27.8009 88.7333L28.956 90.7336C29.1811 91.1246 29.2409 91.5797 29.124 92.0154C29.0071 92.4511 28.7278 92.8155 28.3372 93.0411L28.3243 93.0484L21.693 97.074L21.6839 97.0791C21.4244 97.2248 21.1416 97.294 20.8619 97.294C20.2762 97.294 19.7047 96.9902 19.3931 96.4505L7.13903 75.2257C6.91343 74.8351 6.8537 74.3796 6.97059 73.9434C7.08661 73.5081 7.36592 73.1437 7.75739 72.9173L7.77028 72.91L14.4016 68.8853L14.4106 68.8801C14.6663 68.7362 14.9495 68.6623 15.2361 68.6623L15.2352 68.6627ZM15.2352 67.0728C14.6753 67.0728 14.1201 67.2189 13.6294 67.4952L13.6212 67.4999L13.5985 67.5128L13.5761 67.5265L6.96543 71.5388L6.96156 71.5409C6.20226 71.9796 5.65953 72.6878 5.43393 73.5339C5.20748 74.38 5.32393 75.2631 5.76181 76.0207L18.0159 97.245C18.599 98.2557 19.6896 98.8835 20.8615 98.8835C21.4214 98.8835 21.9749 98.7387 22.4622 98.465L22.4695 98.4607L22.4935 98.4469L22.5172 98.4327L29.1283 94.4197L29.1317 94.4175C29.8897 93.9796 30.432 93.2723 30.6585 92.4266C30.8849 91.5814 30.7694 90.6983 30.3323 89.9399L29.1764 87.9383L29.1756 87.9366L29.1743 87.9349L29.1558 87.9026L29.1321 87.8579L29.0376 87.6779L29.005 87.6418L19.5985 71.3497L18.0769 68.7138C17.6391 67.9558 16.9322 67.4135 16.0869 67.1866C15.8089 67.1119 15.5214 67.0736 15.234 67.0736L15.2352 67.0728Z" fill="#333333"/>
<path d="M14.2718 73.9659C14.7235 73.9659 15.1626 74.2001 15.405 74.6195L17.1157 77.5828C17.4766 78.208 17.2622 79.0073 16.6374 79.3678C16.4316 79.4864 16.2068 79.5432 15.9851 79.5432C15.5335 79.5432 15.0943 79.309 14.852 78.8896L13.1413 75.9263C12.7803 75.301 12.9947 74.5018 13.6195 74.1412C13.8254 74.0226 14.0501 73.9659 14.2718 73.9659ZM14.2718 72.376C13.7652 72.376 13.2646 72.5105 12.8246 72.7644C12.1546 73.1512 11.6751 73.776 11.4748 74.5232C11.2746 75.2705 11.3773 76.0513 11.764 76.7212L13.4747 79.6845C13.9908 80.5779 14.9525 81.1331 15.9847 81.1331C16.4913 81.1331 16.9919 80.999 17.4319 80.7446C18.1019 80.3579 18.5814 79.7331 18.7817 78.9858C18.9819 78.2385 18.8792 77.4578 18.4925 76.7878L16.7818 73.8245C16.2657 72.9312 15.304 72.376 14.2718 72.376Z" fill="#333333"/>
<path d="M97.3404 98.0887C97.3404 98.5278 96.9842 98.8836 96.5454 98.8836H8.19524C7.75736 98.8836 7.40027 98.5278 7.40027 98.0887C7.40027 97.6495 7.75736 97.2937 8.19524 97.2937H96.5454C96.9842 97.2937 97.3404 97.6495 97.3404 98.0887Z" fill="#333333"/>
<path d="M4.91573 98.8836H1.29497C0.855802 98.8836 0.5 98.5278 0.5 98.0887C0.5 97.6495 0.855802 97.2937 1.29497 97.2937H4.91573C5.35489 97.2937 5.71069 97.6495 5.71069 98.0887C5.71069 98.5278 5.35489 98.8836 4.91573 98.8836Z" fill="#333333"/>
<path d="M17.1664 94.9879H13.5456C13.1065 94.9879 12.7507 94.6321 12.7507 94.1929C12.7507 93.7538 13.1065 93.3979 13.5456 93.3979H17.1664C17.6056 93.3979 17.9614 93.7538 17.9614 94.1929C17.9614 94.6321 17.6056 94.9879 17.1664 94.9879Z" fill="#333333"/>
<path d="M10.2661 94.9879H6.64531C6.20614 94.9879 5.85034 94.6321 5.85034 94.1929C5.85034 93.7538 6.20614 93.3979 6.64531 93.3979H10.2661C10.7052 93.3979 11.061 93.7538 11.061 94.1929C11.061 94.6321 10.7052 94.9879 10.2661 94.9879Z" fill="#333333"/>
<path d="M85.6256 94.9879H82.0048C81.5656 94.9879 81.2098 94.6321 81.2098 94.1929C81.2098 93.7538 81.5656 93.3979 82.0048 93.3979H85.6256C86.0647 93.3979 86.4205 93.7538 86.4205 94.1929C86.4205 94.6321 86.0647 94.9879 85.6256 94.9879Z" fill="#333333"/>
<path d="M92.526 94.9879H88.9056C88.4665 94.9879 88.1107 94.6321 88.1107 94.1929C88.1107 93.7538 88.4665 93.3979 88.9056 93.3979H92.526C92.9651 93.3979 93.3209 93.7538 93.3209 94.1929C93.3209 94.6321 92.9651 94.9879 92.526 94.9879Z" fill="#333333"/>
<path d="M103.446 98.8836H99.8259C99.3867 98.8836 99.0309 98.5278 99.0309 98.0887C99.0309 97.6495 99.3867 97.2937 99.8259 97.2937H103.446C103.885 97.2937 104.241 97.6495 104.241 98.0887C104.241 98.5278 103.885 98.8836 103.446 98.8836Z" fill="#333333"/>
<path d="M57 49L52.6828 44.6828C52.6153 44.6153 52.6681 44.4988 52.7634 44.4956C59.999 44.2526 59.9112 34 52.5 34H61.5" stroke="#BB3138" stroke-width="3" stroke-linecap="round" stroke-linejoin="round"/>
<path d="M52.5 39.2549H61.5" stroke="#BB3138" stroke-width="3" stroke-linecap="round" stroke-linejoin="round"/>
</svg>
