<svg width="25" height="25" viewBox="0 0 25 25" fill="none" xmlns="http://www.w3.org/2000/svg">
<path d="M25 4.46429V7.14286H0V4.46429C0 3.75388 0.282206 3.07258 0.784535 2.57025C1.28687 2.06792 1.96817 1.78571 2.67857 1.78571H3.57143V0.892857C3.57143 0.656057 3.6655 0.428955 3.83294 0.261512C4.00038 0.0940686 4.22749 0 4.46429 0C4.70109 0 4.92819 0.0940686 5.09563 0.261512C5.26307 0.428955 5.35714 0.656057 5.35714 0.892857V1.78571H19.6429V0.892857C19.6429 0.656057 19.7369 0.428955 19.9044 0.261512C20.0718 0.0940686 20.2989 0 20.5357 0C20.7725 0 20.9996 0.0940686 21.1671 0.261512C21.3345 0.428955 21.4286 0.656057 21.4286 0.892857V1.78571H22.3214C23.0318 1.78571 23.7131 2.06792 24.2155 2.57025C24.7178 3.07258 25 3.75388 25 4.46429ZM0 8.92857H25V22.3214C24.9979 23.0312 24.715 23.7113 24.2131 24.2131C23.7113 24.715 23.0312 24.9979 22.3214 25H2.67857C1.96882 24.9979 1.28875 24.715 0.786877 24.2131C0.285006 23.7113 0.00211972 23.0312 0 22.3214V8.92857ZM16.9643 13.3929C16.9643 13.6297 17.0584 13.8568 17.2258 14.0242C17.3932 14.1916 17.6203 14.2857 17.8571 14.2857H19.6429C19.8797 14.2857 20.1068 14.1916 20.2742 14.0242C20.4416 13.8568 20.5357 13.6297 20.5357 13.3929C20.5357 13.1561 20.4416 12.929 20.2742 12.7615C20.1068 12.5941 19.8797 12.5 19.6429 12.5H17.8571C17.6203 12.5 17.3932 12.5941 17.2258 12.7615C17.0584 12.929 16.9643 13.1561 16.9643 13.3929ZM16.9643 16.9643C16.9643 17.2011 17.0584 17.4282 17.2258 17.5956C17.3932 17.7631 17.6203 17.8571 17.8571 17.8571H19.6429C19.8797 17.8571 20.1068 17.7631 20.2742 17.5956C20.4416 17.4282 20.5357 17.2011 20.5357 16.9643C20.5357 16.7275 20.4416 16.5004 20.2742 16.3329C20.1068 16.1655 19.8797 16.0714 19.6429 16.0714H17.8571C17.6203 16.0714 17.3932 16.1655 17.2258 16.3329C17.0584 16.5004 16.9643 16.7275 16.9643 16.9643ZM16.9643 20.5357C16.9643 20.7725 17.0584 20.9996 17.2258 21.1671C17.3932 21.3345 17.6203 21.4286 17.8571 21.4286H19.6429C19.8797 21.4286 20.1068 21.3345 20.2742 21.1671C20.4416 20.9996 20.5357 20.7725 20.5357 20.5357C20.5357 20.2989 20.4416 20.0718 20.2742 19.9044C20.1068 19.7369 19.8797 19.6429 19.6429 19.6429H17.8571C17.6203 19.6429 17.3932 19.7369 17.2258 19.9044C17.0584 20.0718 16.9643 20.2989 16.9643 20.5357ZM10.7143 13.3929C10.7143 13.6297 10.8084 13.8568 10.9758 14.0242C11.1432 14.1916 11.3703 14.2857 11.6071 14.2857H13.3929C13.6297 14.2857 13.8568 14.1916 14.0242 14.0242C14.1916 13.8568 14.2857 13.6297 14.2857 13.3929C14.2857 13.1561 14.1916 12.929 14.0242 12.7615C13.8568 12.5941 13.6297 12.5 13.3929 12.5H11.6071C11.3703 12.5 11.1432 12.5941 10.9758 12.7615C10.8084 12.929 10.7143 13.1561 10.7143 13.3929ZM10.7143 16.9643C10.7143 17.2011 10.8084 17.4282 10.9758 17.5956C11.1432 17.7631 11.3703 17.8571 11.6071 17.8571H13.3929C13.6297 17.8571 13.8568 17.7631 14.0242 17.5956C14.1916 17.4282 14.2857 17.2011 14.2857 16.9643C14.2857 16.7275 14.1916 16.5004 14.0242 16.3329C13.8568 16.1655 13.6297 16.0714 13.3929 16.0714H11.6071C11.3703 16.0714 11.1432 16.1655 10.9758 16.3329C10.8084 16.5004 10.7143 16.7275 10.7143 16.9643ZM10.7143 20.5357C10.7143 20.7725 10.8084 20.9996 10.9758 21.1671C11.1432 21.3345 11.3703 21.4286 11.6071 21.4286H13.3929C13.6297 21.4286 13.8568 21.3345 14.0242 21.1671C14.1916 20.9996 14.2857 20.7725 14.2857 20.5357C14.2857 20.2989 14.1916 20.0718 14.0242 19.9044C13.8568 19.7369 13.6297 19.6429 13.3929 19.6429H11.6071C11.3703 19.6429 11.1432 19.7369 10.9758 19.9044C10.8084 20.0718 10.7143 20.2989 10.7143 20.5357ZM4.46429 13.3929C4.46429 13.6297 4.55835 13.8568 4.7258 14.0242C4.89324 14.1916 5.12034 14.2857 5.35714 14.2857H7.14286C7.37966 14.2857 7.60676 14.1916 7.7742 14.0242C7.94165 13.8568 8.03571 13.6297 8.03571 13.3929C8.03571 13.1561 7.94165 12.929 7.7742 12.7615C7.60676 12.5941 7.37966 12.5 7.14286 12.5H5.35714C5.12034 12.5 4.89324 12.5941 4.7258 12.7615C4.55835 12.929 4.46429 13.1561 4.46429 13.3929ZM4.46429 16.9643C4.46429 17.2011 4.55835 17.4282 4.7258 17.5956C4.89324 17.7631 5.12034 17.8571 5.35714 17.8571H7.14286C7.37966 17.8571 7.60676 17.7631 7.7742 17.5956C7.94165 17.4282 8.03571 17.2011 8.03571 16.9643C8.03571 16.7275 7.94165 16.5004 7.7742 16.3329C7.60676 16.1655 7.37966 16.0714 7.14286 16.0714H5.35714C5.12034 16.0714 4.89324 16.1655 4.7258 16.3329C4.55835 16.5004 4.46429 16.7275 4.46429 16.9643ZM4.46429 20.5357C4.46429 20.7725 4.55835 20.9996 4.7258 21.1671C4.89324 21.3345 5.12034 21.4286 5.35714 21.4286H7.14286C7.37966 21.4286 7.60676 21.3345 7.7742 21.1671C7.94165 20.9996 8.03571 20.7725 8.03571 20.5357C8.03571 20.2989 7.94165 20.0718 7.7742 19.9044C7.60676 19.7369 7.37966 19.6429 7.14286 19.6429H5.35714C5.12034 19.6429 4.89324 19.7369 4.7258 19.9044C4.55835 20.0718 4.46429 20.2989 4.46429 20.5357Z" fill="white"/>
</svg>
